<?xml version="1.0" encoding="utf-8"?>
<!-- Generator: Adobe Illustrator 17.1.0, SVG Export Plug-In . SVG Version: 6.00 Build 0)  -->
<!DOCTYPE svg PUBLIC "-//W3C//DTD SVG 1.1//EN" "http://www.w3.org/Graphics/SVG/1.1/DTD/svg11.dtd">
<svg version="1.1" id="Layer_1" xmlns="http://www.w3.org/2000/svg" xmlns:xlink="http://www.w3.org/1999/xlink" x="0px" y="0px"
	 width="133.2px" height="133.2px" viewBox="0 0 133.2 133.2" enable-background="new 0 0 133.2 133.2" xml:space="preserve">
<path d="M104.9,42.9c-4.8-7.4-11.6-13.3-19.7-17C93.3,29.5,100.2,35.4,104.9,42.9L104.9,42.9z M55.6,23.9c-0.9,0.7-1.8,1.6-2.8,2
	c-0.5,0.2-3.1,0.8-3.3,1.6c0.4,1.2,0,1.2-1,3.1c-1.1,0.5-3,0.2-3.9,1c-0.7,2-2.5,3.8-3.6,5.5c2.9,0.5-0.5,2.6-2.1,3.8
	c-1.6,1.3-2.2,2.9-3.4,4.4c-0.8,1-1.9,1-2.6,2c-1.3,1.7-3.7,3.8-4.3,5.9c-1.6,1.4-1.7,5-2.3,7c-1.4,4.9-0.1,10.6,4,14.3l6.3-0.7
	c1.9-1.4,4.3-2,5.6,0.2c1.2,2.1,2.5-0.2,3.7,0.8c0,1.3,1.4,2.9,1.1,4.5c-2.3,2.4,3.5,7,4.8,9.1c0.8,1.2,2.4,4.5,2.2,5.9
	c-2.2,2.2-0.2,5.2,1.3,6.9c2.4,2.8,4.8,5.8,7,8.7c1.7,0.2,3.4,0.3,5.2,0.3c1,0,1.9-0.1,2.9-0.1c1.4-0.8,2.6-1.9,3.5-4
	c0.3-1.3,3.1-1.6,2.4-3.8c-0.7-2.2,1.1-3.4,3.1-4.6c2.8-1.6,3.6-3.5,3.2-6.7c0.8-1.1-2.1-5.2-1.1-7.2c1.3-2.5,2.3-4.1,4-6.4
	c2.9-4,5.1-6.1,6.5-10.9c0.7-2.4,0.7-3,0.5-5.2c-1.6-0.4-5.3,3.7-7.2,2.4c-1.4-1-3-5.7-5.6-5.5c-1.6-0.6-3.5-5.4-4.5-7.4
	c-1.2-2.4-3.8-4-4.5-7c1,0,6.9,4.4,6.5,6.7c0.5,1.3,3.2,4.6,4.5,5c0.9,1.7,1.1,4,2.2,5.6c0.9,1.3,7.5-3.5,8.3-4.4
	c-0.2-1.4,1.1-1.9,2.1-2.1c0.4-1,0.3-1.2,0.9-2.1c0.6-0.9-0.1-2,0.8-2c0.2-1.2-0.3-2.6-1.3-3.6c-0.8-0.8-1.9-0.5-2.8-1.3l-1.2-1.9
	c-0.3,0.7,0.1,3.3-1.5,2.7c-2.1,0.7-1-1.2-2.5-2c-0.1,2.3-0.8-0.3-1.9-0.9c-0.8-0.4-2.4-1.9-2.4-2.8c2.3,0.1,3.4,2.2,5.9,3l1.5-0.4
	c0.8-1.1,1.3,0.8,1.8,1.1c2.3,1.3,4.7-0.5,6.9-0.3c1.3,0.9,2.4,2.5,3.9,2.3c0.6,1.2-0.5,0.3-0.4,0.6c0.6,0.9,1.4,1.4,2.3,1.7
	l-0.1-1.7c1.9,1.5,2.7,4.8,4,6.8c0.7,1.1,1.6,3.4,2.6,5.3c-1-5.9-3.1-11.4-6.1-16.2c4.8,7.3,7.5,16,7.5,25.4
	c0,25.8-20.9,46.7-46.8,46.7c-25.8,0-46.7-20.9-46.7-46.7c0-25.8,20.9-46.7,46.7-46.7c7,0,13.6,1.5,19.5,4.3
	c-5.4-2.4-11.4-3.7-17.7-3.7C63.4,22.2,59.4,22.8,55.6,23.9L55.6,23.9z M83.8,101.2c-0.7,0.9-1,3.5,1,2.7c3.6-1.5,3.6-7.6,6.2-9.8
	l0.2,0.4l0.4-1.9l0-0.1l-0.3-1.9c-0.7,0.3-1.7,2.4-2.3,3.2c-1.5,2-4.9,2.1-4,5.4c-0.3-0.7-0.5-1.3-0.5-2.1L84,97.5l0,0
	c-0.7-1.1,1.3-3.7,1-5.1l-1.1,2.1c-0.1-0.3-0.5,0.2-1.2,0.3c0,0.9,0.6,2.6,1.3,2.7v0l0,0l0.1,0.1C83.4,98.9,84.9,99.8,83.8,101.2
	L83.8,101.2z M72.2,30.6C72.4,30.4,71.4,30.4,72.2,30.6c-0.4-0.1-3.3,0-3.2-0.8c-1.3,0.2-2.7,2-4.1,0.8c-0.7-1.2,0.9-2,0.5-3.2
	c1.3-1.5,0.4,0,1.8-0.5l-0.4,0.5C66.9,27.4,74.7,29,72.2,30.6L72.2,30.6z M68.9,40.4c-0.6-0.4-1.2-0.6-2,0.2
	c-1.1,1.1-2.5-0.4-3.9-0.1c1.4-0.3-0.1-0.6,0,0c-0.1-1-3.4-1.1-4-0.5c-1.9,1.8,0.4,2.4-2.6,1.7c-1.8-0.4-1.1-2.1-3.5-1.6l-1.3-0.8
	c0-1.2,1.4-2.2,1.6-3.4c-1.8-1.7-9,4.2-10.9,2.7l5.4-4.7c1.1-2.1,3.8-2.7,5.3-3.6c1.6-1,2.3,0.6,3.2,2c1.7,2.8-2,1.5-1.9,3
	c1.9,0.7,1.8,0.2,3-1.2c0.8-0.9-0.2-2,1.2-1.2c0.8-0.7-4.6-3.9-1.6-4.7c-0.6,0.7,3.7,2.9,2.3,4c1.5,1.9,0.6,3.3,2.3,3.6
	c0-1-0.1-0.8,0.1-1.5l0.5,0.2c0.2-0.9-1.1-1.5-0.7-2.5c1.2,0.2,0.5,0.6,0.7-0.3h1.6c-1,1.3,0.9,0.7-0.1,1.9c0.3,0.8,1.1,0.9,1,1.5
	c0,0.5,5.2,0,6.1-0.6C70.6,34.9,71.5,42.3,68.9,40.4L68.9,40.4z M52.1,34.2L53,34c0.2-1,1.1-2.4,1.1-3.4
	C53.4,30.7,52.3,33.4,52.1,34.2L52.1,34.2z M82.6,33.4c-1,0.4-1.9,0.3-2.7-0.4c-1.1,0.1-2-2.1-1.3-2.3c-0.2-0.9-3.3-2.5-4-3.4
	c0-1.2,2-2.8,2.5-0.9l-0.8,0.8C77.8,28,82.3,31.6,82.6,33.4L82.6,33.4z M79.8,26.2l0.1-0.7c0.8,0.2,1.5,1.9,2.3,2
	C81.3,28.4,80.1,26.6,79.8,26.2L79.8,26.2z M48.5,30.7l0.1-0.1l0.7-0.5L48.5,30.7L48.5,30.7z"/>
</svg>
