<?xml version="1.0" encoding="utf-8"?>
<!-- Generator: Adobe Illustrator 17.1.0, SVG Export Plug-In . SVG Version: 6.00 Build 0)  -->
<!DOCTYPE svg PUBLIC "-//W3C//DTD SVG 1.1//EN" "http://www.w3.org/Graphics/SVG/1.1/DTD/svg11.dtd">
<svg version="1.1" id="Layer_1" xmlns="http://www.w3.org/2000/svg" xmlns:xlink="http://www.w3.org/1999/xlink" x="0px" y="0px"
	 width="133.2px" height="133.2px" viewBox="0 0 133.2 133.2" enable-background="new 0 0 133.2 133.2" xml:space="preserve">
<path d="M107.8,76h-35v32.2c0,2.6-2.8,4.8-6.3,4.8h-0.4c-3.5,0-6.3-2.1-6.3-4.8V76H23.4c-2.5,0-4.5-2.9-4.5-6.4v-0.4
	c0-3.6,2-6.4,4.5-6.4h36.4V28.7c0-2.6,2.8-4.8,6.3-4.8h0.4c3.5,0,6.3,2.1,6.3,4.8v34.1h35c2.5,0,4.5,2.9,4.5,6.4v0.4
	C112.3,73.1,110.3,76,107.8,76L107.8,76z"/>
</svg>
