<?xml version="1.0" encoding="utf-8"?>
<!-- Generator: Adobe Illustrator 17.1.0, SVG Export Plug-In . SVG Version: 6.00 Build 0)  -->
<!DOCTYPE svg PUBLIC "-//W3C//DTD SVG 1.1//EN" "http://www.w3.org/Graphics/SVG/1.1/DTD/svg11.dtd">
<svg version="1.1" id="Layer_1" xmlns="http://www.w3.org/2000/svg" xmlns:xlink="http://www.w3.org/1999/xlink" x="0px" y="0px"
	 width="36px" height="36px" viewBox="0 0 36 36" enable-background="new 0 0 36 36" xml:space="preserve">
<path d="M15,27v-1h2V15h-2v-1h5v1v11h2v1H15z M18,12.3c-1.1,0-2-0.9-2-2s0.9-2,2-2s2,0.9,2,2S19.1,12.3,18,12.3z"/>
<path fill-rule="evenodd" clip-rule="evenodd" fill="#231F20" d="M18.2,1.5C9.3,1.5,2,8.7,2,17.7c0,9,7.3,16.2,16.2,16.2
	c9,0,16.2-7.3,16.2-16.2C34.4,8.7,27.2,1.5,18.2,1.5z M18.2,32c-7.9,0-14.3-6.4-14.3-14.3c0-7.9,6.4-14.3,14.3-14.3
	c7.9,0,14.3,6.4,14.3,14.3C32.5,25.6,26.1,32,18.2,32z"/>
</svg>
