<?xml version="1.0" encoding="utf-8"?>
<!-- Generator: Adobe Illustrator 19.1.0, SVG Export Plug-In . SVG Version: 6.00 Build 0)  -->
<svg version="1.1" id="Layer_1" xmlns="http://www.w3.org/2000/svg" xmlns:xlink="http://www.w3.org/1999/xlink" x="0px" y="0px"
	 viewBox="-298 389 15 15" style="enable-background:new -298 389 15 15;" xml:space="preserve">
<style type="text/css">
	.st0{fill:#8592A2;}
</style>
<path id="X_copy_15" class="st0" d="M-290.5,404c-4.1,0-7.5-3.4-7.5-7.5s3.4-7.5,7.5-7.5s7.5,3.4,7.5,7.5l0,0
	C-283,400.6-286.4,404-290.5,404z M-287.5,394.4c0.2-0.2,0.1-0.6-0.1-0.7l0,0c-0.2-0.2-0.5-0.3-0.7-0.1l-2.1,2.1l-2.3-2.2
	c-0.2-0.2-0.6-0.1-0.7,0.1l0,0c-0.2,0.2-0.3,0.5-0.1,0.7l2.3,2.2l-2.2,2.2c-0.2,0.2-0.1,0.6,0.1,0.7l0,0c0.2,0.2,0.5,0.3,0.7,0.1
	l2.2-2.2l2.1,2.1c0.2,0.2,0.6,0.1,0.7-0.1l0,0c0.2-0.2,0.3-0.5,0.1-0.7l-2.1-2.1L-287.5,394.4z"/>
</svg>
