<?xml version="1.0" encoding="utf-8"?>
<!-- Generator: Adobe Illustrator 17.1.0, SVG Export Plug-In . SVG Version: 6.00 Build 0)  -->
<!DOCTYPE svg PUBLIC "-//W3C//DTD SVG 1.1//EN" "http://www.w3.org/Graphics/SVG/1.1/DTD/svg11.dtd">
<svg version="1.1" id="Layer_1" xmlns="http://www.w3.org/2000/svg" xmlns:xlink="http://www.w3.org/1999/xlink" x="0px" y="0px"
	 width="36px" height="36px" viewBox="0 0 36 36" enable-background="new 0 0 36 36" xml:space="preserve">
<path d="M31,36H6.2c-1.2,0-2.1-0.9-2.3-2c-0.3-0.6-0.5-2.2-0.9-6.2c0-0.3,0-0.8,0.1-1.2c0.3-0.6,0.8-1,1.4-1c0.7,0,1.6,0.5,2.9,1.4
	c1.1,0.8,1.8,1.1,2.8,1.1c2.2,0,4-1.8,4-3.9s-1.8-3.9-4-3.9c-0.9,0-1.7,0.3-2.7,1.1c-1.2,0.9-2.1,1.4-2.9,1.4
	c-0.8,0-1.3-0.5-1.5-1.4c0-0.1-0.1-0.4,0-0.7c0.5-6.1,0.8-7.8,0.8-8.1c0.3-2.2,1.4-2.5,2.1-2.5c0.1,0,0.2,0,0.4,0c0,0,6,0.7,7.9,0.8
	c0.5,0,1-0.1,1.1-0.3c0.1-0.2,0-0.8-0.6-1.6c-0.8-1.2-1.3-2.2-1.3-3.6c0-3,2.5-5.5,5.5-5.5s5.5,2.5,5.5,5.5c0,1.4-0.4,2-1.2,3.4
	L23.1,9c-0.5,0.9-0.6,1.4-0.4,1.7c0.1,0.2,0.5,0.3,0.7,0.3c0.1,0,0.2,0,0.2,0c2.1-0.2,7.9-0.8,8-0.8c0.1,0,0.2,0,0.3,0
	c1.4,0.4,2.1,1.3,2.1,2.7v20.2C34,34.8,32.8,36,31,36z M5.2,33.1c0.1,0.1,0.2,0.3,0.2,0.5c0,0.4,0.4,0.8,0.8,0.8H31
	c0.9,0,1.4-0.5,1.4-1.4V12.8c0-0.5-0.1-0.9-0.9-1.1c-1,0.1-5.9,0.6-7.8,0.8c-1.1,0.1-2-0.3-2.4-1.1c-0.3-0.5-0.6-1.6,0.5-3.3L21.9,8
	c0.8-1.2,1-1.6,1-2.5c0-2.2-1.8-3.9-4-3.9c-2.2,0-4,1.8-4,3.9c0,1,0.3,1.6,1,2.7c1.1,1.6,1,2.7,0.7,3.3c-0.4,0.8-1.3,1.2-2.6,1.1
	c-2-0.1-7.7-0.8-8-0.8c-0.1,0-0.1,0-0.2,0c-0.4,0-0.5,0.7-0.6,1.2c0,0,0,0.1,0,0.1c0,0.1-0.3,1.5-0.8,8c0,0,0,0.1,0,0.1c0,0,0,0,0,0
	c0,0,0,0.1,0,0.1c0.5-0.1,1.6-0.9,2-1.1c0.9-0.6,2.1-1.3,3.6-1.3c3.1,0,5.5,2.5,5.5,5.5c0,3-2.5,5.5-5.5,5.5c-1.6,0-2.6-0.6-3.7-1.5
	c-1.3-1-1.8-1.1-1.9-1.1c0,0.1,0,0.3,0,0.4C4.9,31.6,5.1,32.8,5.2,33.1z"/>
</svg>
