<?xml version="1.0" encoding="utf-8"?>
<!-- Generator: Adobe Illustrator 17.1.0, SVG Export Plug-In . SVG Version: 6.00 Build 0)  -->
<!DOCTYPE svg PUBLIC "-//W3C//DTD SVG 1.1//EN" "http://www.w3.org/Graphics/SVG/1.1/DTD/svg11.dtd">
<svg version="1.1" id="Layer_1" xmlns="http://www.w3.org/2000/svg" xmlns:xlink="http://www.w3.org/1999/xlink" x="0px" y="0px"
	 width="36px" height="36px" viewBox="0 0 36 36" enable-background="new 0 0 36 36" xml:space="preserve">
<path d="M18,30.2c-3.8,0-7.1-1.8-9.2-4.7l6-4.2l-8.4-1.7l-2.2-0.5l-0.1,0L2,30.2l5-3.5c2.5,3.4,6.5,5.7,11,5.7
	c7.3,0,13.3-5.9,13.8-13.3h-2.1C29.2,25.3,24.1,30.2,18,30.2z"/>
<path d="M29,9.3c-2.5-3.4-6.5-5.7-11-5.7c-7.3,0-13.3,5.9-13.8,13.3h2.1C6.8,10.7,11.8,5.8,18,5.8c3.8,0,7.1,1.8,9.2,4.7l-6,4.2
	l8.4,1.7l2.2,0.5l0.1,0L34,5.8L29,9.3z"/>
</svg>
