<?xml version="1.0" encoding="utf-8"?>
<!-- Generator: Adobe Illustrator 17.1.0, SVG Export Plug-In . SVG Version: 6.00 Build 0)  -->
<!DOCTYPE svg PUBLIC "-//W3C//DTD SVG 1.1//EN" "http://www.w3.org/Graphics/SVG/1.1/DTD/svg11.dtd">
<svg version="1.1" id="Layer_1" xmlns="http://www.w3.org/2000/svg" xmlns:xlink="http://www.w3.org/1999/xlink" x="0px" y="0px"
	 width="36px" height="36px" viewBox="0 0 36 36" enable-background="new 0 0 36 36" xml:space="preserve">
<path d="M0.4,14l17.2,9.6c0.4,0.2,0.6,0.1,0.7,0L35.6,14c0.4-0.1,0.7-0.9,0-1.3L18.4,3.1c-0.2-0.1-0.5-0.1-0.7,0L0.4,12.7
	C-0.2,13,0,13.9,0.4,14z M18,4.6l15.7,8.7L18,22.1L2.3,13.4L18,4.6z"/>
<path d="M35.6,18.8l-4.4-2.5c-0.5,0.3-1,0.6-1.5,0.9l3.9,2.2L18,28.2L2.3,19.5l3.8-2.1c-0.4-0.3-1.3-0.9-1.4-1l-4.4,2.4
	c-0.6,0.3-0.4,1.2,0,1.3L3.8,22l1.6,0.9l12.3,6.8c0.4,0.2,0.6,0.1,0.7,0l12.3-6.8l1.6-0.9l3.4-1.9C36,20,36.3,19.2,35.6,18.8z"/>
<path d="M35.6,25l-4.4-2.5c-0.5,0.3-1,0.6-1.5,0.9l3.9,2.2L18,34.4L2.3,25.6l3.8-2.1c-0.4-0.3-1.3-0.9-1.4-1L0.4,25
	c-0.6,0.3-0.4,1.2,0,1.3l3.4,1.9l1.6,0.9l12.3,6.8c0.4,0.2,0.6,0.1,0.7,0l12.3-6.8l1.6-0.9l3.4-1.9C36,26.2,36.3,25.4,35.6,25z"/>
</svg>
