<?xml version="1.0" encoding="utf-8"?>
<!-- Generator: Adobe Illustrator 20.1.0, SVG Export Plug-In . SVG Version: 6.00 Build 0)  -->
<svg version="1.1" id="Layer_1" xmlns="http://www.w3.org/2000/svg" xmlns:xlink="http://www.w3.org/1999/xlink" x="0px" y="0px"
	 viewBox="0 0 22.5 10" style="enable-background:new 0 0 22.5 10;" xml:space="preserve">
<path id="icon_linked" d="M3.5,7.1c-0.4,0-0.7-0.3-0.7-0.7V3.6c0-0.4,0.3-0.7,0.7-0.7h6.3C9.4,1.2,8,0,6.3,0H3.5C1.6,0,0,1.6,0,3.6
	v2.9c0,2,1.6,3.5,3.5,3.6h2.8C8,10,9.4,8.8,9.8,7.1L3.5,7.1L3.5,7.1z M19,0h-2.8c-1.7,0-3.1,1.2-3.4,2.9H19c0.4,0,0.7,0.3,0.7,0.7
	v2.9c0,0.4-0.3,0.7-0.7,0.7h-6.3c0.3,1.6,1.8,2.8,3.4,2.9H19c2,0,3.5-1.6,3.5-3.6V3.6C22.5,1.6,20.9,0,19,0z M5.8,4h11v2h-11V4z"/>
</svg>
