<?xml version="1.0" encoding="utf-8"?>
<!-- Generator: Adobe Illustrator 20.1.0, SVG Export Plug-In . SVG Version: 6.00 Build 0)  -->
<svg version="1.1" id="Layer_1" xmlns="http://www.w3.org/2000/svg" xmlns:xlink="http://www.w3.org/1999/xlink" x="0px" y="0px"
	 viewBox="0 0 32 32" style="enable-background:new 0 0 32 32;" xml:space="preserve">
<path d="M32,7.4L24.6,0l0,0l-2.9,2.9L4.9,19.7h0v0l0,0l0,0L0,32l10.6-4.2l0,0l1.8-0.7l16.8-16.8l0,0L32,7.4z M24.6,2.5l4.9,4.9
	l-1.2,1.2l-4.9-4.9L24.6,2.5z M3.1,28.9l2.4-6.1l3.7,3.7L3.1,28.9z M11.1,25.9l-4.9-4.9l16-16l4.9,4.9L11.1,25.9z M24,9.2L10.5,22.8
	l-1.2-1.2L22.8,8L24,9.2z"/>
</svg>
