<?xml version="1.0" encoding="utf-8"?>
<!-- Generator: Adobe Illustrator 19.2.1, SVG Export Plug-In . SVG Version: 6.00 Build 0)  -->
<svg version="1.1" id="Layer_1" xmlns="http://www.w3.org/2000/svg" xmlns:xlink="http://www.w3.org/1999/xlink" x="0px" y="0px"
	 viewBox="0 0 48 48" style="enable-background:new 0 0 48 48;" xml:space="preserve">
<style type="text/css">
	.st0{fill:#8090A3;}
</style>
<path class="st0" d="M24,43C13.5,43,5,34.5,5,24C5,13.5,13.5,5,24,5s19,8.5,19,19C43,34.5,34.5,43,24,43z M22.1,32.7
	c0.4,0.4,0.8,0.6,1.3,0.6c0.3,0,0.5-0.1,0.7-0.2c0.2-0.1,0.4-0.2,0.6-0.4c0.2-0.2,0.3-0.4,0.4-0.6c0.1-0.2,0.1-0.5,0.1-0.7
	c0-0.5-0.2-1-0.5-1.3c-0.4-0.4-0.8-0.6-1.3-0.6s-1,0.2-1.3,0.6c-0.4,0.4-0.5,0.8-0.5,1.3C21.5,31.9,21.7,32.3,22.1,32.7z M28.5,17.6
	c-0.3-0.5-0.6-0.9-1-1.3c-0.4-0.4-1-0.6-1.6-0.9c-0.6-0.2-1.4-0.3-2.1-0.3c-0.8,0-1.5,0.1-2.1,0.3c-0.6,0.2-1.1,0.5-1.5,0.8
	c-0.4,0.3-0.7,0.7-0.9,1.1c-0.2,0.4-0.3,0.7-0.3,1.1c0,0.2,0,0.5,0.1,0.6c0.1,0.2,0.2,0.3,0.4,0.4c0.1,0.1,0.3,0.2,0.5,0.3
	c0.2,0.1,0.3,0.1,0.5,0.1c0.3,0,0.6-0.1,0.7-0.3c0.1-0.2,0.3-0.4,0.5-0.7c0.2-0.2,0.4-0.5,0.7-0.7c0.3-0.2,0.8-0.3,1.4-0.3
	c0.6,0,1.1,0.1,1.6,0.4c0.4,0.3,0.6,0.7,0.6,1.3c0,0.3-0.1,0.6-0.2,0.9c-0.2,0.3-0.3,0.5-0.6,0.7c-0.2,0.2-0.5,0.4-0.7,0.6
	c-0.3,0.2-0.5,0.4-0.7,0.5c-0.2,0.1-0.4,0.3-0.6,0.5c-0.2,0.2-0.4,0.5-0.5,0.8c-0.2,0.3-0.3,0.6-0.4,1c-0.1,0.4-0.2,0.9-0.2,1.4
	c0,0.6,0.1,1.1,0.3,1.3c0.2,0.2,0.5,0.3,1,0.3c0.6,0,1-0.1,1.2-0.3c0.2-0.2,0.3-0.4,0.3-0.7c0-0.3,0-0.6,0-0.9
	c0-0.3,0.1-0.5,0.2-0.8c0.1-0.2,0.2-0.5,0.4-0.7c0.2-0.2,0.4-0.5,0.8-0.8c0.2-0.1,0.4-0.3,0.7-0.6c0.3-0.3,0.6-0.6,0.9-1
	c0.3-0.4,0.6-0.8,0.8-1.3c0.2-0.5,0.3-1,0.3-1.6C28.9,18.6,28.8,18.1,28.5,17.6z"/>
</svg>
