<?xml version="1.0" encoding="utf-8"?>
<!-- Generator: Adobe Illustrator 20.1.0, SVG Export Plug-In . SVG Version: 6.00 Build 0)  -->
<svg version="1.1" id="Layer_1" xmlns="http://www.w3.org/2000/svg" xmlns:xlink="http://www.w3.org/1999/xlink" x="0px" y="0px"
	 viewBox="0 0 29 30" style="enable-background:new 0 0 29 30;" xml:space="preserve">
<path d="M7.4,14.8L1.1,8.6c-0.1,0-0.2,0-0.3-0.1L0.1,7.8c0,0,0,0,0,0c-0.2-0.2-0.2-0.4,0-0.6l7.1-7c0.2-0.2,0.5-0.2,0.6,0l0.8,0.7
	l0,0c0,0,0,0,0,0c0.2,0.2,0.1,0.4,0,0.6L3.7,6.3H27v1.9H3.5l5.3,5.3c0,0,0,0,0,0c0.2,0.2,0.1,0.4,0,0.6L8,14.8l0,0
	C7.8,15,7.5,15,7.4,14.8z M28.9,22.1l-7.1-7c-0.2-0.2-0.5-0.2-0.6,0l-0.8,0.7l0,0c0,0,0,0,0,0c-0.2,0.2-0.2,0.4,0,0.6l4.9,4.8H2v1.9
	h23.5l-5.3,5.3c0,0,0,0,0,0c-0.2,0.2-0.1,0.4,0,0.6l0.7,0.8c0.2,0.2,0.5,0.2,0.6,0l6.2-6.2c0.1,0,0.2,0,0.3-0.1l0.8-0.7c0,0,0,0,0,0
	C29.1,22.6,29.1,22.3,28.9,22.1z"/>
</svg>
