<svg xmlns="http://www.w3.org/2000/svg" width="32.969" height="22.969" viewBox="0 0 32.969 22.969">
  <defs>
    <style>
      .cls-1 {
        fill-rule: evenodd;
      }
    </style>
  </defs>
  <path id="icon_checked" class="cls-1" d="M721.7,754.3a1.016,1.016,0,0,0-1.448,0l-19.947,20.182-9.543-9.656a1.025,1.025,0,0,0-1.461,0,1.054,1.054,0,0,0,0,1.479l10.231,10.352c0.006,0.007.016,0.009,0.022,0.015a0.239,0.239,0,0,1,.013.021,1.013,1.013,0,0,0,1.448,0L721.7,755.766A1.047,1.047,0,0,0,721.7,754.3Z" transform="translate(-689.031 -754.031)"/>
</svg>
