<svg xmlns="http://www.w3.org/2000/svg" width="48" height="48" viewBox="0 0 48 48">
  <defs>
    <style>
      .cls-1 {
        fill-rule: evenodd;
      }
    </style>
  </defs>
  <path id="icon_restrictions_copy_2" data-name="icon_restrictions copy 2" class="cls-1" d="M697.5,551.338v2.49a1.548,1.548,0,0,0,3,0v-2.49a2.3,2.3,0,0,0,1.5-2.009c0-1.289-1.343-2.334-3-2.334s-3,1.045-3,2.334A2.3,2.3,0,0,0,697.5,551.338Zm12.375-9.352h-18.4l-3.448.01A2.131,2.131,0,0,0,686,544.131V558.86a2.135,2.135,0,0,0,2.125,2.145h21.75A2.135,2.135,0,0,0,712,558.86V544.131A2.136,2.136,0,0,0,709.875,541.986Zm0,16.874h-21.75V544.132h21.75V558.86Zm-16.834-17.18v-3.9c0-2.129,3.724-3.854,5.963-3.853s5.966,1.729,5.967,3.858l0,3.854c0,0.533.454,0.293,1.014,0.294s1.012,0.24,1.012-.292l0-3.855c0-3.194-4.637-5.784-8-5.787s-7.989,2.585-7.987,5.779v4.141C690.945,541.889,693.041,541.68,693.041,541.68ZM699,523a24,24,0,1,0,24,24A24,24,0,0,0,699,523Zm0,45.188A21.187,21.187,0,1,1,720.183,547,21.182,21.182,0,0,1,699,568.191Z" transform="translate(-675 -523)"/>
</svg>
