<svg xmlns="http://www.w3.org/2000/svg" width="32" height="32" viewBox="0 0 32 32">
  <defs>
    <style>
      .cls-1 {
        fill-rule: evenodd;
      }
    </style>
  </defs>
  <path id="icon_options" class="cls-1" d="M431.726,780.993h-3.314c-0.632,0-.815,0-2.535-4.347l-1.149-.476c-3.537,1.638-3.962,1.638-4.144,1.638a0.968,0.968,0,0,1-.662-0.272l-2.344-2.342c-0.466-.47-0.587-0.591,1.272-4.895l-0.463-1.115c-4.374-1.6-4.374-1.792-4.374-2.459V763.41c0-.663,0-0.832,4.359-2.554l0.463-1.119c-1.962-4.223-1.827-4.359-1.356-4.832l2.347-2.342a0.988,0.988,0,0,1,.66-0.268c0.17,0,.612,0,4.21,1.55l1.141-.474c1.6-4.365,1.8-4.365,2.436-4.365h3.314c0.631,0,.814,0,2.535,4.35l1.146,0.472c3.535-1.634,3.96-1.634,4.145-1.634a0.983,0.983,0,0,1,.659.267l2.349,2.339c0.458,0.46.587,0.591-1.272,4.9l0.462,1.123c4.375,1.594,4.375,1.785,4.375,2.451v3.315c0,0.663,0,.834-4.361,2.557l-0.46,1.12c1.962,4.217,1.827,4.355,1.36,4.829l-2.352,2.347a0.99,0.99,0,0,1-.66.269h0c-0.167,0-.608,0-4.2-1.553l-1.146.473C432.561,780.993,432.375,780.993,431.726,780.993Zm-2.837-1.809h2.349c0.312-.684.916-2.228,1.4-3.561a0.9,0.9,0,0,1,.5-0.522l1.849-.765a0.866,0.866,0,0,1,.679.008c1.329,0.575,2.9,1.222,3.611,1.466l1.643-1.647c-0.263-.711-0.931-2.217-1.524-3.486a0.938,0.938,0,0,1-.016-0.742l0.761-1.845a0.893,0.893,0,0,1,.5-0.492c1.339-.528,2.9-1.181,3.58-1.51v-2.3c-0.691-.315-2.236-0.913-3.566-1.394a0.9,0.9,0,0,1-.522-0.5l-0.76-1.849a0.931,0.931,0,0,1,.006-0.718c0.57-1.311,1.2-2.861,1.454-3.582l-1.646-1.641c-0.7.259-2.234,0.932-3.527,1.534a0.86,0.86,0,0,1-.7.015l-1.848-.761a0.892,0.892,0,0,1-.49-0.5c-0.527-1.339-1.176-2.895-1.508-3.574H428.76c-0.314.686-.916,2.231-1.4,3.561a0.885,0.885,0,0,1-.5.524l-1.842.765a0.875,0.875,0,0,1-.681-0.006c-1.328-.577-2.9-1.222-3.614-1.462l-1.645,1.642c0.266,0.712.929,2.219,1.523,3.491a0.927,0.927,0,0,1,.016.741l-0.765,1.845a0.887,0.887,0,0,1-.5.492c-1.338.527-2.893,1.176-3.574,1.507v2.3c0.687,0.316,2.234.916,3.565,1.4a0.9,0.9,0,0,1,.519.5l0.759,1.845a0.924,0.924,0,0,1-.006.715c-0.569,1.313-1.2,2.863-1.452,3.582l1.645,1.642c0.7-.26,2.233-0.933,3.525-1.533a0.874,0.874,0,0,1,.7-0.017l1.848,0.766a0.881,0.881,0,0,1,.489.5C427.905,776.953,428.556,778.508,428.889,779.184ZM430,770.74a5.738,5.738,0,1,1,5.726-5.74A5.743,5.743,0,0,1,430,770.74Zm0-9.668A3.93,3.93,0,1,0,433.955,765,3.947,3.947,0,0,0,430,761.072Z" transform="translate(-414 -749)"/>
</svg>
