<svg xmlns="http://www.w3.org/2000/svg" width="30" height="25" viewBox="0 0 30 25">
  <defs>
    <style>
      .cls-1 {
        fill-rule: evenodd;
        mix-blend-mode: luminosity;
      }
    </style>
  </defs>
  <path id="icon_no_image" class="cls-1" d="M149.021,1023.39a2.661,2.661,0,1,0-2.688-2.66A2.676,2.676,0,0,0,149.021,1023.39Zm3.979,7.08-5-3.59-5,5.38h21.333l-6-12.54ZM166.333,1013H141.667a2.7,2.7,0,0,0-2.667,2.7v19.6a2.7,2.7,0,0,0,2.667,2.7h24.666a2.7,2.7,0,0,0,2.667-2.7v-19.6A2.7,2.7,0,0,0,166.333,1013Zm0.639,21.93a1,1,0,0,1-1,1.01H142.028a1,1,0,0,1-1-1.01v-18.88a1.012,1.012,0,0,1,1-1.01h23.944a1.012,1.012,0,0,1,1,1.01v18.88Z" transform="translate(-139 -1013)"/>
</svg>
