<?xml version="1.0" encoding="utf-8"?>
<!-- Generator: Adobe Illustrator 19.2.1, SVG Export Plug-In . SVG Version: 6.00 Build 0)  -->
<svg version="1.1" id="Layer_1" xmlns="http://www.w3.org/2000/svg" xmlns:xlink="http://www.w3.org/1999/xlink" x="0px" y="0px"
	 viewBox="0 0 48 48" style="enable-background:new 0 0 48 48;" xml:space="preserve">
<style type="text/css">
	.st0{fill:#8090A3;}
</style>
<path class="st0" d="M24,43C13.5,43,5,34.5,5,24C5,13.5,13.5,5,24,5s19,8.5,19,19C43,34.5,34.5,43,24,43z M24,15.2
	c-5,0-9.1,3.7-9.1,8.2c0,2.1,0.9,4.1,2.4,5.5l-2.4,5l5.7-2.9c1.1,0.4,2.2,0.6,3.4,0.6c5.1,0,9.1-3.7,9.1-8.2
	C33.1,18.8,29,15.2,24,15.2z M24,29c-3.4,0-6.3-2.4-6.3-5.4s2.8-5.4,6.3-5.4c3.5,0,6.3,2.4,6.3,5.4S27.4,29,24,29z"/>
</svg>
