<?xml version="1.0" encoding="utf-8"?>
<!-- Generator: Adobe Illustrator 20.1.0, SVG Export Plug-In . SVG Version: 6.00 Build 0)  -->
<svg version="1.1" id="Layer_1" xmlns="http://www.w3.org/2000/svg" xmlns:xlink="http://www.w3.org/1999/xlink" x="0px" y="0px"
	 viewBox="0 0 13 13" style="enable-background:new 0 0 13 13;" xml:space="preserve">
<path d="M12,0H7C6.4,0,6,0.4,6,1s0.4,1,1,1h2.6L2,9.6V7c0-0.6-0.4-1-1-1S0,6.4,0,7v5c0,0.6,0.4,1,1,1h5c0.6,0,1-0.4,1-1s-0.4-1-1-1
	H3.4L11,3.4V6c0,0.6,0.4,1,1,1s1-0.4,1-1V1C13,0.4,12.6,0,12,0z"/>
</svg>
