<?xml version="1.0" encoding="utf-8"?>
<!-- Generator: Adobe Illustrator 20.1.0, SVG Export Plug-In . SVG Version: 6.00 Build 0)  -->
<svg version="1.1" id="Layer_1" xmlns="http://www.w3.org/2000/svg" xmlns:xlink="http://www.w3.org/1999/xlink" x="0px" y="0px"
	 viewBox="0 0 14.8 14.9" style="enable-background:new 0 0 14.8 14.9;" xml:space="preserve">
<path id="Shape_23_copy_2" d="M14.5,0.3c-0.4-0.4-1-0.4-1.4,0L9.9,3.6V1c0-0.5-0.4-1-1-1l0,0c-0.5,0-1,0.4-1,0.9c0,0,0,0,0,0V6
	c0,0.5,0.4,1,0.9,1c0,0,0,0,0,0h4.9c0.5,0,1-0.4,1-1s-0.4-1-1-1c0,0,0,0-0.1,0h-2.6l3.3-3.2C14.9,1.4,14.9,0.7,14.5,0.3
	C14.5,0.3,14.5,0.3,14.5,0.3z M0.3,14.6c-0.4-0.4-0.4-1,0-1.4l3.2-3.3H1c-0.5,0-1-0.4-1-1c0,0,0,0,0,0c0-0.5,0.4-1,1-1c0,0,0,0,0,0
	h4.9c0.5,0,1,0.4,1,0.9c0,0,0,0,0,0v4.9c0,0.5-0.4,1-1,1c-0.5,0-1-0.4-1-1v-2.6l-3.2,3.3C1.3,15,0.7,15,0.3,14.6
	C0.3,14.6,0.3,14.6,0.3,14.6L0.3,14.6z"/>
</svg>
