<svg xmlns="http://www.w3.org/2000/svg" width="172.167" height="40" viewBox="0 0 172.167 40"><g fill="#fff"><path d="M37.715 5.801l-9.724-5.614c-.354-.205-.806-.083-1.01.27-.204.354-.083.806.271 1.011l9.354 5.401.002 26.112-9.356 5.403c-.354.204-.475.657-.271 1.01.137.239.386.371.642.371.125 0 .252-.031.369-.1l9.727-5.616c.229-.132.37-.374.37-.639l-.004-26.968c0-.264-.141-.508-.37-.641zM11.208 38.38l-9.728-5.404.001-26.098 9.726-5.404c.357-.198.486-.649.288-1.005-.198-.358-.648-.487-1.006-.289l-10.107 5.615c-.234.131-.38.378-.38.647l-.002 26.969c0 .267.146.515.38.646l10.109 5.614c.114.064.237.094.359.094.259 0 .511-.138.647-.381.199-.358.07-.807-.287-1.004zM54.303 13.923c-.109-.3-.353-.47-.642-.47h-.002c-.348-.028-.606.156-.71.47l-4.351 11.866c-.02.056-.048.142-.048.257 0 .435.283.719.72.719.332 0 .594-.179.701-.472l1.051-2.878h5.353l1.081 2.875c.108.301.358.475.685.475.437 0 .72-.284.72-.719 0-.088-.016-.179-.052-.285l-4.506-11.838zm1.506 8.039h-4.248l2.078-5.719 2.17 5.719zM65.024 13.436h-3.817c-.444 0-.72.281-.72.734v11.875c0 .435.282.719.72.719.437 0 .719-.284.719-.719v-4.727h3.098c1.125 0 2.08-.359 2.844-1.071.76-.725 1.145-1.624 1.145-2.667v-.375c0-1.098-.387-2.007-1.147-2.701-.762-.709-1.717-1.068-2.842-1.068zm0 6.461h-3.098v-5.021h3.098c.733 0 1.351.225 1.837.669.479.438.712.981.712 1.662v.375c0 .681-.232 1.224-.712 1.661-.474.434-1.093.654-1.837.654zM74.959 13.436h-3.817c-.444 0-.72.281-.72.734v11.875c0 .435.282.719.72.719s.72-.284.72-.719v-4.727h3.098c1.125 0 2.08-.359 2.844-1.071.76-.725 1.145-1.624 1.145-2.667v-.375c0-1.098-.387-2.007-1.147-2.701-.762-.709-1.718-1.068-2.843-1.068zm0 6.461h-3.098v-5.021h3.098c.732 0 1.351.225 1.838.669.479.438.712.981.712 1.662v.375c0 .681-.233 1.224-.712 1.661-.476.434-1.094.654-1.838.654zM93.106 14.891c.438 0 .72-.282.72-.72 0-.453-.274-.734-.72-.734h-7.116c-.443 0-.719.281-.719.734v11.875c0 .435.281.719.719.719h7.117c.438 0 .72-.284.72-.719 0-.455-.274-.737-.72-.737h-6.367v-4.569h4.991c.44 0 .704-.262.704-.703 0-.454-.271-.736-.704-.736h-4.991v-4.411h6.366zM103.031 13.574c-.137-.082-.274-.124-.41-.124-.141 0-.405.048-.599.373l-2.907 4.883-2.907-4.884c-.184-.307-.423-.372-.59-.372-.132 0-.27.041-.417.124-.191.114-.309.262-.354.439-.043.177-.008.363.105.553l3.331 5.549-3.335 5.589c-.131.235-.131.476 0 .712.132.237.346.363.618.363.368 0 .555-.197.645-.356l2.905-4.882 2.903 4.875c.091.166.279.363.648.363.278 0 .503-.127.634-.363.125-.227.12-.467-.022-.72l-3.329-5.582 3.329-5.549c.23-.381.135-.761-.248-.991zM113.778 22.121c-.457-.053-.762.206-.815.656-.069.752-.39 1.394-.945 1.907-.554.498-1.221.75-1.982.75h-.452c-.83 0-1.515-.284-2.093-.86-.571-.586-.849-1.267-.849-2.081v-4.739c0-.814.278-1.495.847-2.079.58-.581 1.265-.862 2.095-.862h.452c.777 0 1.429.253 1.994.777.575.53.893 1.171.95 1.916.046.427.303.671.704.671l.061-.001c.229-.014.407-.093.529-.239.118-.138.171-.32.157-.556-.102-1.128-.576-2.09-1.412-2.858-.833-.783-1.836-1.18-2.983-1.18h-.452c-1.218 0-2.271.435-3.132 1.295-.849.85-1.28 1.897-1.28 3.116v4.739c0 1.217.431 2.266 1.28 3.114.849.852 1.903 1.281 3.132 1.281h.452c1.151 0 2.148-.379 2.963-1.128.851-.767 1.333-1.719 1.432-2.827.031-.287-.065-.472-.153-.575-.086-.1-.244-.225-.5-.237zM124.195 13.452c-.454 0-.735.274-.735.718v5.194h-6.117v-5.194c0-.444-.281-.718-.736-.718-.437 0-.719.282-.719.718v11.843c0 .437.282.72.719.72.455 0 .736-.277.736-.72v-5.193h6.117v5.194c0 .442.281.72.735.72.454 0 .734-.277.734-.72v-11.844c0-.443-.281-.718-.734-.718zM132.954 13.923c-.108-.3-.352-.47-.642-.47h-.003c-.342-.031-.605.156-.71.47l-4.351 11.866c-.02.056-.049.142-.049.257 0 .435.281.719.719.719.332 0 .595-.179.701-.472l1.052-2.878h5.353l1.08 2.875c.109.301.358.475.686.475.438 0 .72-.284.72-.719 0-.088-.017-.179-.053-.285l-4.503-11.838zm1.505 8.039h-4.247l2.078-5.719 2.169 5.719zM147.758 13.467c-.442 0-.704.263-.704.703v9.526l-6.612-9.924c-.178-.253-.409-.307-.569-.307l-.217.027c-.329.082-.518.33-.518.678v11.843c0 .453.27.734.704.734.443 0 .72-.281.72-.734v-9.493l6.597 9.924c.142.199.349.304.6.304.441 0 .703-.262.703-.702v-11.876c-.001-.44-.263-.703-.704-.703zM159.179 20.257h-2.705c-.473 0-.751.28-.751.75 0 .445.287.721.751.721h1.985v.797c0 .779-.295 1.462-.875 2.029-.565.551-1.231.817-2.034.817h-.484c-.815 0-1.495-.278-2.079-.847-.58-.579-.862-1.265-.862-2.094v-4.708c0-.817.282-1.498.862-2.078.581-.581 1.259-.862 2.079-.862h.484c.639 0 1.207.194 1.74.597.516.376.871.879 1.057 1.491.138.483.493.556.692.556.293 0 .463-.116.554-.21.092-.096.194-.27.181-.547-.017-.84-.524-1.678-1.506-2.487l-.041-.029c-.928-.547-1.83-.825-2.677-.825h-.484c-1.207 0-2.251.431-3.1 1.281-.861.86-1.298 1.907-1.298 3.115v4.708c0 1.217.437 2.271 1.298 3.131.849.85 1.893 1.28 3.1 1.28h.484c1.181 0 2.2-.415 3.033-1.229.883-.849 1.331-1.877 1.331-3.057v-1.549c0-.471-.274-.751-.735-.751zM169.457 25.309h-6.366v-4.569h4.99c.44 0 .706-.262.706-.703 0-.454-.271-.736-.706-.736h-4.99v-4.411h6.366c.438 0 .721-.282.721-.72 0-.453-.276-.734-.721-.734h-7.116c-.444 0-.72.281-.72.734v11.875c0 .435.282.719.72.719h7.116c.438 0 .721-.284.721-.719 0-.454-.277-.736-.721-.736zM30.706 29.201l.011-.002.125-.015.018-.005.03-.01.086-.036.021-.007.009-.008.02-.011.046-.032.044-.036.023-.021.011-.013.008-.009.037-.044.033-.05.007-.012.007-.011.001-.003.011-.023.023-.058.001-.002.011-.029.004-.021.012-.061.006-.031v-.031l.002-.025-.002-.03v-.03l-.006-.031-.012-.058-.005-.027-.012-.025-.023-.059-.011-.026-.002-.003-11.839-21.818-.015-.021-.031-.048-.019-.027-.022-.024-.036-.036-.025-.022-.026-.02-.046-.03-.022-.016-.003-.001-.027-.013-.054-.022h-.002l-.028-.011-.028-.006-.054-.011-.066-.007-.026-.002-.026.002-.066.007-.055.011-.057.018-.055.023-.024.01-.005.002-.023.016-.047.031-.024.017-.025.024-.038.037-.021.023-.022.026-.031.048-.015.021-11.837 21.819-.01.022-.026.065-.017.053-.011.058-.006.062-.003.03.003.028.006.06.011.061.017.053.023.058.026.049.032.05.037.044.042.043.044.036.054.035.022.016.021.009.095.036.038.013.125.015.01.002h23.673000000000002v-.003zm-11.231-7.338v-12.7l9.731 17.937-9.731-5.237zm-1.211.018l-9.725 5.205 9.725-17.923v12.718zm0 1.374v4.733h-8.843l8.843-4.733zm1.211-.016l8.827 4.749h-8.827v-4.749z"/></g></svg>