<svg xmlns="http://www.w3.org/2000/svg" width="119.053" height="40" viewBox="0 0 119.053 40"><g fill="#fff"><path d="M55.982 19.769c.867-.607 1.305-1.478 1.305-2.592v-.332c0-.96-.325-1.755-.963-2.359-.716-.699-1.72-1.053-2.985-1.053h-3.79c-.441 0-.726.285-.726.727v11.986c0 .439.278.711.726.711h4.027c1.136 0 2.12-.355 2.924-1.057.827-.723 1.246-1.604 1.246-2.623v-.395c0-1.206-.664-2.32-1.764-3.013zm-5.691-4.883h3.048c1.53 0 2.48.75 2.48 1.959v.332c0 1.143-.996 1.91-2.48 1.91h-3.048v-4.201zm5.986 8.291c0 .601-.253 1.111-.771 1.56-.53.442-1.178.668-1.929.668h-3.285v-4.849h3.285c.751 0 1.399.225 1.929.668.519.436.771.945.771 1.559v.394zM68.926 13.433c-.476 0-.759.277-.759.742v8.371c0 .825-.284 1.513-.87 2.098-.568.566-1.267.854-2.083.854h-.441c-.827 0-1.507-.278-2.083-.854-.575-.575-.854-1.261-.854-2.098v-8.371c0-.465-.283-.742-.758-.742-.458 0-.742.285-.742.742v8.371c0 1.22.44 2.277 1.309 3.145.857.858 1.91 1.293 3.129 1.293h.441c1.22 0 2.272-.435 3.13-1.293.869-.868 1.31-1.927 1.31-3.145v-8.371c-.002-.457-.28-.742-.729-.742zM73.206 13.433c-.442 0-.728.285-.728.727v11.97c0 .442.286.727.728.727.458 0 .742-.278.742-.727v-11.97c-.001-.448-.284-.727-.742-.727zM84.686 25.389h-6.396v-11.245c0-.448-.283-.726-.742-.726-.442 0-.726.285-.726.726v11.986c0 .442.284.727.726.727h7.138c.458 0 .743-.278.743-.727 0-.457-.285-.741-.743-.741zM91.604 13.401h-4.012c-.442 0-.728.286-.728.727v12.002c0 .442.286.727.728.727h4.012c1.208 0 2.25-.429 3.093-1.273.86-.844 1.296-1.886 1.296-3.101v-4.691c0-1.215-.422-2.228-1.293-3.097-.869-.871-1.882-1.294-3.096-1.294zm2.92 9.081c0 .805-.28 1.476-.854 2.05-.575.576-1.251.856-2.066.856h-3.271v-10.517h3.271c.814 0 1.491.279 2.069.857.564.551.851 1.245.851 2.063v4.691zM106.684 14.886c.442 0 .727-.286.727-.727 0-.458-.279-.742-.727-.742h-7.184c-.449 0-.727.285-.727.742v11.986c0 .442.284.728.727.728h7.184c.442 0 .727-.285.727-.728 0-.457-.279-.741-.727-.741h-6.426v-4.611h5.037c.445 0 .711-.266.711-.711 0-.458-.273-.742-.711-.742h-5.037v-4.453h6.426zM118.562 25.856l-2.229-4.89c1.323-.574 2.13-1.834 2.13-3.364v-.395c0-1.113-.373-2.025-1.108-2.708-.741-.708-1.675-1.05-2.854-1.05h-3.949c-.459 0-.742.284-.742.742v11.955c0 .459.283.742.742.742.449 0 .727-.283.727-.742v-4.801h3.222l.371-.005 2.357 5.111c.128.282.366.437.667.437.253 0 .474-.117.609-.321.134-.21.157-.478.057-.711zm-4.062-5.979h-3.222v-4.975h3.222c1.496 0 2.463.905 2.463 2.306v.395c0 .673-.221 1.208-.678 1.636-.443.428-1.028.638-1.785.638zM37.953 5.75l-9.785-5.65c-.356-.206-.811-.083-1.017.272-.206.356-.084.812.272 1.017l9.414 5.436.002 26.278-9.416 5.437c-.356.206-.478.661-.272 1.017.138.24.388.373.646.373.126 0 .254-.032.372-.101l9.789-5.65c.23-.134.372-.38.372-.646l-.004-27.137c0-.267-.142-.512-.373-.646zM11.278 38.533l-9.789-5.438.002-26.261 9.787-5.438c.359-.2.489-.653.29-1.012-.2-.36-.652-.49-1.013-.29l-10.17 5.65c-.236.131-.383.38-.383.651l-.002 27.138c0 .271.146.52.383.65l10.172 5.651c.115.064.239.095.361.095.262 0 .515-.138.651-.383.201-.359.071-.812-.289-1.013zM29.537 25.582v-11.244c0-.198-.106-.381-.277-.48l-9.738-5.622c-.172-.099-.383-.099-.555 0l-9.738 5.623c-.172.099-.278.282-.278.48l.001 11.244c0 .198.105.382.277.479l9.738 5.623c.086.048.182.073.277.073.095 0 .191-.025.277-.073l9.738-5.623c.172-.099.278-.282.278-.48zm-10.293-16.226l8.823 5.093-8.75 5.045-.068-.013-.037.007-8.756-5.058 8.788-5.074zm-9.184 5.7l8.693 5.021.047.143.079.092v10.043l-8.818-5.091-.001-10.208zm9.558 15.294v-10.078l.068-.084.022-.067 8.719-5.027v10.167l-8.809 5.089z"/></g></svg>