<svg xmlns="http://www.w3.org/2000/svg" width="150.333" height="40" viewBox="0 0 150.333 40"><g fill="#fff"><path d="M27.786 39.914c-.257 0-.507-.133-.646-.373-.206-.355-.083-.811.273-1.016l9.412-5.435-.002-26.267-9.41-5.434c-.356-.205-.479-.66-.273-1.016.206-.355.661-.479 1.017-.273l9.782 5.649c.23.133.373.378.373.645l.002 27.128c0 .264-.142.511-.373.644l-9.784 5.649c-.116.068-.245.099-.371.099zM10.912 39.914c-.123 0-.247-.029-.361-.095l-10.168-5.647c-.237-.133-.383-.382-.383-.651l.002-27.128c0-.271.146-.519.383-.651l10.167-5.648c.359-.2.812-.07 1.012.289s.07.813-.289 1.012l-9.784 5.436-.002 26.253 9.786 5.437c.359.198.489.65.289 1.012-.137.243-.39.381-.652.381zM53.584 13.382h-4.036c-.441 0-.727.286-.727.727v12.076c0 .44.286.726.727.726h4.036c1.214 0 2.262-.431 3.111-1.28.864-.848 1.302-1.896 1.302-3.117v-4.719c0-1.219-.425-2.238-1.299-3.113-.874-.875-1.893-1.3-3.114-1.3zm0 12.059h-3.292v-10.589h3.292c.821 0 1.502.282 2.084.864.57.555.858 1.254.858 2.078v4.719c0 .811-.281 1.487-.861 2.066-.579.581-1.26.862-2.081.862zM68.36 14.868c.442 0 .727-.286.727-.727 0-.458-.278-.743-.727-.743h-7.229c-.449 0-.727.285-.727.743v12.058c0 .443.285.729.727.729h7.229c.442 0 .727-.285.727-.729 0-.457-.278-.742-.727-.742h-6.47v-4.646h5.072c.445 0 .711-.266.711-.711 0-.459-.273-.743-.711-.743h-5.072v-4.488h6.47zM78.942 13.398c-.345 0-.604.183-.712.503l-3.184 9.901-3.258-9.905c-.106-.317-.365-.5-.71-.5-.442 0-.727.286-.727.727l.031.225 3.973 12.06c.106.319.365.501.711.501.234 0 .541-.087.68-.503l3.883-12.079.04-.205c0-.439-.285-.725-.727-.725zM91.478 13.398h-3.876c-.449 0-.727.285-.727.743v12.058c0 .443.286.729.727.729.442 0 .727-.285.727-.729v-4.801h3.149c1.142 0 2.112-.365 2.887-1.089.771-.735 1.161-1.646 1.161-2.705v-.381c0-1.114-.393-2.038-1.164-2.74-.773-.719-1.743-1.085-2.884-1.085zm0 6.562h-3.149v-5.108h3.149c.745 0 1.375.229 1.87.68.486.446.724.999.724 1.691v.381c0 .692-.237 1.246-.724 1.69-.484.442-1.114.666-1.87.666zM102.14 13.334h-.461c-1.226 0-2.289.443-3.161 1.316-.863.861-1.299 1.92-1.299 3.144v4.767c0 1.236.437 2.3 1.299 3.162.861.86 1.926 1.299 3.161 1.299h.461c1.231 0 2.284-.438 3.13-1.299.862-.862 1.298-1.926 1.298-3.162v-4.767c0-1.224-.436-2.283-1.297-3.143-.856-.873-1.912-1.317-3.131-1.317zm0 12.202h-.461c-.843 0-1.534-.28-2.114-.861-.58-.578-.861-1.271-.861-2.113v-4.767c0-.82.291-1.525.861-2.097.59-.59 1.283-.877 2.114-.877h.461c.824 0 1.505.286 2.078.874.574.588.864 1.296.864 2.1v4.767c0 .828-.282 1.521-.864 2.117-.555.569-1.255.857-2.078.857zM115.53 20.988c1.331-.577 2.145-1.845 2.145-3.384v-.396c0-1.118-.376-2.035-1.114-2.722-.745-.71-1.684-1.056-2.87-1.056h-3.973c-.458 0-.743.284-.743.743v12.027c0 .46.285.743.743.743.449 0 .729-.283.729-.743v-4.832h3.245l.375-.005 2.374 5.143c.128.283.365.438.667.438.253 0 .476-.116.61-.321.136-.208.159-.479.057-.71l-2.245-4.925zm.644-3.78v.396c0 .679-.223 1.217-.684 1.649-.446.433-1.034.643-1.799.643h-3.245v-5.013h3.245c1.508.001 2.483.913 2.483 2.325zM129.312 14.125c0-.449-.285-.727-.743-.727h-8.563c-.443 0-.728.286-.728.727 0 .458.278.743.728.743h3.562v11.317c0 .44.285.726.727.726.441 0 .727-.285.727-.726v-11.317h3.547c.458 0 .743-.285.743-.743zM134.362 13.891c-.111-.303-.358-.465-.651-.476-.34-.028-.612.159-.719.474l-4.42 12.053c-.019.057-.046.144-.046.257 0 .443.284.729.726.729.336 0 .6-.179.709-.477l1.068-2.924h5.44l1.099 2.924c.111.303.362.477.691.477.443 0 .729-.285.729-.729 0-.084-.017-.179-.053-.286l-4.573-12.022zm1.536 8.166h-4.323l2.116-5.822 2.207 5.822zM148.811 25.441h-6.438v-11.316c0-.449-.284-.727-.742-.727-.442 0-.728.286-.728.727v12.061c0 .44.285.726.728.726h7.181c.459 0 .743-.278.743-.726-.001-.46-.285-.745-.744-.745zM10.308 16.173c-.096 0-.191-.025-.277-.074l-1.688-.975c-.171-.099-.277-.282-.277-.48v-1.948c0-.198.106-.381.277-.48l1.688-.974c.171-.099.382-.099.554 0l1.688.974c.171.099.277.282.277.48v1.948c0 .199-.106.381-.277.48l-1.688.974c-.086.05-.182.075-.277.075zm-1.134-1.848l1.134.655 1.134-.655v-1.309l-1.134-.653-1.134.653v1.309zM28.431 16.173c-.096 0-.192-.025-.278-.075l-1.687-.974c-.171-.099-.277-.282-.277-.48v-1.948c0-.198.106-.381.277-.48l1.687-.974c.172-.099.383-.099.555 0l1.688.974c.171.099.277.282.277.48v1.948c0 .199-.106.381-.277.48l-1.688.974c-.086.05-.181.075-.277.075zm-1.134-1.848l1.134.655 1.133-.655v-1.309l-1.133-.653-1.134.653v1.309zM19.321 31.796c-.096 0-.191-.023-.277-.074l-1.687-.973c-.172-.1-.277-.283-.277-.482v-1.947c0-.198.105-.38.277-.479l1.687-.975c.171-.1.382-.1.554 0l1.688.975c.171.1.277.281.277.479v1.947c0 .199-.106.383-.277.482l-1.688.973c-.086.05-.182.074-.277.074zm-1.133-1.849l1.133.653 1.133-.653v-1.309l-1.133-.653-1.133.653v1.309zM19.344 27.939c-.306 0-.554-.249-.554-.557v-8.579c0-.306.248-.554.554-.554s.554.248.554.554v8.579c0 .308-.248.557-.554.557zM19.246 19.499c-.191 0-.377-.101-.48-.278-.153-.265-.062-.604.203-.757l7.521-4.336c.264-.152.604-.062.757.204.152.265.062.604-.204.757l-7.521 4.335c-.086.051-.181.075-.276.075zM19.434 19.475c-.094 0-.189-.023-.276-.073l-7.447-4.302c-.265-.152-.355-.491-.203-.756.153-.266.493-.357.757-.203l7.446 4.299c.266.154.355.493.203.757-.102.179-.289.278-.48.278z"/></g></svg>