<?xml version="1.0" encoding="utf-8"?>
<!-- Generator: Adobe Illustrator 18.1.0, SVG Export Plug-In . SVG Version: 6.00 Build 0)  -->
<svg version="1.1" xmlns="http://www.w3.org/2000/svg" xmlns:xlink="http://www.w3.org/1999/xlink" x="0px" y="0px"
	 viewBox="-245 377 119.1 40" enable-background="new -245 377 119.1 40" xml:space="preserve">
<g id="Layer_2">
	<rect x="-245" y="377" display="none" fill="#2D0909" stroke="#000000" stroke-miterlimit="10" width="118.6" height="39.9"/>
	
		<text transform="matrix(1 0 0 1 -196.7433 403.9883)" fill="#FFFFFF" font-family="'Dosis-Regular'" font-size="18.8311" letter-spacing="1">TECHNE</text>
</g>
<g id="Layer_1">
	<g>
		<path fill="#FFFFFF" d="M-207,382.8l-9.8-5.6c-0.4-0.2-0.8-0.1-1,0.3c-0.2,0.4-0.1,0.8,0.3,1l9.4,5.4l0,26.3l-9.4,5.4
			c-0.4,0.2-0.5,0.7-0.3,1c0.1,0.2,0.4,0.4,0.6,0.4c0.1,0,0.3,0,0.4-0.1l9.8-5.7c0.2-0.1,0.4-0.4,0.4-0.6l0-27.1
			C-206.7,383.1-206.8,382.9-207,382.8z M-233.7,415.5l-9.8-5.4l0-26.3l9.8-5.4c0.4-0.2,0.5-0.7,0.3-1c-0.2-0.4-0.7-0.5-1-0.3
			l-10.2,5.6c-0.2,0.1-0.4,0.4-0.4,0.7l0,27.1c0,0.3,0.1,0.5,0.4,0.7l10.2,5.7c0.1,0.1,0.2,0.1,0.4,0.1c0.3,0,0.5-0.1,0.7-0.4
			C-233.2,416.2-233.4,415.7-233.7,415.5z"/>
	</g>
	<g>
		<polygon fill="none" stroke="#FFFFFF" stroke-linecap="round" stroke-linejoin="round" stroke-miterlimit="10" points="
			-216.2,391.4 -225.8,385.8 -235.5,391.4 -225.8,408.1 		"/>
		
			<line fill="none" stroke="#FFFFFF" stroke-linecap="round" stroke-linejoin="round" stroke-miterlimit="10" x1="-225.9" y1="391.9" x2="-225.9" y2="408"/>
	</g>
</g>
</svg>
