<svg xmlns="http://www.w3.org/2000/svg" xmlns:xlink="http://www.w3.org/1999/xlink" width="16" height="864" viewBox="0 0 16 864"><svg viewBox="0 0 16 16" width="16" height="16" id="add" y="0"><path d="M15.213 9.296H9.229v5.511c0 .448-.484.824-1.078.824h-.072c-.593 0-1.078-.363-1.078-.824V9.296H.775C.351 9.296 0 8.799 0 8.206v-.073c0-.618.339-1.09.775-1.09h6.226v-5.85c0-.448.484-.824 1.078-.824h.073c.593 0 1.078.363 1.078.824v5.838h5.995c.424 0 .775.497.775 1.09v.073c-.012.605-.351 1.102-.787 1.102z"></path></svg><svg viewBox="0 0 16 16" width="16" height="16" id="addlg" y="16"><path d="M0 7.503h16v.994H0v-.994z"></path><path d="M7.503 0h.994v16h-.994V0z"></path></svg><svg viewBox="0 0 16 16" width="16" height="16" id="arrow" y="32"><path d="M16 2.864L8 13.136 0 2.864h16z"></path></svg><svg viewBox="0 0 16 16" width="16" height="16" id="back" y="48"><path d="M10.978 16L2.447 7.994 10.978 0l2.575 2.404-5.98 5.59 5.98 5.59L10.978 16z"></path></svg><svg viewBox="0 0 16 16" width="16" height="16" id="caution" y="64"><path d="M15.878 14.385L8.434 1.134c-.265-.433-.649-.433-.914 0L.113 14.385c-.265.433-.048.806.481.806h14.863c.481 0 .698-.385.421-.806zm-7.239-1.503c-.156.156-.373.216-.649.216-.277 0-.541-.048-.697-.216-.156-.156-.216-.373-.216-.649 0-.277.048-.541.216-.649.156-.156.373-.216.697-.216.265 0 .541.048.649.216.108.156.216.373.216.649.06.276-.048.481-.216.649zm0-2.417H7.352l-.264-5.099h1.828l-.277 5.099z"></path></svg><svg viewBox="0 0 16 16" width="16" height="16" id="change" y="80"><path d="M4.199 7.897L.826 4.572c-.049 0-.109 0-.158-.049l-.376-.376c-.109-.109-.109-.218 0-.316L4.09.081c.109-.109.267-.109.316 0l.437.376c.109.109.049.218 0 .316L2.209 3.346h12.487v1.019H2.112l2.84 2.84c.109.109.049.218 0 .316l-.425.376c-.121.109-.279.109-.328 0zm11.516 3.907l-3.81-3.75c-.109-.109-.267-.109-.316 0l-.425.376c-.109.109-.109.218 0 .316l2.621 2.573H1.299v1.019h12.584l-2.84 2.84c-.109.109-.049.218 0 .316l.376.425c.109.109.267.109.316 0l3.325-3.325c.049 0 .109 0 .158-.049l.425-.376c.182-.086.182-.255.072-.365z"></path></svg><svg viewBox="0 0 16 16" width="16" height="16" id="checked" y="96"><path d="M5.236 10.521l8.925-8.609L16 3.702 5.224 14.088 0 9.035l1.839-1.79 3.397 3.276z"></path></svg><svg viewBox="0 0 16 16" width="16" height="16" id="checkedlg" y="112"><path d="M15.853 2.565a.483.483 0 0 0-.691 0l-9.679 9.788L.849 7.672a.497.497 0 0 0-.703 0 .513.513 0 0 0 0 .716l4.961 5.021s.012 0 .012.012c0 0 0 .012.012.012a.494.494 0 0 0 .691.012l.012-.012L15.865 3.281a.525.525 0 0 0-.012-.716z"></path></svg><svg viewBox="0 0 16 16" width="16" height="16" id="chevron" y="128"><path d="M5.018 16l-2.57-2.4 5.964-5.588L2.473 2.4 5.042 0l8.509 7.988L5.018 16z"></path></svg><svg viewBox="0 0 16 16" width="16" height="16" id="clone" y="144"><path d="M10 4V0H3.006L0 3.006V12h6v4h10V4h-6zM3.006 1.418v1.588H1.418l1.588-1.588zM.994 11.006V4H4V.994h4.994V4L6 7.006v4H.994zm8-5.588v1.588H7.418l1.576-1.588zm6.012 9.588h-8V8h3.006V4.994h4.994v10.012z"></path></svg><svg viewBox="0 0 16 16" width="16" height="16" id="close" y="160"><path d="M15.766 2.34l-5.574 5.587 5.145 5.145c.43.43.319 1.216-.246 1.756l-.074.072c-.54.54-1.326.651-1.756.221l-5.12-5.132-5.795 5.82c-.405.405-1.179.27-1.743-.295l-.074-.074c-.565-.565-.7-1.351-.295-1.756l5.808-5.82L.578 2.426C.148 1.996.271 1.21.811.67L.885.596c.54-.54 1.326-.651 1.756-.246L8.08 5.79 13.654.191c.405-.405 1.179-.27 1.743.295l.074.074c.565.601.7 1.387.295 1.78z"></path></svg><svg viewBox="0 0 16 16" width="16" height="16" id="collapse" y="176"><path d="M16 9.15H0v-2.3h16v2.3z"></path></svg><svg viewBox="0 0 16 16" width="16" height="16" id="combinedview" y="192"><path d="M.177 5.563l7.616 4.258c.182.085.268.049.304 0l7.664-4.258c.182-.049.304-.401 0-.572L8.146.734a.333.333 0 0 0-.304 0L.177 4.992c-.268.133-.182.523 0 .571zm7.798-4.16l6.959 3.857-6.959 3.892-6.958-3.856 6.958-3.893z"></path><path d="M15.774 7.692l-1.947-1.107c-.219.134-.438.268-.669.401l1.728.973-6.91 3.893-6.959-3.855 1.679-.925c-.183-.134-.572-.402-.621-.438L.128 7.692c-.268.134-.182.535 0 .572l1.557.839.706.401 5.45 3.017c.182.085.268.049.304 0l5.45-3.017.706-.401 1.509-.839c.134-.048.268-.401-.036-.572z"></path><path d="M15.774 10.442l-1.947-1.107c-.219.134-.438.268-.669.401l1.728.973-6.91 3.893-6.959-3.892 1.679-.925c-.182-.134-.572-.401-.62-.438L.178 10.442c-.268.134-.182.535 0 .572l1.509.839.706.401 5.45 3.017c.182.085.268.049.304 0l5.45-3.017.706-.401 1.509-.839c.132-.049.266-.402-.038-.572z"></path></svg><svg viewBox="0 0 16 16" width="16" height="16" id="customize" y="208"><path d="M15.879.577a.5.5 0 0 0-.308-.13c-.225 0-.854 0-4.755 3.32-1.614 1.387-3.452 3.095-5.029 4.565-.451.451-.901.854-1.257 1.257-2.419.308-2.739 1.838-3 3.143-.225 1.079-.356 1.66-1.257 1.708-.131-.001-.273.13-.273.272 0 .13.047.273.178.308.047 0 1.257.534 2.644.534 1.53 0 3.498-.629 4.127-3.451 1.838-1.886 4.21-4.53 6.012-6.724.984-1.21 1.743-2.194 2.289-2.965.724-1.079.901-1.565.629-1.837zM5.977 9.008l1.565 1.613c-.308.308-.629.629-.901.937L5.028 9.957l.949-.949zm-3.19 5.965a6.038 6.038 0 0 1-1.613-.225c.581-.403.723-1.162.901-1.886.273-1.21.498-2.372 2.467-2.644l1.791 1.838c-.451 1.933-1.613 2.917-3.546 2.917zm9.463-9.641a108.3 108.3 0 0 1-4.305 4.838L6.38 8.605c1.518-1.435 3.226-3.048 4.791-4.352 2.692-2.289 3.724-2.965 4.127-3.143-.131.415-.759 1.482-3.048 4.222z"></path></svg><svg viewBox="0 0 16 16" width="16" height="16" id="delete" y="224"><path d="M3.141 4.568v9.905c0 .843.684 1.527 1.527 1.527h6.852c.843 0 1.527-.684 1.527-1.527V4.568H3.141zm3.041 9.905h-.757V6.095h.757v8.378zm2.284 0h-.757V6.095h.757v8.378zm2.284 0h-.757V6.095h.757v8.378zm2.284-12.189H10.75V.757A.745.745 0 0 0 9.993 0H6.182a.746.746 0 0 0-.757.757v1.527H3.141c-.427 0-.757.33-.757.757s.33.757.757.757h9.917c.427 0 .757-.33.757-.757s-.353-.757-.781-.757zM6.561 1.148h3.053v1.148H6.561V1.148z"></path></svg><svg viewBox="0 0 16 16" width="16" height="16" id="done" y="240"><path d="M8 0C3.601 0 0 3.553 0 8s3.601 8 8 8c4.447 0 8-3.601 8-8 0-4.447-3.553-8-8-8zm0 14.719c-3.698 0-6.719-3.009-6.719-6.719S4.302 1.281 8 1.281 14.719 4.29 14.719 8 11.698 14.719 8 14.719z"></path><path fill="#231f20" d="M6.767 9.281L4.242 6.767 2.719 8.302l2.514 2.514 1.534 1.534 6.127-6.078-1.583-1.535z"></path></svg><svg viewBox="0 0 16 16" width="16" height="16" id="dragdrop" y="256"><path d="M0 12.998v-1.985h13.991v1.985H0zm2.009-3.993v-2.01H16v2.009H2.009v.001zM0 4.998V3.002h13.991v1.985L0 4.998z"></path></svg><svg viewBox="0 0 16 16" width="16" height="16" id="dragdroplg" y="272"><path d="M15.966 8l-.303.303c-.048.048-.048.048-.097.048l-2.556 2.556c-.048.048-.206.048-.254 0l-.303-.303c-.048-.048-.097-.145 0-.254l2.156-2.156H8.613v6.311l1.95-1.999c.048-.048.206-.048.254 0l.303.303c.048.048.048.206 0 .254L8.261 15.97c-.048.048-.206.048-.254 0l-.303-.303s-.048-.048-.048-.097L5.1 13.015c-.048-.048-.048-.206 0-.254l.303-.303c.048-.048.145-.097.254 0l2.156 2.156V8.206H1.502l1.999 1.95c.048.048.048.206 0 .254l-.303.303c-.048.048-.206.048-.254 0L.036 7.855c-.048-.048-.048-.206 0-.254l.303-.303s.048-.048.097-.048l2.556-2.556c.048-.048.206-.048.254 0l.303.303c.048.048.048.145 0 .254L1.405 7.406h6.36V1.495L5.803 3.494c-.048.048-.206.048-.254 0l-.304-.303c-.048-.048-.048-.206 0-.254L8.104.03c.048-.048.206-.048.254 0l.303.303c.049.047.049.047.049.096l2.556 2.556c.048.048.048.206 0 .254l-.303.303c-.048.048-.145.097-.254 0L8.565 1.398v6.009h5.912l-1.999-1.95c-.048-.048-.048-.145 0-.254l.303-.303c.048-.048.206-.048.254 0l2.907 2.859c.073.096.073.193.024.241z"></path></svg><svg viewBox="0 0 16 16" width="16" height="16" id="duplicate" y="288"><path d="M12.571 10.285v1.143H16V-.001H4.571v3.429h1.143V1.142h9.143v9.143h-2.286zM0 4.763v11.044c.012.12.12.205.241.192h10.947a.218.218 0 0 0 .241-.192V4.763a.216.216 0 0 0-.241-.192H.241A.217.217 0 0 0 0 4.763zm1.143.951h9.143v9.143H1.143V5.714z"></path></svg><svg viewBox="0 0 16 16" width="16" height="16" id="edit" y="304"><path d="M16 3.697L12.303 0l-1.455 1.455-8.4 8.4L0 16l5.297-2.097.897-.352 8.4-8.4L16 3.697zm-3.697-2.449l2.448 2.448-.606.606-2.448-2.448.606-.606zm-10.751 13.2l1.2-3.055 1.855 1.855-3.055 1.2zm4-1.503l-2.448-2.448 8-8 2.448 2.448-8 8zM12 4.606l-6.752 6.788-.606-.606L11.394 4l.606.606z"></path></svg><svg viewBox="0 0 16 16" width="16" height="16" id="expand" y="320"><path d="M16 8.775H8.781v7.219H7.243V8.775H0v-1.55h7.219V.006h1.538v7.219h7.231v1.538H16v.012z"></path></svg><svg viewBox="0 0 16 16" width="16" height="16" id="feedback" y="336"><path d="M8 16c-4.424 0-8-3.576-8-8s3.576-8 8-8 8 3.576 8 8-3.576 8-8 8zM8 4.291c-2.109 0-3.83 1.564-3.83 3.455 0 .885.376 1.721 1.006 2.315L4.17 12.17l2.4-1.224c.46.169.921.254 1.43.254 2.145 0 3.83-1.564 3.83-3.455 0-1.939-1.721-3.454-3.83-3.454zm0 5.818c-1.43 0-2.655-1.006-2.655-2.279S6.521 5.564 8 5.564s2.655 1.006 2.655 2.279S9.43 10.109 8 10.109z"></path></svg><svg viewBox="0 0 16 16" width="16" height="16" id="filter" y="352"><path d="M14.303 0H1.697a.673.673 0 0 0-.667.667.67.67 0 0 0 .109.364c.048.085 5.564 4.036 5.564 4.036h.012v6.364L9.297 16V5.067s5.515-3.952 5.564-4.036a.639.639 0 0 0 .109-.364.673.673 0 0 0-.667-.667z"></path></svg><svg viewBox="0 0 16 16" width="16" height="16" id="filterremove" y="368"><path d="M8 16c-4.376 0-8-3.624-8-8s3.624-8 8-8 8 3.624 8 8c0 4.376-3.624 8-8 8zm3.2-10.242c.218-.218.109-.642-.109-.752-.218-.218-.533-.315-.752-.109l-2.23 2.255L5.648 4.8c-.218-.218-.642-.109-.751.109-.218.218-.315.533-.109.752L7.248 8l-2.339 2.352c-.218.218-.109.642.109.751.218.218.533.315.752.109l2.339-2.364 2.242 2.242c.218.218.642.109.752-.109.218-.218.315-.533.109-.752L8.958 8 11.2 5.758z"></path></svg><svg viewBox="0 0 16 16" width="16" height="16" id="gethelp" y="384"><path d="M8 16c-4.424 0-8-3.576-8-8s3.576-8 8-8 8 3.576 8 8-3.576 8-8 8zm-.8-4.339c.17.17.339.255.545.255a.546.546 0 0 0 .291-.085.772.772 0 0 0 .255-.17c.085-.085.121-.17.17-.255.036-.085.036-.206.036-.291a.815.815 0 0 0-.206-.545c-.17-.17-.339-.255-.545-.255-.206 0-.424.085-.545.255-.17.17-.206.339-.206.545-.05.206.035.376.205.546zm2.691-6.352a2.634 2.634 0 0 0-.424-.545c-.17-.17-.424-.255-.679-.376a3 3 0 0 0-.885-.121c-.339 0-.63.036-.885.121a2.064 2.064 0 0 0-.63.339c-.17.133-.291.291-.376.461a.935.935 0 0 0-.121.461c0 .085 0 .206.036.255.036.085.085.121.17.17a.758.758 0 0 0 .206.121.428.428 0 0 0 .206.035c.121 0 .255-.036.291-.121.036-.085.121-.17.206-.291.085-.085.17-.206.291-.291.121-.085.339-.121.594-.121.255 0 .461.036.679.17.17.121.255.291.255.545 0 .121-.036.255-.085.376-.085.121-.122.206-.255.291-.085.085-.206.17-.291.254-.121.085-.206.17-.291.206s-.17.122-.255.207a.797.797 0 0 0-.206.339c-.085.121-.121.255-.17.424-.048.17-.085.376-.085.594 0 .255.036.461.121.545.085.085.206.121.424.121.255 0 .424-.036.509-.121a.376.376 0 0 0 .121-.291V8.69c0-.121.038-.205.086-.338.036-.085.085-.206.17-.291.085-.085.17-.206.339-.339.085-.037.17-.122.291-.255.122-.122.255-.255.376-.425.121-.17.255-.339.339-.545.085-.206.121-.424.121-.679-.023-.097-.06-.303-.193-.509z"></path></svg><svg viewBox="0 0 16 16" width="16" height="16" id="grid" y="400"><path d="M0 5.327V2.139h7.467v3.188H0zm8.533 0V2.139H16v3.188H8.533zM0 9.594V6.406h7.467v3.188H0zm8.533 0V6.406H16v3.188H8.533zM0 13.861v-3.188h7.467v3.188H0zm8.533 0v-3.188H16v3.188H8.533z"></path></svg><svg viewBox="0 0 16 16" width="16" height="16" id="helpoff" y="416"><path d="M7.157 12.097a.77.77 0 0 0 .594.255c.255 0 .424-.085.594-.255s.255-.339.255-.594c0-.255-.085-.424-.255-.594s-.339-.255-.594-.255-.424.085-.594.255a.77.77 0 0 0-.255.594c0 .169.085.424.255.594zm2.46-7.394c-.424-.339-1.018-.509-1.696-.509s-1.188.17-1.612.509c-.425.34-.606.679-.606 1.018 0 .17.085.339.17.424.17.085.255.17.424.17s.255 0 .339-.085.17-.17.17-.255c.085-.085.17-.17.339-.255.17-.085.339-.085.594-.085.255 0 .509.085.679.17.17.085.255.339.255.509s0 .255-.085.424c-.085.17-.17.255-.255.339-.085.085-.17.17-.339.255-.17.17-.255.17-.255.255-.509.425-.764.934-.764 1.613 0 .255.085.509.17.594s.255.17.509.17c.424 0 .679-.17.679-.424v-.509c0-.085.085-.255.17-.424.085-.17.255-.339.424-.424.848-.679 1.273-1.273 1.273-2.036.096-.68-.074-1.104-.583-1.444z"></path><path d="M8.005.849c3.951 0 7.151 3.212 7.151 7.151a6.887 6.887 0 0 1-1.988 5.006 7.288 7.288 0 0 1-5.175 2.145C4.042 15.151.842 11.939.842 8 .855 4.073 4.078.849 8.005.849m0-.848C3.582.001.006 3.576.006 8s3.575 7.999 7.999 7.999c4.509 0 8.084-3.575 7.999-7.999.013-4.424-3.563-7.999-7.999-7.999z"></path></svg><svg viewBox="0 0 16 16" width="16" height="16" id="helpon" y="432"><path d="M8.007 15.999C3.583 15.999.008 12.424.008 8S3.583.001 8.007.001 16.006 3.576 16.006 8c.097 4.424-3.478 7.999-7.999 7.999zm-.848-3.915a.77.77 0 0 0 .594.255c.255 0 .424-.085.594-.255s.255-.339.255-.594-.085-.424-.255-.594-.339-.255-.594-.255-.424.085-.594.255a.77.77 0 0 0-.255.594c0 .17.085.425.255.594zm2.46-7.405c-.424-.339-1.018-.509-1.697-.509s-1.188.17-1.612.509c-.436.34-.606.679-.606 1.018 0 .17.085.339.17.424.17.085.255.17.424.17.17 0 .255 0 .339-.085.085-.085.17-.17.17-.255.085-.085.17-.17.339-.255.17-.085.339-.085.594-.085s.509.085.679.17.255.339.255.509c0 .17 0 .255-.085.424s-.17.256-.255.341-.17.17-.339.255c-.17.17-.255.17-.255.255-.509.423-.763.932-.763 1.611 0 .255.085.509.17.594.085.085.255.17.509.17.424 0 .679-.17.679-.424v-.509c0-.085.085-.255.17-.424.085-.17.255-.339.424-.424.848-.679 1.273-1.273 1.273-2.048.096-.668-.074-1.092-.583-1.432z"></path></svg><svg viewBox="0 0 16 16" width="16" height="16" id="info" y="448"><path d="M6.419 12.584v-.498h.985V6.663h-.985v-.487h2.468v5.908h.985v.498H6.419zm1.484-7.247c-.547 0-.985-.45-.985-.985s.45-.985.985-.985c.535 0 .985.45.985.985s-.438.985-.985.985z"></path><path d="M8 0C3.611 0 0 3.562 0 8s3.599 8 8 8c4.438 0 8-3.599 8-8 0-4.438-3.562-8-8-8zm0 15.052C4.097 15.052.948 11.891.948 8S4.109.948 8 .948 15.052 4.109 15.052 8 11.903 15.052 8 15.052z" fill="#231f20"></path></svg><svg viewBox="0 0 16 16" width="16" height="16" id="infoon" y="464"><path d="M6.446 12.599v-.502H7.45V6.654H6.446v-.501h2.446v5.945h1.003v.502H6.446v-.001zm1.456-7.253c-.55 0-1.003-.453-1.003-1.003S7.352 3.34 7.902 3.34s1.003.453 1.003 1.003a1 1 0 0 1-1.003 1.003zM8 0C3.596 0 0 3.596 0 8s3.596 8 8 8 8-3.596 8-8-3.547-8-8-8z"></path></svg><svg viewBox="0 0 16 16" width="16" height="16" id="library" y="480"><path d="M13.539 16H2.545c-.533 0-.933-.4-1.018-.885-.133-.267-.218-.97-.4-2.752 0-.133 0-.352.048-.533.133-.267.352-.448.618-.448.315 0 .715.218 1.285.618.485.352.8.485 1.236.485.97 0 1.77-.8 1.77-1.733s-.8-1.733-1.77-1.733c-.4 0-.752.133-1.2.485-.533.4-.933.618-1.285.618s-.581-.219-.665-.619c0-.048-.048-.182 0-.315.218-2.703.351-3.455.351-3.588.133-.97.618-1.103.933-1.103h.182s2.655.315 3.503.352c.218 0 .448-.048.485-.133.049-.086 0-.352-.266-.716C6 3.467 5.77 3.03 5.77 2.4 5.782 1.103 6.897 0 8.218 0s2.436 1.103 2.436 2.436c0 .618-.182.885-.533 1.503l-.085.085c-.218.4-.267.618-.182.752.048.085.218.133.315.133h.085c.933-.085 3.503-.352 3.552-.352h.133c.618.182.933.582.933 1.2v8.958c.001.752-.533 1.285-1.333 1.285zm-11.43-1.285a.324.324 0 0 1 .085.218c0 .182.182.352.352.352H13.54c.4 0 .618-.218.618-.618V5.721c0-.218-.048-.4-.4-.485-.448.048-2.618.267-3.455.352-.485.048-.885-.133-1.067-.485-.133-.218-.266-.715.219-1.467l.048-.048c.352-.533.448-.715.448-1.103 0-.97-.8-1.733-1.77-1.733s-1.77.8-1.77 1.733c0 .448.133.715.448 1.2.485.715.448 1.2.315 1.467-.18.351-.58.533-1.15.484-.885-.048-3.418-.351-3.551-.351h-.085c-.182 0-.218.315-.267.533v.048c0 .048-.133.667-.352 3.552v.096c.218-.048.715-.4.885-.485.4-.267.933-.582 1.6-.582 1.37 0 2.436 1.103 2.436 2.436s-1.103 2.436-2.436 2.436c-.715 0-1.152-.267-1.636-.667-.582-.448-.8-.485-.836-.485v.182c.194 1.699.279 2.233.327 2.366z"></path></svg><svg viewBox="0 0 16 16" width="16" height="16" id="linked" y="496"><path d="M2.487 9.46a.492.492 0 0 1-.497-.499V6.966c0-.28.218-.499.497-.499h4.488C6.696 5.25 5.689 4.398 4.488 4.398H2.487C1.14 4.398 0 5.542 0 6.966v2.069c0 1.424 1.14 2.494 2.487 2.567h2.002c1.201-.073 2.196-.925 2.487-2.142H2.487zm11.038-5.062h-2.002c-1.213 0-2.208.852-2.414 2.069h4.415c.279 0 .497.219.497.499v2.069c0 .28-.218.499-.497.499H9.037c.218 1.144 1.286 1.996 2.414 2.069h2.062c1.419 0 2.487-1.144 2.487-2.567v-2.07c.012-1.424-1.128-2.568-2.475-2.568zM4.124 7.246h7.824V8.67H4.124V7.246z"></path></svg><svg viewBox="0 0 16 16" width="16" height="16" id="list" y="512"><path d="M.069 13.597v-1.594H15.95v1.594H.069zm0-3.2V8.803H15.95v1.594H.069zm0-3.2V5.603H15.95v1.594H.069zm0-3.2V2.403H15.95v1.594H.069z"></path></svg><svg viewBox="0 0 16 16" width="16" height="16" id="localization" y="528"><path d="M14.709 3.595a7.996 7.996 0 0 0-3.37-2.93 7.554 7.554 0 0 1 3.37 2.93zM6.265.31c-.158.123-.304.282-.475.344-.085.036-.535.135-.559.282.073.208 0 .208-.17.539-.183.086-.512.037-.67.172-.122.343-.426.649-.62.943.499.086-.085.454-.365.65-.28.221-.378.503-.585.76-.134.172-.329.172-.45.343-.219.294-.633.65-.73 1.017-.28.245-.292.858-.389 1.201a2.455 2.455 0 0 0 .681 2.465l1.083-.123c.329-.245.73-.343.961.037.207.367.426-.037.633.135 0 .221.243.503.183.772-.389.417.596 1.201.827 1.569.134.208.414.772.377 1.017-.377.38-.037.895.219 1.189.414.478.827 1.005 1.192 1.495.292.037.584.049.888.049.17 0 .329-.012.499-.012.243-.135.45-.331.596-.686.049-.221.535-.282.414-.65-.122-.38.183-.588.535-.797.475-.282.621-.601.548-1.152.134-.184-.365-.895-.183-1.238.219-.429.389-.711.681-1.103.499-.686.876-1.054 1.107-1.875.122-.417.122-.515.085-.895-.28-.074-.913.637-1.229.417-.243-.172-.511-.981-.961-.944-.28-.098-.596-.932-.767-1.275-.205-.417-.643-.686-.765-1.201.17 0 1.18.76 1.107 1.152.085.221.548.797.767.858.158.294.183.686.377.968.158.221 1.278-.601 1.424-.76-.037-.245.183-.331.365-.368.073-.172.049-.208.158-.368.097-.159-.012-.343.134-.343.037-.208-.049-.454-.219-.625-.134-.135-.329-.086-.475-.221l-.207-.331c-.049.123.012.564-.256.466-.365.123-.17-.208-.426-.343-.012.392-.134-.049-.329-.159-.134-.074-.414-.331-.414-.478.389.012.584.38 1.01.515l.256-.074c.134-.184.219.135.304.184.389.221.803-.086 1.18-.049.219.159.414.429.669.392.099.209-.083.05-.071.099a.697.697 0 0 0 .389.294l-.012-.294c.329.257.462.834.681 1.177.122.184.28.588.45.919a7.812 7.812 0 0 0-1.046-2.795c.828 1.262 1.278 2.758 1.278 4.376 0 4.449-3.577 8.053-8.006 8.053C3.527 16-.05 12.396-.05 7.947S3.527-.082 7.944-.082c1.192 0 2.324.257 3.334.735a7.334 7.334 0 0 0-3.03-.637A8.08 8.08 0 0 0 6.265.31zm4.83 13.337c-.122.159-.17.601.17.466.621-.257.621-1.312 1.059-1.692l.037.074.073-.331v-.025l-.049-.331c-.122.049-.292.417-.389.552-.256.343-.84.368-.681.932a.904.904 0 0 1-.085-.368l-.085.074c-.122-.184.219-.637.17-.883l-.183.368c-.012-.049-.085.037-.207.049 0 .159.097.454.219.466l.012.012c-.134.232.134.391-.061.637zM9.112 1.475c.036-.037-.134-.037 0 0-.073-.012-.56 0-.548-.135-.219.037-.462.343-.705.135-.122-.208.158-.343.085-.552.219-.257.073 0 .304-.086l-.073.086c.024 0 1.363.27.937.552zm-.56 1.691c-.11-.074-.207-.11-.353.025-.182.184-.425-.074-.669-.012.243-.049-.012-.098 0 0-.012-.172-.584-.184-.681-.086-.329.306.073.417-.45.294-.305-.073-.183-.368-.597-.282l-.219-.135c0-.208.243-.38.28-.588-.304-.294-1.545.723-1.861.466l.925-.809c.183-.368.645-.466.913-.625.28-.172.389.098.548.343.292.478-.341.257-.329.515.329.123.304.037.511-.208.133-.16-.038-.344.206-.209.134-.123-.791-.674-.28-.809-.097.123.633.502.389.686.256.331.097.564.389.625 0-.172-.012-.135.012-.257l.085.037c.038-.16-.181-.258-.121-.429.207.037.085.098.122-.049h.28c-.17.22.158.122-.012.331.049.135.183.159.17.257 0 .086.888 0 1.046-.098-.024.061.134 1.336-.304 1.017zM5.669 2.088l.158-.037c.037-.172.183-.417.183-.588-.11.024-.305.49-.341.625zm5.219-.135a.402.402 0 0 1-.462-.074c-.183.012-.341-.368-.219-.392-.037-.159-.56-.429-.681-.588 0-.208.341-.478.426-.159l-.134.134c.255.147 1.022.773 1.07 1.079zM10.414.715l.012-.123c.134.037.256.331.389.343-.146.16-.352-.159-.401-.22zm-5.354.772l.012-.012.122-.086-.134.098z"></path></svg><svg viewBox="0 0 16 16" width="16" height="16" id="lock" y="544"><path d="M7.503 9.442v.824a.518.518 0 0 0 1.006 0v-.824a.76.76 0 0 0 .497-.667c0-.423-.448-.775-.994-.775s-.994.352-.994.776c0 .303.194.569.485.666zm4.121-3.115H4.339a.719.719 0 0 0-.678.715v4.909c0 .388.315.715.703.715h7.248a.706.706 0 0 0 .703-.715V7.042c.024-.387-.303-.715-.691-.715zm0 5.625H4.376v-4.91h7.248v4.91zM6.012 6.23V4.921c0-.703 1.248-1.285 1.988-1.285s1.988.582 1.988 1.285v1.285c0 .182.145.097.339.097s.339.085.339-.097V4.933c0-1.067-1.552-1.927-2.667-1.927s-2.666.861-2.666 1.927v1.37c-.024-.012.679-.073.679-.073zM8 0C3.576 0 0 3.576 0 8s3.576 8 8 8 8-3.576 8-8-3.576-8-8-8zm0 15.067A7.067 7.067 0 1 1 15.067 8 7.067 7.067 0 0 1 8 15.067z"></path></svg><svg viewBox="0 0 16 16" width="16" height="16" id="maximize" y="560"><path d="M14.783 0H8.626c-.735 0-1.229.494-1.229 1.228s.494 1.228 1.229 1.228h3.205l-9.373 9.358V8.623c0-.735-.494-1.228-1.229-1.228S0 7.877 0 8.623v6.154c0 .735.494 1.228 1.229 1.228h6.157c.735 0 1.229-.494 1.229-1.228 0-.735-.494-1.228-1.229-1.228H4.181l9.361-9.358v3.204c0 .735.494 1.228 1.229 1.228S16 8.13 16 7.395V1.228C16.012.494 15.518 0 14.783 0z"></path></svg><svg viewBox="0 0 16 16" width="16" height="16" id="minimize" y="576"><path d="M15.67.285a1.054 1.054 0 0 0-1.513 0l-3.465 3.563V1.041c0-.537-.427-1.086-1.086-1.086-.537 0-1.086.427-1.086.976v5.515c0 .537.427 1.086.976 1.086h5.308c.537 0 1.086-.427 1.086-1.086s-.427-1.086-1.086-1.086h-2.928l3.575-3.453c.646-.439.646-1.195.219-1.622zM.297 15.756a1.054 1.054 0 0 1 0-1.513l3.465-3.575H1.053c-.537 0-1.086-.427-1.086-1.086 0-.537.427-1.086 1.086-1.086h5.308c.537 0 1.086.427 1.086.976v5.308c0 .537-.427 1.086-1.086 1.086-.537 0-1.086-.427-1.086-1.086v-2.806L1.81 15.548c-.427.647-1.074.647-1.513.208z"></path></svg><svg viewBox="0 0 16 16" width="16" height="16" id="more" y="592"><path d="M1.612 6.398c.703.097 1.261.752 1.261 1.515 0 .776-.558 1.43-1.261 1.515-.06.012-.121.012-.182.012C.655 9.452 0 8.761 0 7.913s.655-1.539 1.442-1.539c.049-.013.122.024.17.024zm6.57 0c.703.097 1.261.752 1.261 1.515s-.558 1.43-1.261 1.515c-.061.012-.121.012-.182.012-.788 0-1.442-.691-1.442-1.539S7.212 6.361 8 6.361c.061 0 .121.037.182.037zm6.557 0c.703.097 1.261.751 1.261 1.515s-.558 1.43-1.261 1.515c-.06.012-.121.012-.181.012-.788 0-1.442-.691-1.442-1.539s.655-1.539 1.442-1.539c.06-.001.133.036.181.036z"></path></svg><svg viewBox="0 0 16 16" width="16" height="16" id="msgdanger" y="608"><path d="M8 0C3.588 0 0 3.588 0 8s3.588 8 8 8 8-3.588 8-8-3.588-8-8-8zm2.024 11.418S8.145 9.394 8 9.394s-2.024 2.024-2.024 2.024L4.8 10.242s2.024-1.855 2.024-2.024c0-.17-2.024-2.036-2.024-2.036l1.176-1.176S7.855 7.03 8 7.03s2.024-2.024 2.024-2.024L11.2 6.182S9.176 8.061 9.176 8.206 11.2 10.23 11.2 10.23l-1.176 1.188z"></path></svg><svg viewBox="0 0 16 16" width="16" height="16" id="msginfo" y="624"><path d="M8 0C3.588 0 0 3.588 0 8s3.588 8 8 8 8-3.588 8-8-3.588-8-8-8zm.885 12.412h-1.77V6.715h1.782v5.697h-.012zm0-6.764h-1.77V4.23h1.782v1.418h-.012z"></path></svg><svg viewBox="0 0 16 16" width="16" height="16" id="msgsuccess" y="640"><path d="M8 0C3.588 0 0 3.588 0 8s3.588 8 8 8 8-3.588 8-8-3.588-8-8-8zm.533 10.667c0-.036-.994 1.067-.994 1.067L4.158 8.642l1.176-1.176L7.358 9.49l3.77-4.158 1.176 1.176c.035.001-3.771 4.013-3.771 4.159z"></path></svg><svg viewBox="0 0 16 16" width="16" height="16" id="msgwarning" y="656"><path d="M8 0C3.588 0 0 3.588 0 8s3.588 8 8 8 8-3.588 8-8-3.588-8-8-8zm.885 12.691h-1.77v-1.418h1.782v1.418h-.012zm0-2.485h-1.77l-.351-5.685h2.485l-.364 5.685z"></path></svg><svg viewBox="0 0 16 16" width="16" height="16" id="noimage" y="672"><path d="M5.3 6.872a1.42 1.42 0 0 0-.024-2.839 1.427 1.427 0 0 0-1.407 1.42c0 .788.643 1.419 1.431 1.419zm2.123 3.785L4.754 8.74l-2.669 2.875h11.39l-3.202-6.696-2.85 5.738zm7.12-9.329H1.37A1.441 1.441 0 0 0-.049 2.772v10.456c0 .788.631 1.431 1.419 1.444h13.161a1.442 1.442 0 0 0 1.419-1.444V2.772a1.423 1.423 0 0 0-1.407-1.444zm.34 11.706a.53.53 0 0 1-.534.534H1.564a.54.54 0 0 1-.534-.534V2.954a.54.54 0 0 1 .534-.534h12.785a.54.54 0 0 1 .534.534v10.08z"></path></svg><svg viewBox="0 0 16 16" width="16" height="16" id="options" y="688"><path d="M8.861 16H7.212c-.315 0-.412 0-1.273-2.17l-.57-.242c-1.77.824-1.988.824-2.073.824a.467.467 0 0 1-.327-.133l-1.176-1.176c-.23-.23-.291-.291.642-2.448l-.23-.558C0 9.297 0 9.2 0 8.861V7.212c0-.327 0-.412 2.182-1.273l.23-.558C1.43 3.273 1.503 3.2 1.733 2.97l1.176-1.176a.467.467 0 0 1 .327-.133c.085 0 .303 0 2.109.776l.57-.242C6.715 0 6.824 0 7.139 0H8.8c.315 0 .412 0 1.273 2.182l.57.23c1.769-.812 1.975-.812 2.072-.812.121 0 .242.048.327.133l1.176 1.176c.23.23.291.291-.642 2.448l.23.558C16 6.715 16 6.8 16 7.139V8.8c0 .327 0 .412-2.182 1.285l-.23.558c.982 2.109.909 2.182.679 2.412l-1.176 1.176a.467.467 0 0 1-.327.133c-.085 0-.303 0-2.097-.776l-.57.242C9.285 16 9.188 16 8.861 16zm-1.419-.897h1.176c.158-.339.461-1.115.703-1.782a.46.46 0 0 1 .255-.267l.921-.388a.417.417 0 0 1 .339 0 46.92 46.92 0 0 0 1.806.739l.824-.824a26.913 26.913 0 0 0-.764-1.745.505.505 0 0 1-.012-.376l.376-.921a.416.416 0 0 1 .255-.242 47.163 47.163 0 0 0 1.794-.752V7.394a31.824 31.824 0 0 0-1.782-.703.46.46 0 0 1-.267-.255l-.376-.921a.478.478 0 0 1 0-.364c.291-.655.606-1.43.727-1.794l-.824-.824c-.352.133-1.115.461-1.77.764a.445.445 0 0 1-.352.012l-.919-.376a.416.416 0 0 1-.243-.254A60.326 60.326 0 0 0 8.558.885H7.382c-.158.339-.461 1.115-.703 1.782a.428.428 0 0 1-.255.266l-.921.388a.417.417 0 0 1-.339 0 31.231 31.231 0 0 0-1.806-.727l-.825.824c.134.352.461 1.115.764 1.746a.505.505 0 0 1 .012.376l-.388.921a.417.417 0 0 1-.254.242C2 6.97 1.224 7.297.873 7.455v1.152c.339.158 1.115.461 1.782.703a.44.44 0 0 1 .255.255l.376.921a.478.478 0 0 1 0 .364c-.279.655-.606 1.43-.727 1.794l.824.824c.352-.133 1.115-.473 1.758-.764a.445.445 0 0 1 .352-.012l.921.388a.416.416 0 0 1 .242.255c.302.653.629 1.429.786 1.768zM8 10.873a2.869 2.869 0 0 1-2.873-2.861 2.869 2.869 0 0 1 2.861-2.873A2.871 2.871 0 0 1 10.873 8 2.88 2.88 0 0 1 8 10.873zm0-4.837a1.964 1.964 0 1 0 .023 3.929A1.964 1.964 0 0 0 8 6.036z"></path></svg><svg viewBox="0 0 16 16" width="16" height="16" id="remove" y="704"><path d="M15.869 1.102L8.501 8.703a.4.4 0 0 1-.558 0l.303-1.098c-.158-.157-.158-.422 0-.555l6.64-6.901a.4.4 0 0 1 .558 0l.401.398c.158.157.158.423.024.555zm.049 13.839c.158.157.146.422 0 .555l-.401.398c-.158.157-.425.157-.558 0L7.433 8.293c-.158-.157-.146-.422 0-.555L8.537 6.64c.158-.157-.279.531-.146.7l7.527 7.601zM8.076 8.703c-.158.157-.425.157-.558 0L.174 1.102a.395.395 0 0 1 0-.555L.575.149c.158-.157.425-.157.558 0l6.64 6.901a.395.395 0 0 1 0 .555l.303 1.098zm.546-.41l-7.514 7.625c-.158.157-.425.145-.558 0l-.4-.398c-.158-.157-.158-.422 0-.555L7.663 7.34c.158-.157-.279-.832-.146-.7l1.105 1.098a.433.433 0 0 1 0 .555z"></path></svg><svg viewBox="0 0 16 16" width="16" height="16" id="removelg" y="720"><path d="M8.985 8.02l7.065 7.039-.935.931L8.05 8.951.985 16.05l-.935-.991L7.115 8.02.05.981.985.05 8.05 7.089 15.115.05l.935.931L8.985 8.02z"></path></svg><svg viewBox="0 0 16 16" width="16" height="16" id="restrictions" y="736"><path d="M7.988 0C3.599 0 0 3.55 0 8s3.599 8 8 8c4.438 0 8-3.599 8-8a7.977 7.977 0 0 0-8.012-8zm0 15.052C4.085 15.052.936 11.891.936 8S4.097.948 7.988.948 15.04 4.109 15.04 8s-3.149 7.052-7.052 7.052z"></path><path d="M13.812 12.584l-.985.985L1.97 3.696l.985-.985 10.857 9.873z"></path></svg><svg viewBox="0 0 16 16" width="16" height="16" id="search" y="752"><path d="M15.582 15.005l-4.634-4.767a6.3 6.3 0 0 0 1.456-4.039C12.404 2.778 9.699 0 6.363 0S.322 2.778.322 6.199s2.705 6.199 6.041 6.199a5.863 5.863 0 0 0 3.53-1.189L14.563 16l1.019-.995zM1.05 6.199C1.05 3.166 3.452.716 6.387.716s5.337 2.45 5.337 5.483-2.426 5.483-5.362 5.483S1.05 9.219 1.05 6.199z"></path></svg><svg viewBox="0 0 16 16" width="16" height="16" id="sort" y="768"><path d="M4.909 10.976V-.03H3.333v11.006l.788.8.788-.8zm3.333-1.164L4.121 14.03 0 9.812l1.091-1.127 3.03 3.091 3.03-3.091 1.091 1.127zm-2.424-2.57V5.788h4.364v1.455H5.818zm0-2.909V2.879h7.273v1.442l-7.273.012zm0-2.909V-.03H16v1.455H5.818v-.001z"></path></svg><svg viewBox="0 0 16 16" width="16" height="16" id="sync" y="784"><path d="M8 14.097a5.577 5.577 0 0 1-4.594-2.352L6.4 9.648 2.206 8.8l-1.103-.255h-.048L0 14.097l2.497-1.745C3.745 14.048 5.745 15.2 8 15.2c3.648 0 6.655-2.945 6.897-6.655h-1.055C13.6 11.648 11.055 14.097 8 14.097zm5.503-10.449C12.255 1.952 10.255.8 8 .8 4.352.8 1.345 3.745 1.103 7.455h1.055C2.4 4.352 4.897 1.903 8 1.903c1.903 0 3.552.897 4.606 2.352L9.6 6.352l4.194.848 1.103.255h.048L16 1.903l-2.497 1.745z"></path></svg><svg viewBox="0 0 16 16" width="16" height="16" id="top" y="800"><path d="M8 16c-4.412 0-8-3.588-8-8s3.588-8 8-8 8 3.588 8 8-3.588 8-8 8zm4.582-6.57L8.376 5.285a.226.226 0 0 0-.315 0l-.485.485-3.794 3.672a.226.226 0 0 0 0 .315l.594.606c.085.085.23.085.315 0l3.527-3.406 3.442 3.406c.085.085.23.085.315 0l.606-.606c.086-.096.086-.242.001-.327z"></path></svg><svg viewBox="0 0 16 16" width="16" height="16" id="visibilityoff" y="816"><path d="M13.006 4.667l2.085-1.879-.97-1.042-2.436 2.218C10.57 3.479 9.248 3.2 8 3.273c-3.406-.146-6.533 1.806-8 4.86.764 1.527 1.952 2.715 3.333 3.552l-1.673 1.6.909.97 2.085-1.952c2.376.909 5.079.909 7.455-.339 1.673-.836 2.994-2.23 3.891-3.891a8.672 8.672 0 0 0-2.994-3.406zM1.115 8.133C3.127 4.727 7.309 3.406 10.848 4.8L8 7.442v-2.23c-1.6 0-2.848 1.321-2.848 2.994 0 .485.133.97.412 1.394l-1.527 1.467a8.353 8.353 0 0 1-2.922-2.934zM8 12.036a9.933 9.933 0 0 1-2.57-.352l1.115-1.042a3.21 3.21 0 0 0 1.6.412c1.6-.073 2.848-1.321 2.848-2.921 0-.485-.133-.909-.352-1.321l1.527-1.394a8.424 8.424 0 0 1 2.715 2.715C13.491 10.57 10.848 12.109 8 12.036z"></path></svg><svg viewBox="0 0 16 16" width="16" height="16" id="visibilityon" y="832"><path d="M8 3.127C4.594 3.055 1.467 4.934 0 8c2.291 4.448 7.721 6.121 12.109 3.891C13.782 11.055 15.103 9.661 16 8c-1.467-3.066-4.594-4.945-8-4.873zm0 8.764C5.152 11.964 2.509 10.497 1.115 8c2.291-3.83 7.236-5.006 11.067-2.715 1.115.691 2.085 1.6 2.715 2.715-1.406 2.497-4.049 3.964-6.897 3.891zM8 8V5.079a2.988 2.988 0 0 0-2.848 2.994c.061 1.588 1.382 2.848 2.982 2.848 1.599-.072 2.86-1.321 2.86-2.921 0-.764-.352-1.527-.909-2.085L8 8z"></path></svg><svg viewBox="0 0 16 16" width="16" height="16" id="warning" y="848"><path d="M8.545 12.497c0 .303-.255.606-.594.606a.606.606 0 0 1-.594-.606c0-.352.255-.606.594-.606.352.061.594.315.594.606zm-1.09-2.8V3.248c0-.303.255-.497.545-.497.255 0 .497.255.497.497v6.448a.5.5 0 0 1-.497.498c-.303.061-.545-.194-.545-.497 0 .048 0 0 0 0zM8 0C3.6 0 0 3.6 0 8s3.6 8 8 8 8-3.6 8-8-3.6-8-8-8zm0 15.055C4.097 15.103.945 11.903.897 8S4.097.945 8 .945 15.055 4.097 15.055 8A7.047 7.047 0 0 1 8 15.055z"></path></svg></svg>