<?xml version="1.0" encoding="iso-8859-1"?>
<!-- Generator: Adobe Illustrator 16.0.4, SVG Export Plug-In . SVG Version: 6.00 Build 0)  -->
<!DOCTYPE svg PUBLIC "-//W3C//DTD SVG 1.1//EN" "http://www.w3.org/Graphics/SVG/1.1/DTD/svg11.dtd">
<svg version="1.1" id="Ebene_1" xmlns="http://www.w3.org/2000/svg" xmlns:xlink="http://www.w3.org/1999/xlink" x="0px" y="0px"
	 width="133.23px" height="133.23px" viewBox="0 0 133.23 133.23" style="enable-background:new 0 0 133.23 133.23;"
	 xml:space="preserve">
<path d="M67.616,13.481C38.277,12.938,14.05,36.286,13.507,65.624c-0.544,29.346,22.804,53.567,52.142,54.11
	c29.34,0.544,53.567-22.797,54.11-52.143C120.303,38.254,96.955,14.025,67.616,13.481z M71.296,93.893h-8.566v-8.261h8.566V93.893z
	 M78.116,63.271l-5.836,8.185c-0.833,1.139-1.364,2.882-1.364,4.095v2.274h-7.73V75.17c0-3.107,0.757-5.079,2.577-7.505l5.913-7.959
	c1.363-1.817,2.349-3.638,2.349-5.759c0-4.246-3.034-7.582-7.429-7.582c-4.699,0-7.354,3.564-7.354,7.657h-7.73
	c0-8.563,6.518-14.554,15.084-14.554c8.262,0,15.158,5.533,15.158,14.479C81.754,57.586,80.165,60.466,78.116,63.271z"/>
</svg>
