<?xml version="1.0" encoding="iso-8859-1"?>
<!-- Generator: Adobe Illustrator 16.0.4, SVG Export Plug-In . SVG Version: 6.00 Build 0)  -->
<!DOCTYPE svg PUBLIC "-//W3C//DTD SVG 1.1//EN" "http://www.w3.org/Graphics/SVG/1.1/DTD/svg11.dtd">
<svg version="1.1" id="Ebene_1" xmlns="http://www.w3.org/2000/svg" xmlns:xlink="http://www.w3.org/1999/xlink" x="0px" y="0px"
	 width="133.23px" height="133.23px" viewBox="0 0 133.23 133.23" style="enable-background:new 0 0 133.23 133.23;"
	 xml:space="preserve">
<path style="fill-rule:evenodd;clip-rule:evenodd;" d="M94.625,45.06h20.335c2.724,6.061,4.356,12.7,4.63,19.707H96.257
	C96.158,57.36,95.546,50.832,94.625,45.06z M85.737,17.171c11.665,4.536,21.24,13.117,27.241,23.949h-19.02
	C91.801,30.088,88.525,22.245,85.737,17.171z M68.705,41.12V13.606c4.195,0.185,8.263,0.848,12.156,1.94
	c2.955,4.966,6.763,13.262,9.168,25.573H68.705z M42.829,88.421c-0.92-5.78-1.559-12.269-1.654-19.71h23.588v19.71H42.829z
	 M42.791,45.06h21.972v19.707h-23.61C41.252,57.351,41.869,50.837,42.791,45.06z M52.658,15.457
	c3.885-1.043,7.923-1.709,12.104-1.846V41.12H43.44C45.859,28.736,49.695,20.414,52.658,15.457z M19.91,41.12
	c6.1-11.011,15.974-19.638,27.905-24.109c-2.805,5.069-6.129,12.955-8.31,24.109H19.91z M37.21,64.767H13.38
	c0.263-7.003,1.837-13.658,4.556-19.707h20.908C37.922,50.834,37.309,57.36,37.21,64.767z M38.889,88.421H18.086
	c-2.729-6.068-4.477-12.677-4.735-19.71h23.877C37.323,76.152,37.967,82.636,38.889,88.421z M39.536,92.362
	c2.197,11.261,5.567,19.137,8.391,24.15c-11.975-4.456-21.853-13.113-27.96-24.15H39.536z M64.762,92.362v27.504
	c-4.135-0.132-8.129-0.786-11.975-1.808c-2.967-4.864-6.825-13.227-9.267-25.696H64.762z M89.95,92.362
	c-2.428,12.396-6.255,20.728-9.216,25.604c-3.848,1.068-7.888,1.645-12.029,1.831V92.362H89.95z M68.705,68.711h23.588
	c-0.095,7.441-0.734,13.93-1.656,19.71H68.705V68.711z M92.315,64.767h-23.61V45.06h21.972
	C91.599,50.834,92.216,57.351,92.315,64.767z M96.239,68.711h23.309c-0.26,7.023-1.995,13.638-4.711,19.71H94.579
	C95.5,82.636,96.144,76.157,96.239,68.711z M112.95,92.362c-5.986,10.874-15.605,19.46-27.32,23.982
	c2.806-5.016,6.133-12.84,8.307-23.982H112.95z"/>
</svg>
