<?xml version="1.0" encoding="iso-8859-1"?>
<!-- Generator: Adobe Illustrator 16.0.4, SVG Export Plug-In . SVG Version: 6.00 Build 0)  -->
<!DOCTYPE svg PUBLIC "-//W3C//DTD SVG 1.1//EN" "http://www.w3.org/Graphics/SVG/1.1/DTD/svg11.dtd">
<svg version="1.1" id="Ebene_1" xmlns="http://www.w3.org/2000/svg" xmlns:xlink="http://www.w3.org/1999/xlink" x="0px" y="0px"
	 width="133.23px" height="133.23px" viewBox="0 0 133.23 133.23" style="enable-background:new 0 0 133.23 133.23;"
	 xml:space="preserve">
<g>
	<path d="M68.217,98.394c5.123-0.117,10.816-0.718,15.857-1.495c-3.848-6.61-7.236-12.942-10.73-20.015
		c6.285-11.622,11.93-23.975,15.051-36.102c-4.91-0.953-9.91-1.584-14.936-1.895c-2.352,6.821-5.062,13.778-8.008,20.738
		c-2.949-6.926-5.65-13.853-7.967-20.64c-4.584,0.333-9.117,0.933-13.594,1.806C47.055,60.832,57.232,81.001,68.217,98.394"/>
	<path d="M28.879,66.622c-0.16-16.918,2.414-31.985,7.443-46.354c6.186-0.729,8.684-0.882,14.736-1.674V1.336
		C40.242,1.737,32.246,2.539,21.023,3.87c-7.6,19.85-11.244,40.514-11.072,62.738c-0.172,22.231,3.473,42.894,11.072,62.746
		c11.223,1.32,19.219,2.144,30.035,2.54V114.62c-6.053-0.777-8.551-0.924-14.736-1.647C31.293,98.605,28.719,83.525,28.879,66.622"
		/>
	<path d="M104.344,66.622c0.164,16.903-2.383,31.983-7.42,46.351c-6.197,0.724-8.605,0.87-14.637,1.647v17.274
		c10.811-0.396,18.709-1.22,29.926-2.54c7.596-19.853,11.25-40.515,11.066-62.746c0.184-22.225-3.471-42.889-11.066-62.738
		c-11.217-1.331-19.115-2.133-29.926-2.534v17.259c6.031,0.792,8.439,0.945,14.637,1.674
		C101.961,34.637,104.508,49.704,104.344,66.622"/>
</g>
</svg>
