<?xml version="1.0" encoding="iso-8859-1"?>
<!-- Generator: Adobe Illustrator 16.0.4, SVG Export Plug-In . SVG Version: 6.00 Build 0)  -->
<!DOCTYPE svg PUBLIC "-//W3C//DTD SVG 1.1//EN" "http://www.w3.org/Graphics/SVG/1.1/DTD/svg11.dtd">
<svg version="1.1" id="Ebene_1" xmlns="http://www.w3.org/2000/svg" xmlns:xlink="http://www.w3.org/1999/xlink" x="0px" y="0px"
	 width="133.23px" height="133.23px" viewBox="0 0 133.23 133.23" style="enable-background:new 0 0 133.23 133.23;"
	 xml:space="preserve">
<path d="M119.866,106.774L92.941,79.98c4.31-6.721,6.841-14.695,6.841-23.271c0-23.861-19.342-43.203-43.203-43.203
	S13.376,32.847,13.376,56.708c0,23.862,19.342,43.203,43.203,43.203c8.576,0,16.548-2.531,23.269-6.841l26.921,26.798
	L119.866,106.774z M56.579,87.568c-17.015,0-30.859-13.845-30.859-30.859s13.845-30.859,30.859-30.859s30.859,13.845,30.859,30.859
	S73.594,87.568,56.579,87.568z"/>
</svg>
