<?xml version="1.0" encoding="utf-8"?>
<!-- Generator: Adobe Illustrator 17.1.0, SVG Export Plug-In . SVG Version: 6.00 Build 0)  -->
<!DOCTYPE svg PUBLIC "-//W3C//DTD SVG 1.1//EN" "http://www.w3.org/Graphics/SVG/1.1/DTD/svg11.dtd">
<svg version="1.1" id="Layer_1" xmlns="http://www.w3.org/2000/svg" xmlns:xlink="http://www.w3.org/1999/xlink" x="0px" y="0px"
	 width="133.2px" height="133.2px" viewBox="0 0 133.2 133.2" enable-background="new 0 0 133.2 133.2" xml:space="preserve">
<path d="M76.7,21.5c-0.7,5.1-5.4,9.1-11,9.1s-10.3-4-11-9.1c-0.1-0.4-0.1-0.9-0.1-1.3c0-5.7,5-10.4,11.1-10.4
	c6.1,0,11.1,4.7,11.1,10.4C76.8,20.6,76.7,21.1,76.7,21.5L76.7,21.5z M76.7,69c-0.7,5.1-5.4,9.1-11,9.1s-10.3-4-11-9.1
	c-0.1-0.4-0.1-0.9-0.1-1.3c0-5.7,5-10.4,11.1-10.4c6.1,0,11.1,4.7,11.1,10.4C76.8,68.1,76.7,68.5,76.7,69L76.7,69z M76.7,116.4
	c-0.7,5.1-5.4,9.1-11,9.1s-10.3-4-11-9.1c-0.1-0.4-0.1-0.9-0.1-1.3c0-5.7,5-10.4,11.1-10.4c6.1,0,11.1,4.7,11.1,10.4
	C76.8,115.5,76.7,116,76.7,116.4L76.7,116.4z"/>
</svg>
