<?xml version="1.0" encoding="utf-8"?>
<!-- Generator: Adobe Illustrator 17.1.0, SVG Export Plug-In . SVG Version: 6.00 Build 0)  -->
<!DOCTYPE svg PUBLIC "-//W3C//DTD SVG 1.1//EN" "http://www.w3.org/Graphics/SVG/1.1/DTD/svg11.dtd">
<svg version="1.1" id="Layer_1" xmlns="http://www.w3.org/2000/svg" xmlns:xlink="http://www.w3.org/1999/xlink" x="0px" y="0px"
	 width="133.2px" height="133.2px" viewBox="0 0 133.2 133.2" enable-background="new 0 0 133.2 133.2" xml:space="preserve">
<path d="M98.8,37.9L67.3,70.6c-0.7,0.7-1.7,0.6-2.4,0l1.3-4.7c-0.7-0.7-0.7-1.8,0-2.4l28.4-29.7c0.7-0.7,1.7-0.6,2.4,0l1.7,1.7
	C99.4,36.2,99.4,37.3,98.8,37.9L98.8,37.9z M99,97.4c0.7,0.7,0.6,1.8,0,2.4l-1.7,1.7c-0.7,0.7-1.8,0.7-2.4,0L62.7,68.8
	c-0.7-0.7-0.6-1.8,0-2.4l4.7-4.7c0.7-0.7-1.2,2.3-0.6,3L99,97.4L99,97.4z M65.5,70.6c-0.7,0.7-1.8,0.7-2.4,0L31.7,37.9
	c-0.7-0.7-0.6-1.7,0-2.4l1.7-1.7c0.7-0.7,1.8-0.7,2.4,0l28.4,29.7c0.7,0.7,0.6,1.7,0,2.4L65.5,70.6L65.5,70.6z M67.8,68.8
	l-32.1,32.8c-0.7,0.7-1.8,0.6-2.4,0l-1.7-1.7c-0.7-0.7-0.7-1.8,0-2.4l32.1-32.8c0.7-0.7-1.2-3.6-0.6-3l4.7,4.7
	C68.4,67.1,68.4,68.2,67.8,68.8L67.8,68.8z"/>
</svg>
