<?xml version="1.0" encoding="utf-8"?>
<!-- Generator: Adobe Illustrator 21.0.0, SVG Export Plug-In . SVG Version: 6.00 Build 0)  -->
<svg version="1.1" baseProfile="basic" id="Layer_1"
	 xmlns="http://www.w3.org/2000/svg" xmlns:xlink="http://www.w3.org/1999/xlink" x="0px" y="0px" viewBox="0 0 133 133"
	 xml:space="preserve">
<path d="M34,44v65c0,5.5,4.5,10,10,10h45c5.5,0,10-4.5,10-10V44H34z M54,109h-5V54h5V109z M69,109h-5V54h5V109z M84,109h-5V54h5V109
	z"/>
<path d="M99,29H84V19c0-2.8-2.2-5-5-5H54c-2.8,0-5,2.2-5,5v10H34c-2.8,0-5,2.2-5,5s2.2,5,5,5h20h25h20c2.8,0,5-2.2,5-5
	S101.8,29,99,29z M56.5,21.5h20V29h-20V21.5z"/>
</svg>
