<?xml version="1.0" encoding="utf-8"?>
<!-- Generator: Adobe Illustrator 17.1.0, SVG Export Plug-In . SVG Version: 6.00 Build 0)  -->
<!DOCTYPE svg PUBLIC "-//W3C//DTD SVG 1.1//EN" "http://www.w3.org/Graphics/SVG/1.1/DTD/svg11.dtd">
<svg version="1.1" id="Layer_1" xmlns="http://www.w3.org/2000/svg" xmlns:xlink="http://www.w3.org/1999/xlink" x="0px" y="0px"
	 width="36px" height="36px" viewBox="0 0 36 36" enable-background="new 0 0 36 36" xml:space="preserve">
<path d="M35.6,2.4c-0.1-0.1-0.4-0.3-0.7-0.3c-0.5,0-1.9,0-10.6,7.4c-3.6,3.1-7.7,6.9-11.2,10.2c0,0,0,0,0,0c0,0,0,0,0,0
	c-1,1-2,1.9-2.8,2.8c-5.4,0.7-6.1,4.1-6.7,7c-0.5,2.4-0.8,3.7-2.8,3.8c-0.3,0-0.6,0.3-0.6,0.6c0,0.3,0.1,0.6,0.4,0.7
	c0.1,0,2.8,1.2,5.9,1.2c0,0,0,0,0,0c3.4,0,7.8-1.4,9.2-7.7c4.1-4.2,9.4-10.1,13.4-15c2.2-2.7,3.9-4.9,5.1-6.6
	C35.8,4.1,36.2,3,35.6,2.4z M13.5,21.2l3.5,3.6c-0.7,0.7-1.4,1.4-2,2.1l-3.6-3.6C12.1,22.6,12.8,21.9,13.5,21.2z M6.4,34.5
	C6.4,34.5,6.4,34.5,6.4,34.5c-1.3,0-2.6-0.2-3.6-0.5c1.3-0.9,1.6-2.6,2-4.2c0.6-2.7,1.1-5.3,5.5-5.9l4,4.1
	C13.3,32.3,10.7,34.5,6.4,34.5z M27.5,13c-2.9,3.5-6.4,7.4-9.6,10.8l-3.5-3.5c3.4-3.2,7.2-6.8,10.7-9.7c6-5.1,8.3-6.6,9.2-7
	C34,4.5,32.6,6.9,27.5,13z"/>
</svg>
