<?xml version="1.0" encoding="utf-8"?>
<!-- Generator: Adobe Illustrator 17.1.0, SVG Export Plug-In . SVG Version: 6.00 Build 0)  -->
<!DOCTYPE svg PUBLIC "-//W3C//DTD SVG 1.1//EN" "http://www.w3.org/Graphics/SVG/1.1/DTD/svg11.dtd">
<svg version="1.1" xmlns="http://www.w3.org/2000/svg" xmlns:xlink="http://www.w3.org/1999/xlink" x="0px" y="0px" width="36px"
	 height="36px" viewBox="0 0 36 36" enable-background="new 0 0 36 36" xml:space="preserve">
<g id="Layer_1_copy" display="none">
	<g id="Layer_3_copy_1_" display="inline">
		<path d="M18.2,1.5C9.3,1.5,2,8.7,2,17.7s7.3,16.2,16.2,16.2c9,0,16.2-7.3,16.2-16.2C34.4,8.7,27.2,1.5,18.2,1.5z M18.2,31.3
			c-7.5,0-13.6-6.1-13.6-13.6S10.7,4.1,18.2,4.1s13.6,6.1,13.6,13.6S25.7,31.3,18.2,31.3z"/>
	</g>
	<g id="Layer_5_1_" display="inline">
		<path d="M30,27l-2,2L6,9l2-2L30,27z"/>
	</g>
</g>
<g id="Layer_1_copy_2">
	<g id="Layer_3_copy_2_">
		<path d="M18.2,1.5C9.3,1.5,2,8.7,2,17.7s7.3,16.2,16.2,16.2c9,0,16.2-7.3,16.2-16.2C34.4,8.7,27.2,1.5,18.2,1.5z M18.2,31.3
			c-7.5,0-13.6-6.1-13.6-13.6S10.7,4.1,18.2,4.1s13.6,6.1,13.6,13.6S25.7,31.3,18.2,31.3z"/>
	</g>
	<g>
		<polygon fill="#231F20" points="15.7,20.3 10.6,15.2 7.5,18.3 12.6,23.4 15.7,26.5 28.1,14.2 24.9,11.1 		"/>
	</g>
</g>
</svg>
