<svg xmlns="http://www.w3.org/2000/svg" xmlns:xlink="http://www.w3.org/1999/xlink" width="48px" height="48px">
    <path fill-rule="evenodd" fill="rgb(255, 255, 255)" d="M24.000,-0.000 C37.255,-0.000 48.000,10.745 48.000,24.000 C48.000,37.255 37.255,48.000 24.000,48.000 C10.745,48.000 -0.000,37.255 -0.000,24.000 C-0.000,10.745 10.745,-0.000 24.000,-0.000 Z"/>
    <path
        fill-rule="evenodd"
        fill="rgb(128, 144, 163)"
        d="M24.002,42.985 C13.502,42.985 4.989,34.480 4.989,23.988 C4.989,13.496 13.502,4.991 24.002,4.991 C34.503,4.991 43.015,13.496 43.015,23.988 C43.015,34.480 34.503,42.985 24.002,42.985 ZM34.901,27.383 L24.904,17.518 C24.701,17.314 24.367,17.320 24.158,17.530 L23.006,18.687 L13.976,27.411 C13.775,27.613 13.781,27.944 13.987,28.152 L15.411,29.582 C15.618,29.789 15.948,29.795 16.149,29.593 L24.519,21.507 L32.706,29.587 C32.908,29.791 33.242,29.785 33.451,29.575 L34.889,28.131 C35.098,27.921 35.104,27.587 34.901,27.383 Z"/>
</svg>
