<?xml version="1.0" encoding="utf-8"?>
<!-- Generator: Adobe Illustrator 18.1.1, SVG Export Plug-In . SVG Version: 6.00 Build 0)  -->
<svg version="1.1" id="Layer_1" xmlns="http://www.w3.org/2000/svg" xmlns:xlink="http://www.w3.org/1999/xlink" x="0px" y="0px"
	 viewBox="-210 419 452 451" enable-background="new -210 419 452 451" xml:space="preserve">
<path d="M16.1,858.5c-117.9,0-213.5-95.6-213.5-213.5s95.6-213.5,213.5-213.5s213.5,95.6,213.5,213.5S134,858.5,16.1,858.5z
	 M138.5,683.2L26.2,572.4c-2.3-2.3-6-2.2-8.4,0.1l-12.9,13l-101.4,98c-2.3,2.3-2.2,6,0.1,8.3l16,16.1c2.3,2.3,6,2.4,8.3,0.1l94-90.9
	l91.9,90.8c2.3,2.3,6,2.2,8.4-0.1l16.1-16.2C140.7,689.3,140.7,685.5,138.5,683.2z"/>
</svg>
