<?xml version="1.0" encoding="utf-8"?>
<!-- Generator: Adobe Illustrator 20.1.0, SVG Export Plug-In . SVG Version: 6.00 Build 0)  -->
<svg version="1.1" id="Layer_1" xmlns="http://www.w3.org/2000/svg" xmlns:xlink="http://www.w3.org/1999/xlink" x="0px" y="0px"
	 viewBox="0 0 36 36" style="enable-background:new 0 0 36 36;" xml:space="preserve">
<path id="Layer_2" d="M32.7,29.1L18.8,4.4c-0.5-0.8-1.2-0.8-1.7,0L3.3,29.1c-0.5,0.8-0.1,1.5,0.9,1.5h27.7
	C32.8,30.6,33.2,29.9,32.7,29.1z M19.2,26.3c-0.3,0.3-0.7,0.4-1.2,0.4s-1-0.1-1.3-0.4s-0.4-0.7-0.4-1.2s0.1-1,0.4-1.2
	c0.3-0.3,0.7-0.4,1.3-0.4c0.5,0,1,0.1,1.2,0.4s0.4,0.7,0.4,1.2C19.7,25.6,19.5,26,19.2,26.3z M19.2,21.8h-2.4l-0.5-9.5h3.4
	L19.2,21.8z"/>
</svg>
