<?xml version="1.0" encoding="utf-8"?>
<!-- Generator: Adobe Illustrator 18.1.1, SVG Export Plug-In . SVG Version: 6.00 Build 0)  -->
<svg version="1.1" id="Layer_1" xmlns="http://www.w3.org/2000/svg" xmlns:xlink="http://www.w3.org/1999/xlink" x="0px" y="0px"
	 viewBox="-238 330.8 133.2 133.2" enable-background="new -238 330.8 133.2 133.2" xml:space="preserve">
<path d="M-172.7,442.1c-26,0-47-21-47-47s21-47,47-47s47,21,47,47C-125.1,421.1-146.1,442.1-172.7,442.1z M-177.7,419.1
	c1,1,2,1.5,3.5,1.5c1.5,0,2.5-0.5,3.5-1.5s1.5-2,1.5-3.5c0-1.5-0.5-2.5-1.5-3.5c-1-1-2-1.5-3.5-1.5c-1.5,0-2.5,0.5-3.5,1.5
	s-1.5,2-1.5,3.5C-179.2,416.6-178.7,418.1-177.7,419.1z M-163.2,375.6c-2.5-2-6-3-10-3c-4,0-7,1-9.5,3c-2.5,2-3.5,4-3.5,6
	c0,1,0.5,2,1,2.5c1,0.5,1.5,1,2.5,1c1,0,1.5,0,2-0.5s1-1,1-1.5c0.5-0.5,1-1,2-1.5c1-0.5,2-0.5,3.5-0.5c1.5,0,3,0.5,4,1
	c1,0.5,1.5,2,1.5,3c0,1,0,1.5-0.5,2.5c-0.5,1-1,1.5-1.5,2c-0.5,0.5-1,1-2,1.5c-1,1-1.5,1-1.5,1.5c-3,2.5-4.5,5.5-4.5,9.5
	c0,1.5,0.5,3,1,3.5c0.5,0.5,1.5,1,3,1c2.5,0,4-1,4-2.5c0-1.5,0-2.5,0-3c0-0.5,0.5-1.5,1-2.5c0.5-1,1.5-2,2.5-2.5c5-4,7.5-7.5,7.5-12
	C-159.2,380.1-160.2,377.6-163.2,375.6z"/>
</svg>
