<?xml version="1.0" encoding="utf-8"?>
<!-- Generator: Adobe Illustrator 18.1.1, SVG Export Plug-In . SVG Version: 6.00 Build 0)  -->
<svg version="1.1" id="Layer_1" xmlns="http://www.w3.org/2000/svg" xmlns:xlink="http://www.w3.org/1999/xlink" x="0px" y="0px"
	 viewBox="0 0 612 792" enable-background="new 0 0 612 792" xml:space="preserve">
<path d="M9.4,1087.1c-168.4,0-304.4-136-304.4-304.4c0-168.4,136-304.4,304.4-304.4c168.4,0,304.4,136,304.4,304.4
	C317,951.1,181,1087.1,9.4,1087.1z M-23,938.1c6.5,6.5,13,9.7,22.7,9.7c9.7,0,16.2-3.2,22.7-9.7c6.5-6.5,9.7-13,9.7-22.7
	c0-9.7-3.2-16.2-9.7-22.7c-6.5-6.5-13-9.7-22.7-9.7c-9.7,0-16.2,3.2-22.7,9.7c-6.5,6.5-9.7,13-9.7,22.7
	C-32.7,922-29.5,931.7-23,938.1z M70.9,656.4C54.7,643.5,32,637,6.1,637s-45.3,6.5-61.5,19.4c-16.2,13-22.7,25.9-22.7,38.9
	c0,6.5,3.2,13,6.5,16.2c6.5,3.2,9.7,6.5,16.2,6.5s9.7,0,13-3.2s6.5-6.5,6.5-9.7c3.2-3.2,6.5-6.5,13-9.7c6.5-3.2,13-3.2,22.7-3.2
	c9.7,0,19.4,3.2,25.9,6.5c6.5,3.2,9.7,13,9.7,19.4c0,6.5,0,9.7-3.2,16.2c-3.2,6.5-6.5,9.7-9.7,13c-3.2,3.2-6.5,6.5-13,9.7
	c-6.5,6.5-9.7,6.5-9.7,9.7c-19.4,16.2-29.1,35.6-29.1,61.5c0,9.7,3.2,19.4,6.5,22.7s9.7,6.5,19.4,6.5c16.2,0,25.9-6.5,25.9-16.2
	c0-9.7,0-16.2,0-19.4c0-3.2,3.2-9.7,6.5-16.2c3.2-6.5,9.7-13,16.2-16.2c32.4-25.9,48.6-48.6,48.6-77.7
	C96.8,685.6,90.3,669.4,70.9,656.4z"/>
</svg>
