<svg xmlns="http://www.w3.org/2000/svg" width="32.031" height="32" viewBox="0 0 32.031 32">
  <defs>
    <style>
      .cls-1 {
        fill-rule: evenodd;
      }
    </style>
  </defs>
  <path id="icon_warning" class="cls-1" d="M569.093,774a1.152,1.152,0,1,1-1.152-1.15A1.153,1.153,0,0,1,569.093,774Zm-2.245-5.64V755.419a1.035,1.035,0,0,1,2.069,0V768.36a1.028,1.028,0,0,1-1.034,1.034A0.991,0.991,0,0,1,566.848,768.36Zm1.115-19.4a16.012,16.012,0,1,0,16.011,16.012A16.008,16.008,0,0,0,567.963,748.958Zm0,30.146A14.134,14.134,0,1,1,582.1,764.97,14.131,14.131,0,0,1,567.963,779.1Z" transform="translate(-551.938 -748.969)"/>
</svg>
