<?xml version="1.0" encoding="utf-8"?>
<!-- Generator: Adobe Illustrator 20.1.0, SVG Export Plug-In . SVG Version: 6.00 Build 0)  -->
<svg version="1.1" id="Layer_1" xmlns="http://www.w3.org/2000/svg" xmlns:xlink="http://www.w3.org/1999/xlink" x="0px" y="0px"
	 viewBox="0 0 23 14" style="enable-background:new 0 0 23 14;" xml:space="preserve">
<path d="M11.5,0C6.6-0.1,2.1,2.6,0,7c3.3,6.4,11.1,8.8,17.4,5.6c2.4-1.2,4.3-3.2,5.6-5.6C20.9,2.6,16.4-0.1,11.5,0z M11.5,12.6
	c-4.1,0.1-7.9-2-9.9-5.6C4.9,1.5,12-0.2,17.5,3.1c1.6,1,3,2.3,3.9,3.9C19.4,10.6,15.6,12.7,11.5,12.6z M11.5,7V2.8
	c-2.3,0.1-4.1,2-4.1,4.3c0.1,2.3,2,4.1,4.3,4.1c2.3-0.1,4.1-1.9,4.1-4.2c0-1.1-0.5-2.2-1.3-3L11.5,7z"/>
</svg>
