<?xml version="1.0" encoding="utf-8"?>
<!-- Generator: Adobe Illustrator 20.1.0, SVG Export Plug-In . SVG Version: 6.00 Build 0)  -->
<svg version="1.1" id="Layer_2_copy" xmlns="http://www.w3.org/2000/svg" xmlns:xlink="http://www.w3.org/1999/xlink" x="0px"
	 y="0px" viewBox="0 0 32 32" style="enable-background:new 0 0 32 32;" xml:space="preserve">
<path d="M17.1,25c0,0.6-0.5,1.2-1.2,1.2c-0.6,0-1.2-0.5-1.2-1.2s0.5-1.2,1.2-1.2c0,0,0,0,0,0C16.6,23.9,17.1,24.4,17.1,25z
	 M14.9,19.4V6.5c0-0.6,0.5-1,1.1-1c0.5,0,1,0.5,1,1v12.9c0,0.6-0.5,1-1,1c0,0,0,0,0,0C15.4,20.5,14.9,20,14.9,19.4
	C14.9,19.5,14.9,19.4,14.9,19.4z M16,0C7.2,0,0,7.2,0,16c0,8.8,7.2,16,16,16c8.8,0,16-7.2,16-16c0,0,0,0,0,0C32,7.2,24.8,0,16,0
	C16,0,16,0,16,0z M16,30.1C8.2,30.2,1.9,23.8,1.8,16S8.2,1.9,16,1.9c7.8,0,14.1,6.3,14.1,14.1c0,0,0,0,0,0
	C30.1,23.8,23.8,30.1,16,30.1C16,30.1,16,30.1,16,30.1z"/>
</svg>
