<?xml version="1.0" encoding="utf-8"?>
<!-- Generator: Adobe Illustrator 20.1.0, SVG Export Plug-In . SVG Version: 6.00 Build 0)  -->
<svg version="1.1" id="Layer_1" xmlns="http://www.w3.org/2000/svg" xmlns:xlink="http://www.w3.org/1999/xlink" x="0px" y="0px"
	 viewBox="0 0 23 18" style="enable-background:new 0 0 23 18;" xml:space="preserve">
<path d="M18.7,4.2l3-2.7L20.3,0l-3.5,3.2c-1.6-0.7-3.5-1.1-5.3-1C6.6,2,2.1,4.8,0,9.2c1.1,2.2,2.8,3.9,4.8,5.1l-2.4,2.3L3.7,18
	l3-2.8c3.4,1.3,7.3,1.3,10.7-0.5c2.4-1.2,4.3-3.2,5.6-5.6C22,7.1,20.5,5.4,18.7,4.2z M1.6,9.2c2.9-4.9,8.9-6.8,14-4.8l-4.1,3.8V5
	C9.2,5,7.4,6.9,7.4,9.3c0,0.7,0.2,1.4,0.6,2l-2.2,2.1C4.1,12.4,2.6,10.9,1.6,9.2z M11.5,14.8c-1.3,0-2.5-0.2-3.7-0.5l1.6-1.5
	c0.7,0.4,1.5,0.6,2.3,0.6c2.3-0.1,4.1-1.9,4.1-4.2c0-0.7-0.2-1.3-0.5-1.9l2.2-2c1.6,1,2.9,2.3,3.9,3.9
	C19.4,12.7,15.6,14.9,11.5,14.8z"/>
</svg>
