<?xml version="1.0" encoding="utf-8"?>
<!-- Generator: Adobe Illustrator 20.1.0, SVG Export Plug-In . SVG Version: 6.00 Build 0)  -->
<svg version="1.1" id="Layer_1_copy" xmlns="http://www.w3.org/2000/svg" xmlns:xlink="http://www.w3.org/1999/xlink" x="0px"
	 y="0px" viewBox="0 0 32 32" style="enable-background:new 0 0 32 32;" xml:space="preserve">
<path id="icon_info_1_" d="M12.9,25.2v-1h2V13.3h-2v-1h4.9v11.9h2v1L12.9,25.2L12.9,25.2z M15.8,10.7c-1.1,0-2-0.9-2-2
	c0-1.1,0.9-2,2-2s2,0.9,2,2l0,0C17.8,9.8,16.9,10.7,15.8,10.7z M16,0C7.2,0,0,7.2,0,16c0,8.8,7.2,16,16,16s16-7.2,16-16c0,0,0,0,0,0
	C32,7.2,24.9,0,16,0C16,0,16,0,16,0L16,0z"/>
</svg>
