<svg xmlns="http://www.w3.org/2000/svg" xmlns:xlink="http://www.w3.org/1999/xlink" width="48px" height="48px">
    <path fill-rule="evenodd" fill="rgb(255, 255, 255)" d="M24.000,-0.000 C37.255,-0.000 48.000,10.745 48.000,24.000 C48.000,37.255 37.255,48.000 24.000,48.000 C10.745,48.000 -0.000,37.255 -0.000,24.000 C-0.000,10.745 10.745,-0.000 24.000,-0.000 Z"/>
    <path
        fill-rule="evenodd"
        fill="rgb(128, 144, 163)"
        d="M23.991,43.002 C13.498,43.002 4.987,34.490 4.987,23.994 C4.987,13.496 13.498,4.987 23.991,4.987 C34.484,4.987 42.995,13.496 42.995,23.994 C42.995,34.490 34.484,43.002 23.991,43.002 ZM22.061,32.724 C22.419,33.103 22.859,33.292 23.380,33.292 C23.640,33.292 23.885,33.238 24.113,33.131 C24.341,33.025 24.540,32.884 24.711,32.712 C24.882,32.539 25.017,32.337 25.114,32.107 C25.212,31.876 25.261,31.638 25.261,31.391 C25.261,30.864 25.078,30.415 24.711,30.045 C24.345,29.675 23.901,29.489 23.380,29.489 C22.859,29.489 22.419,29.675 22.061,30.045 C21.702,30.415 21.523,30.864 21.523,31.391 C21.523,31.901 21.702,32.345 22.061,32.724 ZM28.522,17.551 C28.269,17.049 27.919,16.617 27.472,16.255 C27.024,15.893 26.478,15.609 25.835,15.403 C25.191,15.197 24.479,15.094 23.697,15.094 C22.867,15.094 22.150,15.205 21.548,15.428 C20.945,15.650 20.448,15.926 20.058,16.255 C19.667,16.584 19.374,16.942 19.178,17.329 C18.983,17.716 18.885,18.074 18.885,18.403 C18.885,18.650 18.930,18.860 19.019,19.032 C19.109,19.205 19.227,19.350 19.374,19.465 C19.520,19.580 19.679,19.666 19.850,19.724 C20.021,19.782 20.188,19.810 20.351,19.810 C20.676,19.810 20.913,19.712 21.059,19.514 C21.206,19.317 21.365,19.099 21.536,18.860 C21.707,18.621 21.942,18.403 22.244,18.205 C22.545,18.008 23.005,17.909 23.624,17.909 C24.243,17.909 24.764,18.045 25.188,18.316 C25.611,18.588 25.823,19.012 25.823,19.588 C25.823,19.918 25.745,20.218 25.591,20.489 C25.436,20.761 25.249,21.008 25.029,21.230 C24.809,21.452 24.573,21.658 24.320,21.847 C24.068,22.037 23.844,22.214 23.649,22.378 C23.469,22.526 23.282,22.708 23.087,22.921 C22.891,23.136 22.716,23.391 22.562,23.687 C22.407,23.983 22.276,24.333 22.171,24.736 C22.065,25.140 22.012,25.605 22.012,26.131 C22.012,26.773 22.110,27.210 22.305,27.440 C22.500,27.671 22.850,27.786 23.355,27.786 C23.958,27.786 24.349,27.675 24.528,27.452 C24.707,27.230 24.797,27.004 24.797,26.773 C24.797,26.461 24.805,26.173 24.821,25.909 C24.837,25.646 24.890,25.395 24.980,25.156 C25.069,24.918 25.204,24.679 25.383,24.440 C25.562,24.202 25.823,23.950 26.165,23.687 C26.327,23.555 26.564,23.354 26.873,23.082 C27.182,22.810 27.488,22.481 27.789,22.094 C28.090,21.708 28.351,21.267 28.571,20.773 C28.791,20.279 28.901,19.745 28.901,19.168 C28.901,18.592 28.774,18.053 28.522,17.551 Z"/>
</svg>
