<svg xmlns="http://www.w3.org/2000/svg" width="23" height="14" viewBox="0 0 23 14">
  <defs>
    <style>
      .cls-1 {
        fill-rule: evenodd;
      }
    </style>
  </defs>
  <path id="icon_visibility_on" class="cls-1" d="M844.5,759a12.356,12.356,0,0,0-11.5,7,12.946,12.946,0,0,0,23,0A12.356,12.356,0,0,0,844.5,759Zm0,12.6a10.93,10.93,0,0,1-9.908-5.6,11.564,11.564,0,0,1,19.815,0A10.929,10.929,0,0,1,844.5,771.6Zm0-5.6v-4.2a4.2,4.2,0,1,0,4.312,4.2,4.134,4.134,0,0,0-1.263-2.97Z" transform="translate(-833 -759)"/>
</svg>
