<svg xmlns="http://www.w3.org/2000/svg" xmlns:xlink="http://www.w3.org/1999/xlink" width="48px" height="48px">
    <path fill-rule="evenodd" fill="rgb(255, 255, 255)" d="M24.000,-0.000 C37.255,-0.000 48.000,10.745 48.000,24.000 C48.000,37.255 37.255,48.000 24.000,48.000 C10.745,48.000 -0.000,37.255 -0.000,24.000 C-0.000,10.745 10.745,-0.000 24.000,-0.000 Z"/>
    <path
        fill-rule="evenodd"
        fill="rgb(128, 144, 163)"
        d="M23.991,43.002 C13.498,43.002 4.987,34.490 4.987,23.994 C4.987,13.496 13.498,4.987 23.991,4.987 C34.484,4.987 42.995,13.496 42.995,23.994 C42.995,34.490 34.484,43.002 23.991,43.002 ZM23.984,15.166 C18.935,15.166 14.841,18.831 14.841,23.350 C14.841,25.493 15.768,27.437 17.274,28.896 L14.841,33.874 L20.576,30.941 C21.629,31.320 22.779,31.535 23.984,31.535 C29.035,31.535 33.127,27.870 33.127,23.350 C33.127,18.831 29.035,15.166 23.984,15.166 ZM23.984,28.950 C20.535,28.950 17.728,26.521 17.728,23.535 C17.728,20.549 20.535,18.120 23.984,18.120 C27.434,18.120 30.240,20.549 30.240,23.535 C30.240,26.521 27.434,28.950 23.984,28.950 Z"/>
</svg>
