<?xml version="1.0" encoding="utf-8"?>
<!-- Generator: Adobe Illustrator 20.1.0, SVG Export Plug-In . SVG Version: 6.00 Build 0)  -->
<svg version="1.1" id="Layer_1" xmlns="http://www.w3.org/2000/svg" xmlns:xlink="http://www.w3.org/1999/xlink" x="0px" y="0px"
	 viewBox="0 0 32 32" style="enable-background:new 0 0 32 32;" xml:space="preserve">
<path d="M31.9,16C31.9,16,31.9,16,31.9,16l-0.6,0.6c-0.1,0.1-0.1,0.1-0.2,0.1L26,21.8c-0.1,0.1-0.4,0.1-0.5,0l0,0l-0.6-0.6
	c-0.1-0.1-0.2-0.3,0-0.5c0,0,0,0,0,0l4.3-4.3h-12v12.6l3.9-4c0.1-0.1,0.4-0.1,0.5,0c0,0,0,0,0,0l0,0l0.6,0.6c0.1,0.1,0.1,0.4,0,0.5
	l-5.7,5.8c-0.1,0.1-0.4,0.1-0.5,0c0,0,0,0,0,0l-0.6-0.6c0,0-0.1-0.1-0.1-0.2L10.2,26c-0.1-0.1-0.1-0.4,0-0.5l0,0l0.6-0.6
	c0.1-0.1,0.3-0.2,0.5,0c0,0,0,0,0,0l4.3,4.3V16.4H3l4,3.9c0.1,0.1,0.1,0.4,0,0.5c0,0,0,0,0,0l0,0l-0.6,0.6c-0.1,0.1-0.4,0.1-0.5,0
	l-5.8-5.7c-0.1-0.1-0.1-0.4,0-0.5c0,0,0,0,0,0l0.6-0.6c0,0,0.1-0.1,0.2-0.1L6,9.4c0.1-0.1,0.4-0.1,0.5,0l0.6,0.6
	c0.1,0.1,0.1,0.3,0,0.5c0,0,0,0,0,0l-4.3,4.3h12.7V3l-3.9,4c-0.1,0.1-0.4,0.1-0.5,0c0,0,0,0,0,0l0,0l-0.6-0.6
	c-0.1-0.1-0.1-0.4,0-0.5l5.7-5.8c0.1-0.1,0.4-0.1,0.5,0c0,0,0,0,0,0l0.6,0.6c0.1,0.1,0.1,0.1,0.1,0.2L22.5,6c0.1,0.1,0.1,0.4,0,0.5
	l-0.6,0.6c-0.1,0.1-0.3,0.2-0.5,0c0,0,0,0,0,0l-4.3-4.3v12h11.8l-4-3.9c-0.1-0.1-0.1-0.3,0-0.5c0,0,0,0,0,0l0,0l0.6-0.6
	c0.1-0.1,0.4-0.1,0.5,0l5.8,5.7C32,15.7,32,15.9,31.9,16z"/>
</svg>
