<?xml version="1.0" encoding="utf-8"?>
<!-- Generator: Adobe Illustrator 20.1.0, SVG Export Plug-In . SVG Version: 6.00 Build 0)  -->
<svg version="1.1" id="Layer_1" xmlns="http://www.w3.org/2000/svg" xmlns:xlink="http://www.w3.org/1999/xlink" x="0px" y="0px"
	 viewBox="0 0 23 16.9" style="enable-background:new 0 0 23 16.9;" xml:space="preserve">
<path d="M1.6,1.2l2.3,2.3C2.3,4.7,0.9,6.2,0,8.1c2.9,5.6,9.2,8.1,15,6.5l2.3,2.3l1.3-1.3L2.8,0L1.6,1.2z M11.5,13.8
	c-4.1,0.1-7.9-2-9.9-5.6c0.9-1.5,2-2.6,3.3-3.5l2.6,2.6C7.4,7.6,7.4,8,7.4,8.3c0.1,2.3,2,4.1,4.3,4.1c0.3,0,0.6-0.1,0.8-0.1l1.3,1.3
	C13.1,13.7,12.3,13.8,11.5,13.8z M15.8,8.2c0,0.7-0.2,1.3-0.4,1.8l-2.8-2.8l2-2C15.3,6,15.8,7.1,15.8,8.2z M11.5,4v2.2L9.8,4.5
	C10.3,4.2,10.9,4,11.5,4z M23,8.2c-1.1,2-2.6,3.8-4.5,5l-1-1c1.6-1,2.9-2.3,3.9-4c-0.9-1.6-2.3-2.9-3.9-3.9C14.7,2.6,11.4,2.2,8.4,3
	L7.2,1.8c1.4-0.5,2.8-0.7,4.3-0.7C16.4,1.1,20.9,3.8,23,8.2z"/>
</svg>
