<?xml version="1.0" encoding="utf-8"?>
<!-- Generator: Adobe Illustrator 20.1.0, SVG Export Plug-In . SVG Version: 6.00 Build 0)  -->
<svg version="1.1" id="Layer_1_copy" xmlns="http://www.w3.org/2000/svg" xmlns:xlink="http://www.w3.org/1999/xlink" x="0px"
	 y="0px" viewBox="0 0 22 22" style="enable-background:new 0 0 22 22;" xml:space="preserve">
<path d="M11,0C4.9,0,0,4.9,0,11s4.9,11,11,11s11-4.9,11-11S17.1,0,11,0z M15.2,16.7c0.1,1.8,0.8,2.1,1.3,2.2c-0.9,0.6-1.9,1.1-3,1.4
	c-5,1.3-10.2-1.7-11.5-6.8c-0.7-2.8-0.1-5.9,1.7-8.2c0.1,0.4,0.1,0.8,0.1,1.2c0.1,1,0,2-0.2,3c0,0.2,0,0.4,0,0.7
	c0.1,0.1,0.2,0.2,0.3,0.3c0.1,0,0.2-0.1,0.3-0.3C4.3,10,4.3,9.8,4.3,9.6c0-0.2,0-0.3,0-0.5c0.2,0.1,0.3,0.2,0.4,0.3
	C5,9.5,5.2,9.8,5.4,10c0.1,0.1,0.2,0.3,0.2,0.4c0,0.3,0.1,0.5,0.3,0.7c0.2,0.3,0.3,0.6,0.4,0.9c0,0.1,0.1,0.3,0.1,0.4
	c0.1,0.3,0.3,0.4,0.6,0.4s0.5,0.2,0.5,0.4c0,0,0,0,0,0.1H7.2c-0.3,0-0.6,0.2-0.6,0.5v0.1c0,0.8,0.3,1.5,0.9,2.1
	c0.2,0.2,0.3,0.3,0.5,0.5c0.4,0.3,0.5,0.8,0.3,1.3c-0.1,0.2-0.2,0.5-0.2,0.7c0,0.3,0,0.5,0,0.8c0.1,0.3,0,0.8,0.3,0.8
	c0.5-0.1,0.7,0,0.8-0.5c0-0.1,0-0.1,0-0.2c0-0.8,0.3-1.5,0.9-2.1c0.3-0.2,0.6-0.4,0.9-0.7c0.4-0.3,0.6-0.9,0.4-1.4
	c-0.1-0.5,0-0.9,0.4-1.2c0.4-0.3,0.6-0.8,0.6-1.3c0-0.4-0.3-0.8-0.7-0.8h-0.1c-0.2,0-0.4,0.1-0.6,0.2c-0.3,0.1-0.6,0.2-0.9,0.3
	c-0.4,0-0.8-0.2-0.9-0.6C9,11.5,9,11.5,8.7,11.7C8.5,11.9,8.2,12,8,12.1c-0.2,0.1-0.4,0.1-0.6-0.1c-0.1-0.1-0.3-0.2-0.4-0.3
	c-0.1,0-0.2-0.1-0.3-0.2c-0.1-0.1-0.2-0.2-0.3-0.4c0-0.2,0.2-0.3,0.3-0.4c0.3-0.1,0.5-0.1,0.8-0.2c0.1,0,0.3-0.1,0.4-0.1
	c0.2-0.1,0.2-0.2,0-0.3c-0.1,0-0.2-0.1-0.2-0.1C7.3,9.8,6.9,9.7,6.5,9.5c-0.1,0-0.2-0.1-0.3-0.1C5.9,9.2,5.9,9,6.1,8.8
	C6.8,8,7.9,7.9,8.7,8.6c0.1,0,0.2,0.1,0.3,0.3C9.3,9.2,9.5,9.6,9.8,10c0.2,0.3,0.5,0.5,0.7,0.7c0.1,0.1,0.3,0.1,0.5,0
	c0.2-0.1,0.2-0.4,0.1-0.5C11,10,10.9,9.8,10.8,9.7c-0.6-0.8-0.4-1.9,0.4-2.5c0.1,0,0.1-0.1,0.2-0.1c0.4-0.2,0.7-0.5,0.9-0.9
	c-0.2,0.1-0.3,0.1-0.5,0.1C11,6.5,11.6,6,11.9,5.9c0.2-0.1-0.2-0.2-0.2-0.2s0.3-0.1,0.6-0.2c0.2-0.1,0.4-0.2,0.6-0.3
	C12.9,5,13,4.9,13,4.7c-0.2,0-0.4,0.1-0.6,0.1c-0.4,0-0.4,0-0.5-0.4c0-0.2-0.2-0.3-0.4-0.3c-0.1,0-0.1,0-0.1,0
	c-0.2,0.1-0.3,0.2-0.4,0.3c-0.2,0.2-0.4,0.2-0.6,0c-0.1-0.1-0.1-0.2-0.1-0.3C10.1,4,10,3.9,9.8,4C9.7,4.1,9.6,4.2,9.5,4.3
	C9.3,4.4,9.1,4.4,8.9,4.5C8.7,4.6,8.5,4.6,8.4,4.4C8.3,4.2,8.3,4,8.5,3.9C8.8,3.7,9,3.5,9.2,3.4c0.3-0.2,0.7-0.4,1-0.6
	c0.2-0.1,0.4-0.4,0.3-0.7c0-0.2-0.2-0.3-0.3-0.3c-0.1,0-0.1,0-0.1,0.1C9.9,2,9.7,2.1,9.5,2.2C9.4,2.3,9.2,2.3,9,2.3
	C9,2.2,8.9,2.1,8.9,2S9,1.9,9.1,1.8c0.5-0.1,1-0.1,1.4-0.2c0.1,0,0.1,0,0.2,0.1c0.3,0.4,0.8,0.6,1.2,0.7c0.4,0.1,0.5,0.1,0.5-0.3
	c0.5-0.2,1-0.2,1.5,0c0.3,0.2,0.5,0.4,0.8,0.6c0,0.1,0,0.2,0,0.4c0,0.2-0.1,0.3-0.2,0.4c-0.1,0.2,0,0.5,0.3,0.5c0.1,0,0.1,0,0.2,0
	s0.2,0,0.3,0c0.2,0,0.3,0,0.4,0.2c0,0.1,0,0.1,0,0.2c0,0.4,0,0.5,0.4,0.4c0.1,0,0.3,0,0.4,0.1c0.1,0,0.1,0.1,0.2,0.1
	c0.4,0.3,0.7,0.2,0.8-0.3c0-0.1,0-0.1,0-0.2c0-0.2,0.2-0.3,0.3-0.1c0.3,0.3,0.6,0.7,0.9,1c-0.3,0.3-0.4,0.7-0.3,1.1
	c0.1,0.4,0,0.8-0.2,1.1C18.1,8,18,8.4,17.9,8.7c-0.2,0.3,0,0.7,0.3,0.8c0.1,0.1,0.2,0.1,0.3,0.1c0.3,0,0.6,0.2,0.6,0.6
	c0,0.1,0,0.1,0,0.2c0,0.6,0.4,1.2,1,1.5c0.1,0.1,0.3,0.1,0.4,0.2c-0.1,1.1-0.4,2.2-0.9,3.3c-0.3-0.5-0.6-1.1-0.8-1.7
	c-0.2-0.8-0.8,0-0.8,0.5s-0.4,1-1.1,0.1c-0.7-0.8-0.9-0.6-1.1-0.6C15.5,13.6,15.1,14.1,15.2,16.7z"/>
</svg>
