<?xml version="1.0" encoding="utf-8"?>
<!-- Generator: Adobe Illustrator 20.1.0, SVG Export Plug-In . SVG Version: 6.00 Build 0)  -->
<svg version="1.1" id="Layer_1" xmlns="http://www.w3.org/2000/svg" xmlns:xlink="http://www.w3.org/1999/xlink" x="0px" y="0px"
	 viewBox="0 0 129 129" style="enable-background:new 0 0 129 129;" xml:space="preserve">
<g>
	<g>
		<path d="M121.3,66.4L62.6,7.7c-0.9-0.9-2.2-1.3-3.4-1.2l-44,5c-1.9,0.2-3.5,1.7-3.7,3.7l-5,44c-0.1,1.3,0.3,2.5,1.2,3.4l58.7,58.7
			c0.8,0.8,1.9,1.2,3,1.2s2.1-0.4,3-1.2l49-49c0.8-0.8,1.2-1.8,1.2-3C122.5,68.3,122.1,67.2,121.3,66.4z M15.1,58.1l4.4-38.6
			l38.6-4.4L112,69l-43,43C69,112,15.1,58.1,15.1,58.1z"/>
		<path d="M54.7,32.2c-3-3-7-4.7-11.3-4.7s-8.2,1.7-11.3,4.7c-6.2,6.2-6.2,16.3,0,22.5c3,3,7,4.7,11.3,4.7s8.2-1.7,11.3-4.7
			c3-3,4.7-7,4.7-11.3C59.4,39.2,57.7,35.2,54.7,32.2z M48.8,48.8c-2.8,2.8-7.8,2.8-10.7,0c-2.9-2.9-2.9-7.7,0-10.7
			c1.4-1.4,3.3-2.2,5.3-2.2s3.9,0.8,5.3,2.2c1.4,1.4,2.2,3.3,2.2,5.3C51,45.5,50.2,47.3,48.8,48.8z"/>
	</g>
</g>
</svg>
