<?xml version="1.0" encoding="utf-8"?>
<!-- Generator: Adobe Illustrator 20.1.0, SVG Export Plug-In . SVG Version: 6.00 Build 0)  -->
<svg version="1.1" id="Layer_1" xmlns="http://www.w3.org/2000/svg" xmlns:xlink="http://www.w3.org/1999/xlink" x="0px" y="0px"
	 viewBox="0 0 32 32" style="enable-background:new 0 0 32 32;" xml:space="preserve">
<path d="M27.6,11.8l-0.5-1.1c1.9-4.3,1.7-4.4,1.3-4.9l-2.3-2.3c-0.2-0.2-0.4-0.3-0.7-0.3c-0.2,0-0.6,0-4.1,1.6l-1.1-0.5
	C18.4,0,18.2,0,17.6,0h-3.3c-0.6,0-0.8,0-2.4,4.4l-1.1,0.5c-3.6-1.5-4-1.5-4.2-1.5C6.2,3.3,6,3.4,5.8,3.6L3.5,5.9
	C3,6.4,2.9,6.5,4.8,10.7l-0.5,1.1C0,13.6,0,13.7,0,14.4v3.3c0,0.7,0,0.9,4.4,2.5l0.5,1.1c-1.9,4.3-1.7,4.4-1.3,4.9l2.3,2.3
	c0.2,0.2,0.4,0.3,0.7,0.3c0.2,0,0.6,0,4.1-1.6l1.1,0.5c1.7,4.3,1.9,4.3,2.5,4.3h3.3c0.6,0,0.8,0,2.4-4.4l1.1-0.5
	c3.6,1.6,4,1.6,4.2,1.6c0.2,0,0.5-0.1,0.7-0.3l2.4-2.3c0.5-0.5,0.6-0.6-1.4-4.8l0.5-1.1c4.4-1.7,4.4-1.9,4.4-2.6v-3.3
	C32,13.6,32,13.4,27.6,11.8z M16,19.9c-2.2,0-3.9-1.7-4-3.9c0-2.2,1.7-3.9,3.9-4v0c2.2,0,3.9,1.8,4,3.9C20,18.2,18.2,19.9,16,19.9z"
	/>
</svg>
