<?xml version="1.0" encoding="utf-8"?>
<!-- Generator: Adobe Illustrator 21.1.0, SVG Export Plug-In . SVG Version: 6.00 Build 0)  -->
<svg version="1.1" id="Layer_1" xmlns="http://www.w3.org/2000/svg" xmlns:xlink="http://www.w3.org/1999/xlink" x="0px" y="0px"
	 viewBox="0 0 22.5 18.1" style="enable-background:new 0 0 22.5 18.1;" xml:space="preserve">
<path d="M19.3,4.1l2.8-2.7L20.7,0l-4.3,4h-0.2c-1.7,0-3.1,1.2-3.4,2.9h0.5L12.1,8H5.8v2H10l-1.2,1.1H3.5c-0.4,0-0.7-0.3-0.7-0.7V7.6
	c0-0.4,0.3-0.7,0.7-0.7h6.3C9.4,5.2,8,4,6.3,4H3.5C1.6,4,0,5.6,0,7.6v2.9c0,2,1.6,3.5,3.5,3.6h2.2l-2.7,2.6l1.4,1.4l8.6-8.1h3.9V8
	H15l1.2-1.1H19c0.4,0,0.7,0.3,0.7,0.7v2.9c0,0.4-0.3,0.7-0.7,0.7h-6.3c0.3,1.6,1.8,2.8,3.4,2.9H19c2,0,3.5-1.6,3.5-3.6V7.6
	C22.5,5.7,21,4.2,19.3,4.1z"/>
</svg>
