<?xml version="1.0" encoding="utf-8"?>
<!-- Generator: Adobe Illustrator 20.1.0, SVG Export Plug-In . SVG Version: 6.00 Build 0)  -->
<svg version="1.1" id="Layer_1" xmlns="http://www.w3.org/2000/svg" xmlns:xlink="http://www.w3.org/1999/xlink" x="0px" y="0px"
	 viewBox="0 0 129 129" style="enable-background:new 0 0 129 129;" xml:space="preserve">
<path d="M64.5,0.2C28.9,0.2,0,29.1,0,64.7s28.9,64.5,64.5,64.5S129,100.3,129,64.7S100.1,0.2,64.5,0.2z M70.7,104.3L29,62.5
	l3.4-29.9l29.9-3.4L104,70.9L70.7,104.3z M55,47c1.1,1.1,1.7,2.6,1.7,4.1c0.1,1.6-0.5,3-1.6,4.2c-2.2,2.2-6,2.2-8.3,0
	c-2.2-2.2-2.2-6,0-8.3c1.1-1.1,2.6-1.7,4.1-1.7S53.9,45.9,55,47z"/>
</svg>
