<?xml version="1.0" encoding="utf-8"?>
<!-- Generator: Adobe Illustrator 19.2.1, SVG Export Plug-In . SVG Version: 6.00 Build 0)  -->
<svg version="1.1" id="Layer_1" xmlns="http://www.w3.org/2000/svg" xmlns:xlink="http://www.w3.org/1999/xlink" x="0px" y="0px"
	 viewBox="0 0 132 132" style="enable-background:new 0 0 132 132;" xml:space="preserve">
<path d="M129.2,19.9L83.8,65.4l41.9,41.9c3.5,3.5,2.6,9.9-2,14.3l-0.6,0.6c-4.4,4.4-10.8,5.3-14.3,1.8L67.1,82.2l-47.2,47.4
	c-3.3,3.3-9.6,2.2-14.2-2.4l-0.6-0.6c-4.6-4.6-5.7-11-2.4-14.3L50,64.9L5.5,20.6C2,17.1,3,10.7,7.4,6.3l0.6-0.6
	c4.4-4.4,10.8-5.3,14.3-2L66.6,48L112,2.4c3.3-3.3,9.6-2.2,14.2,2.4l0.6,0.6C131.4,10.3,132.5,16.7,129.2,19.9L129.2,19.9z"/>
</svg>
