<?xml version="1.0" encoding="utf-8"?>
<!-- Generator: Adobe Illustrator 19.2.1, SVG Export Plug-In . SVG Version: 6.00 Build 0)  -->
<svg version="1.1" id="Layer_1" xmlns="http://www.w3.org/2000/svg" xmlns:xlink="http://www.w3.org/1999/xlink" x="0px" y="0px"
	 viewBox="0 0 132 132" style="enable-background:new 0 0 132 132;" xml:space="preserve">
<g>
	<path d="M25.5,37.9V119c0,6.9,5.6,12.5,12.5,12.5h56.1c6.9,0,12.5-5.6,12.5-12.5V37.9H25.5z M50.4,119h-6.2V50.4h6.2V119z
		 M69.1,119h-6.2V50.4h6.2V119z M87.8,119h-6.2V50.4h6.2V119z"/>
	<path d="M106.5,19.2H87.8V6.7c0-3.5-2.7-6.2-6.2-6.2H50.4c-3.5,0-6.2,2.7-6.2,6.2v12.5H25.5c-3.5,0-6.2,2.7-6.2,6.2
		s2.7,6.2,6.2,6.2h25h31.2h25c3.5,0,6.2-2.7,6.2-6.2S110,19.2,106.5,19.2z M53.5,9.9h25v9.4h-25V9.9z"/>
</g>
</svg>
