<?xml version="1.0" encoding="utf-8"?>
<!-- Generator: Adobe Illustrator 19.2.1, SVG Export Plug-In . SVG Version: 6.00 Build 0)  -->
<svg version="1.1" id="Layer_1" xmlns="http://www.w3.org/2000/svg" xmlns:xlink="http://www.w3.org/1999/xlink" x="0px" y="0px"
	 viewBox="0 0 132 132" style="enable-background:new 0 0 132 132;" xml:space="preserve">
<path d="M131.7,66L131.7,66l-2.5,2.5c-0.4,0.4-0.4,0.4-0.8,0.4L107.3,90c-0.4,0.4-1.7,0.4-2.1,0l0,0l-2.5-2.5
	c-0.4-0.4-0.8-1.2,0-2.1l0,0l17.8-17.8H71v52.1l16.1-16.5c0.4-0.4,1.7-0.4,2.1,0l0,0l0,0l2.5,2.5c0.4,0.4,0.4,1.7,0,2.1l-23.6,24
	c-0.4,0.4-1.7,0.4-2.1,0l0,0l-2.5-2.5c0,0-0.4-0.4-0.4-0.8l-21.1-21.1c-0.4-0.4-0.4-1.7,0-2.1l0,0l2.5-2.5c0.4-0.4,1.2-0.8,2.1,0
	l0,0l17.8,17.8V67.7H12.3l16.5,16.1c0.4,0.4,0.4,1.7,0,2.1l0,0l0,0l-2.5,2.5c-0.4,0.4-1.7,0.4-2.1,0l-24-23.6
	c-0.4-0.4-0.4-1.7,0-2.1l0,0l2.5-2.5c0,0,0.4-0.4,0.8-0.4l21.1-21.1c0.4-0.4,1.7-0.4,2.1,0l2.5,2.5c0.4,0.4,0.4,1.2,0,2.1l0,0
	L11.5,61.1H64V12.3L47.8,28.8c-0.4,0.4-1.7,0.4-2.1,0l0,0l0,0l-2.5-2.5c-0.4-0.4-0.4-1.7,0-2.1l23.6-24c0.4-0.4,1.7-0.4,2.1,0l0,0
	l2.5,2.5c0.4,0.4,0.4,0.4,0.4,0.8l21.1,21.1c0.4,0.4,0.4,1.7,0,2.1l-2.5,2.5c-0.4,0.4-1.2,0.8-2.1,0l0,0L70.6,11.5v49.6h48.8
	l-16.5-16.1c-0.4-0.4-0.4-1.2,0-2.1l0,0l0,0l2.5-2.5c0.4-0.4,1.7-0.4,2.1,0l24,23.6C132.1,64.8,132.1,65.6,131.7,66z"/>
</svg>
