<?xml version="1.0" encoding="utf-8"?>
<!-- Generator: Adobe Illustrator 19.2.1, SVG Export Plug-In . SVG Version: 6.00 Build 0)  -->
<svg version="1.1" id="Layer_1" xmlns="http://www.w3.org/2000/svg" xmlns:xlink="http://www.w3.org/1999/xlink" x="0px" y="0px"
	 viewBox="0 0 132 132" style="enable-background:new 0 0 132 132;" xml:space="preserve">
<path d="M132,30.5L101.5,0l0,0l-12,12L20.2,81.3l0,0l0,0l0,0l0,0L0,132l43.7-17.3l0,0l7.4-2.9l69.3-69.3l0,0L132,30.5z M101.5,10.3
	l20.2,20.2l-5,5L96.5,15.3L101.5,10.3z M12.8,119.2L22.7,94L38,109.3L12.8,119.2z M45.8,106.8L25.6,86.6l66-66l20.2,20.2L45.8,106.8
	z M99,38L43.3,94l-5-5L94,33L99,38z"/>
</svg>
