<?xml version="1.0" encoding="utf-8"?>
<!-- Generator: Adobe Illustrator 19.2.1, SVG Export Plug-In . SVG Version: 6.00 Build 0)  -->
<svg version="1.1" id="Layer_1" xmlns="http://www.w3.org/2000/svg" xmlns:xlink="http://www.w3.org/1999/xlink" x="0px" y="0px"
	 viewBox="0 0 132 132" style="enable-background:new 0 0 132 132;" xml:space="preserve">
<path d="M66,132c-36.5,0-66-29.5-66-66S29.5,0,66,0s66,29.5,66,66S102.5,132,66,132z M66,35.4c-17.4,0-31.6,12.9-31.6,28.5
	c0,7.3,3.1,14.2,8.3,19.1l-8.3,17.4l19.8-10.1c3.8,1.4,7.6,2.1,11.8,2.1c17.7,0,31.6-12.9,31.6-28.5C97.6,47.9,83.4,35.4,66,35.4z
	 M66,83.4c-11.8,0-21.9-8.3-21.9-18.8S53.8,45.9,66,45.9s21.9,8.3,21.9,18.8S77.8,83.4,66,83.4z"/>
</svg>
