<?xml version="1.0" encoding="utf-8"?>
<!-- Generator: Adobe Illustrator 19.2.1, SVG Export Plug-In . SVG Version: 6.00 Build 0)  -->
<svg version="1.1" id="Layer_1" xmlns="http://www.w3.org/2000/svg" xmlns:xlink="http://www.w3.org/1999/xlink" x="0px" y="0px"
	 viewBox="0 0 132 132" style="enable-background:new 0 0 132 132;" xml:space="preserve">
<path d="M66,132c-36.5,0-66-29.5-66-66S29.5,0,66,0s66,29.5,66,66C132.8,102.5,103.3,132,66,132z M59,99.7c1.4,1.4,2.8,2.1,4.9,2.1
	s3.5-0.7,4.9-2.1c1.4-1.4,2.1-2.8,2.1-4.9c0-2.1-0.7-3.5-2.1-4.9c-1.4-1.4-2.8-2.1-4.9-2.1s-3.5,0.7-4.9,2.1
	c-1.4,1.4-2.1,2.8-2.1,4.9C56.9,96.2,57.6,98.3,59,99.7z M79.3,38.6c-3.5-2.8-8.4-4.2-14-4.2c-5.6,0-9.8,1.4-13.3,4.2
	C48.4,41.4,47,44.2,47,47c0,1.4,0.7,2.8,1.4,3.5c1.4,0.7,2.1,1.4,3.5,1.4s2.1,0,2.8-0.7c0.7-0.7,1.4-1.4,1.4-2.1
	c0.7-0.7,1.4-1.4,2.8-2.1c1.4-0.7,2.8-0.7,4.9-0.7s4.2,0.7,5.6,1.4c1.4,0.7,2.1,2.8,2.1,4.2s0,2.1-0.7,3.5c-0.7,1.4-1.4,2.1-2.1,2.8
	c-0.7,0.7-1.4,1.4-2.8,2.1c-1.4,1.4-2.1,1.4-2.1,2.1c-4.2,3.5-6.3,7.7-6.3,13.3c0,2.1,0.7,4.2,1.4,4.9c0.7,0.7,2.1,1.4,4.2,1.4
	c3.5,0,5.6-1.4,5.6-3.5s0-3.5,0-4.2c0-0.7,0.7-2.1,1.4-3.5c0.7-1.4,2.1-2.8,3.5-3.5c7-5.6,10.5-10.5,10.5-16.9
	C84.9,44.9,83.5,41.4,79.3,38.6z"/>
</svg>
