<?xml version="1.0" encoding="utf-8"?>
<!-- Generator: Adobe Illustrator 19.2.1, SVG Export Plug-In . SVG Version: 6.00 Build 0)  -->
<svg version="1.1" id="Layer_1" xmlns="http://www.w3.org/2000/svg" xmlns:xlink="http://www.w3.org/1999/xlink" x="0px" y="0px"
	 viewBox="0 0 132 132" style="enable-background:new 0 0 132 132;" xml:space="preserve">
<style type="text/css">
	.st0{fill:#231F20;}
</style>
<g>
	<path d="M53,103.7v-4.1h8.1V55H53V51h20.3V55v44.6h8.1v4.1H53z M65.2,44.1c-4.5,0-8.1-3.7-8.1-8.1s3.7-8.1,8.1-8.1s8.1,3.7,8.1,8.1
		S69.7,44.1,65.2,44.1z"/>
	<path class="st0" d="M66,0.2C29.9,0.2,0.2,29.5,0.2,66s29.6,65.8,65.8,65.8c36.5,0,65.8-29.6,65.8-65.8
		C131.8,29.5,102.5,0.2,66,0.2z M66,124c-32.1,0-58-26-58-58s26-58,58-58s58,26,58,58S98.1,124,66,124z"/>
</g>
</svg>
