<?xml version="1.0" encoding="utf-8"?>
<!-- Generator: Adobe Illustrator 19.2.1, SVG Export Plug-In . SVG Version: 6.00 Build 0)  -->
<svg version="1.1" id="Layer_1" xmlns="http://www.w3.org/2000/svg" xmlns:xlink="http://www.w3.org/1999/xlink" x="0px" y="0px"
	 viewBox="0 0 132 132" style="enable-background:new 0 0 132 132;" xml:space="preserve">
<path d="M121.5,30.3c-6.8-10.4-16.3-18.7-27.7-23.9C105.2,11.4,114.9,19.7,121.5,30.3L121.5,30.3z M52.1,3.5c-1.3,1-2.5,2.3-3.9,2.8
	c-0.7,0.3-4.4,1.1-4.6,2.3c0.6,1.7,0,1.7-1.4,4.4c-1.5,0.7-4.2,0.3-5.5,1.4c-1,2.8-3.5,5.3-5.1,7.7c4.1,0.7-0.7,3.7-3,5.3
	c-2.3,1.8-3.1,4.1-4.8,6.2c-1.1,1.4-2.7,1.4-3.7,2.8c-1.8,2.4-5.2,5.3-6,8.3c-2.3,2-2.4,7-3.2,9.8c-2,6.9-0.1,14.9,5.6,20.1l8.9-1
	c2.7-2,6-2.8,7.9,0.3c1.7,3,3.5-0.3,5.2,1.1c0,1.8,2,4.1,1.5,6.3c-3.2,3.4,4.9,9.8,6.8,12.8c1.1,1.7,3.4,6.3,3.1,8.3
	c-3.1,3.1-0.3,7.3,1.8,9.7c3.4,3.9,6.8,8.2,9.8,12.2c2.4,0.3,4.8,0.4,7.3,0.4c1.4,0,2.7-0.1,4.1-0.1c2-1.1,3.7-2.7,4.9-5.6
	c0.4-1.8,4.4-2.3,3.4-5.3c-1-3.1,1.5-4.8,4.4-6.5c3.9-2.3,5.1-4.9,4.5-9.4c1.1-1.5-3-7.3-1.5-10.1c1.8-3.5,3.2-5.8,5.6-9
	c4.1-5.6,7.2-8.6,9.1-15.3c1-3.4,1-4.2,0.7-7.3c-2.3-0.6-7.5,5.2-10.1,3.4c-2-1.4-4.2-8-7.9-7.7c-2.3-0.8-4.9-7.6-6.3-10.4
	c-1.7-3.4-5.3-5.6-6.3-9.8c1.4,0,9.7,6.2,9.1,9.4c0.7,1.8,4.5,6.5,6.3,7c1.3,2.4,1.5,5.6,3.1,7.9c1.3,1.8,10.5-4.9,11.7-6.2
	c-0.3-2,1.5-2.7,3-3c0.6-1.4,0.4-1.7,1.3-3c0.8-1.3-0.1-2.8,1.1-2.8c0.3-1.7-0.4-3.7-1.8-5.1c-1.1-1.1-2.7-0.7-3.9-1.8l-1.7-2.7
	c-0.4,1,0.1,4.6-2.1,3.8c-3,1-1.4-1.7-3.5-2.8c-0.1,3.2-1.1-0.4-2.7-1.3c-1.1-0.6-3.4-2.7-3.4-3.9c3.2,0.1,4.8,3.1,8.3,4.2l2.1-0.6
	c1.1-1.5,1.8,1.1,2.5,1.5c3.2,1.8,6.6-0.7,9.7-0.4c1.8,1.3,3.4,3.5,5.5,3.2c0.8,1.7-0.7,0.4-0.6,0.8c0.8,1.3,2,2,3.2,2.4l-0.1-2.4
	c2.7,2.1,3.8,6.8,5.6,9.6c1,1.5,2.3,4.8,3.7,7.5c-1.4-8.3-4.4-16-8.6-22.8c6.8,10.3,10.5,22.5,10.5,35.7c0,36.3-29.4,65.7-65.8,65.7
	c-36.3,0-65.7-29.4-65.7-65.7S29.6,0.3,65.9,0.3c9.8,0,19.1,2.1,27.4,6c-7.6-3.4-16-5.2-24.9-5.2C63.1,1.2,57.5,2,52.1,3.5L52.1,3.5
	z M91.8,112.3c-1,1.3-1.4,4.9,1.4,3.8c5.1-2.1,5.1-10.7,8.7-13.8l0.3,0.6l0.6-2.7V100l-0.4-2.7c-1,0.4-2.4,3.4-3.2,4.5
	c-2.1,2.8-6.9,3-5.6,7.6c-0.4-1-0.7-1.8-0.7-3l-0.7,0.6l0,0c-1-1.5,1.8-5.2,1.4-7.2l-1.5,3c-0.1-0.4-0.7,0.3-1.7,0.4
	c0,1.3,0.8,3.7,1.8,3.8l0,0l0,0l0.1,0.1C91.2,109,93.4,110.3,91.8,112.3L91.8,112.3z M75.5,13C75.8,12.7,74.4,12.7,75.5,13
	c-0.6-0.1-4.6,0-4.5-1.1c-1.8,0.3-3.8,2.8-5.8,1.1c-1-1.7,1.3-2.8,0.7-4.5c1.8-2.1,0.6,0,2.5-0.7l-0.6,0.7C68,8.5,79,10.7,75.5,13
	L75.5,13z M70.9,26.8C70,26.2,69.2,25.9,68,27c-1.5,1.5-3.5-0.6-5.5-0.1c2-0.4-0.1-0.8,0,0c-0.1-1.4-4.8-1.5-5.6-0.7
	c-2.7,2.5,0.6,3.4-3.7,2.4c-2.5-0.6-1.5-3-4.9-2.3l-1.8-1.1c0-1.7,2-3.1,2.3-4.8c-2.5-2.4-12.7,5.9-15.3,3.8l7.6-6.6
	c1.5-3,5.3-3.8,7.5-5.1c2.3-1.4,3.2,0.8,4.5,2.8c2.4,3.9-2.8,2.1-2.7,4.2c2.7,1,2.5,0.3,4.2-1.7c1.1-1.3-0.3-2.8,1.7-1.7
	c1.1-1-6.5-5.5-2.3-6.6c-0.8,1,5.2,4.1,3.2,5.6c2.1,2.7,0.8,4.6,3.2,5.1c0-1.4-0.1-1.1,0.1-2.1l0.7,0.3c0.3-1.3-1.5-2.1-1-3.5
	c1.7,0.3,0.7,0.8,1-0.4h2.3c-1.4,1.8,1.3,1-0.1,2.7c0.4,1.1,1.5,1.3,1.4,2.1c0,0.7,7.3,0,8.6-0.8C73.2,19,74.5,29.4,70.9,26.8
	L70.9,26.8z M47.2,18l1.3-0.3c0.3-1.4,1.5-3.4,1.5-4.8C49.1,13.1,47.5,16.9,47.2,18L47.2,18z M90.1,16.9c-1.4,0.6-2.7,0.4-3.8-0.6
	c-1.5,0.1-2.8-3-1.8-3.2c-0.3-1.3-4.6-3.5-5.6-4.8c0-1.7,2.8-3.9,3.5-1.3l-1.1,1.1C83.4,9.3,89.7,14.4,90.1,16.9L90.1,16.9z
	 M86.2,6.8l0.1-1c1.1,0.3,2.1,2.7,3.2,2.8C88.3,9.9,86.6,7.3,86.2,6.8L86.2,6.8z M42.2,13.1l0.1-0.1l1-0.7L42.2,13.1L42.2,13.1z"/>
</svg>
