<?xml version="1.0" encoding="utf-8"?>
<!-- Generator: Adobe Illustrator 19.2.1, SVG Export Plug-In . SVG Version: 6.00 Build 0)  -->
<svg version="1.1" id="Layer_1" xmlns="http://www.w3.org/2000/svg" xmlns:xlink="http://www.w3.org/1999/xlink" x="0px" y="0px"
	 viewBox="0 0 132 132" style="enable-background:new 0 0 132 132;" xml:space="preserve">
<path id="Shape_23_copy_2" d="M129.1,2.7c-3.5-3.5-8.9-3.5-12.4,0L88.3,31.9V8.9c0-4.4-3.5-8.9-8.9-8.9l0,0c-4.4,0-8.9,3.5-8.9,8
	l0,0v45.2c0,4.4,3.5,8.9,8,8.9l0,0H122c4.4,0,8.9-3.5,8.9-8.9s-3.5-8.9-8.9-8.9c0,0,0,0-0.9,0H98L127.3,16
	C132.6,12.4,132.6,6.2,129.1,2.7L129.1,2.7z M3.1,129.5c-3.5-3.5-3.5-8.9,0-12.4l28.4-29.3H9.3c-4.4,0-8.9-3.5-8.9-8.9l0,0
	c0-4.4,3.5-8.9,8.9-8.9l0,0h43.5c4.4,0,8.9,3.5,8.9,8l0,0v43.5c0,4.4-3.5,8.9-8.9,8.9c-4.4,0-8.9-3.5-8.9-8.9V98.5l-28.4,29.3
	C12,133.1,6.7,133.1,3.1,129.5L3.1,129.5L3.1,129.5z"/>
</svg>
