<?xml version="1.0" encoding="utf-8"?>
<!-- Generator: Adobe Illustrator 19.2.1, SVG Export Plug-In . SVG Version: 6.00 Build 0)  -->
<svg version="1.1" id="Layer_1" xmlns="http://www.w3.org/2000/svg" xmlns:xlink="http://www.w3.org/1999/xlink" x="0px" y="0px"
	 viewBox="0 0 132 132" style="enable-background:new 0 0 132 132;" xml:space="preserve">
<path d="M66,25.8C37.9,25.2,12.1,40.7,0,66c18.9,36.7,63.7,50.5,99.9,32.1c13.8-6.9,24.7-18.4,32.1-32.1
	C119.9,40.7,94.1,25.2,66,25.8z M66,98.1C42.5,98.7,20.7,86.6,9.2,66c18.9-31.6,59.7-41.3,91.3-22.4c9.2,5.7,17.2,13.2,22.4,22.4
	C111.3,86.6,89.5,98.7,66,98.1z M66,66V41.9c-13.2,0.6-23.5,11.5-23.5,24.7C43,79.7,53.9,90.1,67.1,90.1
	C80.3,89.5,90.7,79.2,90.7,66c0-6.3-2.9-12.6-7.5-17.2L66,66z"/>
</svg>
