<?xml version="1.0" encoding="utf-8"?>
<!-- Generator: Adobe Illustrator 19.2.1, SVG Export Plug-In . SVG Version: 6.00 Build 0)  -->
<svg version="1.1" id="Layer_1" xmlns="http://www.w3.org/2000/svg" xmlns:xlink="http://www.w3.org/1999/xlink" x="0px" y="0px"
	 viewBox="0 0 132 132" style="enable-background:new 0 0 132 132;" xml:space="preserve">
<path d="M125.6,77.5H76.2V123c0,3.7-4,6.8-8.9,6.8h-0.6c-4.9,0-8.9-3-8.9-6.8V77.5H6.4c-3.5,0-6.4-4.1-6.4-9v-0.6c0-5.1,2.8-9,6.4-9
	h51.4V10.6c0-3.7,4-6.8,8.9-6.8h0.6c4.9,0,8.9,3,8.9,6.8v48.2h49.5c3.5,0,6.4,4.1,6.4,9v0.6C132,73.4,129.2,77.5,125.6,77.5
	L125.6,77.5z"/>
</svg>
