<?xml version="1.0" encoding="utf-8"?>
<!-- Generator: Adobe Illustrator 19.2.1, SVG Export Plug-In . SVG Version: 6.00 Build 0)  -->
<svg version="1.1" id="Layer_1" xmlns="http://www.w3.org/2000/svg" xmlns:xlink="http://www.w3.org/1999/xlink" x="0px" y="0px"
	 viewBox="0 0 31.4 24" style="enable-background:new 0 0 31.4 24;" xml:space="preserve">
<title>backarrow</title>
<path d="M30.4,11H3.6l10.1-9.3c0.4-0.4,0.4-1,0.1-1.4c-0.4-0.4-1-0.4-1.4-0.1l-12,11c0,0,0,0,0,0c0,0-0.1,0.1-0.1,0.1
	c0,0,0,0-0.1,0.1c0,0,0,0.1-0.1,0.1c0,0,0,0,0,0.1c0,0.1,0,0.1-0.1,0.2c0,0,0,0,0,0c0,0.1,0,0.1,0,0.2s0,0.1,0,0.2c0,0,0,0,0,0
	c0,0.1,0,0.1,0.1,0.2c0,0,0,0,0,0.1c0,0,0,0.1,0.1,0.1c0,0,0,0,0,0.1c0,0,0.1,0.1,0.1,0.1c0,0,0,0,0,0l12,11
	c0.2,0.2,0.4,0.3,0.7,0.3c0.3,0,0.5-0.1,0.7-0.3c0.4-0.4,0.3-1-0.1-1.4L3.6,13h26.8c0.6,0,1-0.4,1-1C31.4,11.4,31,11,30.4,11z"/>
</svg>
