<svg xmlns="http://www.w3.org/2000/svg" width="34" height="24" viewBox="0 0 34 24">
  <metadata><?xpacket begin="﻿" id="W5M0MpCehiHzreSzNTczkc9d"?>
<x:xmpmeta xmlns:x="adobe:ns:meta/" x:xmptk="Adobe XMP Core 5.6-c138 79.159824, 2016/09/14-01:09:01        ">
   <rdf:RDF xmlns:rdf="http://www.w3.org/1999/02/22-rdf-syntax-ns#">
      <rdf:Description rdf:about=""/>
   </rdf:RDF>
</x:xmpmeta>
                                                                                                    
                                                                                                    
                                                                                                    
                                                                                                    
                                                                                                    
                                                                                                    
                                                                                                    
                                                                                                    
                                                                                                    
                                                                                                    
                                                                                                    
                                                                                                    
                                                                                                    
                                                                                                    
                                                                                                    
                                                                                                    
                                                                                                    
                                                                                                    
                                                                                                    
                                                                                                    
                           
<?xpacket end="w"?></metadata>
<defs>
    <style>
      .cls-1 {
        fill: #21262c;
        fill-rule: evenodd;
      }
    </style>
  </defs>
  <path id="Back_arrow" data-name="Back arrow" class="cls-1" d="M1887,2909.01h-29.43l10.11-9.25a1.006,1.006,0,0,0,.06-1.41,1.018,1.018,0,0,0-1.42-.06l-12,10.98a0.02,0.02,0,0,1-.01.02c-0.03.03-.05,0.06-0.08,0.09a0.265,0.265,0,0,0-.05.06,0.746,0.746,0,0,0-.07.12c-0.01.02-.02,0.03-0.03,0.05a0.983,0.983,0,0,0-.05.16c0,0.01-.01.02-0.01,0.03a1.492,1.492,0,0,0-.02.21,1.231,1.231,0,0,0,.02.2,0.227,0.227,0,0,0,.01.04,0.983,0.983,0,0,0,.05.16,0.219,0.219,0,0,1,.03.05,0.746,0.746,0,0,0,.07.12,0.265,0.265,0,0,0,.05.06c0.03,0.03.05,0.06,0.08,0.09,0.01,0,.01.01,0.01,0.02l12,10.98a1.053,1.053,0,0,0,.68.26,1.024,1.024,0,0,0,.74-0.32,1.006,1.006,0,0,0-.06-1.41l-10.11-9.25H1887A1,1,0,0,0,1887,2909.01Z" transform="translate(-1854 -2898)"/>
</svg>
