<?xml version="1.0" encoding="utf-8"?>
<!-- Generator: Adobe Illustrator 21.1.0, SVG Export Plug-In . SVG Version: 6.00 Build 0)  -->
<!DOCTYPE svg PUBLIC "-//W3C//DTD SVG 1.1//EN" "http://www.w3.org/Graphics/SVG/1.1/DTD/svg11.dtd">
<svg version="1.1" id="Layer_1" xmlns="http://www.w3.org/2000/svg" xmlns:xlink="http://www.w3.org/1999/xlink" x="0px" y="0px"
	 viewBox="0 0 132 132" style="enable-background:new 0 0 132 132;" xml:space="preserve">
<style type="text/css">
	.st0{fill:#231F20;}
</style>
<path class="st0" d="M128.1,62.2H13.9L57,22.4c1.6-1.4,1.7-3.9,0.2-5.5c-1.4-1.6-3.9-1.7-5.5-0.2L1.3,63.2c0,0,0,0-0.1,0.1
	c-0.1,0.1-0.2,0.2-0.3,0.3c-0.1,0.1-0.1,0.2-0.2,0.2c-0.1,0.1-0.2,0.3-0.3,0.5c0,0.1-0.1,0.1-0.1,0.2c-0.1,0.2-0.1,0.4-0.2,0.6
	c0,0,0,0.1,0,0.1C0,65.5,0,65.8,0,66.1c0,0.3,0,0.5,0.1,0.8c0,0,0,0.1,0,0.1c0.1,0.2,0.1,0.4,0.2,0.6c0,0.1,0.1,0.1,0.1,0.2
	c0.1,0.2,0.2,0.3,0.3,0.5c0.1,0.1,0.1,0.2,0.2,0.2c0.1,0.1,0.2,0.2,0.3,0.3c0,0,0,0,0.1,0.1l50.5,46.5c0.7,0.7,1.7,1,2.6,1
	c1,0,2.1-0.4,2.9-1.3c1.4-1.6,1.3-4-0.2-5.5L13.9,70h114.2c2.1,0,3.9-1.7,3.9-3.9C132,63.9,130.2,62.2,128.1,62.2z"/>
</svg>
