<?xml version="1.0" encoding="utf-8"?>
<!-- Generator: Adobe Illustrator 19.2.1, SVG Export Plug-In . SVG Version: 6.00 Build 0)  -->
<svg version="1.1" id="Layer_1" xmlns="http://www.w3.org/2000/svg" xmlns:xlink="http://www.w3.org/1999/xlink" x="0px" y="0px"
	 viewBox="0 0 132 132" style="enable-background:new 0 0 132 132;" xml:space="preserve">
<path id="Layer_2" d="M131.5,119.1L69.6,8.9c-2.2-3.6-5.4-3.6-7.6,0L0.4,119.1c-2.2,3.6-0.4,6.7,4,6.7H128
	C132,125.8,133.8,122.6,131.5,119.1z M71.3,106.6c-1.3,1.3-3.1,1.8-5.4,1.8s-4.5-0.4-5.8-1.8c-1.3-1.3-1.8-3.1-1.8-5.4
	s0.4-4.5,1.8-5.4c1.3-1.3,3.1-1.8,5.8-1.8c2.2,0,4.5,0.4,5.4,1.8c0.9,1.3,1.8,3.1,1.8,5.4C73.6,103.5,72.7,105.2,71.3,106.6z
	 M71.3,86.5H60.6l-2.2-42.4h15.2L71.3,86.5z"/>
</svg>
