<?xml version="1.0" encoding="utf-8"?>
<!-- Generator: Adobe Illustrator 19.2.1, SVG Export Plug-In . SVG Version: 6.00 Build 0)  -->
<svg version="1.1" id="Layer_1" xmlns="http://www.w3.org/2000/svg" xmlns:xlink="http://www.w3.org/1999/xlink" x="0px" y="0px"
	 viewBox="0 0 132 132" style="enable-background:new 0 0 132 132;" xml:space="preserve">
<path id="icon_checked" d="M130.8,21.2c-1.6-1.6-4.1-1.6-5.7,0c0,0,0,0,0,0l-79.8,80.7L7.1,63.3c-1.6-1.6-4.2-1.6-5.8,0c0,0,0,0,0,0
	c-1.6,1.6-1.6,4.3,0,5.9l40.9,41.4c0,0,0.1,0,0.1,0.1c0,0,0,0.1,0.1,0.1c1.6,1.6,4.1,1.6,5.7,0.1c0,0,0,0,0.1-0.1l82.7-83.7
	C132.4,25.4,132.4,22.8,130.8,21.2z"/>
</svg>
