<?xml version="1.0" encoding="utf-8"?>
<!-- Generator: Adobe Illustrator 19.2.1, SVG Export Plug-In . SVG Version: 6.00 Build 0)  -->
<svg version="1.1" id="Layer_1" xmlns="http://www.w3.org/2000/svg" xmlns:xlink="http://www.w3.org/1999/xlink" x="0px" y="0px"
	 viewBox="0 0 132 132" style="enable-background:new 0 0 132 132;" xml:space="preserve">
<g>
	<path d="M2,45.9l62.6,35c1.5,0.7,2.2,0.4,2.5,0l63-35c1.5-0.4,2.5-3.3,0-4.7l-62.6-35c-0.7-0.4-1.8-0.4-2.5,0l-63,35
		C-0.2,42.3,0.5,45.5,2,45.9z M66.1,11.7l57.2,31.7l-57.2,32L8.9,43.7L66.1,11.7z"/>
	<path d="M130.2,63.4l-16-9.1c-1.8,1.1-3.6,2.2-5.5,3.3l14.2,8l-56.8,32L8.9,65.9l13.8-7.6c-1.5-1.1-4.7-3.3-5.1-3.6l-16,8.7
		c-2.2,1.1-1.5,4.4,0,4.7L14.4,75l5.8,3.3L65,103.1c1.5,0.7,2.2,0.4,2.5,0l44.8-24.8l5.8-3.3l12.4-6.9
		C131.6,67.7,132.7,64.8,130.2,63.4z"/>
	<path d="M130.2,86l-16-9.1c-1.8,1.1-3.6,2.2-5.5,3.3l14.2,8l-56.8,32l-57.2-32l13.8-7.6c-1.5-1.1-4.7-3.3-5.1-3.6L2,86
		c-2.2,1.1-1.5,4.4,0,4.7l12.4,6.9l5.8,3.3L65,125.7c1.5,0.7,2.2,0.4,2.5,0l44.8-24.8l5.8-3.3l12.4-6.9
		C131.6,90.3,132.7,87.4,130.2,86z"/>
</g>
</svg>
