<?xml version="1.0" encoding="utf-8"?>
<!-- Generator: Adobe Illustrator 19.2.1, SVG Export Plug-In . SVG Version: 6.00 Build 0)  -->
<svg version="1.1" id="Layer_1" xmlns="http://www.w3.org/2000/svg" xmlns:xlink="http://www.w3.org/1999/xlink" x="0px" y="0px"
	 viewBox="0 0 132 132" style="enable-background:new 0 0 132 132;" xml:space="preserve">
<path d="M132.4,3.4c-0.4-0.4-1.5-1.1-2.6-1.1c-1.9,0-7.2,0-40.1,28C76.1,42,60.6,56.4,47.3,68.8l0,0l0,0c-3.8,3.8-7.6,7.2-10.6,10.6
	c-20.4,2.6-23.1,15.5-25.3,26.5c-1.9,9.1-3,14-10.6,14.4c-1.1,0-2.3,1.1-2.3,2.3c0,1.1,0.4,2.3,1.5,2.6c0.4,0,10.6,4.5,22.3,4.5l0,0
	c12.9,0,29.5-5.3,34.8-29.1c15.5-15.9,35.5-38.2,50.7-56.7c8.3-10.2,14.7-18.5,19.3-25C133.2,9.8,134.7,5.7,132.4,3.4z M48.9,74.5
	l13.2,13.6c-2.6,2.6-5.3,5.3-7.6,7.9L40.9,82.5C43.6,79.8,46.2,77.2,48.9,74.5z M22,124.8L22,124.8c-4.9,0-9.8-0.8-13.6-1.9
	c4.9-3.4,6.1-9.8,7.6-15.9c2.3-10.2,4.2-20,20.8-22.3l15.1,15.5C48.1,116.5,38.3,124.8,22,124.8z M101.8,43.5
	c-11,13.2-24.2,28-36.3,40.8L52.3,71.1C65.1,59,79.5,45.4,92.7,34.4c22.7-19.3,31.4-25,34.8-26.5C126.4,11.4,121.1,20.4,101.8,43.5z
	"/>
</svg>
