<?xml version="1.0" encoding="iso-8859-1"?>
<!-- Generator: Adobe Illustrator 19.2.1, SVG Export Plug-In . SVG Version: 6.00 Build 0)  -->
<svg version="1.1" id="Layer_1" xmlns="http://www.w3.org/2000/svg" xmlns:xlink="http://www.w3.org/1999/xlink" x="0px" y="0px"
	 viewBox="0 0 132 132" style="enable-background:new 0 0 132 132;" xml:space="preserve">
<g id="Layer_1_copy_2">
	<g id="Layer_3_copy_2_">
		<path d="M66-0.2C29.6-0.2-0.2,29.2-0.2,66s29.8,66.2,66.2,66.2c36.8,0,66.2-29.8,66.2-66.2C132.2,29.2,102.8-0.2,66-0.2z
			 M66,121.6c-30.6,0-55.6-24.9-55.6-55.6s25-55.6,55.6-55.6s55.6,24.9,55.6,55.6S96.6,121.6,66,121.6z"/>
	</g>
	<g>
		<polygon style="fill:#231F20;" points="55.8,76.6 34.9,55.8 22.3,68.5 43.1,89.3 55.8,102 106.5,51.7 93.4,39 		"/>
	</g>
</g>
<g>
</g>
<g>
</g>
<g>
</g>
<g>
</g>
<g>
</g>
<g>
</g>
<g>
</g>
<g>
</g>
<g>
</g>
<g>
</g>
<g>
</g>
<g>
</g>
<g>
</g>
<g>
</g>
<g>
</g>
</svg>
