<?xml version="1.0" encoding="utf-8"?>
<!-- Generator: Adobe Illustrator 19.2.1, SVG Export Plug-In . SVG Version: 6.00 Build 0)  -->
<svg version="1.1" id="Layer_1" xmlns="http://www.w3.org/2000/svg" xmlns:xlink="http://www.w3.org/1999/xlink" x="0px" y="0px"
	 viewBox="0 0 132 132" style="enable-background:new 0 0 132 132;" xml:space="preserve">
<style type="text/css">
	.st0{display:none;}
	.st1{display:inline;}
	.st2{fill:#231F20;}
</style>
<g id="Layer_1_copy" class="st0">
	<g id="Layer_3_copy_1_" class="st1">
		<path d="M66.2,49.5c-8.9,0-16.2,7.2-16.2,16.2s7.3,16.2,16.2,16.2c9,0,16.2-7.3,16.2-16.2C82.4,56.7,75.2,49.5,66.2,49.5z
			 M66.2,79.3c-7.5,0-13.6-6.1-13.6-13.6s6.1-13.6,13.6-13.6s13.6,6.1,13.6,13.6S73.7,79.3,66.2,79.3z"/>
	</g>
	<g id="Layer_5_1_" class="st1">
		<path d="M78,75l-2,2L54,57l2-2L78,75z"/>
	</g>
</g>
<g id="Layer_1_copy_2">
	<g id="Layer_3_copy_2_">
		<path d="M66-0.2C29.6-0.2-0.2,29.2-0.2,66s29.8,66.2,66.2,66.2c36.8,0,66.2-29.8,66.2-66.2C132.2,29.2,102.8-0.2,66-0.2z
			 M66,121.6c-30.6,0-55.6-24.9-55.6-55.6S35.4,10.4,66,10.4s55.6,24.9,55.6,55.6S96.6,121.6,66,121.6z"/>
	</g>
	<g>
		<polygon class="st2" points="55.8,76.6 34.9,55.8 22.3,68.5 43.1,89.3 55.8,102 106.5,51.7 93.4,39 		"/>
	</g>
</g>
</svg>
