<?xml version="1.0" encoding="utf-8"?>
<!-- Generator: Adobe Illustrator 19.2.1, SVG Export Plug-In . SVG Version: 6.00 Build 0)  -->
<svg version="1.1" id="Layer_1" xmlns="http://www.w3.org/2000/svg" xmlns:xlink="http://www.w3.org/1999/xlink" x="0px" y="0px"
	 viewBox="0 0 132 132" style="enable-background:new 0 0 132 132;" xml:space="preserve">
<path d="M66,132c-36.5,0-66-29.5-66-66S29.5,0,66,0s66,29.5,66,66S102.5,132,66,132z M59.4,96.2c1.4,1.4,2.8,2.1,4.5,2.1
	c1,0,1.7-0.3,2.4-0.7c0.7-0.3,1.4-0.7,2.1-1.4c0.7-0.7,1-1.4,1.4-2.1c0.3-0.7,0.3-1.7,0.3-2.4c0-1.7-0.7-3.5-1.7-4.5
	c-1.4-1.4-2.8-2.1-4.5-2.1c-1.7,0-3.5,0.7-4.5,2.1c-1.4,1.4-1.7,2.8-1.7,4.5C57.3,93.4,58,94.8,59.4,96.2z M81.6,43.8
	c-1-1.7-2.1-3.1-3.5-4.5c-1.4-1.4-3.5-2.1-5.6-3.1c-2.1-0.7-4.9-1-7.3-1c-2.8,0-5.2,0.3-7.3,1c-2.1,0.7-3.8,1.7-5.2,2.8
	s-2.4,2.4-3.1,3.8c-0.7,1.4-1,2.4-1,3.8c0,0.7,0,1.7,0.3,2.1c0.3,0.7,0.7,1,1.4,1.4c0.3,0.3,1,0.7,1.7,1c0.7,0.3,1,0.3,1.7,0.3
	c1,0,2.1-0.3,2.4-1c0.3-0.7,1-1.4,1.7-2.4c0.7-0.7,1.4-1.7,2.4-2.4c1-0.7,2.8-1,4.9-1s3.8,0.3,5.6,1.4c1.4,1,2.1,2.4,2.1,4.5
	c0,1-0.3,2.1-0.7,3.1c-0.7,1-1,1.7-2.1,2.4c-0.7,0.7-1.7,1.4-2.4,2.1c-1,0.7-1.7,1.4-2.4,1.7s-1.4,1-2.1,1.7
	c-0.7,0.7-1.4,1.7-1.7,2.8c-0.7,1-1,2.1-1.4,3.5s-0.7,3.1-0.7,4.9c0,2.1,0.3,3.8,1,4.5c0.7,0.7,1.7,1,3.5,1c2.1,0,3.5-0.3,4.2-1
	c0.7-0.7,1-1.4,1-2.4c0-1,0-2.1,0-3.1c0-1,0.3-1.7,0.7-2.8c0.3-0.7,0.7-1.7,1.4-2.4c0.7-0.7,1.4-1.7,2.8-2.8c0.7-0.3,1.4-1,2.4-2.1
	c1-1,2.1-2.1,3.1-3.5c1-1.4,2.1-2.8,2.8-4.5c0.7-1.7,1-3.5,1-5.6C83,47.2,82.7,45.5,81.6,43.8z"/>
</svg>
