<svg xmlns="http://www.w3.org/2000/svg" viewBox="0 0 24 20.31"><title>grid</title><g id="Layer_2" data-name="Layer 2"><g id="Filled_Icons" data-name="Filled Icons"><path d="M10.79,0H.29A.29.29,0,0,0,0,.29v5a.29.29,0,0,0,.29.29h10.5a.29.29,0,0,0,.29-.29v-5A.29.29,0,0,0,10.79,0Z"/><path d="M23.71,0H13.18a.27.27,0,0,0-.26.29V5.15c0,.16.1.4.26.4H23.71A.29.29,0,0,0,24,5.25v-5A.29.29,0,0,0,23.71,0Z"/><path d="M10.79,7.38H.29A.29.29,0,0,0,0,7.67v5a.29.29,0,0,0,.29.29h10.5a.29.29,0,0,0,.29-.29v-5A.29.29,0,0,0,10.79,7.38Z"/><path d="M23.71,7.38H13.21a.29.29,0,0,0-.29.29v5a.29.29,0,0,0,.29.29h10.5a.29.29,0,0,0,.29-.29v-5A.29.29,0,0,0,23.71,7.38Z"/><path d="M10.79,14.76H.29a.29.29,0,0,0-.29.29v5a.29.29,0,0,0,.29.29h10.5a.29.29,0,0,0,.29-.29v-5A.29.29,0,0,0,10.79,14.76Z"/><path d="M23.71,14.76H13.21a.29.29,0,0,0-.29.29v5a.29.29,0,0,0,.29.29h10.5A.29.29,0,0,0,24,20v-5A.29.29,0,0,0,23.71,14.76Z"/></g></g></svg>