<?xml version="1.0" encoding="utf-8"?>
<!-- Generator: Adobe Illustrator 19.2.1, SVG Export Plug-In . SVG Version: 6.00 Build 0)  -->
<svg version="1.1" id="Layer_1" xmlns="http://www.w3.org/2000/svg" xmlns:xlink="http://www.w3.org/1999/xlink" x="0px" y="0px"
	 viewBox="0 0 132 132" style="enable-background:new 0 0 132 132;" xml:space="preserve">
<g>
	<path d="M59,99.8c1.4,1.4,2.8,2.1,4.9,2.1s3.5-0.7,4.9-2.1c1.4-1.4,2.1-2.8,2.1-4.9s-0.7-3.5-2.1-4.9c-1.4-1.4-2.8-2.1-4.9-2.1
		S60.4,88.6,59,90c-1.4,1.4-2.1,2.8-2.1,4.9C56.9,96.3,57.6,98.4,59,99.8z M79.3,38.8c-3.5-2.8-8.4-4.2-14-4.2s-9.8,1.4-13.3,4.2
		S47,44.4,47,47.2c0,1.4,0.7,2.8,1.4,3.5c1.4,0.7,2.1,1.4,3.5,1.4s2.1,0,2.8-0.7c0.7-0.7,1.4-1.4,1.4-2.1c0.7-0.7,1.4-1.4,2.8-2.1
		c1.4-0.7,2.8-0.7,4.9-0.7s4.2,0.7,5.6,1.4c1.4,0.7,2.1,2.8,2.1,4.2s0,2.1-0.7,3.5c-0.7,1.4-1.4,2.1-2.1,2.8
		c-0.7,0.7-1.4,1.4-2.8,2.1c-1.4,1.4-2.1,1.4-2.1,2.1c-4.2,3.5-6.3,7.7-6.3,13.3c0,2.1,0.7,4.2,1.4,4.9c0.7,0.7,2.1,1.4,4.2,1.4
		c3.5,0,5.6-1.4,5.6-3.5s0-3.5,0-4.2s0.7-2.1,1.4-3.5c0.7-1.4,2.1-2.8,3.5-3.5c7-5.6,10.5-10.5,10.5-16.8
		C84.9,45.1,83.5,41.6,79.3,38.8z"/>
	<g>
		<path d="M66,7c32.6,0,59,26.5,59,59l0,0l0,0c0.3,15.6-5.5,30.2-16.4,41.3C97.3,118.6,82.1,125,65.9,125c-32.6,0-59-26.5-59-59
			C7,33.6,33.6,7,66,7 M66,0C29.5,0,0,29.5,0,66s29.5,66,66,66c37.2,0,66.7-29.5,66-66C132.1,29.5,102.6,0,66,0L66,0z"/>
	</g>
</g>
</svg>
