<?xml version="1.0" encoding="utf-8"?>
<!-- Generator: Adobe Illustrator 19.2.1, SVG Export Plug-In . SVG Version: 6.00 Build 0)  -->
<svg version="1.1" id="Layer_1" xmlns="http://www.w3.org/2000/svg" xmlns:xlink="http://www.w3.org/1999/xlink" x="0px" y="0px"
	 viewBox="0 0 132 132" style="enable-background:new 0 0 132 132;" xml:space="preserve">
<path d="M111.7,132H21c-4.4,0-7.7-3.3-8.4-7.3c-1.1-2.2-1.8-8-3.3-22.7c0-1.1,0-2.9,0.4-4.4c1.1-2.2,2.9-3.7,5.1-3.7
	c2.6,0,5.9,1.8,10.6,5.1c4,2.9,6.6,4,10.2,4c8,0,14.6-6.6,14.6-14.3s-6.6-14.3-14.6-14.3c-3.3,0-6.2,1.1-9.9,4
	c-4.4,3.3-7.7,5.1-10.6,5.1s-4.8-1.8-5.5-5.1c0-0.4-0.4-1.5,0-2.6c1.8-22.3,2.9-28.5,2.9-29.6c1.1-8,5.1-9.1,7.7-9.1
	c0.4,0,0.7,0,1.5,0c0,0,21.9,2.6,28.9,2.9c1.8,0,3.7-0.4,4-1.1c0.4-0.7,0-2.9-2.2-5.9c-2.9-4.4-4.8-8-4.8-13.2
	C47.7,9.1,56.9,0,67.8,0s20.1,9.1,20.1,20.1c0,5.1-1.5,7.3-4.4,12.4l-0.7,0.7c-1.8,3.3-2.2,5.1-1.5,6.2c0.4,0.7,1.8,1.1,2.6,1.1
	c0.4,0,0.7,0,0.7,0c7.7-0.7,28.9-2.9,29.3-2.9s0.7,0,1.1,0c5.1,1.5,7.7,4.8,7.7,9.9v73.9C122.7,127.6,118.3,132,111.7,132z
	 M17.4,121.4c0.4,0.4,0.7,1.1,0.7,1.8c0,1.5,1.5,2.9,2.9,2.9h90.7c3.3,0,5.1-1.8,5.1-5.1V47.2c0-1.8-0.4-3.3-3.3-4
	c-3.7,0.4-21.6,2.2-28.5,2.9c-4,0.4-7.3-1.1-8.8-4c-1.1-1.8-2.2-5.9,1.8-12.1l0.4-0.4c2.9-4.4,3.7-5.9,3.7-9.1
	c0-8-6.6-14.3-14.6-14.3s-14.6,6.6-14.6,14.3c0,3.7,1.1,5.9,3.7,9.9c4,5.9,3.7,9.9,2.6,12.1c-1.5,2.9-4.8,4.4-9.5,4
	c-7.3-0.4-28.2-2.9-29.3-2.9c-0.4,0-0.4,0-0.7,0c-1.5,0-1.8,2.6-2.2,4.4v0.4c0,0.4-1.1,5.5-2.9,29.3v0.4l0,0v0.4
	c1.8-0.4,5.9-3.3,7.3-4c3.3-2.2,7.7-4.8,13.2-4.8c11.3,0,20.1,9.1,20.1,20.1s-9.1,20.1-20.1,20.1c-5.9,0-9.5-2.2-13.5-5.5
	c-4.8-3.7-6.6-4-6.9-4c0,0.4,0,1.1,0,1.5C16.3,115.9,17,120.3,17.4,121.4z"/>
</svg>
