<?xml version="1.0" encoding="utf-8"?>
<!-- Generator: Adobe Illustrator 19.2.1, SVG Export Plug-In . SVG Version: 6.00 Build 0)  -->
<svg version="1.1" id="Layer_1" xmlns="http://www.w3.org/2000/svg" xmlns:xlink="http://www.w3.org/1999/xlink" x="0px" y="0px"
	 viewBox="0 0 132 132" style="enable-background:new 0 0 132 132;" xml:space="preserve">
<path id="icon_linked" d="M20.5,78c-2.3,0-4.1-1.8-4.1-4.1V57.5c0-2.3,1.8-4.1,4.1-4.1h37c-2.3-10-10.6-17-20.5-17H20.5
	C9.4,36.4,0,45.8,0,57.5v17C0,86.2,9.4,95,20.5,95.6H37C46.9,95,55.1,88,57.5,78H20.5L20.5,78z M111.5,36.4H95c-10,0-18.2,7-19.9,17
	h36.4c2.3,0,4.1,1.8,4.1,4.1v17c0,2.3-1.8,4.1-4.1,4.1h-37c1.8,9.4,10.6,16.4,19.9,17h17c11.7,0,20.5-9.4,20.5-21.1v-17
	C132,45.8,122.6,36.4,111.5,36.4z M34,59.8h64.5v11.7H34C34,71.6,34,59.8,34,59.8z"/>
</svg>
