<svg xmlns="http://www.w3.org/2000/svg" viewBox="0 0 24 20.31"><title>list</title><g id="Layer_2" data-name="Layer 2"><g id="Filled_Icons" data-name="Filled Icons"><path d="M1.42,3.71H22.58A1.68,1.68,0,0,0,24,1.85,1.68,1.68,0,0,0,22.58,0H1.42A1.68,1.68,0,0,0,0,1.85,1.68,1.68,0,0,0,1.42,3.71Z"/><path d="M22.58,5.54H1.42A1.68,1.68,0,0,0,0,7.4,1.68,1.68,0,0,0,1.42,9.25H22.58A1.68,1.68,0,0,0,24,7.4,1.68,1.68,0,0,0,22.58,5.54Z"/><path d="M22.58,11.06H1.42A1.68,1.68,0,0,0,0,12.92a1.68,1.68,0,0,0,1.42,1.85H22.58A1.68,1.68,0,0,0,24,12.92,1.68,1.68,0,0,0,22.58,11.06Z"/><path d="M22.58,16.61H1.42A1.68,1.68,0,0,0,0,18.46a1.68,1.68,0,0,0,1.42,1.85H22.58A1.68,1.68,0,0,0,24,18.46,1.68,1.68,0,0,0,22.58,16.61Z"/></g></g></svg>