<?xml version="1.0" encoding="utf-8"?>
<!-- Generator: Adobe Illustrator 19.2.1, SVG Export Plug-In . SVG Version: 6.00 Build 0)  -->
<svg version="1.1" id="Layer_1" xmlns="http://www.w3.org/2000/svg" xmlns:xlink="http://www.w3.org/1999/xlink" x="0px" y="0px"
	 viewBox="0 0 132 132" style="enable-background:new 0 0 132 132;" xml:space="preserve">
<path d="M121.8-0.9H70.7c-6.1,0-10.2,4.1-10.2,10.2s4.1,10.2,10.2,10.2h26.6L19.5,97.2V70.7c0-6.1-4.1-10.2-10.2-10.2
	S-0.9,64.5-0.9,70.7v51.1c0,6.1,4.1,10.2,10.2,10.2h51.1c6.1,0,10.2-4.1,10.2-10.2c0-6.1-4.1-10.2-10.2-10.2H33.8l77.7-77.7v26.6
	c0,6.1,4.1,10.2,10.2,10.2c6.1,0,10.2-4.1,10.2-10.2V9.3C132,3.2,127.9-0.9,121.8-0.9z"/>
</svg>
