<?xml version="1.0" encoding="utf-8"?>
<!-- Generator: Adobe Illustrator 19.2.1, SVG Export Plug-In . SVG Version: 6.00 Build 0)  -->
<svg version="1.1" id="Layer_3" xmlns="http://www.w3.org/2000/svg" xmlns:xlink="http://www.w3.org/1999/xlink" x="0px" y="0px"
	 viewBox="0 0 132 132" style="enable-background:new 0 0 132 132;" xml:space="preserve">
<path d="M66,0C29.6,0,0,29.6,0,66s29.6,66,66,66s66-29.6,66-66S102.4,0,66,0z M82.7,94.2c0,0-15.5-16.7-16.7-16.7
	S49.3,94.2,49.3,94.2l-9.7-9.7c0,0,16.7-15.3,16.7-16.7S39.6,51,39.6,51l9.7-9.7c0,0,15.5,16.7,16.7,16.7s16.7-16.7,16.7-16.7
	l9.7,9.7c0,0-16.7,15.5-16.7,16.7c0,1.2,16.7,16.7,16.7,16.7L82.7,94.2z"/>
</svg>
