<?xml version="1.0" encoding="utf-8"?>
<!-- Generator: Adobe Illustrator 19.2.1, SVG Export Plug-In . SVG Version: 6.00 Build 0)  -->
<svg version="1.1" id="Layer_1" xmlns="http://www.w3.org/2000/svg" xmlns:xlink="http://www.w3.org/1999/xlink" x="0px" y="0px"
	 viewBox="0 0 132 132" style="enable-background:new 0 0 132 132;" xml:space="preserve">
<path id="icon_no_image" d="M44.1,56.7c6.5-0.1,11.7-5.4,11.6-11.8c-0.1-6.5-5.4-11.7-11.8-11.6c-6.4,0.1-11.6,5.3-11.6,11.7
	C32.3,51.5,37.6,56.7,44.1,56.7z M61.6,87.9l-22-15.8l-22,23.7h93.9L85.1,40.6L61.6,87.9z M120.3,11H11.7C5.2,11.1,0,16.4,0,22.9
	v86.2c0,6.5,5.2,11.8,11.7,11.9h108.5c6.5-0.1,11.7-5.4,11.7-11.9V22.9C132,16.4,126.8,11.1,120.3,11z M123.1,107.5
	c0,2.4-1.9,4.4-4.4,4.4c0,0,0,0,0,0H13.3c-2.4,0-4.4-2-4.4-4.4c0,0,0,0,0,0V24.4c0-2.4,2-4.4,4.4-4.4h105.4c2.4,0,4.4,2,4.4,4.4
	V107.5z"/>
</svg>
