<?xml version="1.0" encoding="utf-8"?>
<!-- Generator: Adobe Illustrator 19.2.1, SVG Export Plug-In . SVG Version: 6.00 Build 0)  -->
<svg version="1.1" id="Layer_1" xmlns="http://www.w3.org/2000/svg" xmlns:xlink="http://www.w3.org/1999/xlink" x="0px" y="0px"
	 viewBox="0 0 132 132" style="enable-background:new 0 0 132 132;" xml:space="preserve">
<path id="icon_options" d="M73.1,132H59.5c-2.6,0-3.4,0-10.5-17.9l-4.7-2c-14.6,6.8-16.4,6.8-17.1,6.8c-1,0-2-0.4-2.7-1.1l-9.7-9.7
	c-1.9-1.9-2.4-2.4,5.3-20.2l-1.9-4.6C0,76.7,0,75.9,0,73.1V59.5c0-2.7,0-3.4,18-10.5l1.9-4.6c-8.1-17.4-7.5-18-5.6-19.9l9.7-9.7
	c0.7-0.7,1.7-1.1,2.7-1.1c0.7,0,2.5,0,17.4,6.4l4.7-2C55.4,0,56.3,0,58.9,0h13.7c2.6,0,3.4,0,10.5,18l4.7,1.9
	c14.6-6.7,16.3-6.7,17.1-6.7c1,0,2,0.4,2.7,1.1l9.7,9.7c1.9,1.9,2.4,2.4-5.3,20.2l1.9,4.6C132,55.4,132,56.1,132,58.9v13.7
	c0,2.7,0,3.4-18,10.6l-1.9,4.6c8.1,17.4,7.5,18,5.6,19.9l-9.7,9.7c-0.7,0.7-1.7,1.1-2.7,1.1l0,0c-0.7,0-2.5,0-17.3-6.4l-4.7,2
	C76.6,132,75.8,132,73.1,132z M61.4,124.6h9.7c1.3-2.8,3.8-9.2,5.8-14.7c0.4-1,1.1-1.8,2.1-2.2l7.6-3.2c0.9-0.4,1.9-0.4,2.8,0
	c5.5,2.4,12,5,14.9,6.1l6.8-6.8c-1.1-2.9-3.8-9.2-6.3-14.4c-0.4-1-0.5-2.1-0.1-3.1l3.1-7.6c0.4-0.9,1.1-1.7,2.1-2
	c5.5-2.2,12-4.9,14.8-6.2V61c-2.9-1.3-9.2-3.8-14.7-5.8c-1-0.4-1.8-1.1-2.2-2.1l-3.1-7.6c-0.4-1-0.4-2,0-3c2.4-5.4,5-11.8,6-14.8
	l-6.8-6.8c-2.9,1.1-9.2,3.8-14.6,6.3c-0.9,0.4-2,0.5-2.9,0.1l-7.6-3.1c-0.9-0.4-1.7-1.1-2-2.1c-2.2-5.5-4.9-11.9-6.2-14.8h-9.7
	c-1.3,2.8-3.8,9.2-5.8,14.7c-0.3,1-1.1,1.8-2.1,2.2l-7.6,3.2c-0.9,0.4-1.9,0.4-2.8,0c-5.5-2.4-12-5-14.9-6l-6.8,6.8
	c1.1,2.9,3.8,9.2,6.3,14.4c0.4,1,0.5,2.1,0.1,3.1l-3.2,7.6c-0.4,0.9-1.1,1.7-2.1,2c-5.5,2.2-11.9,4.9-14.8,6.2V71
	c2.8,1.3,9.2,3.8,14.7,5.8c1,0.4,1.7,1.1,2.1,2.1l3.1,7.6c0.4,0.9,0.4,2,0,3c-2.3,5.4-5,11.8-6,14.8l6.8,6.8
	c2.9-1.1,9.2-3.9,14.5-6.3c0.9-0.4,2-0.5,2.9-0.1l7.6,3.2c0.9,0.4,1.7,1.1,2,2.1C57.4,115.4,60.1,121.8,61.4,124.6L61.4,124.6z
	 M66,89.7c-13.1,0-23.7-10.6-23.7-23.6c0-13.1,10.6-23.7,23.6-23.7C79,42.3,89.6,52.9,89.7,66c0,0,0,0,0,0
	C89.6,79.1,79.1,89.7,66,89.7z M66,49.8c-9,0.1-16.2,7.4-16.1,16.3c0.1,9,7.4,16.2,16.3,16.1c8.9-0.1,16.1-7.3,16.1-16.2
	C82.3,57,75,49.8,66,49.8L66,49.8z"/>
</svg>
