<svg xmlns="http://www.w3.org/2000/svg" viewBox="0 0 24 23.98"><title>sort</title><g id="Layer_2" data-name="Layer 2"><g id="Filled_Icons" data-name="Filled Icons"><path d="M11,2.19H22.87A1.11,1.11,0,0,0,24,1.1,1.11,1.11,0,0,0,22.87,0H11A1.11,1.11,0,0,0,9.84,1.1,1.11,1.11,0,0,0,11,2.19Z"/><path d="M11,6.55h8.59a1.1,1.1,0,1,0,0-2.19H11a1.1,1.1,0,1,0,0,2.19Z"/><path d="M16.28,8.72H11a1.1,1.1,0,1,0,0,2.19h5.27a1.1,1.1,0,1,0,0-2.19Z"/><path d="M10.56,19.5,6.31,23.63a1.23,1.23,0,0,1-1.71,0L.36,19.5a1.16,1.16,0,0,1,0-1.67,1.23,1.23,0,0,1,1.71,0l2.31,1.8V1.11A1,1,0,0,1,5.46,0,1,1,0,0,1,6.56,1.11V19.63l2.28-1.8a1.23,1.23,0,0,1,1.71,0A1.16,1.16,0,0,1,10.56,19.5Z"/></g></g></svg>