<?xml version="1.0" encoding="utf-8"?>
<!-- Generator: Adobe Illustrator 19.2.1, SVG Export Plug-In . SVG Version: 6.00 Build 0)  -->
<svg version="1.1" id="Layer_1" xmlns="http://www.w3.org/2000/svg" xmlns:xlink="http://www.w3.org/1999/xlink" x="0px" y="0px"
	 viewBox="0 0 132 132" style="enable-background:new 0 0 132 132;" xml:space="preserve">
<g>
	<path d="M66,116.3c-15.7,0-29.3-7.4-37.9-19.4l24.7-17.3l-34.6-7l-9.1-2.1H8.7L0,116.3l20.6-14.4c10.3,14,26.8,23.5,45.4,23.5
		c30.1,0,54.9-24.3,56.9-54.9h-8.7C112.2,96.1,91.2,116.3,66,116.3z"/>
	<path d="M111.4,30.1C101.1,16.1,84.6,6.6,66,6.6c-30.1,0-54.9,24.3-56.9,54.9h8.7C19.8,35.9,40.4,15.7,66,15.7
		c15.7,0,29.3,7.4,38,19.4L79.2,52.4l34.6,7l9.1,2.1h0.4l8.7-45.8L111.4,30.1z"/>
</g>
</svg>
