<svg xmlns="http://www.w3.org/2000/svg" viewBox="0 0 24 19"><title>sync</title><g id="Layer_2" data-name="Layer 2"><g id="Filled_Icons" data-name="Filled Icons"><path d="M19.39,3.2A9.49,9.49,0,0,0,2.82,8.77l-1-1.48A1,1,0,0,0,.17,8.41l2.91,4.3a1,1,0,0,0,1.41,0L7.76,8.8A1,1,0,0,0,6.22,7.52L4.8,9.23a7.49,7.49,0,0,1,13.1-4.7,1,1,0,0,0,1.5-1.33Z"/><path d="M23.83,10.6l-2.91-4.3a1,1,0,0,0-1.41,0l-3.27,3.9a1,1,0,0,0,1.54,1.28L19.2,9.77a7.49,7.49,0,0,1-13.1,4.7,1,1,0,1,0-1.5,1.33,9.49,9.49,0,0,0,16.57-5.57l1,1.48a1,1,0,1,0,1.66-1.12Z"/></g></g></svg>