<?xml version="1.0" encoding="utf-8"?>
<!-- Generator: Adobe Illustrator 19.2.1, SVG Export Plug-In . SVG Version: 6.00 Build 0)  -->
<svg version="1.1" id="Layer_1" xmlns="http://www.w3.org/2000/svg" xmlns:xlink="http://www.w3.org/1999/xlink" x="0px" y="0px"
	 viewBox="0 0 132 132" style="enable-background:new 0 0 132 132;" xml:space="preserve">
<path d="M66,132c-36.4,0-66-29.6-66-66S29.6,0,66,0s66,29.6,66,66S102.4,132,66,132z M103.8,77.8L69.1,43.6c-0.7-0.7-1.9-0.7-2.6,0
	l-4,4L31.2,77.9c-0.7,0.7-0.7,1.9,0,2.6l4.9,5c0.7,0.7,1.9,0.7,2.6,0l29.1-28.1l28.4,28.1c0.7,0.7,1.9,0.7,2.6,0l5-5
	C104.5,79.7,104.5,78.5,103.8,77.8z"/>
</svg>
