<?xml version="1.0" encoding="utf-8"?>
<!-- Generator: Adobe Illustrator 19.2.1, SVG Export Plug-In . SVG Version: 6.00 Build 0)  -->
<svg version="1.1" id="Layer_1" xmlns="http://www.w3.org/2000/svg" xmlns:xlink="http://www.w3.org/1999/xlink" x="0px" y="0px"
	 viewBox="0 0 132 132" style="enable-background:new 0 0 132 132;" xml:space="preserve">
<path d="M34.7,65.1L6.9,37.7c-0.4,0-0.9,0-1.3-0.4l-3.1-3.1l0,0c-0.9-0.9-0.9-1.8,0-2.6L33.8,0.7c0.9-0.9,2.2-0.9,2.6,0L40,3.8l0,0
	l0,0c0.9,0.9,0.4,1.8,0,2.6L18.3,27.6h102.9V36H17.5l23.4,23.4l0,0c0.9,0.9,0.4,1.8,0,2.6l-3.5,3.1l0,0C36.4,66,35.1,66,34.7,65.1z
	 M129.6,97.3L98.2,66.4c-0.9-0.9-2.2-0.9-2.6,0l-3.5,3.1l0,0l0,0c-0.9,0.9-0.9,1.8,0,2.6l21.6,21.2H10.8v8.4h103.7l-23.4,23.4l0,0
	c-0.9,0.9-0.4,1.8,0,2.6l3.1,3.5c0.9,0.9,2.2,0.9,2.6,0l27.4-27.4c0.4,0,0.9,0,1.3-0.4l3.5-3.1l0,0
	C130.5,99.6,130.5,98.2,129.6,97.3z"/>
</svg>
