<?xml version="1.0" encoding="utf-8"?>
<!-- Generator: Adobe Illustrator 19.2.1, SVG Export Plug-In . SVG Version: 6.00 Build 0)  -->
<svg version="1.1" id="Layer_1_copy" xmlns="http://www.w3.org/2000/svg" xmlns:xlink="http://www.w3.org/1999/xlink" x="0px"
	 y="0px" viewBox="0 0 132 132" style="enable-background:new 0 0 132 132;" xml:space="preserve">
<path id="icon_info_1_" d="M53.3,103.6v-4.1h8.2V55h-8.2v-4.1h20v48.6h8.2v4.1H53.3L53.3,103.6z M65.2,44.3c-4.5,0-8.2-3.7-8.2-8.2
	s3.7-8.2,8.2-8.2s8.2,3.7,8.2,8.2l0,0C73.4,40.7,69.7,44.3,65.2,44.3z M66,0.6C30,0.6,0.6,30,0.6,66S30,131.4,66,131.4
	S131.4,102,131.4,66l0,0C131.4,30,102.4,0.6,66,0.6L66,0.6L66,0.6z"/>
</svg>
