<?xml version="1.0" encoding="utf-8"?>
<!-- Generator: Adobe Illustrator 19.2.1, SVG Export Plug-In . SVG Version: 6.00 Build 0)  -->
<svg version="1.1" id="Layer_1" xmlns="http://www.w3.org/2000/svg" xmlns:xlink="http://www.w3.org/1999/xlink" x="0px" y="0px"
	 viewBox="0 0 132 132" style="enable-background:new 0 0 132 132;" xml:space="preserve">
<path d="M130.6,8.6l-60.7,63c-1.3,1.3-3.3,1.2-4.6,0l2.5-9.1c-1.3-1.3-1.3-3.5,0-4.6l54.7-57.2c1.3-1.3,3.3-1.2,4.6,0l3.3,3.3
	C131.7,5.3,131.7,7.5,130.6,8.6L130.6,8.6z M131,123.3c1.3,1.3,1.2,3.5,0,4.6l-3.3,3.3c-1.3,1.3-3.5,1.3-4.6,0l-62-63
	c-1.3-1.3-1.2-3.5,0-4.6l9.1-9.1c1.3-1.3-2.3,4.4-1.2,5.8L131,123.3L131,123.3z M66.4,71.6c-1.3,1.3-3.5,1.3-4.6,0L1.3,8.6
	c-1.3-1.3-1.2-3.3,0-4.6l3.3-3.3c1.3-1.3,3.5-1.3,4.6,0l54.7,57.2c1.3,1.3,1.2,3.3,0,4.6L66.4,71.6L66.4,71.6z M70.9,68.2L9,131.4
	c-1.3,1.3-3.5,1.2-4.6,0l-3.3-3.3c-1.3-1.3-1.3-3.5,0-4.6L63,60.3c1.3-1.3-2.3-6.9-1.2-5.8l9.1,9.1C72,64.9,72,67,70.9,68.2
	L70.9,68.2z"/>
</svg>
