<?xml version="1.0" encoding="utf-8"?>
<!-- Generator: Adobe Illustrator 19.2.1, SVG Export Plug-In . SVG Version: 6.00 Build 0)  -->
<svg version="1.1" id="Layer_2_copy" xmlns="http://www.w3.org/2000/svg" xmlns:xlink="http://www.w3.org/1999/xlink" x="0px"
	 y="0px" viewBox="0 0 132 132" style="enable-background:new 0 0 132 132;" xml:space="preserve">
<path d="M70.5,103.1c0,2.5-2.1,5-4.9,5c-2.5,0-4.9-2.1-4.9-5s2.1-5,4.9-5l0,0C68.5,98.6,70.5,100.7,70.5,103.1z M61.5,80V26.8
	c0-2.5,2.1-4.1,4.5-4.1c2.1,0,4.1,2.1,4.1,4.1V80c0,2.5-2.1,4.1-4.1,4.1l0,0C63.5,84.6,61.5,82.5,61.5,80C61.5,80.4,61.5,80,61.5,80
	z M66,0C29.7,0,0,29.7,0,66s29.7,66,66,66s66-29.7,66-66l0,0C132,29.7,102.3,0,66,0L66,0z M66,124.2C33.8,124.6,7.8,98.2,7.4,66
	C7,33.8,33.8,7.8,66,7.8s58.2,26,58.2,58.2l0,0C124.2,98.2,98.2,124.2,66,124.2L66,124.2z"/>
</svg>
