<?xml version="1.0" encoding="utf-8"?>
<!-- Generator: Adobe Illustrator 19.2.1, SVG Export Plug-In . SVG Version: 6.00 Build 0)  -->
<svg version="1.1" id="Layer_1" xmlns="http://www.w3.org/2000/svg" xmlns:xlink="http://www.w3.org/1999/xlink" x="0px" y="0px"
	 viewBox="0 0 132 132" style="enable-background:new 0 0 132 132;" xml:space="preserve">
<path d="M128.9,123.7L90.7,84.4c7.4-8.9,12-20.5,12-33.3C102.7,22.9,80.4,0,52.9,0S3.1,22.9,3.1,51.1s22.3,51.1,49.8,51.1
	c10.9,0,21-3.7,29.1-9.8l38.5,39.5L128.9,123.7L128.9,123.7z M9.1,51.1c0-25,19.8-45.2,44-45.2s44,20.2,44,45.2S77.1,96.3,52.9,96.3
	S9.1,76,9.1,51.1L9.1,51.1z"/>
</svg>
