<svg xmlns="http://www.w3.org/2000/svg" viewBox="0 0 24 21.49"><title>visibilityoff</title><g id="Layer_2" data-name="Layer 2"><g id="Filled_Icons" data-name="Filled Icons"><path d="M23.91,10.93a10.31,10.31,0,0,0-2.84-3.37,1,1,0,0,0-1.26,1.55,9.64,9.64,0,0,1,2,2.14c-1.2,1.45-5,5.59-9.79,5.59a8.76,8.76,0,0,1-1.35-.11,1,1,0,0,0-.31,2,10.84,10.84,0,0,0,1.66.13c6.79,0,11.61-6.64,11.81-6.92A1,1,0,0,0,23.91,10.93Z"/><path d="M2.87,15.08a1,1,0,1,0,1.26-1.55,9.51,9.51,0,0,1-1.93-2.1C3.4,10,7.23,5.84,12,5.84a8.68,8.68,0,0,1,.94.05,1,1,0,0,0,.22-2A10.84,10.84,0,0,0,12,3.84C5.21,3.84.39,10.48.19,10.76a1,1,0,0,0-.1,1A10.07,10.07,0,0,0,2.87,15.08Z"/><path d="M12.58,15a4,4,0,0,0,3.82-5.2l-5,5A4,4,0,0,0,12.58,15Z"/><path d="M8.58,11a4,4,0,0,0,.1.87l4.77-4.77a4.05,4.05,0,0,0-.87-.1A4,4,0,0,0,8.58,11Z"/><path d="M23.05.29a1,1,0,0,0-1.4,0l0,0L2.14,19.79a1,1,0,0,0,0,1.41h0a1,1,0,0,0,1.41,0h0l19.5-19.5A1,1,0,0,0,23.05.29Z"/></g></g></svg>