<?xml version="1.0" encoding="utf-8"?>
<!-- Generator: Adobe Illustrator 19.2.1, SVG Export Plug-In . SVG Version: 6.00 Build 0)  -->
<svg version="1.1" id="Layer_1" xmlns="http://www.w3.org/2000/svg" xmlns:xlink="http://www.w3.org/1999/xlink" x="0px" y="0px"
	 viewBox="0 0 132 132" style="enable-background:new 0 0 132 132;" xml:space="preserve">
<path d="M107.3,38.5L124.5,23l-8-8.6L96.4,32.7c-9.2-4-20.1-6.3-30.4-5.7C37.9,25.8,12.1,41.9,0,67.1c6.3,12.6,16.1,22.4,27.5,29.3
	l-13.8,13.2l7.5,8l17.2-16.1C58,109,80.3,109,99.9,98.7c13.8-6.9,24.7-18.4,32.1-32.1C126.3,55.1,117.7,45.3,107.3,38.5z M9.2,67.1
	c16.6-28.1,51.1-39,80.3-27.5L66,61.4V43c-13.2,0-23.5,10.9-23.5,24.7c0,4,1.1,8,3.4,11.5L33.3,91.3C23.5,85.5,14.9,76.9,9.2,67.1z
	 M66,99.3c-7.5,0-14.3-1.1-21.2-2.9l9.2-8.6c4,2.3,8.6,3.4,13.2,3.4c13.2-0.6,23.5-10.9,23.5-24.1c0-4-1.1-7.5-2.9-10.9l12.6-11.5
	c9.2,5.7,16.6,13.2,22.4,22.4C111.3,87.2,89.5,99.9,66,99.3z"/>
</svg>
