<?xml version="1.0" encoding="UTF-8"?>
<svg width="22px" height="26px" viewBox="0 0 22 26" version="1.1" xmlns="http://www.w3.org/2000/svg" xmlns:xlink="http://www.w3.org/1999/xlink">
    <!-- Generator: Sketch 47.1 (45422) - http://www.bohemiancoding.com/sketch -->
    <title>user-thumb-placeholder.svg</title>
    <desc>Created with Sketch.</desc>
    <defs></defs>
    <g id="Page-1" stroke="none" stroke-width="1" fill="none" fill-rule="evenodd">
        <g id="user-thumb-placeholder.svg" fill="#FFFFFF">
            <path d="M22,25 C22,19.4418272 18.5360624,14.7662501 13.8347478,13.4022439 C16.2884405,12.3142029 18,9.85697949 18,7 C18,3.13400675 14.8659932,0 11,0 C7.13400675,0 4,3.13400675 4,7 C4,9.85697949 5.71155946,12.3142029 8.16525217,13.4022439 C3.46393764,14.7662501 0,19.4418272 0,25 L22,25 Z M11,26 C11,25.4037298 11,25.0703964 11,25 L22,25 C19.2459097,25.6666667 15.579243,26 11,26 Z M11,26 C8.8521164,26 5.18544973,25.6666667 0,25 L11,25 C11,25.0703964 11,25.4037298 11,26 Z" id="Combined-Shape"></path>
        </g>
    </g>
</svg>