<?xml version="1.0" encoding="utf-8"?>
<!-- Generator: Adobe Illustrator 16.0.4, SVG Export Plug-In . SVG Version: 6.00 Build 0)  -->
<!DOCTYPE svg PUBLIC "-//W3C//DTD SVG 1.1//EN" "http://www.w3.org/Graphics/SVG/1.1/DTD/svg11.dtd">
<svg version="1.1" id="Layer_1" xmlns="http://www.w3.org/2000/svg" xmlns:xlink="http://www.w3.org/1999/xlink" x="0px" y="0px"
	 width="206.07px" height="204.965px" viewBox="0 0 206.07 204.965" enable-background="new 0 0 206.07 204.965"
	 xml:space="preserve">
<g id="Layer_1_1_">
	<g>
		<path fill="#FFFFFF" d="M194.054,31.027L145.072,3.039c-1.999-1-3.998-0.5-4.998,1.498c-0.999,2-0.5,4,1.5,4.998l46.982,26.99
			v131.452l-46.982,26.989c-2,1-2.499,3.499-1.5,4.998c0.5,1,1.999,2,2.999,2c0.5,0,1.5,0,1.999-0.5l48.982-28.489
			c0.999-0.5,1.999-2,1.999-2.998V34.526C195.553,32.527,195.053,31.527,194.054,31.027z M60.603,194.468l-48.981-26.989V36.026
			L60.603,9.037c2-1,2.499-3.5,1.5-4.998c-1-2-3.499-2.5-4.998-1.5L6.124,30.529c-1,0.5-1.999,1.998-1.999,3.498v135.45
			c0,1.5,0.5,2.5,1.999,3.498l50.981,28.489c0.5,0.5,0.999,0.5,1.999,0.5c1.499,0,2.499-0.5,3.499-1.999
			C63.102,197.967,62.103,195.467,60.603,194.468z"/>
	</g>
	<g>
		<path fill="#FFFFFF" d="M100.089,161.281c-1.354,0-2.606-0.721-3.286-1.893L48.321,75.92c-0.507-0.873-0.646-1.911-0.386-2.887
			c0.26-0.976,0.897-1.808,1.772-2.312l48.481-27.989c1.181-0.681,2.637-0.678,3.814,0.009l47.982,27.989
			c1.805,1.053,2.421,3.364,1.38,5.176l-47.982,83.47c-0.676,1.177-1.929,1.903-3.286,1.906
			C100.094,161.281,100.092,161.281,100.089,161.281z M56.807,75.397l43.265,74.49l42.823-74.496l-42.816-24.976L56.807,75.397z"/>
		<path fill="#FFFFFF" d="M100.089,160.281c-2.099,0-3.8-1.701-3.8-3.801V76.011c0-2.099,1.701-3.8,3.8-3.8
			c2.099,0,3.8,1.701,3.8,3.8v80.471C103.888,158.58,102.187,160.281,100.089,160.281z"/>
	</g>
</g>
</svg>

