<?xml version="1.0" encoding="iso-8859-1"?>
<!-- Generator: Adobe Illustrator 19.2.1, SVG Export Plug-In . SVG Version: 6.00 Build 0)  -->
<svg version="1.1" id="Layer_1" xmlns="http://www.w3.org/2000/svg" xmlns:xlink="http://www.w3.org/1999/xlink" x="0px" y="0px"
	 viewBox="0 0 16 16" style="enable-background:new 0 0 16 16;" xml:space="preserve">
<path d="M15.213,9.296H9.229v5.511c0,0.448-0.484,0.824-1.078,0.824H8.079c-0.593,0-1.078-0.363-1.078-0.824V9.296H0.775
	C0.351,9.296,0,8.799,0,8.206V8.133c0-0.618,0.339-1.09,0.775-1.09h6.226v-5.85c0-0.448,0.484-0.824,1.078-0.824h0.073
	c0.593,0,1.078,0.363,1.078,0.824v5.838h5.995c0.424,0,0.775,0.497,0.775,1.09v0.073C15.988,8.799,15.649,9.296,15.213,9.296
	L15.213,9.296z"/>
</svg>
