<?xml version="1.0" encoding="iso-8859-1"?>
<!-- Generator: Adobe Illustrator 19.2.1, SVG Export Plug-In . SVG Version: 6.00 Build 0)  -->
<svg version="1.1" id="Layer_1" xmlns="http://www.w3.org/2000/svg" xmlns:xlink="http://www.w3.org/1999/xlink" x="0px" y="0px"
	 viewBox="0 0 16 16" style="enable-background:new 0 0 16 16;" xml:space="preserve">
<path id="Layer_2" d="M15.878,14.385L8.434,1.134c-0.265-0.433-0.649-0.433-0.914,0L0.113,14.385
	c-0.265,0.433-0.048,0.806,0.481,0.806h14.863C15.938,15.191,16.155,14.806,15.878,14.385z M8.639,12.882
	c-0.156,0.156-0.373,0.216-0.649,0.216c-0.277,0-0.541-0.048-0.697-0.216c-0.156-0.156-0.216-0.373-0.216-0.649
	c0-0.277,0.048-0.541,0.216-0.649c0.156-0.156,0.373-0.216,0.697-0.216c0.265,0,0.541,0.048,0.649,0.216
	c0.108,0.156,0.216,0.373,0.216,0.649C8.915,12.509,8.807,12.714,8.639,12.882z M8.639,10.465H7.352L7.088,5.366h1.828L8.639,10.465
	z"/>
</svg>
