<?xml version="1.0" encoding="iso-8859-1"?>
<!-- Generator: Adobe Illustrator 19.2.1, SVG Export Plug-In . SVG Version: 6.00 Build 0)  -->
<svg version="1.1" id="Layer_1" xmlns="http://www.w3.org/2000/svg" xmlns:xlink="http://www.w3.org/1999/xlink" x="0px" y="0px"
	 viewBox="0 0 16 16" style="enable-background:new 0 0 16 16;" xml:space="preserve">
<path d="M4.199,7.897L0.826,4.572c-0.049,0-0.109,0-0.158-0.049L0.292,4.147l0,0c-0.109-0.109-0.109-0.218,0-0.316l3.798-3.75
	c0.109-0.109,0.267-0.109,0.316,0l0.437,0.376l0,0l0,0c0.109,0.109,0.049,0.218,0,0.316L2.209,3.346h12.487v1.019H2.112l2.84,2.84
	l0,0c0.109,0.109,0.049,0.218,0,0.316L4.527,7.897l0,0C4.406,8.006,4.248,8.006,4.199,7.897z M15.715,11.804l-3.81-3.75
	c-0.109-0.109-0.267-0.109-0.316,0l-0.425,0.376l0,0l0,0c-0.109,0.109-0.109,0.218,0,0.316l2.621,2.573H1.299v1.019h12.584
	l-2.84,2.84l0,0c-0.109,0.109-0.049,0.218,0,0.316l0.376,0.425c0.109,0.109,0.267,0.109,0.316,0l3.325-3.325
	c0.049,0,0.109,0,0.158-0.049l0.425-0.376l0,0C15.825,12.083,15.825,11.914,15.715,11.804z"/>
</svg>
