<?xml version="1.0" encoding="iso-8859-1"?>
<!-- Generator: Adobe Illustrator 19.2.1, SVG Export Plug-In . SVG Version: 6.00 Build 0)  -->
<svg version="1.1" id="Layer_1" xmlns="http://www.w3.org/2000/svg" xmlns:xlink="http://www.w3.org/1999/xlink" x="0px" y="0px"
	 viewBox="0 0 16 16" style="enable-background:new 0 0 16 16;" xml:space="preserve">
<path id="icon_checked" d="M15.853,2.565c-0.194-0.194-0.497-0.194-0.691,0l0,0l-9.679,9.788L0.849,7.672
	c-0.194-0.194-0.509-0.194-0.703,0l0,0c-0.194,0.194-0.194,0.522,0,0.716l4.961,5.021c0,0,0.012,0,0.012,0.012
	c0,0,0,0.012,0.012,0.012c0.194,0.194,0.497,0.194,0.691,0.012c0,0,0,0,0.012-0.012L15.865,3.281
	C16.047,3.075,16.047,2.759,15.853,2.565z"/>
</svg>
