<?xml version="1.0" encoding="iso-8859-1"?>
<!-- Generator: Adobe Illustrator 19.2.1, SVG Export Plug-In . SVG Version: 6.00 Build 0)  -->
<svg version="1.1" id="Layer_1" xmlns="http://www.w3.org/2000/svg" xmlns:xlink="http://www.w3.org/1999/xlink" x="0px" y="0px"
	 viewBox="0 0 16 16" style="enable-background:new 0 0 16 16;" xml:space="preserve">
<path d="M15.766,2.34l-5.574,5.587l5.145,5.145c0.43,0.43,0.319,1.216-0.246,1.756L15.017,14.9c-0.54,0.54-1.326,0.651-1.756,0.221
	l-5.12-5.132l-5.795,5.82c-0.405,0.405-1.179,0.27-1.743-0.295l-0.074-0.074c-0.565-0.565-0.7-1.351-0.295-1.756l5.808-5.82
	L0.578,2.426C0.148,1.996,0.271,1.21,0.811,0.67l0.074-0.074c0.54-0.54,1.326-0.651,1.756-0.246L8.08,5.79l5.574-5.599
	c0.405-0.405,1.179-0.27,1.743,0.295l0.074,0.074C16.036,1.161,16.171,1.947,15.766,2.34L15.766,2.34z"/>
</svg>
