<?xml version="1.0" encoding="iso-8859-1"?>
<!-- Generator: Adobe Illustrator 19.2.1, SVG Export Plug-In . SVG Version: 6.00 Build 0)  -->
<svg version="1.1" id="Layer_1" xmlns="http://www.w3.org/2000/svg" xmlns:xlink="http://www.w3.org/1999/xlink" x="0px" y="0px"
	 viewBox="0 0 16 16" style="enable-background:new 0 0 16 16;" xml:space="preserve">
<g>
	<path d="M0.177,5.563l7.616,4.258c0.182,0.085,0.268,0.049,0.304,0l7.664-4.258c0.182-0.049,0.304-0.401,0-0.572L8.146,0.734
		c-0.085-0.049-0.219-0.049-0.304,0L0.177,4.992C-0.091,5.125-0.005,5.515,0.177,5.563z M7.975,1.403l6.959,3.857L7.975,9.152
		L1.017,5.296L7.975,1.403z"/>
	<path d="M15.774,7.692l-1.947-1.107c-0.219,0.134-0.438,0.268-0.669,0.401l1.728,0.973l-6.91,3.893L1.017,7.997l1.679-0.925
		C2.513,6.938,2.124,6.67,2.075,6.634L0.128,7.692c-0.268,0.134-0.182,0.535,0,0.572l1.557,0.839l0.706,0.401l5.45,3.017
		c0.182,0.085,0.268,0.049,0.304,0l5.45-3.017l0.706-0.401l1.509-0.839C15.944,8.216,16.078,7.863,15.774,7.692z"/>
	<path d="M15.774,10.442l-1.947-1.107c-0.219,0.134-0.438,0.268-0.669,0.401l1.728,0.973l-6.91,3.893L1.017,10.71l1.679-0.925
		c-0.182-0.134-0.572-0.401-0.62-0.438l-1.898,1.095c-0.268,0.134-0.182,0.535,0,0.572l1.509,0.839l0.706,0.401l5.45,3.017
		c0.182,0.085,0.268,0.049,0.304,0l5.45-3.017l0.706-0.401l1.509-0.839C15.944,10.965,16.078,10.612,15.774,10.442z"/>
</g>
</svg>
