<?xml version="1.0" encoding="iso-8859-1"?>
<!-- Generator: Adobe Illustrator 19.2.1, SVG Export Plug-In . SVG Version: 6.00 Build 0)  -->
<svg version="1.1" id="Layer_1" xmlns="http://www.w3.org/2000/svg" xmlns:xlink="http://www.w3.org/1999/xlink" x="0px" y="0px"
	 viewBox="0 0 16 16" style="enable-background:new 0 0 16 16;" xml:space="preserve">
<path d="M15.879,0.577c-0.047-0.047-0.178-0.13-0.308-0.13c-0.225,0-0.854,0-4.755,3.32C9.202,5.154,7.364,6.862,5.787,8.332l0,0
	l0,0C5.336,8.783,4.886,9.186,4.53,9.589c-2.419,0.308-2.739,1.838-3,3.143c-0.225,1.079-0.356,1.66-1.257,1.708
	C0.142,14.439,0,14.57,0,14.712c0,0.13,0.047,0.273,0.178,0.308c0.047,0,1.257,0.534,2.644,0.534l0,0
	c1.53,0,3.498-0.629,4.127-3.451c1.838-1.886,4.21-4.53,6.012-6.724c0.984-1.21,1.743-2.194,2.289-2.965
	C15.974,1.335,16.151,0.849,15.879,0.577z M5.977,9.008l1.565,1.613c-0.308,0.308-0.629,0.629-0.901,0.937L5.028,9.957
	C5.348,9.636,5.657,9.328,5.977,9.008z M2.787,14.973L2.787,14.973c-0.581,0-1.162-0.095-1.613-0.225
	c0.581-0.403,0.723-1.162,0.901-1.886c0.273-1.21,0.498-2.372,2.467-2.644l1.791,1.838C5.882,13.989,4.72,14.973,2.787,14.973z
	 M12.25,5.332c-1.304,1.565-2.87,3.32-4.305,4.838L6.38,8.605c1.518-1.435,3.226-3.048,4.791-4.352
	c2.692-2.289,3.724-2.965,4.127-3.143C15.167,1.525,14.539,2.592,12.25,5.332z"/>
</svg>
