<?xml version="1.0" encoding="iso-8859-1"?>
<!-- Generator: Adobe Illustrator 19.2.1, SVG Export Plug-In . SVG Version: 6.00 Build 0)  -->
<svg version="1.1" id="Layer_1" xmlns="http://www.w3.org/2000/svg" xmlns:xlink="http://www.w3.org/1999/xlink" x="0px" y="0px"
	 viewBox="0 0 16 16" style="enable-background:new 0 0 16 16;" xml:space="preserve">
<g>
	<path d="M3.141,4.568v9.905C3.141,15.316,3.825,16,4.668,16h6.852c0.843,0,1.527-0.684,1.527-1.527V4.568H3.141z M6.182,14.473
		H5.425V6.095h0.757V14.473z M8.466,14.473H7.709V6.095h0.757V14.473z M10.75,14.473H9.993V6.095h0.757V14.473z"/>
	<path d="M13.034,2.284H10.75V0.757C10.75,0.33,10.421,0,9.993,0H6.182C5.755,0,5.425,0.33,5.425,0.757v1.527H3.141
		c-0.427,0-0.757,0.33-0.757,0.757s0.33,0.757,0.757,0.757h3.053h3.811h3.053c0.427,0,0.757-0.33,0.757-0.757
		S13.462,2.284,13.034,2.284z M6.561,1.148h3.053v1.148H6.561V1.148z"/>
</g>
</svg>
