<?xml version="1.0" encoding="iso-8859-1"?>
<!-- Generator: Adobe Illustrator 19.2.1, SVG Export Plug-In . SVG Version: 6.00 Build 0)  -->
<svg version="1.1" id="Layer_1" xmlns="http://www.w3.org/2000/svg" xmlns:xlink="http://www.w3.org/1999/xlink" x="0px" y="0px"
	 viewBox="0 0 16 16" style="enable-background:new 0 0 16 16;" xml:space="preserve">
<g id="Layer_1_copy" style="display:none;">
	<g id="Layer_3_copy_1_" style="display:inline;">
		<path d="M8.2-8.5C-0.7-8.5-8-1.3-8,7.7s7.3,16.2,16.2,16.2c9,0,16.2-7.3,16.2-16.2C24.4-1.3,17.2-8.5,8.2-8.5z M8.2,21.3
			c-7.5,0-13.6-6.1-13.6-13.6S0.7-5.9,8.2-5.9S21.8,0.2,21.8,7.7S15.7,21.3,8.2,21.3z"/>
	</g>
	<g id="Layer_5_1_" style="display:inline;">
		<path d="M20,17l-2,2L-4-1l2-2L20,17z"/>
	</g>
</g>
<g id="Layer_1_copy_2">
	<g id="Layer_3_copy_2_">
		<path d="M8,0C3.601,0,0,3.553,0,8s3.601,8,8,8c4.447,0,8-3.601,8-8C16,3.553,12.447,0,8,0z M8,14.719
			c-3.698,0-6.719-3.009-6.719-6.719S4.302,1.281,8,1.281S14.719,4.29,14.719,8S11.698,14.719,8,14.719z"/>
	</g>
	<g>
		<polygon style="fill:#231F20;" points="6.767,9.281 4.242,6.767 2.719,8.302 5.233,10.816 6.767,12.35 12.894,6.272 11.311,4.737 
					"/>
	</g>
</g>
</svg>
