<?xml version="1.0" encoding="iso-8859-1"?>
<!-- Generator: Adobe Illustrator 19.2.1, SVG Export Plug-In . SVG Version: 6.00 Build 0)  -->
<svg version="1.1" id="Layer_1" xmlns="http://www.w3.org/2000/svg" xmlns:xlink="http://www.w3.org/1999/xlink" x="0px" y="0px"
	 viewBox="0 0 16 16" style="enable-background:new 0 0 16 16;" xml:space="preserve">
<path d="M15.966,8L15.966,8l-0.303,0.303c-0.048,0.048-0.048,0.048-0.097,0.048l-2.556,2.556c-0.048,0.048-0.206,0.048-0.254,0l0,0
	l-0.303-0.303c-0.048-0.048-0.097-0.145,0-0.254l0,0l2.156-2.156H8.613v6.311l1.95-1.999c0.048-0.048,0.206-0.048,0.254,0l0,0l0,0
	l0.303,0.303c0.048,0.048,0.048,0.206,0,0.254l-2.859,2.907c-0.048,0.048-0.206,0.048-0.254,0l0,0l-0.303-0.303
	c0,0-0.048-0.048-0.048-0.097L5.1,13.015c-0.048-0.048-0.048-0.206,0-0.254l0,0l0.303-0.303c0.048-0.048,0.145-0.097,0.254,0l0,0
	l2.156,2.156V8.206H1.502l1.999,1.95c0.048,0.048,0.048,0.206,0,0.254l0,0l0,0l-0.303,0.303c-0.048,0.048-0.206,0.048-0.254,0
	L0.036,7.855c-0.048-0.048-0.048-0.206,0-0.254l0,0l0.303-0.303c0,0,0.048-0.048,0.097-0.048l2.556-2.556
	c0.048-0.048,0.206-0.048,0.254,0l0.303,0.303c0.048,0.048,0.048,0.145,0,0.254l0,0L1.405,7.406h6.36V1.495L5.803,3.494
	c-0.048,0.048-0.206,0.048-0.254,0l0,0l0,0L5.245,3.191c-0.048-0.048-0.048-0.206,0-0.254l2.859-2.907
	c0.048-0.048,0.206-0.048,0.254,0l0,0l0.303,0.303C8.71,0.38,8.71,0.38,8.71,0.429l2.556,2.556c0.048,0.048,0.048,0.206,0,0.254
	l-0.303,0.303c-0.048,0.048-0.145,0.097-0.254,0l0,0L8.565,1.398v6.009h5.912l-1.999-1.95c-0.048-0.048-0.048-0.145,0-0.254l0,0l0,0
	l0.303-0.303c0.048-0.048,0.206-0.048,0.254,0l2.907,2.859C16.015,7.855,16.015,7.952,15.966,8z"/>
</svg>
