<?xml version="1.0" encoding="iso-8859-1"?>
<!-- Generator: Adobe Illustrator 19.2.1, SVG Export Plug-In . SVG Version: 6.00 Build 0)  -->
<svg version="1.1" id="Layer_1" xmlns="http://www.w3.org/2000/svg" xmlns:xlink="http://www.w3.org/1999/xlink" x="0px" y="0px"
	 viewBox="0 0 16 16" style="enable-background:new 0 0 16 16;" xml:space="preserve">
<path d="M16,3.697L12.303,0l0,0l-1.455,1.455l-8.4,8.4l0,0l0,0l0,0l0,0L0,16l5.297-2.097l0,0l0.897-0.352l8.4-8.4l0,0L16,3.697z
	 M12.303,1.248l2.448,2.448l-0.606,0.606l-2.448-2.448L12.303,1.248z M1.552,14.448l1.2-3.055l1.855,1.855L1.552,14.448z
	 M5.552,12.945l-2.448-2.448l8-8l2.448,2.448L5.552,12.945z M12,4.606l-6.752,6.788l-0.606-0.606L11.394,4L12,4.606z"/>
</svg>
