<?xml version="1.0" encoding="iso-8859-1"?>
<!-- Generator: Adobe Illustrator 19.2.1, SVG Export Plug-In . SVG Version: 6.00 Build 0)  -->
<svg version="1.1" id="Layer_1" xmlns="http://www.w3.org/2000/svg" xmlns:xlink="http://www.w3.org/1999/xlink" x="0px" y="0px"
	 viewBox="0 0 16 16" style="enable-background:new 0 0 16 16;" xml:space="preserve">
<path d="M8,16c-4.424,0-8-3.576-8-8s3.576-8,8-8s8,3.576,8,8S12.424,16,8,16z M8,4.291c-2.109,0-3.83,1.564-3.83,3.455
	c0,0.885,0.376,1.721,1.006,2.315L4.17,12.17l2.4-1.224C7.03,11.115,7.491,11.2,8,11.2c2.145,0,3.83-1.564,3.83-3.455
	C11.83,5.806,10.109,4.291,8,4.291z M8,10.109c-1.43,0-2.655-1.006-2.655-2.279S6.521,5.564,8,5.564s2.655,1.006,2.655,2.279
	S9.43,10.109,8,10.109z"/>
</svg>
