<?xml version="1.0" encoding="iso-8859-1"?>
<!-- Generator: Adobe Illustrator 19.2.1, SVG Export Plug-In . SVG Version: 6.00 Build 0)  -->
<svg version="1.1" id="Layer_1" xmlns="http://www.w3.org/2000/svg" xmlns:xlink="http://www.w3.org/1999/xlink" x="0px" y="0px"
	 viewBox="0 0 16 16" style="enable-background:new 0 0 16 16;" xml:space="preserve">
<path id="X_copy_15" d="M8,16c-4.376,0-8-3.624-8-8s3.624-8,8-8s8,3.624,8,8l0,0C16,12.376,12.376,16,8,16z M11.2,5.758
	c0.218-0.218,0.109-0.642-0.109-0.752l0,0c-0.218-0.218-0.533-0.315-0.752-0.109l-2.23,2.255L5.648,4.8
	C5.43,4.582,5.006,4.691,4.897,4.909l0,0C4.679,5.127,4.582,5.442,4.788,5.661L7.248,8l-2.339,2.352
	C4.691,10.57,4.8,10.994,5.018,11.103l0,0c0.218,0.218,0.533,0.315,0.752,0.109l2.339-2.364l2.242,2.242
	c0.218,0.218,0.642,0.109,0.752-0.109l0,0c0.218-0.218,0.315-0.533,0.109-0.752L8.958,8L11.2,5.758z"/>
</svg>
