<?xml version="1.0" encoding="iso-8859-1"?>
<!-- Generator: Adobe Illustrator 19.2.1, SVG Export Plug-In . SVG Version: 6.00 Build 0)  -->
<svg version="1.1" id="Layer_1" xmlns="http://www.w3.org/2000/svg" xmlns:xlink="http://www.w3.org/1999/xlink" x="0px" y="0px"
	 viewBox="0 0 16 16" style="enable-background:new 0 0 16 16;" xml:space="preserve">
<path d="M8,16c-4.424,0-8-3.576-8-8s3.576-8,8-8s8,3.576,8,8S12.424,16,8,16z M7.2,11.661c0.17,0.17,0.339,0.255,0.545,0.255
	c0.121,0,0.206-0.036,0.291-0.085c0.085-0.036,0.17-0.085,0.255-0.17c0.085-0.085,0.121-0.17,0.17-0.255
	c0.036-0.085,0.036-0.206,0.036-0.291c0-0.206-0.085-0.424-0.206-0.545c-0.17-0.17-0.339-0.255-0.545-0.255
	c-0.206,0-0.424,0.085-0.545,0.255c-0.17,0.17-0.206,0.339-0.206,0.545C6.945,11.321,7.03,11.491,7.2,11.661z M9.891,5.309
	C9.77,5.103,9.636,4.933,9.467,4.764c-0.17-0.17-0.424-0.255-0.679-0.376C8.533,4.303,8.194,4.267,7.903,4.267
	c-0.339,0-0.63,0.036-0.885,0.121c-0.255,0.085-0.461,0.206-0.63,0.339c-0.17,0.133-0.291,0.291-0.376,0.461
	c-0.085,0.17-0.121,0.291-0.121,0.461c0,0.085,0,0.206,0.036,0.255c0.036,0.085,0.085,0.121,0.17,0.17
	c0.036,0.036,0.121,0.085,0.206,0.121C6.388,6.23,6.424,6.23,6.509,6.23c0.121,0,0.255-0.036,0.291-0.121
	c0.036-0.085,0.121-0.17,0.206-0.291c0.085-0.085,0.17-0.206,0.291-0.291c0.121-0.085,0.339-0.121,0.594-0.121
	c0.255,0,0.461,0.036,0.679,0.17c0.17,0.121,0.255,0.291,0.255,0.545c0,0.121-0.036,0.255-0.085,0.376
	C8.655,6.618,8.618,6.703,8.485,6.788C8.4,6.873,8.279,6.958,8.194,7.042c-0.121,0.085-0.206,0.17-0.291,0.206
	S7.733,7.37,7.648,7.455c-0.085,0.085-0.17,0.206-0.206,0.339c-0.085,0.121-0.121,0.255-0.17,0.424
	c-0.048,0.17-0.085,0.376-0.085,0.594c0,0.255,0.036,0.461,0.121,0.545c0.085,0.085,0.206,0.121,0.424,0.121
	c0.255,0,0.424-0.036,0.509-0.121c0.085-0.085,0.121-0.17,0.121-0.291c0-0.121,0-0.255,0-0.376S8.4,8.485,8.448,8.352
	c0.036-0.085,0.085-0.206,0.17-0.291c0.085-0.085,0.17-0.206,0.339-0.339C9.042,7.685,9.127,7.6,9.248,7.467
	C9.37,7.345,9.503,7.212,9.624,7.042c0.121-0.17,0.255-0.339,0.339-0.545c0.085-0.206,0.121-0.424,0.121-0.679
	C10.061,5.721,10.024,5.515,9.891,5.309z"/>
</svg>
