<?xml version="1.0" encoding="iso-8859-1"?>
<!-- Generator: Adobe Illustrator 19.2.1, SVG Export Plug-In . SVG Version: 6.00 Build 0)  -->
<svg version="1.1" id="Layer_1" xmlns="http://www.w3.org/2000/svg" xmlns:xlink="http://www.w3.org/1999/xlink" x="0px" y="0px"
	 viewBox="0 0 16 16" style="enable-background:new 0 0 16 16;" xml:space="preserve">
<path d="M8.007,15.999c-4.424,0-7.999-3.575-7.999-7.999s3.575-7.999,7.999-7.999S16.006,3.576,16.006,8
	C16.103,12.424,12.528,15.999,8.007,15.999z M7.159,12.084c0.17,0.17,0.339,0.255,0.594,0.255c0.255,0,0.424-0.085,0.594-0.255
	s0.255-0.339,0.255-0.594s-0.085-0.424-0.255-0.594s-0.339-0.255-0.594-0.255s-0.424,0.085-0.594,0.255
	c-0.17,0.17-0.255,0.339-0.255,0.594C6.904,11.66,6.989,11.915,7.159,12.084z M9.619,4.679C9.195,4.34,8.601,4.17,7.922,4.17
	S6.734,4.34,6.31,4.679C5.874,5.019,5.704,5.358,5.704,5.697c0,0.17,0.085,0.339,0.17,0.424c0.17,0.085,0.255,0.17,0.424,0.17
	c0.17,0,0.255,0,0.339-0.085c0.085-0.085,0.17-0.17,0.17-0.255c0.085-0.085,0.17-0.17,0.339-0.255
	c0.17-0.085,0.339-0.085,0.594-0.085s0.509,0.085,0.679,0.17s0.255,0.339,0.255,0.509c0,0.17,0,0.255-0.085,0.424
	S8.419,6.97,8.334,7.055s-0.17,0.17-0.339,0.255c-0.17,0.17-0.255,0.17-0.255,0.255C7.231,7.988,6.977,8.497,6.977,9.176
	c0,0.255,0.085,0.509,0.17,0.594c0.085,0.085,0.255,0.17,0.509,0.17c0.424,0,0.679-0.17,0.679-0.424s0-0.424,0-0.509
	s0.085-0.255,0.17-0.424c0.085-0.17,0.255-0.339,0.424-0.424c0.848-0.679,1.273-1.273,1.273-2.048
	C10.298,5.443,10.128,5.019,9.619,4.679z"/>
</svg>
