<?xml version="1.0" encoding="iso-8859-1"?>
<!-- Generator: Adobe Illustrator 19.2.1, SVG Export Plug-In . SVG Version: 6.00 Build 0)  -->
<svg version="1.1" id="Layer_1" xmlns="http://www.w3.org/2000/svg" xmlns:xlink="http://www.w3.org/1999/xlink" x="0px" y="0px"
	 viewBox="0 0 16 16" style="enable-background:new 0 0 16 16;" xml:space="preserve">
<g>
	<path d="M7.157,12.097c0.17,0.17,0.339,0.255,0.594,0.255c0.255,0,0.424-0.085,0.594-0.255s0.255-0.339,0.255-0.594
		c0-0.255-0.085-0.424-0.255-0.594s-0.339-0.255-0.594-0.255s-0.424,0.085-0.594,0.255c-0.17,0.17-0.255,0.339-0.255,0.594
		C6.902,11.672,6.987,11.927,7.157,12.097z M9.617,4.703C9.193,4.364,8.599,4.194,7.921,4.194s-1.188,0.17-1.612,0.509
		C5.884,5.043,5.703,5.382,5.703,5.721c0,0.17,0.085,0.339,0.17,0.424c0.17,0.085,0.255,0.17,0.424,0.17s0.255,0,0.339-0.085
		s0.17-0.17,0.17-0.255c0.085-0.085,0.17-0.17,0.339-0.255c0.17-0.085,0.339-0.085,0.594-0.085c0.255,0,0.509,0.085,0.679,0.17
		c0.17,0.085,0.255,0.339,0.255,0.509s0,0.255-0.085,0.424c-0.085,0.17-0.17,0.255-0.255,0.339c-0.085,0.085-0.17,0.17-0.339,0.255
		c-0.17,0.17-0.255,0.17-0.255,0.255C7.23,8.012,6.975,8.521,6.975,9.2c0,0.255,0.085,0.509,0.17,0.594s0.255,0.17,0.509,0.17
		c0.424,0,0.679-0.17,0.679-0.424s0-0.424,0-0.509c0-0.085,0.085-0.255,0.17-0.424c0.085-0.17,0.255-0.339,0.424-0.424
		c0.848-0.679,1.273-1.273,1.273-2.036C10.296,5.467,10.126,5.043,9.617,4.703z"/>
	<g>
		<path d="M8.005,0.849c3.951,0,7.151,3.212,7.151,7.151l0,0l0,0c0.036,1.891-0.667,3.66-1.988,5.006
			c-1.37,1.37-3.212,2.145-5.175,2.145c-3.951,0-7.151-3.212-7.151-7.151C0.855,4.073,4.078,0.849,8.005,0.849 M8.005,0.001
			C3.582,0.001,0.006,3.576,0.006,8s3.575,7.999,7.999,7.999c4.509,0,8.084-3.575,7.999-7.999
			C16.017,3.576,12.441,0.001,8.005,0.001L8.005,0.001z"/>
	</g>
</g>
</svg>
