<?xml version="1.0" encoding="iso-8859-1"?>
<!-- Generator: Adobe Illustrator 19.2.1, SVG Export Plug-In . SVG Version: 6.00 Build 0)  -->
<svg version="1.1" id="Layer_1" xmlns="http://www.w3.org/2000/svg" xmlns:xlink="http://www.w3.org/1999/xlink" x="0px" y="0px"
	 viewBox="0 0 16 16" style="enable-background:new 0 0 16 16;" xml:space="preserve">
<g>
	<path d="M6.419,12.584v-0.498h0.985V6.663H6.419V6.176h2.468v0.486v5.422h0.985v0.498H6.419z M7.903,5.337
		c-0.547,0-0.985-0.45-0.985-0.985s0.45-0.985,0.985-0.985c0.535,0,0.985,0.45,0.985,0.985S8.45,5.337,7.903,5.337z"/>
	<path style="fill:#231F20;" d="M8,0C3.611,0,0,3.562,0,8s3.599,8,8,8c4.438,0,8-3.599,8-8C16,3.562,12.438,0,8,0z M8,15.052
		c-3.903,0-7.052-3.161-7.052-7.052S4.109,0.948,8,0.948S15.052,4.109,15.052,8S11.903,15.052,8,15.052z"/>
</g>
</svg>
