<?xml version="1.0" encoding="iso-8859-1"?>
<!-- Generator: Adobe Illustrator 19.2.1, SVG Export Plug-In . SVG Version: 6.00 Build 0)  -->
<svg version="1.1" id="Layer_1_copy" xmlns="http://www.w3.org/2000/svg" xmlns:xlink="http://www.w3.org/1999/xlink" x="0px"
	 y="0px" viewBox="0 0 16 16" style="enable-background:new 0 0 16 16;" xml:space="preserve">
<path id="icon_info_1_" d="M6.446,12.599v-0.502H7.45V6.654H6.446V6.153h2.446v5.945h1.003v0.502H6.446L6.446,12.599z M7.902,5.346
	c-0.55,0-1.003-0.453-1.003-1.003s0.453-1.003,1.003-1.003s1.003,0.453,1.003,1.003l0,0C8.905,4.905,8.453,5.346,7.902,5.346z M8,0
	C3.596,0,0,3.596,0,8s3.596,8,8,8s8-3.596,8-8l0,0C16,3.596,12.453,0,8,0L8,0L8,0z"/>
</svg>
