<?xml version="1.0" encoding="iso-8859-1"?>
<!-- Generator: Adobe Illustrator 19.2.1, SVG Export Plug-In . SVG Version: 6.00 Build 0)  -->
<svg version="1.1" id="Layer_1" xmlns="http://www.w3.org/2000/svg" xmlns:xlink="http://www.w3.org/1999/xlink" x="0px" y="0px"
	 viewBox="0 0 16 16" style="enable-background:new 0 0 16 16;" xml:space="preserve">
<path d="M13.539,16H2.545c-0.533,0-0.933-0.4-1.018-0.885c-0.133-0.267-0.218-0.97-0.4-2.752c0-0.133,0-0.352,0.048-0.533
	c0.133-0.267,0.352-0.448,0.618-0.448c0.315,0,0.715,0.218,1.285,0.618c0.485,0.352,0.8,0.485,1.236,0.485
	c0.97,0,1.77-0.8,1.77-1.733c0-0.933-0.8-1.733-1.77-1.733c-0.4,0-0.752,0.133-1.2,0.485c-0.533,0.4-0.933,0.618-1.285,0.618
	S1.248,9.903,1.164,9.503c0-0.048-0.048-0.182,0-0.315C1.382,6.485,1.515,5.733,1.515,5.6c0.133-0.97,0.618-1.103,0.933-1.103
	c0.048,0,0.085,0,0.182,0c0,0,2.655,0.315,3.503,0.352c0.218,0,0.448-0.048,0.485-0.133C6.667,4.63,6.618,4.364,6.352,4
	C6,3.467,5.77,3.03,5.77,2.4C5.782,1.103,6.897,0,8.218,0s2.436,1.103,2.436,2.436c0,0.618-0.182,0.885-0.533,1.503l-0.085,0.085
	c-0.218,0.4-0.267,0.618-0.182,0.752c0.048,0.085,0.218,0.133,0.315,0.133c0.048,0,0.085,0,0.085,0
	c0.933-0.085,3.503-0.352,3.552-0.352c0.048,0,0.085,0,0.133,0c0.618,0.182,0.933,0.582,0.933,1.2v8.958
	C14.873,15.467,14.339,16,13.539,16z M2.109,14.715c0.048,0.048,0.085,0.133,0.085,0.218c0,0.182,0.182,0.352,0.352,0.352h10.994
	c0.4,0,0.618-0.218,0.618-0.618V5.721c0-0.218-0.048-0.4-0.4-0.485c-0.448,0.048-2.618,0.267-3.455,0.352
	C9.818,5.636,9.418,5.455,9.236,5.103C9.103,4.885,8.97,4.388,9.455,3.636l0.048-0.048c0.352-0.533,0.448-0.715,0.448-1.103
	c0-0.97-0.8-1.733-1.77-1.733s-1.77,0.8-1.77,1.733c0,0.448,0.133,0.715,0.448,1.2c0.485,0.715,0.448,1.2,0.315,1.467
	C6.994,5.503,6.594,5.685,6.024,5.636C5.139,5.588,2.606,5.285,2.473,5.285c-0.048,0-0.048,0-0.085,0
	c-0.182,0-0.218,0.315-0.267,0.533v0.048c0,0.048-0.133,0.667-0.352,3.552v0.048l0,0v0.048c0.218-0.048,0.715-0.4,0.885-0.485
	c0.4-0.267,0.933-0.582,1.6-0.582c1.37,0,2.436,1.103,2.436,2.436s-1.103,2.436-2.436,2.436c-0.715,0-1.152-0.267-1.636-0.667
	c-0.582-0.448-0.8-0.485-0.836-0.485c0,0.048,0,0.133,0,0.182C1.976,14.048,2.061,14.582,2.109,14.715z"/>
</svg>
