<?xml version="1.0" encoding="iso-8859-1"?>
<!-- Generator: Adobe Illustrator 19.2.1, SVG Export Plug-In . SVG Version: 6.00 Build 0)  -->
<svg version="1.1" id="Layer_1" xmlns="http://www.w3.org/2000/svg" xmlns:xlink="http://www.w3.org/1999/xlink" x="0px" y="0px"
	 viewBox="0 0 16 16" style="enable-background:new 0 0 16 16;" xml:space="preserve">
<path id="icon_linked" d="M2.487,9.46c-0.279,0-0.497-0.219-0.497-0.499V6.966c0-0.28,0.218-0.499,0.497-0.499h4.488
	C6.696,5.25,5.689,4.398,4.488,4.398H2.487C1.14,4.398,0,5.542,0,6.966v2.069c0,1.424,1.14,2.494,2.487,2.567h2.002
	c1.201-0.073,2.196-0.925,2.487-2.142H2.487L2.487,9.46z M13.525,4.398h-2.002c-1.213,0-2.208,0.852-2.414,2.069h4.415
	c0.279,0,0.497,0.219,0.497,0.499v2.069c0,0.28-0.218,0.499-0.497,0.499H9.037c0.218,1.144,1.286,1.996,2.414,2.069h2.062
	c1.419,0,2.487-1.144,2.487-2.567V6.966C16.012,5.542,14.872,4.398,13.525,4.398z M4.124,7.246h7.824v1.424H4.124
	C4.124,8.681,4.124,7.246,4.124,7.246z"/>
</svg>
