<?xml version="1.0" encoding="iso-8859-1"?>
<!-- Generator: Adobe Illustrator 19.2.1, SVG Export Plug-In . SVG Version: 6.00 Build 0)  -->
<svg version="1.1" id="Layer_1" xmlns="http://www.w3.org/2000/svg" xmlns:xlink="http://www.w3.org/1999/xlink" x="0px" y="0px"
	 viewBox="0 0 16 16" style="enable-background:new 0 0 16 16;" xml:space="preserve">
<path d="M14.709,3.595c-0.827-1.275-1.983-2.292-3.37-2.93C12.726,1.279,13.906,2.296,14.709,3.595L14.709,3.595z M6.265,0.31
	C6.107,0.433,5.961,0.592,5.79,0.654C5.705,0.69,5.255,0.789,5.231,0.936c0.073,0.208,0,0.208-0.17,0.539
	C4.878,1.561,4.549,1.512,4.391,1.647C4.269,1.99,3.965,2.296,3.771,2.59c0.499,0.086-0.085,0.454-0.365,0.65
	C3.126,3.461,3.028,3.743,2.821,4c-0.134,0.172-0.329,0.172-0.45,0.343c-0.219,0.294-0.633,0.65-0.73,1.017
	c-0.28,0.245-0.292,0.858-0.389,1.201C1.009,7.408,1.24,8.388,1.933,9.026l1.083-0.123C3.345,8.658,3.746,8.56,3.977,8.94
	C4.184,9.307,4.403,8.903,4.61,9.075c0,0.221,0.243,0.503,0.183,0.772c-0.389,0.417,0.596,1.201,0.827,1.569
	c0.134,0.208,0.414,0.772,0.377,1.017c-0.377,0.38-0.037,0.895,0.219,1.189c0.414,0.478,0.827,1.005,1.192,1.495
	c0.292,0.037,0.584,0.049,0.888,0.049c0.17,0,0.329-0.012,0.499-0.012c0.243-0.135,0.45-0.331,0.596-0.686
	c0.049-0.221,0.535-0.282,0.414-0.65c-0.122-0.38,0.183-0.588,0.535-0.797c0.475-0.282,0.621-0.601,0.548-1.152
	c0.134-0.184-0.365-0.895-0.183-1.238c0.219-0.429,0.389-0.711,0.681-1.103c0.499-0.686,0.876-1.054,1.107-1.875
	c0.122-0.417,0.122-0.515,0.085-0.895c-0.28-0.074-0.913,0.637-1.229,0.417c-0.243-0.172-0.511-0.981-0.961-0.944
	c-0.28-0.098-0.596-0.932-0.767-1.275C9.416,4.539,8.978,4.27,8.856,3.755c0.17,0,1.18,0.76,1.107,1.152
	c0.085,0.221,0.548,0.797,0.767,0.858c0.158,0.294,0.183,0.686,0.377,0.968c0.158,0.221,1.278-0.601,1.424-0.76
	c-0.037-0.245,0.183-0.331,0.365-0.368c0.073-0.172,0.049-0.208,0.158-0.368c0.097-0.159-0.012-0.343,0.134-0.343
	c0.037-0.208-0.049-0.454-0.219-0.625c-0.134-0.135-0.329-0.086-0.475-0.221l-0.207-0.331c-0.049,0.123,0.012,0.564-0.256,0.466
	c-0.365,0.123-0.17-0.208-0.426-0.343c-0.012,0.392-0.134-0.049-0.329-0.159c-0.134-0.074-0.414-0.331-0.414-0.478
	c0.389,0.012,0.584,0.38,1.01,0.515l0.256-0.074c0.134-0.184,0.219,0.135,0.304,0.184c0.389,0.221,0.803-0.086,1.18-0.049
	c0.219,0.159,0.414,0.429,0.669,0.392C14.38,4.38,14.198,4.221,14.21,4.27c0.097,0.159,0.243,0.245,0.389,0.294L14.587,4.27
	c0.329,0.257,0.462,0.834,0.681,1.177c0.122,0.184,0.28,0.588,0.45,0.919c-0.17-1.017-0.535-1.961-1.046-2.795
	C15.5,4.833,15.95,6.329,15.95,7.947c0,4.449-3.577,8.053-8.006,8.053C3.527,16-0.05,12.396-0.05,7.947s3.577-8.029,7.994-8.029
	c1.192,0,2.324,0.257,3.334,0.735c-0.925-0.417-1.947-0.637-3.03-0.637C7.603,0.029,6.922,0.127,6.265,0.31L6.265,0.31z
	 M11.095,13.647c-0.122,0.159-0.17,0.601,0.17,0.466c0.621-0.257,0.621-1.312,1.059-1.692l0.037,0.074l0.073-0.331v-0.025
	l-0.049-0.331c-0.122,0.049-0.292,0.417-0.389,0.552c-0.256,0.343-0.84,0.368-0.681,0.932c-0.049-0.123-0.085-0.221-0.085-0.368
	l-0.085,0.074l0,0c-0.122-0.184,0.219-0.637,0.17-0.883l-0.183,0.368c-0.012-0.049-0.085,0.037-0.207,0.049
	c0,0.159,0.097,0.454,0.219,0.466l0,0l0,0l0.012,0.012C11.022,13.242,11.29,13.401,11.095,13.647L11.095,13.647z M9.112,1.475
	C9.148,1.438,8.978,1.438,9.112,1.475c-0.073-0.012-0.56,0-0.548-0.135C8.345,1.377,8.102,1.683,7.859,1.475
	C7.737,1.267,8.017,1.132,7.944,0.923c0.219-0.257,0.073,0,0.304-0.086L8.175,0.923C8.199,0.923,9.538,1.193,9.112,1.475
	L9.112,1.475z M8.552,3.166c-0.11-0.074-0.207-0.11-0.353,0.025C8.017,3.375,7.774,3.117,7.53,3.179c0.243-0.049-0.012-0.098,0,0
	C7.518,3.007,6.946,2.995,6.849,3.093C6.52,3.399,6.922,3.51,6.399,3.387C6.094,3.314,6.216,3.019,5.802,3.105L5.583,2.97
	c0-0.208,0.243-0.38,0.28-0.588C5.559,2.088,4.318,3.105,4.002,2.848l0.925-0.809c0.183-0.368,0.645-0.466,0.913-0.625
	c0.28-0.172,0.389,0.098,0.548,0.343c0.292,0.478-0.341,0.257-0.329,0.515c0.329,0.123,0.304,0.037,0.511-0.208
	C6.703,1.904,6.532,1.72,6.776,1.855c0.134-0.123-0.791-0.674-0.28-0.809C6.399,1.169,7.129,1.548,6.885,1.732
	c0.256,0.331,0.097,0.564,0.389,0.625c0-0.172-0.012-0.135,0.012-0.257l0.085,0.037C7.409,1.977,7.19,1.879,7.25,1.708
	c0.207,0.037,0.085,0.098,0.122-0.049h0.28C7.482,1.879,7.81,1.781,7.64,1.99c0.049,0.135,0.183,0.159,0.17,0.257
	c0,0.086,0.888,0,1.046-0.098C8.832,2.21,8.99,3.485,8.552,3.166L8.552,3.166z M5.669,2.088l0.158-0.037
	c0.037-0.172,0.183-0.417,0.183-0.588C5.9,1.487,5.705,1.953,5.669,2.088L5.669,2.088z M10.888,1.953
	c-0.17,0.074-0.329,0.049-0.462-0.074c-0.183,0.012-0.341-0.368-0.219-0.392c-0.037-0.159-0.56-0.429-0.681-0.588
	c0-0.208,0.341-0.478,0.426-0.159L9.818,0.874C10.073,1.021,10.84,1.647,10.888,1.953L10.888,1.953z M10.414,0.715l0.012-0.123
	c0.134,0.037,0.256,0.331,0.389,0.343C10.669,1.095,10.463,0.776,10.414,0.715L10.414,0.715z M5.06,1.487l0.012-0.012l0.122-0.086
	L5.06,1.487L5.06,1.487z"/>
</svg>
