<?xml version="1.0" encoding="iso-8859-1"?>
<!-- Generator: Adobe Illustrator 19.2.1, SVG Export Plug-In . SVG Version: 6.00 Build 0)  -->
<svg version="1.1" id="Layer_1" xmlns="http://www.w3.org/2000/svg" xmlns:xlink="http://www.w3.org/1999/xlink" x="0px" y="0px"
	 viewBox="0 0 16 16" style="enable-background:new 0 0 16 16;" xml:space="preserve">
<path id="icon_restrictions_copy_2" d="M7.503,9.442v0.824c0.073,0.279,0.352,0.448,0.63,0.376c0.182-0.048,0.327-0.194,0.376-0.376
	V9.442c0.279-0.109,0.485-0.364,0.497-0.667C9.006,8.352,8.558,8,8.012,8S7.018,8.352,7.018,8.776
	C7.018,9.079,7.212,9.345,7.503,9.442z M11.624,6.327H5.491H4.339C3.964,6.352,3.661,6.655,3.661,7.042v4.909
	c0,0.388,0.315,0.715,0.703,0.715l0,0h7.248c0.388,0,0.715-0.327,0.703-0.715l0,0V7.042C12.339,6.655,12.012,6.327,11.624,6.327z
	 M11.624,11.952H4.376V7.042h7.248L11.624,11.952L11.624,11.952z M6.012,6.23V4.921c0-0.703,1.248-1.285,1.988-1.285
	s1.988,0.582,1.988,1.285v1.285c0,0.182,0.145,0.097,0.339,0.097s0.339,0.085,0.339-0.097V4.933c0-1.067-1.552-1.927-2.667-1.927
	S5.333,3.867,5.333,4.933v1.37C5.309,6.291,6.012,6.23,6.012,6.23L6.012,6.23z M8,0C3.576,0,0,3.576,0,8s3.576,8,8,8s8-3.576,8-8
	S12.424,0,8,0z M8,15.067c-3.903,0-7.067-3.164-7.067-7.067S4.097,0.933,8,0.933S15.067,4.097,15.067,8l0,0
	C15.067,11.903,11.903,15.067,8,15.067L8,15.067L8,15.067z"/>
</svg>
