<?xml version="1.0" encoding="iso-8859-1"?>
<!-- Generator: Adobe Illustrator 19.2.1, SVG Export Plug-In . SVG Version: 6.00 Build 0)  -->
<svg version="1.1" id="Layer_1" xmlns="http://www.w3.org/2000/svg" xmlns:xlink="http://www.w3.org/1999/xlink" x="0px" y="0px"
	 viewBox="0 0 16 16" style="enable-background:new 0 0 16 16;" xml:space="preserve">
<path d="M14.783,0H8.626C7.891,0,7.397,0.494,7.397,1.228s0.494,1.228,1.229,1.228h3.205l-9.373,9.358V8.623
	c0-0.735-0.494-1.228-1.229-1.228S0,7.877,0,8.623v6.154c0,0.735,0.494,1.228,1.229,1.228h6.157c0.735,0,1.229-0.494,1.229-1.228
	c0-0.735-0.494-1.228-1.229-1.228H4.181l9.361-9.358v3.204c0,0.735,0.494,1.228,1.229,1.228S16,8.13,16,7.395V1.228
	C16.012,0.494,15.518,0,14.783,0z"/>
</svg>
