<?xml version="1.0" encoding="iso-8859-1"?>
<!-- Generator: Adobe Illustrator 19.2.1, SVG Export Plug-In . SVG Version: 6.00 Build 0)  -->
<svg version="1.1" id="Layer_1" xmlns="http://www.w3.org/2000/svg" xmlns:xlink="http://www.w3.org/1999/xlink" x="0px" y="0px"
	 viewBox="0 0 16 16" style="enable-background:new 0 0 16 16;" xml:space="preserve">
<path id="Shape_23_copy_2" d="M15.67,0.285c-0.427-0.427-1.086-0.427-1.513,0l-3.465,3.563V1.041c0-0.537-0.427-1.086-1.086-1.086
	l0,0c-0.537,0-1.086,0.427-1.086,0.976l0,0v5.515c0,0.537,0.427,1.086,0.976,1.086l0,0h5.308c0.537,0,1.086-0.427,1.086-1.086
	S15.463,5.36,14.804,5.36c0,0,0,0-0.11,0h-2.818l3.575-3.453C16.097,1.468,16.097,0.712,15.67,0.285L15.67,0.285z M0.297,15.756
	c-0.427-0.427-0.427-1.086,0-1.513l3.465-3.575H1.053c-0.537,0-1.086-0.427-1.086-1.086l0,0c0-0.537,0.427-1.086,1.086-1.086l0,0
	h5.308c0.537,0,1.086,0.427,1.086,0.976l0,0v5.308c0,0.537-0.427,1.086-1.086,1.086c-0.537,0-1.086-0.427-1.086-1.086v-2.806
	L1.81,15.548C1.383,16.195,0.736,16.195,0.297,15.756L0.297,15.756L0.297,15.756z"/>
</svg>
