<?xml version="1.0" encoding="iso-8859-1"?>
<!-- Generator: Adobe Illustrator 19.2.1, SVG Export Plug-In . SVG Version: 6.00 Build 0)  -->
<svg version="1.1" id="Layer_1" xmlns="http://www.w3.org/2000/svg" xmlns:xlink="http://www.w3.org/1999/xlink" x="0px" y="0px"
	 viewBox="0 0 16 16" style="enable-background:new 0 0 16 16;" xml:space="preserve">
<path d="M1.612,6.398c0.703,0.097,1.261,0.752,1.261,1.515c0,0.776-0.558,1.43-1.261,1.515C1.552,9.44,1.491,9.44,1.43,9.44
	C0.655,9.452,0,8.761,0,7.913s0.655-1.539,1.442-1.539C1.491,6.361,1.564,6.398,1.612,6.398L1.612,6.398z M8.182,6.398
	c0.703,0.097,1.261,0.752,1.261,1.515s-0.558,1.43-1.261,1.515C8.121,9.44,8.061,9.44,8,9.44c-0.788,0-1.442-0.691-1.442-1.539
	S7.212,6.361,8,6.361C8.061,6.361,8.121,6.398,8.182,6.398L8.182,6.398z M14.739,6.398C15.442,6.495,16,7.149,16,7.913
	s-0.558,1.43-1.261,1.515C14.679,9.44,14.618,9.44,14.558,9.44c-0.788,0-1.442-0.691-1.442-1.539s0.655-1.539,1.442-1.539
	C14.618,6.361,14.691,6.398,14.739,6.398L14.739,6.398z"/>
</svg>
