<?xml version="1.0" encoding="iso-8859-1"?>
<!-- Generator: Adobe Illustrator 19.2.1, SVG Export Plug-In . SVG Version: 6.00 Build 0)  -->
<svg version="1.1" id="Layer_3" xmlns="http://www.w3.org/2000/svg" xmlns:xlink="http://www.w3.org/1999/xlink" x="0px" y="0px"
	 viewBox="0 0 16 16" style="enable-background:new 0 0 16 16;" xml:space="preserve">
<path d="M8,0C3.588,0,0,3.588,0,8s3.588,8,8,8s8-3.588,8-8S12.412,0,8,0z M10.024,11.418c0,0-1.879-2.024-2.024-2.024
	s-2.024,2.024-2.024,2.024L4.8,10.242c0,0,2.024-1.855,2.024-2.024c0-0.17-2.024-2.036-2.024-2.036l1.176-1.176
	c0,0,1.879,2.024,2.024,2.024s2.024-2.024,2.024-2.024L11.2,6.182c0,0-2.024,1.879-2.024,2.024S11.2,10.23,11.2,10.23L10.024,11.418
	z"/>
</svg>
