<?xml version="1.0" encoding="iso-8859-1"?>
<!-- Generator: Adobe Illustrator 19.2.1, SVG Export Plug-In . SVG Version: 6.00 Build 0)  -->
<svg version="1.1" id="Layer_1" xmlns="http://www.w3.org/2000/svg" xmlns:xlink="http://www.w3.org/1999/xlink" x="0px" y="0px"
	 viewBox="0 0 16 16" style="enable-background:new 0 0 16 16;" xml:space="preserve">
<path id="icon_no_image" d="M5.3,6.872C6.089,6.86,6.719,6.217,6.707,5.441C6.695,4.652,6.052,4.021,5.276,4.033
	C4.5,4.046,3.869,4.676,3.869,5.453C3.869,6.241,4.512,6.872,5.3,6.872z M7.423,10.657L4.754,8.74l-2.669,2.875h11.39l-3.202-6.696
	L7.423,10.657z M14.543,1.328H1.37C0.581,1.34-0.049,1.983-0.049,2.772v10.456c0,0.788,0.631,1.431,1.419,1.444h13.161
	c0.788-0.012,1.419-0.655,1.419-1.444V2.772C15.963,1.983,15.332,1.34,14.543,1.328z M14.883,13.034c0,0.291-0.23,0.534-0.534,0.534
	l0,0H1.564c-0.291,0-0.534-0.243-0.534-0.534l0,0V2.954c0-0.291,0.243-0.534,0.534-0.534h12.785c0.291,0,0.534,0.243,0.534,0.534
	V13.034z"/>
</svg>
