<?xml version="1.0" encoding="iso-8859-1"?>
<!-- Generator: Adobe Illustrator 19.2.1, SVG Export Plug-In . SVG Version: 6.00 Build 0)  -->
<svg version="1.1" id="Layer_1" xmlns="http://www.w3.org/2000/svg" xmlns:xlink="http://www.w3.org/1999/xlink" x="0px" y="0px"
	 viewBox="0 0 16 16" style="enable-background:new 0 0 16 16;" xml:space="preserve">
<path id="icon_options" d="M8.861,16H7.212c-0.315,0-0.412,0-1.273-2.17l-0.57-0.242c-1.77,0.824-1.988,0.824-2.073,0.824
	c-0.121,0-0.242-0.048-0.327-0.133l-1.176-1.176c-0.23-0.23-0.291-0.291,0.642-2.448l-0.23-0.558C0,9.297,0,9.2,0,8.861V7.212
	C0,6.885,0,6.8,2.182,5.939l0.23-0.558C1.43,3.273,1.503,3.2,1.733,2.97l1.176-1.176c0.085-0.085,0.206-0.133,0.327-0.133
	c0.085,0,0.303,0,2.109,0.776l0.57-0.242C6.715,0,6.824,0,7.139,0H8.8c0.315,0,0.412,0,1.273,2.182l0.57,0.23
	C12.412,1.6,12.618,1.6,12.715,1.6c0.121,0,0.242,0.048,0.327,0.133l1.176,1.176c0.23,0.23,0.291,0.291-0.642,2.448l0.23,0.558
	C16,6.715,16,6.8,16,7.139V8.8c0,0.327,0,0.412-2.182,1.285l-0.23,0.558c0.982,2.109,0.909,2.182,0.679,2.412l-1.176,1.176
	c-0.085,0.085-0.206,0.133-0.327,0.133l0,0c-0.085,0-0.303,0-2.097-0.776l-0.57,0.242C9.285,16,9.188,16,8.861,16z M7.442,15.103
	h1.176c0.158-0.339,0.461-1.115,0.703-1.782c0.048-0.121,0.133-0.218,0.255-0.267l0.921-0.388c0.109-0.048,0.23-0.048,0.339,0
	c0.667,0.291,1.455,0.606,1.806,0.739l0.824-0.824c-0.133-0.352-0.461-1.115-0.764-1.745c-0.048-0.121-0.061-0.255-0.012-0.376
	l0.376-0.921c0.048-0.109,0.133-0.206,0.255-0.242c0.667-0.267,1.455-0.594,1.794-0.752V7.394C14.764,7.236,14,6.933,13.333,6.691
	c-0.121-0.048-0.218-0.133-0.267-0.255l-0.376-0.921c-0.048-0.121-0.048-0.242,0-0.364c0.291-0.655,0.606-1.43,0.727-1.794
	l-0.824-0.824c-0.352,0.133-1.115,0.461-1.77,0.764c-0.109,0.048-0.242,0.061-0.352,0.012L9.552,2.933
	C9.442,2.885,9.345,2.8,9.309,2.679C9.042,2.012,8.715,1.236,8.558,0.885H7.382C7.224,1.224,6.921,2,6.679,2.667
	C6.642,2.788,6.545,2.885,6.424,2.933L5.503,3.321c-0.109,0.048-0.23,0.048-0.339,0C4.497,3.03,3.709,2.715,3.358,2.594L2.533,3.418
	C2.667,3.77,2.994,4.533,3.297,5.164c0.048,0.121,0.061,0.255,0.012,0.376L2.921,6.461C2.873,6.57,2.788,6.667,2.667,6.703
	C2,6.97,1.224,7.297,0.873,7.455v1.152c0.339,0.158,1.115,0.461,1.782,0.703c0.121,0.048,0.206,0.133,0.255,0.255l0.376,0.921
	c0.048,0.109,0.048,0.242,0,0.364c-0.279,0.655-0.606,1.43-0.727,1.794l0.824,0.824c0.352-0.133,1.115-0.473,1.758-0.764
	c0.109-0.048,0.242-0.061,0.352-0.012l0.921,0.388c0.109,0.048,0.206,0.133,0.242,0.255C6.958,13.988,7.285,14.764,7.442,15.103
	L7.442,15.103z M8,10.873c-1.588,0-2.873-1.285-2.873-2.861c0-1.588,1.285-2.873,2.861-2.873C9.576,5.127,10.861,6.412,10.873,8l0,0
	C10.861,9.588,9.588,10.873,8,10.873z M8,6.036C6.909,6.048,6.036,6.933,6.048,8.012c0.012,1.091,0.897,1.964,1.976,1.952
	S9.976,9.079,9.976,8C9.976,6.909,9.091,6.036,8,6.036L8,6.036z"/>
</svg>
