<?xml version="1.0" encoding="iso-8859-1"?>
<!-- Generator: Adobe Illustrator 19.2.1, SVG Export Plug-In . SVG Version: 6.00 Build 0)  -->
<svg version="1.1" id="Layer_1" xmlns="http://www.w3.org/2000/svg" xmlns:xlink="http://www.w3.org/1999/xlink" x="0px" y="0px"
	 viewBox="0 0 16 16" style="enable-background:new 0 0 16 16;" xml:space="preserve">
<path d="M15.869,1.102L8.501,8.703c-0.158,0.157-0.401,0.145-0.558,0l0.303-1.098c-0.158-0.157-0.158-0.422,0-0.555l6.64-6.901
	c0.158-0.157,0.401-0.145,0.558,0l0.401,0.398C16.003,0.704,16.003,0.97,15.869,1.102L15.869,1.102z M15.918,14.941
	c0.158,0.157,0.146,0.422,0,0.555l-0.401,0.398c-0.158,0.157-0.425,0.157-0.558,0L7.433,8.293c-0.158-0.157-0.146-0.422,0-0.555
	L8.537,6.64c0.158-0.157-0.279,0.531-0.146,0.7L15.918,14.941L15.918,14.941z M8.076,8.703c-0.158,0.157-0.425,0.157-0.558,0
	L0.174,1.102c-0.158-0.157-0.146-0.398,0-0.555l0.401-0.398c0.158-0.157,0.425-0.157,0.558,0l6.64,6.901
	c0.158,0.157,0.146,0.398,0,0.555L8.076,8.703L8.076,8.703z M8.622,8.293l-7.514,7.625c-0.158,0.157-0.425,0.145-0.558,0L0.15,15.52
	c-0.158-0.157-0.158-0.422,0-0.555L7.663,7.34c0.158-0.157-0.279-0.832-0.146-0.7l1.105,1.098C8.756,7.895,8.756,8.148,8.622,8.293
	L8.622,8.293z"/>
</svg>
