<?xml version="1.0" encoding="iso-8859-1"?>
<!-- Generator: Adobe Illustrator 19.2.1, SVG Export Plug-In . SVG Version: 6.00 Build 0)  -->
<svg version="1.1" id="Layer_1" xmlns="http://www.w3.org/2000/svg" xmlns:xlink="http://www.w3.org/1999/xlink" x="0px" y="0px"
	 viewBox="0 0 16 16" style="enable-background:new 0 0 16 16;" xml:space="preserve">
<path d="M15.582,15.005l-4.634-4.767c0.898-1.08,1.456-2.487,1.456-4.039C12.404,2.778,9.699,0,6.363,0S0.322,2.778,0.322,6.199
	s2.705,6.199,6.041,6.199c1.322,0,2.547-0.449,3.53-1.189L14.563,16L15.582,15.005L15.582,15.005z M1.05,6.199
	c0-3.033,2.402-5.483,5.337-5.483s5.337,2.45,5.337,5.483s-2.426,5.483-5.362,5.483S1.05,9.219,1.05,6.199L1.05,6.199z"/>
</svg>
