<?xml version="1.0" encoding="iso-8859-1"?>
<!-- Generator: Adobe Illustrator 19.2.1, SVG Export Plug-In . SVG Version: 6.00 Build 0)  -->
<svg version="1.1" id="Layer_1" xmlns="http://www.w3.org/2000/svg" xmlns:xlink="http://www.w3.org/1999/xlink" x="0px" y="0px"
	 viewBox="0 0 16 16" style="enable-background:new 0 0 16 16;" xml:space="preserve">
<g>
	<path d="M8,14.097c-1.903,0-3.552-0.897-4.594-2.352L6.4,9.648L2.206,8.8L1.103,8.545H1.055L0,14.097l2.497-1.745
		C3.745,14.048,5.745,15.2,8,15.2c3.648,0,6.655-2.945,6.897-6.655h-1.055C13.6,11.648,11.055,14.097,8,14.097z"/>
	<path d="M13.503,3.648C12.255,1.952,10.255,0.8,8,0.8c-3.648,0-6.655,2.945-6.897,6.655h1.055C2.4,4.352,4.897,1.903,8,1.903
		c1.903,0,3.552,0.897,4.606,2.352L9.6,6.352L13.794,7.2l1.103,0.255h0.048L16,1.903L13.503,3.648z"/>
</g>
</svg>
