<?xml version="1.0" encoding="iso-8859-1"?>
<!-- Generator: Adobe Illustrator 19.2.1, SVG Export Plug-In . SVG Version: 6.00 Build 0)  -->
<svg version="1.1" id="Layer_1" xmlns="http://www.w3.org/2000/svg" xmlns:xlink="http://www.w3.org/1999/xlink" x="0px" y="0px"
	 viewBox="0 0 16 16" style="enable-background:new 0 0 16 16;" xml:space="preserve">
<path d="M8,16c-4.412,0-8-3.588-8-8s3.588-8,8-8s8,3.588,8,8S12.412,16,8,16z M12.582,9.43L8.376,5.285
	c-0.085-0.085-0.23-0.085-0.315,0L7.576,5.77L3.782,9.442c-0.085,0.085-0.085,0.23,0,0.315l0.594,0.606
	c0.085,0.085,0.23,0.085,0.315,0l3.527-3.406l3.442,3.406c0.085,0.085,0.23,0.085,0.315,0l0.606-0.606
	C12.667,9.661,12.667,9.515,12.582,9.43z"/>
</svg>
