<?xml version="1.0" encoding="iso-8859-1"?>
<!-- Generator: Adobe Illustrator 19.2.1, SVG Export Plug-In . SVG Version: 6.00 Build 0)  -->
<svg version="1.1" id="Layer_1" xmlns="http://www.w3.org/2000/svg" xmlns:xlink="http://www.w3.org/1999/xlink" x="0px" y="0px"
	 viewBox="0 0 16 16" style="enable-background:new 0 0 16 16;" xml:space="preserve">
<path d="M13.006,4.667l2.085-1.879l-0.97-1.042l-2.436,2.218C10.57,3.479,9.248,3.2,8,3.273C4.594,3.127,1.467,5.079,0,8.133
	c0.764,1.527,1.952,2.715,3.333,3.552l-1.673,1.6l0.909,0.97l2.085-1.952c2.376,0.909,5.079,0.909,7.455-0.339
	c1.673-0.836,2.994-2.23,3.891-3.891C15.309,6.679,14.267,5.491,13.006,4.667z M1.115,8.133C3.127,4.727,7.309,3.406,10.848,4.8
	L8,7.442v-2.23c-1.6,0-2.848,1.321-2.848,2.994c0,0.485,0.133,0.97,0.412,1.394l-1.527,1.467C2.848,10.364,1.806,9.321,1.115,8.133z
	 M8,12.036c-0.909,0-1.733-0.133-2.57-0.352l1.115-1.042c0.485,0.279,1.042,0.412,1.6,0.412c1.6-0.073,2.848-1.321,2.848-2.921
	c0-0.485-0.133-0.909-0.352-1.321l1.527-1.394c1.115,0.691,2.012,1.6,2.715,2.715C13.491,10.57,10.848,12.109,8,12.036z"/>
</svg>
