<?xml version="1.0" encoding="iso-8859-1"?>
<!-- Generator: Adobe Illustrator 19.2.1, SVG Export Plug-In . SVG Version: 6.00 Build 0)  -->
<svg version="1.1" id="Layer_1" xmlns="http://www.w3.org/2000/svg" xmlns:xlink="http://www.w3.org/1999/xlink" x="0px" y="0px"
	 viewBox="0 0 16 16" style="enable-background:new 0 0 16 16;" xml:space="preserve">
<path d="M8,3.127C4.594,3.055,1.467,4.934,0,8c2.291,4.448,7.721,6.121,12.109,3.891C13.782,11.055,15.103,9.661,16,8
	C14.533,4.934,11.406,3.055,8,3.127z M8,11.891C5.152,11.964,2.509,10.497,1.115,8c2.291-3.83,7.236-5.006,11.067-2.715
	c1.115,0.691,2.085,1.6,2.715,2.715C13.491,10.497,10.848,11.964,8,11.891z M8,8V5.079C6.4,5.152,5.152,6.473,5.152,8.073
	c0.061,1.588,1.382,2.848,2.982,2.848C9.733,10.849,10.994,9.6,10.994,8c0-0.764-0.352-1.527-0.909-2.085L8,8z"/>
</svg>
