<?xml version="1.0" encoding="iso-8859-1"?>
<!-- Generator: Adobe Illustrator 19.2.1, SVG Export Plug-In . SVG Version: 6.00 Build 0)  -->
<svg version="1.1" id="Layer_2_copy" xmlns="http://www.w3.org/2000/svg" xmlns:xlink="http://www.w3.org/1999/xlink" x="0px"
	 y="0px" viewBox="0 0 16 16" style="enable-background:new 0 0 16 16;" xml:space="preserve">
<path d="M8.545,12.497c0,0.303-0.255,0.606-0.594,0.606c-0.303,0-0.594-0.255-0.594-0.606c0-0.352,0.255-0.606,0.594-0.606l0,0
	C8.303,11.952,8.545,12.206,8.545,12.497z M7.455,9.697V3.248c0-0.303,0.255-0.497,0.545-0.497c0.255,0,0.497,0.255,0.497,0.497
	v6.448C8.497,10,8.242,10.194,8,10.194l0,0C7.697,10.255,7.455,10,7.455,9.697C7.455,9.745,7.455,9.697,7.455,9.697z M8,0
	C3.6,0,0,3.6,0,8s3.6,8,8,8s8-3.6,8-8l0,0C16,3.6,12.4,0,8,0L8,0z M8,15.055C4.097,15.103,0.945,11.903,0.897,8S4.097,0.945,8,0.945
	S15.055,4.097,15.055,8l0,0C15.055,11.903,11.903,15.055,8,15.055L8,15.055z"/>
</svg>
