<svg xmlns="http://www.w3.org/2000/svg" xmlns:xlink="http://www.w3.org/1999/xlink" width="132" height="7260" viewBox="0 0 132 7260"><svg viewBox="0 0 132 132" width="132" height="132" id="add" y="0"><path d="M125.6 77.5H76.2V123c0 3.7-4 6.8-8.9 6.8h-.6c-4.9 0-8.9-3-8.9-6.8V77.5H6.4c-3.5 0-6.4-4.1-6.4-9v-.6c0-5.1 2.8-9 6.4-9h51.4V10.6c0-3.7 4-6.8 8.9-6.8h.6c4.9 0 8.9 3 8.9 6.8v48.2h49.5c3.5 0 6.4 4.1 6.4 9v.6c-.1 5-2.9 9.1-6.5 9.1z"></path></svg><svg viewBox="0 0 132 132" width="132" height="132" id="add copy" y="132"><path d="M125.6 77.5H76.2V123c0 3.7-4 6.8-8.9 6.8h-.6c-4.9 0-8.9-3-8.9-6.8V77.5H6.4c-3.5 0-6.4-4.1-6.4-9v-.6c0-5.1 2.8-9 6.4-9h51.4V10.6c0-3.7 4-6.8 8.9-6.8h.6c4.9 0 8.9 3 8.9 6.8v48.2h49.5c3.5 0 6.4 4.1 6.4 9v.6c-.1 5-2.9 9.1-6.5 9.1z"></path></svg><svg viewBox="0 0 132 132" width="132" height="132" id="addlg" y="264"><path d="M0 61.9h132v8.2H0v-8.2z"></path><path d="M61.9 0h8.2v132h-8.2V0z"></path></svg><svg viewBox="0 0 132 132" width="132" height="132" id="arrow" y="396"><path d="M132.2 23.5l-66.2 85-66.2-85h132.4z"></path></svg><svg viewBox="0 0 132 132" width="132" height="132" id="back" y="528"><path d="M90.4 131.6L20.5 66 90.4.5l21.1 19.7-49 45.8 49 45.8-21.1 19.8z"></path></svg><svg viewBox="0 0 132 132" width="132" height="132" id="caution" y="660"><path d="M131.5 119.1L69.6 8.9c-2.2-3.6-5.4-3.6-7.6 0L.4 119.1c-2.2 3.6-.4 6.7 4 6.7H128c4 0 5.8-3.2 3.5-6.7zm-60.2-12.5c-1.3 1.3-3.1 1.8-5.4 1.8s-4.5-.4-5.8-1.8c-1.3-1.3-1.8-3.1-1.8-5.4s.4-4.5 1.8-5.4c1.3-1.3 3.1-1.8 5.8-1.8 2.2 0 4.5.4 5.4 1.8.9 1.3 1.8 3.1 1.8 5.4.5 2.3-.4 4-1.8 5.4zm0-20.1H60.6l-2.2-42.4h15.2l-2.3 42.4z"></path></svg><svg viewBox="0 0 132 132" width="132" height="132" id="change" y="792"><path d="M34.7 65.1L6.9 37.7c-.4 0-.9 0-1.3-.4l-3.1-3.1c-.9-.9-.9-1.8 0-2.6L33.8.7c.9-.9 2.2-.9 2.6 0L40 3.8c.9.9.4 1.8 0 2.6L18.3 27.6h102.9V36H17.5l23.4 23.4c.9.9.4 1.8 0 2.6l-3.5 3.1c-1 .9-2.3.9-2.7 0zm94.9 32.2L98.2 66.4c-.9-.9-2.2-.9-2.6 0l-3.5 3.1c-.9.9-.9 1.8 0 2.6l21.6 21.2H10.8v8.4h103.7l-23.4 23.4c-.9.9-.4 1.8 0 2.6l3.1 3.5c.9.9 2.2.9 2.6 0l27.4-27.4c.4 0 .9 0 1.3-.4l3.5-3.1c1.5-.7 1.5-2.1.6-3z"></path></svg><svg viewBox="0 0 132 132" width="132" height="132" id="checked" y="924"><path d="M43.2 89.1l73.3-70.7 15.1 14.7-88.5 85.3L.2 76.9l15.1-14.7 27.9 26.9z"></path></svg><svg viewBox="0 0 132 132" width="132" height="132" id="checkedlg" y="1056"><path d="M130.8 21.2c-1.6-1.6-4.1-1.6-5.7 0l-79.8 80.7L7.1 63.3c-1.6-1.6-4.2-1.6-5.8 0-1.6 1.6-1.6 4.3 0 5.9l40.9 41.4s.1 0 .1.1c0 0 0 .1.1.1 1.6 1.6 4.1 1.6 5.7.1l.1-.1 82.7-83.7c1.5-1.7 1.5-4.3-.1-5.9z"></path></svg><svg viewBox="0 0 132 132" width="132" height="132" id="chevron" y="1188"><path d="M41.4 132l-21.2-19.8 49.2-46.1-49-46.3L41.6 0l70.2 65.9L41.4 132z"></path></svg><svg viewBox="0 0 132 132" width="132" height="132" id="clone" y="1320"><path d="M82.5 33V0H24.8L0 24.8V99h49.5v33H132V33H82.5zM24.8 11.7v13.1H11.7l13.1-13.1zM8.2 90.8V33H33V8.2h41.2V33L49.5 57.8v33H8.2zm66-46.1v13.1h-13l13-13.1zm49.6 79.1h-66V66h24.8V41.2h41.2v82.6z"></path></svg><svg viewBox="0 0 132 132" width="132" height="132" id="close" y="1452"><path d="M129.2 19.9L83.8 65.4l41.9 41.9c3.5 3.5 2.6 9.9-2 14.3l-.6.6c-4.4 4.4-10.8 5.3-14.3 1.8L67.1 82.2l-47.2 47.4c-3.3 3.3-9.6 2.2-14.2-2.4l-.6-.6c-4.6-4.6-5.7-11-2.4-14.3L50 64.9 5.5 20.6C2 17.1 3 10.7 7.4 6.3l.6-.6c4.4-4.4 10.8-5.3 14.3-2L66.6 48 112 2.4c3.3-3.3 9.6-2.2 14.2 2.4l.6.6c4.6 4.9 5.7 11.3 2.4 14.5z"></path></svg><svg viewBox="0 0 132 132" width="132" height="132" id="collapse" y="1584"><path d="M131.4 75.4H.6V56.6h130.8v18.8z"></path></svg><svg viewBox="0 0 132 132" width="132" height="132" id="combinedview" y="1716"><path d="M2 45.9l62.6 35c1.5.7 2.2.4 2.5 0l63-35c1.5-.4 2.5-3.3 0-4.7l-62.6-35c-.7-.4-1.8-.4-2.5 0l-63 35c-2.2 1.1-1.5 4.3 0 4.7zm64.1-34.2l57.2 31.7-57.2 32L8.9 43.7l57.2-32z"></path><path d="M130.2 63.4l-16-9.1c-1.8 1.1-3.6 2.2-5.5 3.3l14.2 8-56.8 32L8.9 65.9l13.8-7.6c-1.5-1.1-4.7-3.3-5.1-3.6l-16 8.7c-2.2 1.1-1.5 4.4 0 4.7L14.4 75l5.8 3.3L65 103.1c1.5.7 2.2.4 2.5 0l44.8-24.8 5.8-3.3 12.4-6.9c1.1-.4 2.2-3.3-.3-4.7z"></path><path d="M130.2 86l-16-9.1c-1.8 1.1-3.6 2.2-5.5 3.3l14.2 8-56.8 32-57.2-32 13.8-7.6c-1.5-1.1-4.7-3.3-5.1-3.6L2 86c-2.2 1.1-1.5 4.4 0 4.7l12.4 6.9 5.8 3.3L65 125.7c1.5.7 2.2.4 2.5 0l44.8-24.8 5.8-3.3 12.4-6.9c1.1-.4 2.2-3.3-.3-4.7z"></path></svg><svg viewBox="0 0 132 132" width="132" height="132" id="customize" y="1848"><path d="M132.4 3.4c-.4-.4-1.5-1.1-2.6-1.1-1.9 0-7.2 0-40.1 28C76.1 42 60.6 56.4 47.3 68.8c-3.8 3.8-7.6 7.2-10.6 10.6-20.4 2.6-23.1 15.5-25.3 26.5-1.9 9.1-3 14-10.6 14.4-1.1 0-2.3 1.1-2.3 2.3 0 1.1.4 2.3 1.5 2.6.4 0 10.6 4.5 22.3 4.5 12.9 0 29.5-5.3 34.8-29.1 15.5-15.9 35.5-38.2 50.7-56.7 8.3-10.2 14.7-18.5 19.3-25 6.1-9.1 7.6-13.2 5.3-15.5zM48.9 74.5l13.2 13.6c-2.6 2.6-5.3 5.3-7.6 7.9L40.9 82.5l8-8zM22 124.8c-4.9 0-9.8-.8-13.6-1.9 4.9-3.4 6.1-9.8 7.6-15.9 2.3-10.2 4.2-20 20.8-22.3l15.1 15.5c-3.8 16.3-13.6 24.6-29.9 24.6zm79.8-81.3c-11 13.2-24.2 28-36.3 40.8L52.3 71.1C65.1 59 79.5 45.4 92.7 34.4c22.7-19.3 31.4-25 34.8-26.5-1.1 3.5-6.4 12.5-25.7 35.6z"></path></svg><svg viewBox="0 0 132 132" width="132" height="132" id="delete" y="1980"><path d="M25.5 37.9V119c0 6.9 5.6 12.5 12.5 12.5h56.1c6.9 0 12.5-5.6 12.5-12.5V37.9H25.5zM50.4 119h-6.2V50.4h6.2V119zm18.7 0h-6.2V50.4h6.2V119zm18.7 0h-6.2V50.4h6.2V119zm18.7-99.8H87.8V6.7c0-3.5-2.7-6.2-6.2-6.2H50.4c-3.5 0-6.2 2.7-6.2 6.2v12.5H25.5c-3.5 0-6.2 2.7-6.2 6.2s2.7 6.2 6.2 6.2h81.2c3.5 0 6.2-2.7 6.2-6.2s-2.9-6.2-6.4-6.2zm-53-9.3h25v9.4h-25V9.9z"></path></svg><svg id="done" viewBox="0 0 132 132" width="132" height="132" y="2112"><style>.st0{display:none}.st1{display:inline}.st2{fill:#231f20}</style><g id="Layer_1_copy" class="st0"><path d="M66.2 49.5c-8.9 0-16.2 7.2-16.2 16.2s7.3 16.2 16.2 16.2c9 0 16.2-7.3 16.2-16.2 0-9-7.2-16.2-16.2-16.2zm0 29.8c-7.5 0-13.6-6.1-13.6-13.6s6.1-13.6 13.6-13.6 13.6 6.1 13.6 13.6-6.1 13.6-13.6 13.6z" id="Layer_3_copy_1_" class="st1"></path><path d="M78 75l-2 2-22-20 2-2 22 20z" id="Layer_5_1_" class="st1"></path></g><g id="Layer_1_copy_2"><path d="M66-.2C29.6-.2-.2 29.2-.2 66s29.8 66.2 66.2 66.2c36.8 0 66.2-29.8 66.2-66.2C132.2 29.2 102.8-.2 66-.2zm0 121.8c-30.6 0-55.6-24.9-55.6-55.6s25-55.6 55.6-55.6 55.6 24.9 55.6 55.6-25 55.6-55.6 55.6z" id="Layer_3_copy_2_"></path><path class="st2" d="M55.8 76.6L34.9 55.8 22.3 68.5l20.8 20.8L55.8 102l50.7-50.3L93.4 39z"></path></g></svg><svg viewBox="0 0 132 132" width="132" height="132" id="dragdrop" y="2244"><path d="M.7 106.8V90.6h114.2v16.2H.7zm16.4-32.6V57.8h114.2v16.4H17.1zM.7 41.5V25.2h114.2v16.2L.7 41.5z"></path></svg><svg viewBox="0 0 132 132" width="132" height="132" id="dragdroplg" y="2376"><path d="M131.7 66l-2.5 2.5c-.4.4-.4.4-.8.4L107.3 90c-.4.4-1.7.4-2.1 0l-2.5-2.5c-.4-.4-.8-1.2 0-2.1l17.8-17.8H71v52.1l16.1-16.5c.4-.4 1.7-.4 2.1 0l2.5 2.5c.4.4.4 1.7 0 2.1l-23.6 24c-.4.4-1.7.4-2.1 0l-2.5-2.5s-.4-.4-.4-.8L42 107.4c-.4-.4-.4-1.7 0-2.1l2.5-2.5c.4-.4 1.2-.8 2.1 0l17.8 17.8V67.7H12.3l16.5 16.1c.4.4.4 1.7 0 2.1l-2.5 2.5c-.4.4-1.7.4-2.1 0L.2 64.8c-.4-.4-.4-1.7 0-2.1l2.5-2.5s.4-.4.8-.4l21.1-21.1c.4-.4 1.7-.4 2.1 0l2.5 2.5c.4.4.4 1.2 0 2.1L11.5 61.1H64V12.3L47.8 28.8c-.4.4-1.7.4-2.1 0l-2.5-2.5c-.4-.4-.4-1.7 0-2.1L66.8.2c.4-.4 1.7-.4 2.1 0l2.5 2.5c.4.4.4.4.4.8l21.1 21.1c.4.4.4 1.7 0 2.1l-2.5 2.5c-.4.4-1.2.8-2.1 0L70.6 11.5v49.6h48.8L102.9 45c-.4-.4-.4-1.2 0-2.1l2.5-2.5c.4-.4 1.7-.4 2.1 0l24 23.6c.6.8.6 1.6.2 2z"></path></svg><svg viewBox="0 0 132 132" width="132" height="132" id="duplicate" y="2508"><path d="M103.5 84.5V94H132V-1H37v28.5h9.5v-19h76v76h-19zM-1 38.6v91.8c.1 1 1 1.7 2 1.6h91c1 .1 1.9-.6 2-1.6V38.6c-.1-1-1-1.7-2-1.6H1c-1-.1-1.9.6-2 1.6zm9.5 7.9h76v76h-76v-76z"></path></svg><svg viewBox="0 0 132 132" width="132" height="132" id="edit" y="2640"><path d="M132 30.5L101.5 0l-12 12-69.3 69.3L0 132l43.7-17.3 7.4-2.9 69.3-69.3 11.6-12zm-30.5-20.2l20.2 20.2-5 5-20.2-20.2 5-5zM12.8 119.2L22.7 94 38 109.3l-25.2 9.9zm33-12.4L25.6 86.6l66-66 20.2 20.2-66 66zM99 38L43.3 94l-5-5L94 33l5 5z"></path></svg><svg viewBox="0 0 132 132" width="132" height="132" id="expand" y="2772"><path d="M132.1 72.4H72.5V132H59.8V72.4H0V59.6h59.6V0h12.7v59.6H132v12.7h.1z"></path></svg><svg viewBox="0 0 132 132" width="132" height="132" id="feedback" y="2904"><path d="M66 132c-36.5 0-66-29.5-66-66S29.5 0 66 0s66 29.5 66 66-29.5 66-66 66zm0-96.6c-17.4 0-31.6 12.9-31.6 28.5 0 7.3 3.1 14.2 8.3 19.1l-8.3 17.4 19.8-10.1c3.8 1.4 7.6 2.1 11.8 2.1 17.7 0 31.6-12.9 31.6-28.5 0-16-14.2-28.5-31.6-28.5zm0 48c-11.8 0-21.9-8.3-21.9-18.8S53.8 45.9 66 45.9s21.9 8.3 21.9 18.8S77.8 83.4 66 83.4z"></path></svg><svg viewBox="0 0 132 132" width="132" height="132" id="filter" y="3036"><path d="M118 0H14c-3 0-5.5 2.5-5.5 5.5 0 1 .3 2.1.9 3 .4.7 45.9 33.3 45.9 33.3h.1v52.5L76.7 132V41.8s45.5-32.6 45.9-33.3c.6-.9.9-1.9.9-3 0-3-2.5-5.5-5.5-5.5z"></path></svg><svg viewBox="0 0 132 132" width="132" height="132" id="filterremove" y="3168"><path d="M66 132c-36.1 0-66-29.9-66-66S29.9 0 66 0s66 29.9 66 66-29.9 66-66 66zm26.4-84.5c1.8-1.8.9-5.3-.9-6.2-1.8-1.8-4.4-2.6-6.2-.9L66.9 59 46.6 39.6c-1.8-1.8-5.3-.9-6.2.9-1.8 1.8-2.6 4.4-.9 6.2L59.8 66 40.5 85.4c-1.8 1.8-.9 5.3.9 6.2 1.8 1.8 4.4 2.6 6.2.9L66.9 73l18.5 18.5c1.8 1.8 5.3.9 6.2-.9 1.8-1.8 2.6-4.4.9-6.2L73.9 66l18.5-18.5z"></path></svg><svg viewBox="0 0 132 132" width="132" height="132" id="gethelp" y="3300"><path d="M66 132c-36.5 0-66-29.5-66-66S29.5 0 66 0s66 29.5 66 66-29.5 66-66 66zm-6.6-35.8c1.4 1.4 2.8 2.1 4.5 2.1 1 0 1.7-.3 2.4-.7.7-.3 1.4-.7 2.1-1.4.7-.7 1-1.4 1.4-2.1.3-.7.3-1.7.3-2.4 0-1.7-.7-3.5-1.7-4.5-1.4-1.4-2.8-2.1-4.5-2.1-1.7 0-3.5.7-4.5 2.1-1.4 1.4-1.7 2.8-1.7 4.5-.4 1.7.3 3.1 1.7 4.5zm22.2-52.4c-1-1.7-2.1-3.1-3.5-4.5s-3.5-2.1-5.6-3.1c-2.1-.7-4.9-1-7.3-1-2.8 0-5.2.3-7.3 1-2.1.7-3.8 1.7-5.2 2.8s-2.4 2.4-3.1 3.8c-.7 1.4-1 2.4-1 3.8 0 .7 0 1.7.3 2.1.3.7.7 1 1.4 1.4.3.3 1 .7 1.7 1 .7.3 1 .3 1.7.3 1 0 2.1-.3 2.4-1 .3-.7 1-1.4 1.7-2.4.7-.7 1.4-1.7 2.4-2.4s2.8-1 4.9-1 3.8.3 5.6 1.4c1.4 1 2.1 2.4 2.1 4.5 0 1-.3 2.1-.7 3.1-.7 1-1 1.7-2.1 2.4-.7.7-1.7 1.4-2.4 2.1-1 .7-1.7 1.4-2.4 1.7s-1.4 1-2.1 1.7c-.7.7-1.4 1.7-1.7 2.8-.7 1-1 2.1-1.4 3.5s-.7 3.1-.7 4.9c0 2.1.3 3.8 1 4.5.7.7 1.7 1 3.5 1 2.1 0 3.5-.3 4.2-1 .7-.7 1-1.4 1-2.4v-3.1c0-1 .3-1.7.7-2.8.3-.7.7-1.7 1.4-2.4s1.4-1.7 2.8-2.8c.7-.3 1.4-1 2.4-2.1 1-1 2.1-2.1 3.1-3.5s2.1-2.8 2.8-4.5c.7-1.7 1-3.5 1-5.6-.2-.8-.5-2.5-1.6-4.2z"></path></svg><svg viewBox="0 0 132 132" width="132" height="132" id="grid" y="3432"><path d="M-.8 43.7V17.1h62.3v26.6H-.8zm71.2 0V17.1h62.3v26.6H70.4zM-.8 79.3V52.7h62.3v26.6H-.8zm71.2 0V52.7h62.3v26.6H70.4zM-.8 114.9V88.3h62.3v26.6H-.8zm71.2 0V88.3h62.3v26.6H70.4z"></path></svg><svg viewBox="0 0 132 132" width="132" height="132" id="helpoff" y="3564"><path d="M59 99.8c1.4 1.4 2.8 2.1 4.9 2.1s3.5-.7 4.9-2.1c1.4-1.4 2.1-2.8 2.1-4.9s-.7-3.5-2.1-4.9c-1.4-1.4-2.8-2.1-4.9-2.1s-3.5.7-4.9 2.1c-1.4 1.4-2.1 2.8-2.1 4.9 0 1.4.7 3.5 2.1 4.9zm20.3-61c-3.5-2.8-8.4-4.2-14-4.2S55.5 36 52 38.8s-5 5.6-5 8.4c0 1.4.7 2.8 1.4 3.5 1.4.7 2.1 1.4 3.5 1.4s2.1 0 2.8-.7c.7-.7 1.4-1.4 1.4-2.1.7-.7 1.4-1.4 2.8-2.1 1.4-.7 2.8-.7 4.9-.7s4.2.7 5.6 1.4c1.4.7 2.1 2.8 2.1 4.2s0 2.1-.7 3.5-1.4 2.1-2.1 2.8c-.7.7-1.4 1.4-2.8 2.1-1.4 1.4-2.1 1.4-2.1 2.1-4.2 3.5-6.3 7.7-6.3 13.3 0 2.1.7 4.2 1.4 4.9.7.7 2.1 1.4 4.2 1.4 3.5 0 5.6-1.4 5.6-3.5v-4.2c0-.7.7-2.1 1.4-3.5s2.1-2.8 3.5-3.5c7-5.6 10.5-10.5 10.5-16.8.8-5.6-.6-9.1-4.8-11.9z"></path><path d="M66 7c32.6 0 59 26.5 59 59 .3 15.6-5.5 30.2-16.4 41.3C97.3 118.6 82.1 125 65.9 125c-32.6 0-59-26.5-59-59C7 33.6 33.6 7 66 7m0-7C29.5 0 0 29.5 0 66s29.5 66 66 66c37.2 0 66.7-29.5 66-66 .1-36.5-29.4-66-66-66z"></path></svg><svg viewBox="0 0 132 132" width="132" height="132" id="helpon" y="3696"><path d="M66 132c-36.5 0-66-29.5-66-66S29.5 0 66 0s66 29.5 66 66c.8 36.5-28.7 66-66 66zm-7-32.3c1.4 1.4 2.8 2.1 4.9 2.1s3.5-.7 4.9-2.1c1.4-1.4 2.1-2.8 2.1-4.9 0-2.1-.7-3.5-2.1-4.9-1.4-1.4-2.8-2.1-4.9-2.1s-3.5.7-4.9 2.1c-1.4 1.4-2.1 2.8-2.1 4.9 0 1.4.7 3.5 2.1 4.9zm20.3-61.1c-3.5-2.8-8.4-4.2-14-4.2s-9.8 1.4-13.3 4.2c-3.6 2.8-5 5.6-5 8.4 0 1.4.7 2.8 1.4 3.5 1.4.7 2.1 1.4 3.5 1.4s2.1 0 2.8-.7c.7-.7 1.4-1.4 1.4-2.1.7-.7 1.4-1.4 2.8-2.1 1.4-.7 2.8-.7 4.9-.7s4.2.7 5.6 1.4c1.4.7 2.1 2.8 2.1 4.2s0 2.1-.7 3.5-1.4 2.1-2.1 2.8c-.7.7-1.4 1.4-2.8 2.1-1.4 1.4-2.1 1.4-2.1 2.1-4.2 3.5-6.3 7.7-6.3 13.3 0 2.1.7 4.2 1.4 4.9.7.7 2.1 1.4 4.2 1.4 3.5 0 5.6-1.4 5.6-3.5v-4.2c0-.7.7-2.1 1.4-3.5s2.1-2.8 3.5-3.5c7-5.6 10.5-10.5 10.5-16.9.8-5.5-.6-9-4.8-11.8z"></path></svg><svg id="info" viewBox="0 0 132 132" width="132" height="132" y="3828"><style>.st0{fill:#231f20}</style><path d="M53 103.7v-4.1h8.1V55H53v-4h20.3v48.6h8.1v4.1H53zm12.2-59.6c-4.5 0-8.1-3.7-8.1-8.1s3.7-8.1 8.1-8.1 8.1 3.7 8.1 8.1-3.6 8.1-8.1 8.1z"></path><path class="st0" d="M66 .2C29.9.2.2 29.5.2 66s29.6 65.8 65.8 65.8c36.5 0 65.8-29.6 65.8-65.8C131.8 29.5 102.5.2 66 .2zM66 124C33.9 124 8 98 8 66S34 8 66 8s58 26 58 58-25.9 58-58 58z"></path></svg><svg viewBox="0 0 132 132" width="132" height="132" id="infoon" y="3960"><path d="M53.3 103.6v-4.1h8.2V55h-8.2v-4.1h20v48.6h8.2v4.1H53.3zm11.9-59.3c-4.5 0-8.2-3.7-8.2-8.2s3.7-8.2 8.2-8.2 8.2 3.7 8.2 8.2c0 4.6-3.7 8.2-8.2 8.2zM66 .6C30 .6.6 30 .6 66S30 131.4 66 131.4 131.4 102 131.4 66c0-36-29-65.4-65.4-65.4z"></path></svg><svg viewBox="0 0 132 132" width="132" height="132" id="library" y="4092"><path d="M111.7 132H21c-4.4 0-7.7-3.3-8.4-7.3-1.1-2.2-1.8-8-3.3-22.7 0-1.1 0-2.9.4-4.4 1.1-2.2 2.9-3.7 5.1-3.7 2.6 0 5.9 1.8 10.6 5.1 4 2.9 6.6 4 10.2 4 8 0 14.6-6.6 14.6-14.3s-6.6-14.3-14.6-14.3c-3.3 0-6.2 1.1-9.9 4-4.4 3.3-7.7 5.1-10.6 5.1s-4.8-1.8-5.5-5.1c0-.4-.4-1.5 0-2.6 1.8-22.3 2.9-28.5 2.9-29.6 1.1-8 5.1-9.1 7.7-9.1h1.5s21.9 2.6 28.9 2.9c1.8 0 3.7-.4 4-1.1.4-.7 0-2.9-2.2-5.9-2.9-4.4-4.8-8-4.8-13.2C47.7 9.1 56.9 0 67.8 0s20.1 9.1 20.1 20.1c0 5.1-1.5 7.3-4.4 12.4l-.7.7c-1.8 3.3-2.2 5.1-1.5 6.2.4.7 1.8 1.1 2.6 1.1h.7c7.7-.7 28.9-2.9 29.3-2.9h1.1c5.1 1.5 7.7 4.8 7.7 9.9v73.9c0 6.2-4.4 10.6-11 10.6zm-94.3-10.6c.4.4.7 1.1.7 1.8 0 1.5 1.5 2.9 2.9 2.9h90.7c3.3 0 5.1-1.8 5.1-5.1V47.2c0-1.8-.4-3.3-3.3-4-3.7.4-21.6 2.2-28.5 2.9-4 .4-7.3-1.1-8.8-4C75.1 40.3 74 36.2 78 30l.4-.4c2.9-4.4 3.7-5.9 3.7-9.1 0-8-6.6-14.3-14.6-14.3s-14.6 6.6-14.6 14.3c0 3.7 1.1 5.9 3.7 9.9 4 5.9 3.7 9.9 2.6 12.1-1.5 2.9-4.8 4.4-9.5 4-7.3-.4-28.2-2.9-29.3-2.9h-.7c-1.5 0-1.8 2.6-2.2 4.4v.4c0 .4-1.1 5.5-2.9 29.3v.8c1.8-.4 5.9-3.3 7.3-4 3.3-2.2 7.7-4.8 13.2-4.8 11.3 0 20.1 9.1 20.1 20.1s-9.1 20.1-20.1 20.1c-5.9 0-9.5-2.2-13.5-5.5-4.8-3.7-6.6-4-6.9-4v1.5c1.6 14 2.3 18.4 2.7 19.5z"></path></svg><svg viewBox="0 0 132 132" width="132" height="132" id="linked" y="4224"><path d="M20.5 78c-2.3 0-4.1-1.8-4.1-4.1V57.5c0-2.3 1.8-4.1 4.1-4.1h37c-2.3-10-10.6-17-20.5-17H20.5C9.4 36.4 0 45.8 0 57.5v17C0 86.2 9.4 95 20.5 95.6H37C46.9 95 55.1 88 57.5 78h-37zm91-41.6H95c-10 0-18.2 7-19.9 17h36.4c2.3 0 4.1 1.8 4.1 4.1v17c0 2.3-1.8 4.1-4.1 4.1h-37c1.8 9.4 10.6 16.4 19.9 17h17c11.7 0 20.5-9.4 20.5-21.1v-17c.1-11.7-9.3-21.1-20.4-21.1zM34 59.8h64.5v11.7H34V59.8z"></path></svg><svg viewBox="0 0 132 132" width="132" height="132" id="list" y="4356"><path d="M-.8 112.7V99.4h133.5v13.3H-.8zm0-26.7V72.7h133.5V86H-.8zm0-26.7V46h133.5v13.3H-.8zm0-26.7V19.3h133.5v13.3H-.8z"></path></svg><svg viewBox="0 0 132 132" width="132" height="132" id="localization" y="4488"><path d="M121.5 30.3c-6.8-10.4-16.3-18.7-27.7-23.9 11.4 5 21.1 13.3 27.7 23.9zM52.1 3.5c-1.3 1-2.5 2.3-3.9 2.8-.7.3-4.4 1.1-4.6 2.3.6 1.7 0 1.7-1.4 4.4-1.5.7-4.2.3-5.5 1.4-1 2.8-3.5 5.3-5.1 7.7 4.1.7-.7 3.7-3 5.3-2.3 1.8-3.1 4.1-4.8 6.2-1.1 1.4-2.7 1.4-3.7 2.8-1.8 2.4-5.2 5.3-6 8.3-2.3 2-2.4 7-3.2 9.8-2 6.9-.1 14.9 5.6 20.1l8.9-1c2.7-2 6-2.8 7.9.3 1.7 3 3.5-.3 5.2 1.1 0 1.8 2 4.1 1.5 6.3-3.2 3.4 4.9 9.8 6.8 12.8 1.1 1.7 3.4 6.3 3.1 8.3-3.1 3.1-.3 7.3 1.8 9.7 3.4 3.9 6.8 8.2 9.8 12.2 2.4.3 4.8.4 7.3.4 1.4 0 2.7-.1 4.1-.1 2-1.1 3.7-2.7 4.9-5.6.4-1.8 4.4-2.3 3.4-5.3-1-3.1 1.5-4.8 4.4-6.5 3.9-2.3 5.1-4.9 4.5-9.4 1.1-1.5-3-7.3-1.5-10.1 1.8-3.5 3.2-5.8 5.6-9 4.1-5.6 7.2-8.6 9.1-15.3 1-3.4 1-4.2.7-7.3-2.3-.6-7.5 5.2-10.1 3.4-2-1.4-4.2-8-7.9-7.7-2.3-.8-4.9-7.6-6.3-10.4-1.7-3.4-5.3-5.6-6.3-9.8 1.4 0 9.7 6.2 9.1 9.4.7 1.8 4.5 6.5 6.3 7 1.3 2.4 1.5 5.6 3.1 7.9 1.3 1.8 10.5-4.9 11.7-6.2-.3-2 1.5-2.7 3-3 .6-1.4.4-1.7 1.3-3 .8-1.3-.1-2.8 1.1-2.8.3-1.7-.4-3.7-1.8-5.1-1.1-1.1-2.7-.7-3.9-1.8l-1.7-2.7c-.4 1 .1 4.6-2.1 3.8-3 1-1.4-1.7-3.5-2.8-.1 3.2-1.1-.4-2.7-1.3-1.1-.6-3.4-2.7-3.4-3.9 3.2.1 4.8 3.1 8.3 4.2l2.1-.6c1.1-1.5 1.8 1.1 2.5 1.5 3.2 1.8 6.6-.7 9.7-.4 1.8 1.3 3.4 3.5 5.5 3.2.8 1.7-.7.4-.6.8.8 1.3 2 2 3.2 2.4l-.1-2.4c2.7 2.1 3.8 6.8 5.6 9.6 1 1.5 2.3 4.8 3.7 7.5-1.4-8.3-4.4-16-8.6-22.8 6.8 10.3 10.5 22.5 10.5 35.7 0 36.3-29.4 65.7-65.8 65.7C29.6 131.5.2 102.1.2 65.8S29.6.3 65.9.3c9.8 0 19.1 2.1 27.4 6-7.6-3.4-16-5.2-24.9-5.2-5.3.1-10.9.9-16.3 2.4zm39.7 108.8c-1 1.3-1.4 4.9 1.4 3.8 5.1-2.1 5.1-10.7 8.7-13.8l.3.6.6-2.7v-.2l-.4-2.7c-1 .4-2.4 3.4-3.2 4.5-2.1 2.8-6.9 3-5.6 7.6-.4-1-.7-1.8-.7-3l-.7.6c-1-1.5 1.8-5.2 1.4-7.2l-1.5 3c-.1-.4-.7.3-1.7.4 0 1.3.8 3.7 1.8 3.8l.1.1c-1.1 1.9 1.1 3.2-.5 5.2zM75.5 13c.3-.3-1.1-.3 0 0-.6-.1-4.6 0-4.5-1.1-1.8.3-3.8 2.8-5.8 1.1-1-1.7 1.3-2.8.7-4.5 1.8-2.1.6 0 2.5-.7l-.6.7c.2 0 11.2 2.2 7.7 4.5zm-4.6 13.8c-.9-.6-1.7-.9-2.9.2-1.5 1.5-3.5-.6-5.5-.1 2-.4-.1-.8 0 0-.1-1.4-4.8-1.5-5.6-.7-2.7 2.5.6 3.4-3.7 2.4-2.5-.6-1.5-3-4.9-2.3l-1.8-1.1c0-1.7 2-3.1 2.3-4.8-2.5-2.4-12.7 5.9-15.3 3.8l7.6-6.6c1.5-3 5.3-3.8 7.5-5.1 2.3-1.4 3.2.8 4.5 2.8 2.4 3.9-2.8 2.1-2.7 4.2 2.7 1 2.5.3 4.2-1.7 1.1-1.3-.3-2.8 1.7-1.7 1.1-1-6.5-5.5-2.3-6.6-.8 1 5.2 4.1 3.2 5.6 2.1 2.7.8 4.6 3.2 5.1 0-1.4-.1-1.1.1-2.1l.7.3c.3-1.3-1.5-2.1-1-3.5 1.7.3.7.8 1-.4h2.3c-1.4 1.8 1.3 1-.1 2.7.4 1.1 1.5 1.3 1.4 2.1 0 .7 7.3 0 8.6-.8-.2.5 1.1 10.9-2.5 8.3zM47.2 18l1.3-.3c.3-1.4 1.5-3.4 1.5-4.8-.9.2-2.5 4-2.8 5.1zm42.9-1.1c-1.4.6-2.7.4-3.8-.6-1.5.1-2.8-3-1.8-3.2-.3-1.3-4.6-3.5-5.6-4.8 0-1.7 2.8-3.9 3.5-1.3l-1.1 1.1c2.1 1.2 8.4 6.3 8.8 8.8zM86.2 6.8l.1-1c1.1.3 2.1 2.7 3.2 2.8-1.2 1.3-2.9-1.3-3.3-1.8zm-44 6.3l.1-.1 1-.7-1.1.8z"></path></svg><svg viewBox="0 0 132 132" width="132" height="132" id="lock" y="4620"><path d="M61.9 77.9v6.8c.6 2.3 2.9 3.7 5.2 3.1 1.5-.4 2.7-1.6 3.1-3.1v-6.8c2.3-.9 4-3 4.1-5.5 0-3.5-3.7-6.4-8.2-6.4s-8.2 2.9-8.2 6.4c0 2.5 1.6 4.7 4 5.5zm34-25.7H35.8c-3.1.2-5.6 2.7-5.6 5.9v40.5c0 3.2 2.6 5.9 5.8 5.9h59.8c3.2 0 5.9-2.7 5.8-5.9V58.1c.2-3.2-2.5-5.9-5.7-5.9zm0 46.4H36.1V58.1h59.8v40.5zM49.6 51.4V40.6C49.6 34.8 59.9 30 66 30s16.4 4.8 16.4 10.6v10.6c0 1.5 1.2.8 2.8.8s2.8.7 2.8-.8V40.7c0-8.8-12.8-15.9-22-15.9s-22 7.1-22 15.9V52c-.2-.1 5.6-.6 5.6-.6zM66 0C29.5 0 0 29.5 0 66s29.5 66 66 66 66-29.5 66-66S102.5 0 66 0zm0 124.3C33.8 124.3 7.7 98.2 7.7 66 7.7 33.8 33.8 7.7 66 7.7c32.2 0 58.3 26.1 58.3 58.3 0 32.2-26.1 58.3-58.3 58.3z"></path></svg><svg viewBox="0 0 132 132" width="132" height="132" id="maximize" y="4752"><path d="M121.8-.9H70.7c-6.1 0-10.2 4.1-10.2 10.2s4.1 10.2 10.2 10.2h26.6L19.5 97.2V70.7c0-6.1-4.1-10.2-10.2-10.2S-.9 64.5-.9 70.7v51.1c0 6.1 4.1 10.2 10.2 10.2h51.1c6.1 0 10.2-4.1 10.2-10.2s-4.1-10.2-10.2-10.2H33.8l77.7-77.7v26.6c0 6.1 4.1 10.2 10.2 10.2s10.2-4.1 10.2-10.2V9.3c.1-6.1-4-10.2-10.1-10.2z"></path></svg><svg viewBox="0 0 132 132" width="132" height="132" id="minimize" y="4884"><path d="M129.1 2.7c-3.5-3.5-8.9-3.5-12.4 0L88.3 31.9v-23c0-4.4-3.5-8.9-8.9-8.9-4.4 0-8.9 3.5-8.9 8v45.2c0 4.4 3.5 8.9 8 8.9H122c4.4 0 8.9-3.5 8.9-8.9s-3.5-8.9-8.9-8.9H98L127.3 16c5.3-3.6 5.3-9.8 1.8-13.3zM3.1 129.5c-3.5-3.5-3.5-8.9 0-12.4l28.4-29.3H9.3c-4.4 0-8.9-3.5-8.9-8.9 0-4.4 3.5-8.9 8.9-8.9h43.5c4.4 0 8.9 3.5 8.9 8v43.5c0 4.4-3.5 8.9-8.9 8.9-4.4 0-8.9-3.5-8.9-8.9v-23l-28.4 29.3c-3.5 5.3-8.8 5.3-12.4 1.7z"></path></svg><svg viewBox="0 0 132 132" width="132" height="132" id="more" y="5016"><path d="M13.3 53.5c5.8.8 10.4 6.2 10.4 12.5 0 6.4-4.6 11.8-10.4 12.5-.5.1-1 .1-1.5.1C5.4 78.7 0 73 0 66s5.4-12.7 11.9-12.7c.4-.1 1 .2 1.4.2zm54.2 0c5.8.8 10.4 6.2 10.4 12.5s-4.6 11.8-10.4 12.5c-.5.1-1 .1-1.5.1-6.5 0-11.9-5.7-11.9-12.7 0-7 5.4-12.7 11.9-12.7.5 0 1 .3 1.5.3zm54.1 0c5.8.8 10.4 6.2 10.4 12.5s-4.6 11.8-10.4 12.5c-.5.1-1 .1-1.5.1-6.5 0-11.9-5.7-11.9-12.7 0-7 5.4-12.7 11.9-12.7.5 0 1.1.3 1.5.3z"></path></svg><svg viewBox="0 0 132 132" width="132" height="132" id="msgdanger" y="5148"><path d="M66 0C29.6 0 0 29.6 0 66s29.6 66 66 66 66-29.6 66-66S102.4 0 66 0zm16.7 94.2S67.2 77.5 66 77.5 49.3 94.2 49.3 94.2l-9.7-9.7s16.7-15.3 16.7-16.7S39.6 51 39.6 51l9.7-9.7S64.8 58 66 58s16.7-16.7 16.7-16.7l9.7 9.7S75.7 66.5 75.7 67.7c0 1.2 16.7 16.7 16.7 16.7l-9.7 9.8z"></path></svg><svg viewBox="0 0 132 132" width="132" height="132" id="msginfo" y="5280"><path d="M66 0C29.6 0 0 29.6 0 66s29.6 66 66 66 66-29.6 66-66S102.4 0 66 0zm7.3 102.4H58.7v-47h14.7v47zm0-55.8H58.7V34.9h14.7v11.7z"></path></svg><svg viewBox="0 0 132 132" width="132" height="132" id="msgsuccess" y="5412"><path d="M66 0C29.6 0 0 29.6 0 66s29.6 66 66 66 66-29.6 66-66S102.4 0 66 0zm4.4 88c0-.3-8.2 8.8-8.2 8.8L34.3 71.3l9.7-9.7 16.7 16.7L91.8 44l9.7 9.7c.3 0-31.1 33.1-31.1 34.3z"></path></svg><svg viewBox="0 0 132 132" width="132" height="132" id="msgwarning" y="5544"><path d="M66 0C29.6 0 0 29.6 0 66s29.6 66 66 66 66-29.6 66-66S102.4 0 66 0zm7.3 104.7H58.7V93h14.7v11.7zm0-20.5H58.7l-2.9-46.9h20.5l-3 46.9z"></path></svg><svg viewBox="0 0 132 132" width="132" height="132" id="noimage" y="5676"><path d="M44.1 56.7c6.5-.1 11.7-5.4 11.6-11.8-.1-6.5-5.4-11.7-11.8-11.6-6.4.1-11.6 5.3-11.6 11.7 0 6.5 5.3 11.7 11.8 11.7zm17.5 31.2l-22-15.8-22 23.7h93.9L85.1 40.6 61.6 87.9zM120.3 11H11.7C5.2 11.1 0 16.4 0 22.9v86.2c0 6.5 5.2 11.8 11.7 11.9h108.5c6.5-.1 11.7-5.4 11.7-11.9V22.9c.1-6.5-5.1-11.8-11.6-11.9zm2.8 96.5c0 2.4-1.9 4.4-4.4 4.4H13.3c-2.4 0-4.4-2-4.4-4.4V24.4c0-2.4 2-4.4 4.4-4.4h105.4c2.4 0 4.4 2 4.4 4.4v83.1z"></path></svg><svg viewBox="0 0 132 132" width="132" height="132" id="options" y="5808"><path d="M73.1 132H59.5c-2.6 0-3.4 0-10.5-17.9l-4.7-2c-14.6 6.8-16.4 6.8-17.1 6.8-1 0-2-.4-2.7-1.1l-9.7-9.7c-1.9-1.9-2.4-2.4 5.3-20.2l-1.9-4.6C0 76.7 0 75.9 0 73.1V59.5c0-2.7 0-3.4 18-10.5l1.9-4.6c-8.1-17.4-7.5-18-5.6-19.9l9.7-9.7c.7-.7 1.7-1.1 2.7-1.1.7 0 2.5 0 17.4 6.4l4.7-2C55.4 0 56.3 0 58.9 0h13.7c2.6 0 3.4 0 10.5 18l4.7 1.9c14.6-6.7 16.3-6.7 17.1-6.7 1 0 2 .4 2.7 1.1l9.7 9.7c1.9 1.9 2.4 2.4-5.3 20.2l1.9 4.6C132 55.4 132 56.1 132 58.9v13.7c0 2.7 0 3.4-18 10.6l-1.9 4.6c8.1 17.4 7.5 18 5.6 19.9l-9.7 9.7c-.7.7-1.7 1.1-2.7 1.1-.7 0-2.5 0-17.3-6.4l-4.7 2C76.6 132 75.8 132 73.1 132zm-11.7-7.4h9.7c1.3-2.8 3.8-9.2 5.8-14.7.4-1 1.1-1.8 2.1-2.2l7.6-3.2c.9-.4 1.9-.4 2.8 0 5.5 2.4 12 5 14.9 6.1l6.8-6.8c-1.1-2.9-3.8-9.2-6.3-14.4-.4-1-.5-2.1-.1-3.1l3.1-7.6c.4-.9 1.1-1.7 2.1-2 5.5-2.2 12-4.9 14.8-6.2V61c-2.9-1.3-9.2-3.8-14.7-5.8-1-.4-1.8-1.1-2.2-2.1l-3.1-7.6c-.4-1-.4-2 0-3 2.4-5.4 5-11.8 6-14.8l-6.8-6.8c-2.9 1.1-9.2 3.8-14.6 6.3-.9.4-2 .5-2.9.1l-7.6-3.1c-.9-.4-1.7-1.1-2-2.1-2.2-5.5-4.9-11.9-6.2-14.8h-9.7c-1.3 2.8-3.8 9.2-5.8 14.7-.3 1-1.1 1.8-2.1 2.2l-7.6 3.2c-.9.4-1.9.4-2.8 0-5.5-2.4-12-5-14.9-6l-6.8 6.8c1.1 2.9 3.8 9.2 6.3 14.4.4 1 .5 2.1.1 3.1l-3.2 7.6c-.4.9-1.1 1.7-2.1 2-5.5 2.2-11.9 4.9-14.8 6.2V71c2.8 1.3 9.2 3.8 14.7 5.8 1 .4 1.7 1.1 2.1 2.1l3.1 7.6c.4.9.4 2 0 3-2.3 5.4-5 11.8-6 14.8l6.8 6.8c2.9-1.1 9.2-3.9 14.5-6.3.9-.4 2-.5 2.9-.1l7.6 3.2c.9.4 1.7 1.1 2 2.1 2.5 5.4 5.2 11.8 6.5 14.6zM66 89.7c-13.1 0-23.7-10.6-23.7-23.6 0-13.1 10.6-23.7 23.6-23.7C79 42.3 89.6 52.9 89.7 66 89.6 79.1 79.1 89.7 66 89.7zm0-39.9c-9 .1-16.2 7.4-16.1 16.3.1 9 7.4 16.2 16.3 16.1 8.9-.1 16.1-7.3 16.1-16.2 0-9-7.3-16.2-16.3-16.2z"></path></svg><svg viewBox="0 0 132 132" width="132" height="132" id="remove" y="5940"><path d="M130.6 8.6l-60.7 63c-1.3 1.3-3.3 1.2-4.6 0l2.5-9.1c-1.3-1.3-1.3-3.5 0-4.6L122.5.7c1.3-1.3 3.3-1.2 4.6 0l3.3 3.3c1.3 1.3 1.3 3.5.2 4.6zm.4 114.7c1.3 1.3 1.2 3.5 0 4.6l-3.3 3.3c-1.3 1.3-3.5 1.3-4.6 0l-62-63c-1.3-1.3-1.2-3.5 0-4.6l9.1-9.1c1.3-1.3-2.3 4.4-1.2 5.8l62 63zM66.4 71.6c-1.3 1.3-3.5 1.3-4.6 0L1.3 8.6C0 7.3.1 5.3 1.3 4L4.6.7C5.9-.6 8.1-.6 9.2.7l54.7 57.2c1.3 1.3 1.2 3.3 0 4.6l2.5 9.1zm4.5-3.4L9 131.4c-1.3 1.3-3.5 1.2-4.6 0l-3.3-3.3c-1.3-1.3-1.3-3.5 0-4.6L63 60.3c1.3-1.3-2.3-6.9-1.2-5.8l9.1 9.1c1.1 1.3 1.1 3.4 0 4.6z"></path></svg><svg viewBox="0 0 132 132" width="132" height="132" id="removelg" y="6072"><path d="M73.8 65.9l58.2 58.2-7.7 7.7-58.2-58.2-58.2 58.7-7.7-8.2 58.2-58.2L.2 7.7 7.9 0l58.2 58.2L124.3 0l7.7 7.7-58.2 58.2z"></path></svg><svg viewBox="0 0 132 132" width="132" height="132" id="restrictions" y="6204"><path d="M66.2 0C30.1 0 .5 29.2.5 65.8s29.6 65.8 65.8 65.8c36.5 0 65.8-29.6 65.8-65.8C132 29.2 102.8 0 66.2 0zm0 123.8c-32.1 0-58-26-58-58s26-58 58-58 58 26 58 58-25.9 58-58 58z"></path><path d="M114.1 103.5l-8.1 8.1-89.3-81.2 8.1-8.1 89.3 81.2z"></path></svg><svg viewBox="0 0 132 132" width="132" height="132" id="search" y="6336"><path d="M128.9 123.7L90.7 84.4c7.4-8.9 12-20.5 12-33.3C102.7 22.9 80.4 0 52.9 0S3.1 22.9 3.1 51.1s22.3 51.1 49.8 51.1c10.9 0 21-3.7 29.1-9.8l38.5 39.5 8.4-8.2zM9.1 51.1c0-25 19.8-45.2 44-45.2s44 20.2 44 45.2-20 45.2-44.2 45.2S9.1 76 9.1 51.1z"></path></svg><svg viewBox="0 0 132 132" width="132" height="132" id="sort" y="6468"><path d="M39.5 97.8V7h-13v90.8l6.5 6.6 6.5-6.6zM67 88.2L33 123-1 88.2l9-9.3 25 25.5 25-25.5 9 9.3zM47 67V55h36v12H47zm0-24V31h60v11.9L47 43zm0-24V7h84v12H47z"></path></svg><svg viewBox="0 0 132 132" width="132" height="132" id="sync" y="6600"><path d="M66 116.3c-15.7 0-29.3-7.4-37.9-19.4l24.7-17.3-34.6-7-9.1-2.1h-.4L0 116.3l20.6-14.4c10.3 14 26.8 23.5 45.4 23.5 30.1 0 54.9-24.3 56.9-54.9h-8.7c-2 25.6-23 45.8-48.2 45.8zm45.4-86.2C101.1 16.1 84.6 6.6 66 6.6c-30.1 0-54.9 24.3-56.9 54.9h8.7c2-25.6 22.6-45.8 48.2-45.8 15.7 0 29.3 7.4 38 19.4L79.2 52.4l34.6 7 9.1 2.1h.4l8.7-45.8-20.6 14.4z"></path></svg><svg viewBox="0 0 132 132" width="132" height="132" id="top" y="6732"><path d="M66 132c-36.4 0-66-29.6-66-66S29.6 0 66 0s66 29.6 66 66-29.6 66-66 66zm37.8-54.2L69.1 43.6c-.7-.7-1.9-.7-2.6 0l-4 4-31.3 30.3c-.7.7-.7 1.9 0 2.6l4.9 5c.7.7 1.9.7 2.6 0l29.1-28.1 28.4 28.1c.7.7 1.9.7 2.6 0l5-5c.7-.8.7-2 0-2.7z"></path></svg><svg viewBox="0 0 132 132" width="132" height="132" id="visibilityoff" y="6864"><path d="M107.3 38.5L124.5 23l-8-8.6-20.1 18.3c-9.2-4-20.1-6.3-30.4-5.7-28.1-1.2-53.9 14.9-66 40.1 6.3 12.6 16.1 22.4 27.5 29.3l-13.8 13.2 7.5 8 17.2-16.1C58 109 80.3 109 99.9 98.7c13.8-6.9 24.7-18.4 32.1-32.1-5.7-11.5-14.3-21.3-24.7-28.1zM9.2 67.1c16.6-28.1 51.1-39 80.3-27.5L66 61.4V43c-13.2 0-23.5 10.9-23.5 24.7 0 4 1.1 8 3.4 11.5L33.3 91.3c-9.8-5.8-18.4-14.4-24.1-24.2zM66 99.3c-7.5 0-14.3-1.1-21.2-2.9l9.2-8.6c4 2.3 8.6 3.4 13.2 3.4 13.2-.6 23.5-10.9 23.5-24.1 0-4-1.1-7.5-2.9-10.9l12.6-11.5c9.2 5.7 16.6 13.2 22.4 22.4C111.3 87.2 89.5 99.9 66 99.3z"></path></svg><svg viewBox="0 0 132 132" width="132" height="132" id="visibilityon" y="6996"><path d="M66 25.8C37.9 25.2 12.1 40.7 0 66c18.9 36.7 63.7 50.5 99.9 32.1 13.8-6.9 24.7-18.4 32.1-32.1-12.1-25.3-37.9-40.8-66-40.2zm0 72.3C42.5 98.7 20.7 86.6 9.2 66c18.9-31.6 59.7-41.3 91.3-22.4 9.2 5.7 17.2 13.2 22.4 22.4C111.3 86.6 89.5 98.7 66 98.1zM66 66V41.9c-13.2.6-23.5 11.5-23.5 24.7.5 13.1 11.4 23.5 24.6 23.5 13.2-.6 23.6-10.9 23.6-24.1 0-6.3-2.9-12.6-7.5-17.2L66 66z"></path></svg><svg viewBox="0 0 132 132" width="132" height="132" id="warning" y="7128"><path d="M70.5 103.1c0 2.5-2.1 5-4.9 5-2.5 0-4.9-2.1-4.9-5s2.1-5 4.9-5c2.9.5 4.9 2.6 4.9 5zm-9-23.1V26.8c0-2.5 2.1-4.1 4.5-4.1 2.1 0 4.1 2.1 4.1 4.1V80c0 2.5-2.1 4.1-4.1 4.1-2.5.5-4.5-1.6-4.5-4.1 0 .4 0 0 0 0zM66 0C29.7 0 0 29.7 0 66s29.7 66 66 66 66-29.7 66-66S102.3 0 66 0zm0 124.2c-32.2.4-58.2-26-58.6-58.2C7 33.8 33.8 7.8 66 7.8s58.2 26 58.2 58.2-26 58.2-58.2 58.2z"></path></svg></svg>