<?xml version="1.0" encoding="utf-8"?>
<!-- Generator: Adobe Illustrator 19.2.1, SVG Export Plug-In . SVG Version: 6.00 Build 0)  -->
<svg version="1.1" id="Layer_1" xmlns="http://www.w3.org/2000/svg" xmlns:xlink="http://www.w3.org/1999/xlink" x="0px" y="0px"
	 viewBox="0 0 19 24" style="enable-background:new 0 0 19 24;" xml:space="preserve">
<style type="text/css">
	.st0{fill:none;stroke:#009CDF;stroke-linecap:round;stroke-linejoin:round;}
</style>
<title>Asset 1</title>
<g id="Layer_2">
	<g id="New_icons">
		<polyline class="st0" points="16.5,2.5 18.5,2.5 18.5,23.5 0.5,23.5 0.5,2.5 2.5,2.5 		"/>
		<path class="st0" d="M11.5,2.5c0-1.1-0.9-2-2-2s-2,0.9-2,2h-3v3h10v-3H11.5z"/>
		<polyline class="st0" points="4.5,4.5 2.5,4.5 2.5,21.5 12.5,21.5 12.5,17.5 16.5,17.5 16.5,4.5 14.5,4.5 		"/>
		<line class="st0" x1="16.5" y1="17.5" x2="12.5" y2="21.5"/>
		<line class="st0" x1="5.5" y1="9.5" x2="13.5" y2="9.5"/>
		<line class="st0" x1="5.5" y1="11.5" x2="13.5" y2="11.5"/>
		<line class="st0" x1="5.5" y1="13.5" x2="13.5" y2="13.5"/>
		<line class="st0" x1="5.5" y1="15.5" x2="10" y2="15.5"/>
	</g>
</g>
</svg>
