<?xml version="1.0" encoding="utf-8"?>
<!-- Generator: Adobe Illustrator 16.0.4, SVG Export Plug-In . SVG Version: 6.00 Build 0)  -->
<!DOCTYPE svg PUBLIC "-//W3C//DTD SVG 1.1//EN" "http://www.w3.org/Graphics/SVG/1.1/DTD/svg11.dtd">
<svg version="1.1" id="Layer_1" xmlns="http://www.w3.org/2000/svg" xmlns:xlink="http://www.w3.org/1999/xlink" x="0px" y="0px"
	 width="164.342px" height="35.818px" viewBox="0 0 164.342 35.818" enable-background="new 0 0 164.342 35.818"
	 xml:space="preserve">
<g>
	<path fill="#FFFFFF" d="M9.133,15.187l-2.202-0.604c-1.521-0.418-2.019-0.891-2.019-1.835c0-1.232,1.049-2.099,2.543-2.099
		c1.365,0,2.596,0.395,4.249,1.391l1.731-2.623c-1.6-1.152-3.855-1.835-6.084-1.835c-3.855,0-6.53,2.309-6.53,5.637
		c0,1.022,0.262,1.968,0.762,2.78c0.655,1.103,1.782,1.81,3.591,2.31l2.02,0.551c1.626,0.446,2.195,1.215,2.195,2.396
		c0,1.151-1.076,2.003-3.043,2.003c-1.836,0-3.159-0.333-4.862-1.226l-1.477,3.069c1.837,1.048,4.144,1.649,6.215,1.649
		c4.538,0,7.526-2.439,7.526-6.136C13.748,17.915,12.123,15.999,9.133,15.187z"/>
	<path fill="#FFFFFF" d="M20.355,8.079l-5.978,18.278h3.828l1.285-4.328h5.349l1.285,4.328h3.934L24.314,8.079H20.355z
		 M20.381,18.988c0.394-1.207,0.63-2.071,0.97-3.383c0.341-1.364,0.865-3.515,0.865-3.515s0.551,2.39,0.734,3.227
		c0.393,1.758,0.996,3.672,0.996,3.672L20.381,18.988L20.381,18.988z"/>
	<path fill="#FFFFFF" d="M41.699,9.022c-1.021-0.575-1.966-0.893-5.061-0.893h-4.799v18.228h3.672v-6.713h2.018
		c2.02,0,2.807-0.209,3.645-0.604c1.994-0.942,3.147-2.884,3.147-5.297C44.322,11.646,43.404,9.967,41.699,9.022z M39.864,15.711
		c-0.499,0.761-0.944,0.943-2.438,0.943h-1.915v-5.56h2.333c1.548,0,2.466,1.022,2.466,2.728
		C40.31,14.688,40.178,15.212,39.864,15.711z"/>
	<polygon fill="#FFFFFF" points="62.748,15.212 57.503,15.212 57.503,8.131 53.857,8.131 53.857,26.357 57.503,26.357 
		57.503,18.228 62.748,18.228 62.748,26.357 66.471,26.357 66.471,8.131 62.748,8.131 	"/>
	<path fill="#FFFFFF" d="M76.086,18.023c-0.208,0.629-0.666,2.045-0.779,2.486c-0.167,0.651-0.521,1.708-0.521,1.708
		s-0.457-1.399-0.694-2.212l-2.293-7.066l-3.634,0.203l4.896,13.382l0.316,0.018c-0.315,0.786-0.308,0.841-0.648,1.392
		c-0.288,0.445-0.603,0.812-0.996,1.102c-0.525,0.367-1.417,0.681-2.176,0.891l1.207,2.308c1.207-0.155,2.36-0.575,3.252-1.23
		c0.97-0.708,1.653-1.838,2.57-4.433l4.876-13.637h-3.696L76.086,18.023z"/>
	<polygon fill="#FFFFFF" points="105.866,26.357 109.38,26.357 109.38,12.617 105.866,13.167 	"/>
	<path fill="#FFFFFF" d="M107.675,7.058c-1.207,0-2.203,0.969-2.203,2.176c0,1.206,0.969,2.177,2.15,2.177
		c1.205,0,2.176-0.971,2.176-2.177S108.854,7.058,107.675,7.058z"/>
	<path fill="#FFFFFF" d="M119.134,18.308l-1.627-0.421c-1.232-0.312-1.678-0.682-1.678-1.362c0-0.788,0.682-1.312,1.705-1.312
		c0.994,0,1.965,0.289,3.305,0.971l1.15-2.359c-1.23-0.604-2.646-1.259-4.797-1.259c-3.123,0-5.193,1.757-5.193,4.379
		c0,0.865,0.287,1.837,0.762,2.413c0.473,0.578,1.572,1.207,2.465,1.364l1.572,0.288c1.418,0.263,2.072,0.734,2.072,1.652
		c0,0.865-0.785,1.521-1.785,1.521c-1.521,0-3.381-0.865-4.455-1.521l-1.258,2.569c1.965,1.022,3.775,1.548,5.428,1.548
		c3.436,0,5.742-1.889,5.742-4.67c0-0.891-0.236-1.652-0.734-2.28C121.337,19.224,120.786,18.727,119.134,18.308z"/>
	<path fill="#FFFFFF" d="M136.409,18.006c0-6.289,1.312-11.273,2.018-13.495l5.311-0.256V0l-8.305,0.398l-0.51,1.259
		c-0.115,0.28-2.764,6.923-2.764,16.349c0,9.419,2.648,16.068,2.764,16.348l0.525,1.3l8.287,0.165v-4.255l-5.324-0.104
		C137.704,29.228,136.409,24.287,136.409,18.006z"/>
	<path fill="#FFFFFF" d="M150.382,21.246c0.262-0.562,0.531-1.125,0.791-1.698c1.709-3.831,3.078-7.996,3.303-8.698l-4.459-0.146
		c-0.438,1.267-1.158,3.291-2.012,5.36c-0.838-2.098-1.521-4.145-1.914-5.384l-4.412,0.215c0.271,0.918,1.518,4.996,3.182,8.718
		c1.1,2.464,2.473,5.095,3.422,6.85l4.828-0.096C153.071,26.3,151.763,23.98,150.382,21.246z"/>
	<path fill="#FFFFFF" d="M161.571,1.657l-0.512-1.259L152.737,0v4.256l5.328,0.257c0.705,2.223,2.02,7.206,2.02,13.494
		c0,6.245-1.301,11.21-2.008,13.452l-5.34,0.104v4.255l8.309-0.165l0.527-1.3c0.111-0.279,2.762-6.929,2.762-16.348
		C164.335,8.581,161.685,1.938,161.571,1.657z"/>
	<path fill="#FFFFFF" d="M89.231,12.59c-1.234,0-2.178,0.341-2.859,1.075c0.053-0.21,0.078-0.786,0.078-1.179V7.11l-3.492,0.244
		c0.004,0.193,0.004,3.496,0.004,3.716v12.429c0,1.863-0.078,2.256-0.339,2.858h3.146c0.236-0.367,0.262-0.498,0.367-0.969
		c0.762,0.838,1.68,1.23,2.99,1.23c1.102,0,2.02-0.312,2.938-1.049c1.65-1.312,2.49-3.437,2.49-6.162
		C94.554,15.212,92.509,12.59,89.231,12.59z M90.175,22.581c-0.287,0.708-0.84,1.05-1.703,1.05c-0.943,0-1.496-0.447-1.969-0.865
		v-6.189c0.447-0.498,1.074-1.075,1.994-1.075s1.65,0.552,1.916,1.705c0.133,0.577,0.156,1.075,0.156,2.282
		C90.567,21.139,90.489,21.847,90.175,22.581z"/>
	<path fill="#FFFFFF" d="M102.011,12.827c-0.656,0.287-1.494,1.021-1.994,1.704c-0.025-0.351-0.084-1.671-0.164-1.964l-3.311,0.669
		c0.162,0.783,0.273,1.843,0.273,3.146v9.977h3.518v-9.493c0.652-0.76,1.363-1.128,2.15-1.128c0.395,0,0.682,0.08,1.021,0.263
		l0.971-3.095c-0.549-0.235-0.785-0.288-1.311-0.288C102.771,12.617,102.3,12.696,102.011,12.827z"/>
</g>
</svg>
