<?xml version="1.0" encoding="utf-8"?>
<!-- Generator: Adobe Illustrator 21.0.2, SVG Export Plug-In . SVG Version: 6.00 Build 0)  -->
<svg version="1.1" id="Layer_1" xmlns="http://www.w3.org/2000/svg" xmlns:xlink="http://www.w3.org/1999/xlink" x="0px" y="0px"
	 viewBox="0 0 28 28" style="enable-background:new 0 0 28 28;" xml:space="preserve">
<style type="text/css">
	.st0{fill:#FFFFFF;}
</style>
<path id="profile" class="st0" d="M14,0C6.3,0,0,6.3,0,14c0,3.7,1.5,7.2,4,9.8l0,0c5.4,5.5,14.3,5.5,19.8,0.1S29.4,9.7,24,4.2
	C21.3,1.5,17.7,0,14,0z M23.1,22.3c-1.2-0.7-5.8-2.4-6.3-2.5v-2.1c1.1-0.7,1.7-2,1.7-3.3c0.5-0.4,0.8-0.9,0.7-1.5
	c0-0.5-0.2-1.1-0.6-1.4c0.5-1.2,0.6-2.5,0.4-3.7c-0.4-1.6-2.5-2.1-4.2-2.1c-1.5,0-3.3,0.4-4,1.6c-0.6-0.1-1.1,0.2-1.4,0.6
	c-0.7,0.9-0.2,2.7,0,3.6c-0.4,0.4-0.6,0.9-0.6,1.5c-0.1,0.6,0.2,1.2,0.7,1.5c0,1.3,0.6,2.5,1.7,3.3v2.1C9.1,20.5,7,21.4,5,22.3
	c-2.1-2.3-3.3-5.2-3.3-8.3C1.7,7.2,7.2,1.7,14,1.7c6.8,0,12.3,5.5,12.3,12.3C26.3,17.1,25.2,20,23.1,22.3z"/>
</svg>
