<?xml version="1.0" encoding="iso-8859-1"?>
<!-- Generator: Adobe Illustrator 16.0.4, SVG Export Plug-In . SVG Version: 6.00 Build 0)  -->
<!DOCTYPE svg PUBLIC "-//W3C//DTD SVG 1.1//EN" "http://www.w3.org/Graphics/SVG/1.1/DTD/svg11.dtd">
<svg version="1.1" id="Ebene_1" xmlns="http://www.w3.org/2000/svg" xmlns:xlink="http://www.w3.org/1999/xlink" x="0px" y="0px"
	 width="172.167px" height="40px" viewBox="0 0 172.167 40" style="enable-background:new 0 0 172.167 40;" xml:space="preserve">
<g>
	<path style="fill:#FFFFFF;" d="M37.715,5.801l-9.724-5.614c-0.354-0.205-0.806-0.083-1.01,0.27
		c-0.204,0.354-0.083,0.806,0.271,1.011l9.354,5.401l0.002,26.112l-9.356,5.403c-0.354,0.204-0.475,0.657-0.271,1.01
		c0.137,0.239,0.386,0.371,0.642,0.371c0.125,0,0.252-0.031,0.369-0.1l9.727-5.616c0.229-0.132,0.37-0.374,0.37-0.639L38.085,6.442
		C38.085,6.178,37.944,5.934,37.715,5.801z"/>
	<path style="fill:#FFFFFF;" d="M11.208,38.38L1.48,32.976L1.481,6.878l9.726-5.404c0.357-0.198,0.486-0.649,0.288-1.005
		c-0.198-0.358-0.648-0.487-1.006-0.289L0.382,5.795c-0.234,0.131-0.38,0.378-0.38,0.647L0,33.411c0,0.267,0.146,0.515,0.38,0.646
		l10.109,5.614c0.114,0.064,0.237,0.094,0.359,0.094c0.259,0,0.511-0.138,0.647-0.381C11.694,39.026,11.565,38.577,11.208,38.38z"/>
	<path style="fill:#FFFFFF;" d="M54.303,13.923c-0.109-0.3-0.353-0.47-0.642-0.47c0,0-0.001,0-0.002,0
		c-0.348-0.028-0.606,0.156-0.71,0.47l-4.351,11.866c-0.02,0.056-0.048,0.142-0.048,0.257c0,0.435,0.283,0.719,0.72,0.719
		c0.332,0,0.594-0.179,0.701-0.472l1.051-2.878h5.353l1.081,2.875c0.108,0.301,0.358,0.475,0.685,0.475
		c0.437,0,0.72-0.284,0.72-0.719c0-0.088-0.016-0.179-0.052-0.285L54.303,13.923z M55.809,21.962h-4.248l2.078-5.719L55.809,21.962z
		"/>
	<path style="fill:#FFFFFF;" d="M65.024,13.436h-3.817c-0.444,0-0.72,0.281-0.72,0.734v11.875c0,0.435,0.282,0.719,0.72,0.719
		c0.437,0,0.719-0.284,0.719-0.719v-4.727h3.098c1.125,0,2.08-0.359,2.844-1.071c0.76-0.725,1.145-1.624,1.145-2.667v-0.375
		c0-1.098-0.387-2.007-1.147-2.701C67.104,13.795,66.149,13.436,65.024,13.436z M65.024,19.897h-3.098v-5.021h3.098
		c0.733,0,1.351,0.225,1.837,0.669c0.479,0.438,0.712,0.981,0.712,1.662v0.375c0,0.681-0.232,1.224-0.712,1.661
		C66.387,19.677,65.768,19.897,65.024,19.897z"/>
	<path style="fill:#FFFFFF;" d="M74.959,13.436h-3.817c-0.444,0-0.72,0.281-0.72,0.734v11.875c0,0.435,0.282,0.719,0.72,0.719
		c0.438,0,0.72-0.284,0.72-0.719v-4.727h3.098c1.125,0,2.08-0.359,2.844-1.071c0.76-0.725,1.145-1.624,1.145-2.667v-0.375
		c0-1.098-0.387-2.007-1.147-2.701C77.04,13.795,76.084,13.436,74.959,13.436z M74.959,19.897h-3.098v-5.021h3.098
		c0.732,0,1.351,0.225,1.838,0.669c0.479,0.438,0.712,0.981,0.712,1.662v0.375c0,0.681-0.233,1.224-0.712,1.661
		C76.321,19.677,75.703,19.897,74.959,19.897z"/>
	<path style="fill:#FFFFFF;" d="M93.106,14.891c0.438,0,0.72-0.282,0.72-0.72c0-0.453-0.274-0.734-0.72-0.734H85.99
		c-0.443,0-0.719,0.281-0.719,0.734v11.875c0,0.435,0.281,0.719,0.719,0.719h7.117c0.438,0,0.72-0.284,0.72-0.719
		c0-0.455-0.274-0.737-0.72-0.737H86.74V20.74h4.991c0.44,0,0.704-0.262,0.704-0.703c0-0.454-0.271-0.736-0.704-0.736H86.74v-4.411
		H93.106z"/>
	<path style="fill:#FFFFFF;" d="M103.031,13.574c-0.137-0.082-0.274-0.124-0.41-0.124c-0.141,0-0.405,0.048-0.599,0.373
		l-2.907,4.883l-2.907-4.884c-0.184-0.307-0.423-0.372-0.59-0.372c-0.132,0-0.27,0.041-0.417,0.124
		c-0.191,0.114-0.309,0.262-0.354,0.439c-0.043,0.177-0.008,0.363,0.105,0.553l3.331,5.549l-3.335,5.589
		c-0.131,0.235-0.131,0.476,0,0.712c0.132,0.237,0.346,0.363,0.618,0.363c0.368,0,0.555-0.197,0.645-0.356l2.905-4.882l2.903,4.875
		c0.091,0.166,0.279,0.363,0.648,0.363c0.278,0,0.503-0.127,0.634-0.363c0.125-0.227,0.12-0.467-0.022-0.72l-3.329-5.582
		l3.329-5.549C103.509,14.184,103.414,13.804,103.031,13.574z"/>
	<path style="fill:#FFFFFF;" d="M113.778,22.121c-0.457-0.053-0.762,0.206-0.815,0.656c-0.069,0.752-0.39,1.394-0.945,1.907
		c-0.554,0.498-1.221,0.75-1.982,0.75h-0.452c-0.83,0-1.515-0.284-2.093-0.86c-0.571-0.586-0.849-1.267-0.849-2.081v-4.739
		c0-0.814,0.278-1.495,0.847-2.079c0.58-0.581,1.265-0.862,2.095-0.862h0.452c0.777,0,1.429,0.253,1.994,0.777
		c0.575,0.53,0.893,1.171,0.95,1.916c0.046,0.427,0.303,0.671,0.704,0.671l0.061-0.001c0.229-0.014,0.407-0.093,0.529-0.239
		c0.118-0.138,0.171-0.32,0.157-0.556c-0.102-1.128-0.576-2.09-1.412-2.858c-0.833-0.783-1.836-1.18-2.983-1.18h-0.452
		c-1.218,0-2.271,0.435-3.132,1.295c-0.849,0.85-1.28,1.897-1.28,3.116v4.739c0,1.217,0.431,2.266,1.28,3.114
		c0.849,0.852,1.903,1.281,3.132,1.281h0.452c1.151,0,2.148-0.379,2.963-1.128c0.851-0.767,1.333-1.719,1.432-2.827
		c0.031-0.287-0.065-0.472-0.153-0.575C114.192,22.258,114.034,22.133,113.778,22.121z"/>
	<path style="fill:#FFFFFF;" d="M124.195,13.452c-0.454,0-0.735,0.274-0.735,0.718v5.194h-6.117V14.17
		c0-0.444-0.281-0.718-0.736-0.718c-0.437,0-0.719,0.282-0.719,0.718v11.843c0,0.437,0.282,0.72,0.719,0.72
		c0.455,0,0.736-0.277,0.736-0.72V20.82h6.117v5.194c0,0.442,0.281,0.72,0.735,0.72c0.454,0,0.734-0.277,0.734-0.72V14.17
		C124.929,13.727,124.648,13.452,124.195,13.452z"/>
	<path style="fill:#FFFFFF;" d="M132.954,13.923c-0.108-0.3-0.352-0.47-0.642-0.47c-0.001,0-0.001,0-0.003,0
		c-0.342-0.031-0.605,0.156-0.71,0.47l-4.351,11.866c-0.02,0.056-0.049,0.142-0.049,0.257c0,0.435,0.281,0.719,0.719,0.719
		c0.332,0,0.595-0.179,0.701-0.472l1.052-2.878h5.353l1.08,2.875c0.109,0.301,0.358,0.475,0.686,0.475
		c0.438,0,0.72-0.284,0.72-0.719c0-0.088-0.017-0.179-0.053-0.285L132.954,13.923z M134.459,21.962h-4.247l2.078-5.719
		L134.459,21.962z"/>
	<path style="fill:#FFFFFF;" d="M147.758,13.467c-0.442,0-0.704,0.263-0.704,0.703v9.526l-6.612-9.924
		c-0.178-0.253-0.409-0.307-0.569-0.307c-0.067,0-0.136,0.007-0.217,0.027c-0.329,0.082-0.518,0.33-0.518,0.678v11.843
		c0,0.453,0.27,0.734,0.704,0.734c0.443,0,0.72-0.281,0.72-0.734v-9.493l6.597,9.924c0.142,0.199,0.349,0.304,0.6,0.304
		c0.441,0,0.703-0.262,0.703-0.702V14.17C148.461,13.73,148.199,13.467,147.758,13.467z"/>
	<path style="fill:#FFFFFF;" d="M159.179,20.257h-2.705c-0.473,0-0.751,0.28-0.751,0.75c0,0.445,0.287,0.721,0.751,0.721h1.985
		v0.797c0,0.779-0.295,1.462-0.875,2.029c-0.565,0.551-1.231,0.817-2.034,0.817h-0.484c-0.815,0-1.495-0.278-2.079-0.847
		c-0.58-0.579-0.862-1.265-0.862-2.094v-4.708c0-0.817,0.282-1.498,0.862-2.078c0.581-0.581,1.259-0.862,2.079-0.862h0.484
		c0.639,0,1.207,0.194,1.74,0.597c0.516,0.376,0.871,0.879,1.057,1.491c0.138,0.483,0.493,0.556,0.692,0.556
		c0.293,0,0.463-0.116,0.554-0.21c0.092-0.096,0.194-0.27,0.181-0.547c-0.017-0.84-0.524-1.678-1.506-2.487l-0.041-0.029
		c-0.928-0.547-1.83-0.825-2.677-0.825h-0.484c-1.207,0-2.251,0.431-3.1,1.281c-0.861,0.86-1.298,1.907-1.298,3.115v4.708
		c0,1.217,0.437,2.271,1.298,3.131c0.849,0.85,1.893,1.28,3.1,1.28h0.484c1.181,0,2.2-0.415,3.033-1.229
		c0.883-0.849,1.331-1.877,1.331-3.057v-1.549C159.914,20.537,159.64,20.257,159.179,20.257z"/>
	<path style="fill:#FFFFFF;" d="M169.457,25.309h-6.366V20.74h4.99c0.44,0,0.706-0.262,0.706-0.703c0-0.454-0.271-0.736-0.706-0.736
		h-4.99v-4.411h6.366c0.438,0,0.721-0.282,0.721-0.72c0-0.453-0.276-0.734-0.721-0.734h-7.116c-0.444,0-0.72,0.281-0.72,0.734
		v11.875c0,0.435,0.282,0.719,0.72,0.719h7.116c0.438,0,0.721-0.284,0.721-0.719C170.178,25.591,169.901,25.309,169.457,25.309z"/>
	<path style="fill:#FFFFFF;" d="M30.706,29.201L30.706,29.201L30.706,29.201c0.004,0,0.007-0.002,0.011-0.002
		c0.043,0,0.084-0.006,0.125-0.015c0.006-0.003,0.012-0.003,0.018-0.005c0.01-0.003,0.02-0.008,0.03-0.01
		c0.03-0.01,0.058-0.021,0.086-0.036c0.007-0.003,0.014-0.003,0.021-0.007c0.003,0,0.006-0.006,0.009-0.008
		c0.007-0.003,0.014-0.008,0.02-0.011c0.017-0.011,0.031-0.023,0.046-0.032c0.016-0.013,0.03-0.023,0.044-0.036
		c0.007-0.007,0.016-0.015,0.023-0.021c0.003-0.003,0.007-0.008,0.011-0.013c0.003-0.002,0.005-0.007,0.008-0.009
		c0.013-0.015,0.025-0.029,0.037-0.044c0.012-0.017,0.022-0.034,0.033-0.05c0.002-0.006,0.005-0.008,0.007-0.012
		c0.001-0.003,0.004-0.005,0.007-0.011c0,0,0-0.003,0.001-0.003c0.004-0.009,0.007-0.017,0.011-0.023
		c0.009-0.019,0.017-0.038,0.023-0.058c0-0.002,0-0.002,0.001-0.002c0.002-0.01,0.008-0.019,0.011-0.029
		c0.002-0.007,0.002-0.015,0.004-0.021c0.005-0.019,0.008-0.041,0.012-0.061c0.001-0.009,0.005-0.021,0.006-0.031
		c0-0.01,0-0.02,0-0.031c0-0.009,0.002-0.017,0.002-0.025c0-0.011-0.002-0.02-0.002-0.03c0-0.009,0-0.021,0-0.03
		s-0.004-0.022-0.006-0.031c-0.003-0.02-0.007-0.039-0.012-0.058c-0.002-0.011-0.002-0.017-0.005-0.027
		c-0.003-0.009-0.008-0.017-0.012-0.025c-0.006-0.02-0.014-0.041-0.023-0.059c-0.005-0.01-0.007-0.017-0.011-0.026
		c0,0-0.001-0.003-0.002-0.003L19.401,6.488c-0.004-0.008-0.01-0.014-0.015-0.021c-0.009-0.017-0.02-0.032-0.031-0.048
		C19.349,6.41,19.344,6.4,19.336,6.392c-0.006-0.008-0.015-0.016-0.022-0.024c-0.011-0.012-0.024-0.023-0.036-0.036
		c-0.008-0.007-0.016-0.015-0.025-0.022c-0.008-0.007-0.018-0.014-0.026-0.02c-0.014-0.011-0.03-0.02-0.046-0.03
		c-0.007-0.005-0.014-0.011-0.022-0.016c-0.001-0.001-0.003-0.001-0.003-0.001c-0.009-0.005-0.019-0.009-0.027-0.013
		c-0.018-0.008-0.036-0.015-0.054-0.022h-0.002c-0.009-0.004-0.018-0.009-0.028-0.011c-0.009-0.004-0.018-0.004-0.028-0.006
		c-0.018-0.004-0.036-0.008-0.054-0.011c-0.022-0.003-0.043-0.006-0.066-0.007c-0.008,0-0.017-0.002-0.026-0.002
		c-0.009,0-0.018,0.002-0.026,0.002c-0.021,0.001-0.044,0.004-0.066,0.007c-0.019,0.002-0.038,0.006-0.055,0.011
		c-0.019,0.005-0.038,0.011-0.057,0.018c-0.019,0.006-0.037,0.014-0.055,0.023c-0.008,0.004-0.016,0.006-0.024,0.01
		c-0.001,0.001-0.003,0.001-0.005,0.002c-0.008,0.004-0.015,0.01-0.023,0.016c-0.016,0.01-0.032,0.02-0.047,0.031
		c-0.008,0.006-0.017,0.011-0.024,0.017c-0.01,0.009-0.018,0.016-0.025,0.024c-0.014,0.013-0.025,0.024-0.038,0.037
		c-0.007,0.009-0.014,0.015-0.021,0.023S18.39,6.41,18.383,6.418c-0.011,0.016-0.021,0.031-0.031,0.048
		c-0.004,0.007-0.01,0.013-0.015,0.021L6.5,28.306c-0.003,0.008-0.006,0.015-0.01,0.022c-0.01,0.021-0.019,0.043-0.026,0.065
		c-0.007,0.017-0.012,0.033-0.017,0.053c-0.005,0.019-0.008,0.038-0.011,0.058c-0.003,0.021-0.005,0.041-0.006,0.062
		c0,0.011-0.003,0.02-0.003,0.03c0,0.009,0.002,0.019,0.003,0.028c0.001,0.019,0.003,0.041,0.006,0.06
		c0.003,0.02,0.006,0.042,0.011,0.061c0.005,0.018,0.01,0.034,0.017,0.053c0.007,0.02,0.014,0.039,0.023,0.058
		c0.007,0.015,0.017,0.032,0.026,0.049c0.01,0.016,0.021,0.033,0.032,0.05c0.011,0.015,0.024,0.029,0.037,0.044
		c0.013,0.014,0.027,0.028,0.042,0.043c0.014,0.013,0.029,0.023,0.044,0.036c0.017,0.013,0.035,0.023,0.054,0.035
		c0.008,0.005,0.014,0.01,0.022,0.016c0.007,0.004,0.014,0.004,0.021,0.009c0.03,0.015,0.062,0.027,0.095,0.036
		c0.013,0.003,0.025,0.01,0.038,0.013c0.04,0.009,0.083,0.015,0.125,0.015c0.003,0,0.006,0.002,0.01,0.002c0,0,0,0,0.001,0H18.87
		H30.706L30.706,29.201z M19.475,21.863V9.163L29.206,27.1L19.475,21.863z M18.264,21.881l-9.725,5.205l9.725-17.923V21.881z
		 M18.264,23.255v4.733H9.421L18.264,23.255z M19.475,23.239l8.827,4.749h-8.827V23.239z"/>
</g>
</svg>
