<svg xmlns="http://www.w3.org/2000/svg" width="173.132" height="40" viewBox="0 0 173.132 40"><g fill="#fff"><path d="M69.032.087h3.134v2.03h-3.134zM63.857 9.097c0-.302.267-.89.8-1.064.443-.143.892-.232 1.467-.211.444.016.84.132 1.136.269v-1.879c-.279-.042-.585-.046-.943-.051-.511-.011-.787.004-1.184.039-.351.031-.825.16-1.275.347v-.354h-3.136v16.26h3.136v-13.356M116.906 8.08h2.252v-1.887h-2.252v-2.422c0-.583.693-1.053 1.567-1.053h.944v-1.916h-.944c-2.596 0-4.702 1.389-4.702 3.104v18.547h3.135v-14.373M159.113 9.214c0-.306.271-.891.805-1.064.439-.141.887-.232 1.462-.21.445.018.844.13 1.139.271v-1.999c-.282-.042-.582-.046-.949-.054-.509-.008-.783.005-1.179.042-.353.031-.824.16-1.277.347v-.354h-3.138v16.26h3.138v-13.239M96.075 9.934v-1.12c0-.229.133-.498.399-.633.217-.114.439-.175.723-.175.29 0 .506.061.726.175.268.135.397.404.397.633v2.019h3.138v-1.92c0-.6-.318-1.449-.967-1.944-.644-.492-1.254-.715-2.053-.837-.516-.08-.863-.127-1.241-.127-.375 0-.716.051-1.228.127-.799.121-1.416.337-2.065.83-.644.492-.966 1.341-.966 1.942v1.5c0 4.65 5.45 4.531 5.45 8.322v1.04c0 .229-.142.501-.421.638-.229.111-.48.175-.771.175-.283 0-.506-.063-.723-.175-.267-.136-.399-.406-.399-.635v-1.911h-3.137l-.002 1.83c0 .646.324 1.544.968 2.049.649.502 1.266.697 2.065.797.512.064.853.104 1.228.104.378 0 .723-.039 1.231-.104.805-.102 1.419-.297 2.064-.799.646-.504 1.056-1.512 1.056-2.157v-1.178c.002-5.673-5.472-4.737-5.472-8.466M77.258 9.924v-1.118c0-.228.129-.498.396-.637.22-.11.442-.171.726-.171s.51.062.726.171c.268.139.399.409.399.637v2.019l3.136-.003v-1.916c0-.603-.321-1.449-.967-1.944-.646-.494-1.259-.716-2.06-.837-.509-.081-.854-.13-1.234-.13-.375 0-.715.051-1.229.13-.799.121-1.417.337-2.064.828-.646.493-.968 1.344-.968 1.942v1.503c0 4.647 5.45 4.531 5.45 8.322v1.039c0 .23-.139.502-.421.639-.23.11-.484.173-.769.173-.283 0-.506-.063-.726-.173-.268-.135-.396-.407-.396-.634v-1.913h-3.139v1.828c0 .649.321 1.548.968 2.053.646.5 1.264.697 2.064.797.51.061.854.1 1.229.1.38 0 .723-.039 1.23-.104.8-.098 1.418-.295 2.063-.799s1.056-1.508 1.056-2.154v-1.179c.001-5.671-5.47-4.74-5.47-8.469"/><path d="M69.032 6.192h3.134v16.257h-3.134zM32.785 8.858c0-.23.134-.501.399-.636.221-.11.441-.172.728-.172s.506.062.723.172c.273.135.404.406.404.636v13.595h3.133v-13.804c0-.6-.321-1.425-.967-1.872-.643-.445-1.263-.606-2.064-.667-.509-.044-.851-.059-1.229-.059-.334 0-.751.059-1.181.183v-6.147h-3.137v22.366h3.19v-13.595M141.183 6.193l-1.741 10.305-1.739-10.305h-3.075l-1.74 10.305-1.741-10.305h-3.074l2.966 16.26h3.434l1.692-8.356 1.692 8.356h3.433l2.968-16.26h-3.075"/><path d="M150.747 22.453h3.134v-13.804c0-.6-.321-1.425-.968-1.874-.646-.443-1.26-.606-2.062-.668-.511-.044-.853-.056-1.228-.056-.381 0-.721.012-1.231.056-.801.062-1.419.225-2.065.668-.646.449-.967 1.274-.967 1.874v1.353h3.137v-1.144c0-.229.135-.501.398-.636.218-.111.441-.172.729-.172.284 0 .506.061.722.172.264.135.401.407.401.636v2.767c-.456-.035-.773-.046-1.123-.046-.381 0-.721.012-1.231.054-.801.062-1.419.224-2.065.67-.646.447-.967 1.273-.967 1.873v5.851c0 .599.321 1.425.967 1.875.646.441 1.045.57 1.846.635.511.039 1.018.039 1.422-.01.412-.049.764-.213 1.152-.41v.336m-.447-2.002c-.216.112-.393.176-.677.176-.287 0-.511-.064-.729-.176-.267-.132-.398-.403-.398-.633v-5.435c0-.23.135-.501.398-.636.218-.109.441-.171.729-.171.284 0 .506.062.722.171.264.135.401.406.401.636v5.435c0 .23-.178.501-.446.633zM171.549 6.777c-.642-.445-1.262-.608-2.063-.67-.51-.044-.851-.056-1.226-.056-.378 0-.724.012-1.233.056-.8.062-1.418.225-2.062.67-.646.447-.968 1.272-.968 1.872l-.002 11.378c0 .603.322 1.429.97 1.875.644.445 1.262.607 2.062.672.51.041.853.053 1.229.053.38 0 .721-.012 1.23-.053.801-.064 1.415-.227 2.063-.672.646-.445.97-1.272.97-1.875v-1.877h-3.139v1.672c0 .228-.132.501-.4.633-.217.111-.437.175-.725.175-.285 0-.505-.063-.725-.175-.264-.132-.401-.406-.401-.633v-4.962h5.39v-6.211c0-.599-.324-1.425-.97-1.872m-2.169 6.223h-2.251v-4.142c0-.229.138-.501.404-.636.217-.111.437-.172.727-.172.286 0 .503.061.722.172.267.135.398.407.398.636v4.142zM126.868 22.547v-1.912h-1.206c-.875 0-1.569-.474-1.569-1.056l.004-11.418h2.246v-1.968h-2.246v-4.602h-3.138v17.852c0 1.718 2.106 3.104 4.703 3.104h1.206"/><path d="M107.728 22.629c.377 0 .719-.012 1.23-.055.798-.062 1.414-.227 2.06-.672s.972-1.272.972-1.872v-11.381c0-.6-.324-1.425-.972-1.872-.643-.444-1.262-.606-2.06-.67-.512-.042-.854-.056-1.23-.056s-.718.015-1.229.056c-.799.063-1.412.226-2.06.67-.648.447-.969 1.272-.969 1.872l-.004 11.381c0 .6.324 1.426.967 1.872.648.445 1.264.609 2.065.672.512.043.854.055 1.23.055m-1.125-13.771c0-.23.137-.5.403-.635.219-.113.435-.173.722-.173.288 0 .508.061.728.173.263.135.396.404.396.635v10.964c0 .229-.134.501-.396.637-.22.109-.441.175-.728.175s-.508-.065-.726-.175c-.263-.135-.399-.408-.399-.637v-10.964zM10.042 16.725c.882-.021 1.865-.124 2.734-.258-.665-1.141-1.249-2.23-1.852-3.449 1.084-2.002 2.057-4.131 2.596-6.222-.847-.162-1.707-.272-2.577-.326-.403 1.178-.87 2.375-1.379 3.574-.508-1.194-.973-2.387-1.373-3.557-.788.058-1.572.161-2.34.311.545 3.453 2.297 6.931 4.191 9.927M3.264 11.249c-.028-2.915.415-5.511 1.283-7.988 1.063-.124 1.496-.151 2.538-.288v-2.973c-1.866.068-3.24.205-5.176.436-1.309 3.422-1.936 6.982-1.908 10.812-.028 3.831.599 7.392 1.908 10.811 1.936.229 3.31.371 5.176.439v-2.977c-1.042-.135-1.475-.161-2.538-.285-.868-2.474-1.311-5.072-1.283-7.987M16.265 11.249c.031 2.915-.409 5.513-1.277 7.988-1.066.124-1.48.149-2.522.285v2.977c1.864-.068 3.229-.211 5.16-.439 1.308-3.418 1.937-6.98 1.905-10.811.031-3.83-.598-7.39-1.905-10.812-1.931-.23-3.296-.367-5.16-.436v2.973c1.042.137 1.456.164 2.522.288.867 2.476 1.308 5.072 1.277 7.987"/><path d="M55.707 22.574c.804-.062 1.417-.225 2.065-.672.645-.445.967-1.269.967-1.872v-11.374c0-.601-.322-1.427-.967-1.873-.648-.447-1.262-.608-2.065-.673-.509-.042-.85-.054-1.229-.054-.321 0-.716.054-1.126.167v-6.136h-3.134v19.943c0 .603.322 1.426.97 1.872.644.447 1.26.609 2.061.672.511.043.856.055 1.229.055.379 0 .72-.012 1.229-.055m-2.354-2.75v-10.96c0-.23.137-.501.404-.636.22-.113.439-.173.722-.173.29 0 .51.06.726.173.268.135.398.406.398.636v10.96c0 .227-.131.5-.398.635-.216.109-.436.175-.726.175-.282 0-.502-.065-.722-.175-.268-.135-.404-.408-.404-.635zM45.67 6.193l-1.467 10.305-1.738-10.305h-3.075l3.326 18.262-1.095 6.301h3.077l1.045-5.77 3.001-18.793h-3.074"/><path d="M78.394 37.168l3.195-9.059h1.122l3.194 9.059h-1.111l-.889-2.584h-3.587l-.888 2.584h-1.036m2.253-3.52h2.928l-1.44-4.232h-.025l-1.463 4.232zM86.86 37.168v-6.436h1.062v.963c.561-.551 1.363-1.098 2.412-1.098 1.233 0 1.902.707 1.902 1.926v4.645h-1.05v-4.414c0-.852-.363-1.254-1.18-1.254-.769 0-1.413.402-2.085 1.037v4.631h-1.061M96.004 34.986l.906-.402c.45 1.207 1.34 1.805 2.559 1.805 1.267 0 2.11-.537 2.11-1.488 0-.889-.487-1.326-2.27-1.889-1.877-.574-2.996-1.086-2.996-2.646 0-1.377 1.181-2.389 2.9-2.389 1.716 0 2.718.879 3.18 2.023l-.854.475c-.486-1.084-1.268-1.523-2.338-1.523-1.146 0-1.83.562-1.83 1.33 0 .963.607 1.279 2.377 1.84 1.816.561 2.889 1.17 2.889 2.707 0 1.488-1.304 2.512-3.216 2.512-1.721-.001-2.94-.927-3.417-2.355"/><path d="M103.239 37.168l3.196-9.059h1.122l3.195 9.059h-1.115l-.884-2.584h-3.587l-.893 2.584h-1.034m2.256-3.52h2.926l-1.438-4.232h-.024l-1.464 4.232zM111.853 37.168v-9.02h3.06c1.952 0 3.258.766 3.258 2.557 0 1.93-1.439 2.65-3.329 2.65h-1.916v3.812h-1.073m1.072-4.765h1.977c1.439 0 2.206-.439 2.206-1.66 0-1.158-.753-1.621-2.22-1.621h-1.963v3.281zM121.573 32.623c0-2.816 1.572-4.646 3.825-4.646 1.915 0 2.928 1.109 3.344 2.766l-1.023.281c-.39-1.365-1.017-2.059-2.331-2.059-1.683 0-2.729 1.414-2.729 3.645 0 2.391 1.071 3.754 2.755 3.754 1.281 0 2.07-.719 2.45-2.182l1.013.232c-.439 1.781-1.585 2.926-3.478 2.926-2.291 0-3.826-1.77-3.826-4.717"/><path d="M129.758 33.949c0-2.219 1.414-3.352 2.999-3.352 1.574 0 2.988 1.133 2.988 3.352 0 2.209-1.414 3.354-2.988 3.354-1.572 0-2.999-1.145-2.999-3.354m4.927 0c0-1.34-.646-2.449-1.928-2.449-1.229 0-1.939.998-1.939 2.449 0 1.367.635 2.465 1.939 2.465 1.221 0 1.928-.99 1.928-2.465zM136.866 37.168v-6.436h1.047v.975c.611-.609 1.355-1.109 2.318-1.109 1.086 0 1.549.463 1.766 1.133.624-.607 1.415-1.133 2.376-1.133 1.321 0 1.869.768 1.869 1.926v4.645h-1.051v-4.414c0-.852-.278-1.254-1.12-1.254-.719 0-1.317.402-1.987 1.037v4.631h-1.048v-4.414c0-.852-.28-1.254-1.124-1.254-.705 0-1.316.402-1.999 1.037v4.631h-1.047"/><path d="M147.688 39.609v-8.877h1.047v.891c.487-.537 1.159-1.025 2.121-1.025 1.475 0 2.621 1.098 2.621 3.34 0 2.244-1.156 3.328-2.73 3.328-.791 0-1.461-.354-2.012-.926v3.27h-1.047m4.743-5.661c0-1.645-.777-2.449-1.818-2.449-.742 0-1.342.402-1.877.988v2.949c.558.635 1.181.977 1.865.977 1.123 0 1.83-.756 1.83-2.465zM154.208 35.645c0-1.305 1.111-2.23 4.306-2.682v-.293c0-.805-.427-1.193-1.22-1.193-.976 0-1.693.426-2.328.975l-.551-.658c.746-.684 1.708-1.195 2.988-1.195 1.537 0 2.148.805 2.148 2.145v2.842c0 .779.047 1.254.182 1.584h-1.074c-.086-.266-.146-.523-.146-.889-.719.67-1.522.986-2.488.986-1.109-.001-1.817-.587-1.817-1.622m4.306-.147v-1.805c-2.45.391-3.269.988-3.269 1.793 0 .621.414.951 1.085.951.854.001 1.587-.353 2.184-.939zM160.967 37.168v-6.436h1.062v.963c.562-.551 1.365-1.098 2.416-1.098 1.231 0 1.899.707 1.899 1.926v4.645h-1.05v-4.414c0-.852-.362-1.254-1.18-1.254-.768 0-1.416.402-2.086 1.037v4.631h-1.061M166.764 39.484l.245-.84c.183.047.5.107.951.107.656 0 .975-.279 1.229-.912l.248-.635-2.488-6.473h1.107l1.89 5.205h.022l1.893-5.205h1.061l-2.756 7.168c-.44 1.133-.938 1.744-2.195 1.744-.574.002-.927-.071-1.207-.159"/></g></svg>