<svg xmlns="http://www.w3.org/2000/svg" width="164.342" height="35.818" viewBox="0 0 164.342 35.818"><g fill="#FFF"><path d="M9.133 15.187l-2.202-.604c-1.521-.418-2.019-.891-2.019-1.835 0-1.232 1.049-2.099 2.543-2.099 1.365 0 2.596.395 4.249 1.391l1.731-2.623c-1.6-1.152-3.855-1.835-6.084-1.835-3.855 0-6.53 2.309-6.53 5.637 0 1.022.262 1.968.762 2.78.655 1.103 1.782 1.81 3.591 2.31l2.02.551c1.626.446 2.195 1.215 2.195 2.396 0 1.151-1.076 2.003-3.043 2.003-1.836 0-3.159-.333-4.862-1.226L.007 25.102c1.837 1.048 4.144 1.649 6.215 1.649 4.538 0 7.526-2.439 7.526-6.136 0-2.7-1.625-4.616-4.615-5.428zm11.222-7.108l-5.978 18.278h3.828l1.285-4.328h5.349l1.285 4.328h3.934L24.314 8.079h-3.959zm.026 10.909c.394-1.207.63-2.071.97-3.383.341-1.364.865-3.515.865-3.515s.551 2.39.734 3.227c.393 1.758.996 3.672.996 3.672l-3.565-.001zm21.318-9.966c-1.021-.575-1.966-.893-5.061-.893h-4.799v18.228h3.672v-6.713h2.018c2.02 0 2.807-.209 3.645-.604 1.994-.942 3.147-2.884 3.147-5.297.001-2.097-.917-3.776-2.622-4.721zm-1.835 6.689c-.499.761-.944.943-2.438.943h-1.915v-5.56h2.333c1.548 0 2.466 1.022 2.466 2.728 0 .866-.132 1.39-.446 1.889zm22.884-.499h-5.245V8.131h-3.646v18.226h3.646v-8.129h5.245v8.129h3.723V8.131h-3.723zm13.338 2.811c-.208.629-.666 2.045-.779 2.486-.167.651-.521 1.708-.521 1.708s-.457-1.399-.694-2.212l-2.293-7.066-3.634.203 4.896 13.382.316.018c-.315.786-.308.841-.648 1.392-.288.445-.603.812-.996 1.102-.525.367-1.417.681-2.176.891l1.207 2.308c1.207-.155 2.36-.575 3.252-1.23.97-.708 1.653-1.838 2.57-4.433l4.876-13.637h-3.696l-1.68 5.088zm29.78 8.334h3.514v-13.74l-3.514.55zm1.809-19.299c-1.207 0-2.203.969-2.203 2.176 0 1.206.969 2.177 2.15 2.177 1.205 0 2.176-.971 2.176-2.177s-.944-2.176-2.123-2.176zm11.459 11.25l-1.627-.421c-1.232-.312-1.678-.682-1.678-1.362 0-.788.682-1.312 1.705-1.312.994 0 1.965.289 3.305.971l1.15-2.359c-1.23-.604-2.646-1.259-4.797-1.259-3.123 0-5.193 1.757-5.193 4.379 0 .865.287 1.837.762 2.413.473.578 1.572 1.207 2.465 1.364l1.572.288c1.418.263 2.072.734 2.072 1.652 0 .865-.785 1.521-1.785 1.521-1.521 0-3.381-.865-4.455-1.521l-1.258 2.569c1.965 1.022 3.775 1.548 5.428 1.548 3.436 0 5.742-1.889 5.742-4.67 0-.891-.236-1.652-.734-2.28-.471-.605-1.022-1.102-2.674-1.521zm17.275-.302c0-6.289 1.312-11.273 2.018-13.495l5.311-.256V0l-8.305.398-.51 1.259c-.115.28-2.764 6.923-2.764 16.349 0 9.419 2.648 16.068 2.764 16.348l.525 1.3 8.287.165v-4.255l-5.324-.104c-.707-2.232-2.002-7.173-2.002-13.454z"/><path d="M150.382 21.246c.262-.562.531-1.125.791-1.698 1.709-3.831 3.078-7.996 3.303-8.698l-4.459-.146a100.143 100.143 0 0 1-2.012 5.36 81.443 81.443 0 0 1-1.914-5.384l-4.412.215c.271.918 1.518 4.996 3.182 8.718 1.1 2.464 2.473 5.095 3.422 6.85l4.828-.096c-.04-.067-1.348-2.387-2.729-5.121z"/><path d="M161.571 1.657l-.512-1.259L152.737 0v4.256l5.328.257c.705 2.223 2.02 7.206 2.02 13.494 0 6.245-1.301 11.21-2.008 13.452l-5.34.104v4.255l8.309-.165.527-1.3c.111-.279 2.762-6.929 2.762-16.348 0-9.424-2.65-16.067-2.764-16.348zM89.231 12.59c-1.234 0-2.178.341-2.859 1.075.053-.21.078-.786.078-1.179V7.11l-3.492.244c.004.193.004 3.496.004 3.716v12.429c0 1.863-.078 2.256-.339 2.858h3.146c.236-.367.262-.498.367-.969.762.838 1.68 1.23 2.99 1.23 1.102 0 2.02-.312 2.938-1.049 1.65-1.312 2.49-3.437 2.49-6.162 0-4.195-2.045-6.817-5.323-6.817zm.944 9.991c-.287.708-.84 1.05-1.703 1.05-.943 0-1.496-.447-1.969-.865v-6.189c.447-.498 1.074-1.075 1.994-1.075s1.65.552 1.916 1.705c.133.577.156 1.075.156 2.282-.002 1.65-.08 2.358-.394 3.092zm11.836-9.754c-.656.287-1.494 1.021-1.994 1.704-.025-.351-.084-1.671-.164-1.964l-3.311.669c.162.783.273 1.843.273 3.146v9.977h3.518v-9.493c.652-.76 1.363-1.128 2.15-1.128.395 0 .682.08 1.021.263l.971-3.095c-.549-.235-.785-.288-1.311-.288-.393-.001-.864.078-1.153.209z"/></g></svg>