<svg xmlns="http://www.w3.org/2000/svg" viewBox="872 2477.5 20 18.554"><defs><style>.cls-1,.cls-2{fill:none;stroke:#fff;stroke-linejoin:round;stroke-miterlimit:10}.cls-2{stroke-linecap:round}</style></defs><g id="icon-feedback" transform="translate(871.999 2476.5)"><path id="Path_65" data-name="Path 65" class="cls-1" d="M19.5 9.252C19.5 13.532 15.248 17 10 17a11.4 11.4 0 0 1-3.328-.489l-5.459 2.543 2.138-4.268A7.112 7.112 0 0 1 .5 9.252C.5 4.97 4.753 1.5 10 1.5s9.5 3.47 9.5 7.752z"/><path id="Path_66" data-name="Path 66" class="cls-1" d="M12.826 15.413a.413.413 0 0 1-.413.413.413.413 0 0 1-.413-.413.413.413 0 0 1 .413-.413.413.413 0 0 1 .413.413z" transform="translate(-1.999 -2.347)"/><path id="Path_67" data-name="Path 67" class="cls-2" d="M9.5 7.978a2.478 2.478 0 1 1 2.478 2.478V11.7" transform="translate(-1.565 -.696)"/></g></svg>