<svg id="Layer_1" xmlns="http://www.w3.org/2000/svg" viewBox="0 0 28 28"><style>.st0{fill:#fff}</style><path id="profile" class="st0" d="M14 0C6.3 0 0 6.3 0 14c0 3.7 1.5 7.2 4 9.8 5.4 5.5 14.3 5.5 19.8.1s5.6-14.2.2-19.7C21.3 1.5 17.7 0 14 0zm9.1 22.3c-1.2-.7-5.8-2.4-6.3-2.5v-2.1c1.1-.7 1.7-2 1.7-3.3.5-.4.8-.9.7-1.5 0-.5-.2-1.1-.6-1.4.5-1.2.6-2.5.4-3.7-.4-1.6-2.5-2.1-4.2-2.1-1.5 0-3.3.4-4 1.6-.6-.1-1.1.2-1.4.6-.7.9-.2 2.7 0 3.6-.4.4-.6.9-.6 1.5-.1.6.2 1.2.7 1.5 0 1.3.6 2.5 1.7 3.3v2.1c-2.1.6-4.2 1.5-6.2 2.4C2.9 20 1.7 17.1 1.7 14 1.7 7.2 7.2 1.7 14 1.7c6.8 0 12.3 5.5 12.3 12.3 0 3.1-1.1 6-3.2 8.3z"/></svg>